<svg xmlns="http://www.w3.org/2000/svg" viewBox="0 0 1200 600"><defs><style>.cls-1{fill:none;stroke:#00de76;stroke-linecap:round;stroke-linejoin:round;stroke-width:2.5px;stroke-dasharray:0.1 7;}.cls-2{fill:#060;}.cls-3{fill:#00de76;}</style></defs><g id="Layer_1" data-name="Layer 1"><line class="cls-1" x1="486.34" y1="105.98" x2="704.86" y2="105.98"/><line class="cls-1" x1="486.34" y1="488.92" x2="704.86" y2="488.92"/><path class="cls-2" d="M594,274.29V310H571.46v38.41H529.34V310H453.77V270.58l77.3-94.9h40.39v98.61Zm-63.43,0V218.54h-.5l-43.61,55.75Z"/><path class="cls-2" d="M605.16,261.9c0-46.08,18.58-88.45,67.64-88.45,50.54,0,70.37,42.37,70.37,88.45s-19.83,88.71-70.37,88.71C623.74,350.61,605.16,308,605.16,261.9Zm97.37,0c0-22.54-.74-54.26-28.49-54.26-26.76,0-28.25,31.72-28.25,54.26s1.49,54.51,28.25,54.51C701.79,316.41,702.53,284.45,702.53,261.9Z"/><path class="cls-2" d="M454.35,176.9H449v-1.81h12.93v1.81H456.5v14.36h-2.15Z"/><path class="cls-2" d="M470.52,174.71c5.14,0,7.74,4.07,7.74,8.47s-2.6,8.47-7.74,8.47-7.75-4.08-7.75-8.47S465.38,174.71,470.52,174.71Zm0,15.12c3.94,0,5.59-3.39,5.59-6.65s-1.65-6.66-5.59-6.66-5.6,3.4-5.6,6.66S466.58,189.83,470.52,189.83Z"/><path class="cls-2" d="M480.89,175.09H488c3.22,0,5,1.79,5,4.78s-1.74,4.8-5,4.78h-4.93v6.61h-2.16Zm2.16,7.75h4.21c2.42,0,3.53-1,3.53-3s-1.11-3-3.53-3h-4.21Z"/><path class="cls-2" d="M448.67,385.59h8.4v7.85h.15c1-4.32,6.36-8.95,11.85-8.95a20.78,20.78,0,0,1,3.37.24v8.63a31.25,31.25,0,0,0-3.84-.4c-6.12,0-11,5-11,13.89v19.3h-8.95Z"/><path class="cls-2" d="M509.47,417.13c0,2.19.47,3.06,2.12,3.06a12.05,12.05,0,0,0,2.19-.16v6.2a22.47,22.47,0,0,1-5.65,1c-3.6,0-6.19-1.26-6.9-4.95-3.53,3.45-9.26,4.95-14,4.95-7.3,0-13.89-3.93-13.89-11.85,0-10.12,8.08-11.77,15.61-12.63,6.44-1.18,12.16-.47,12.16-5.73,0-4.62-4.78-5.49-8.39-5.49-5,0-8.55,2-8.94,6.43h-8.95c.63-10.43,9.5-13.49,18.44-13.49,7.92,0,16.24,3.22,16.24,11.77Zm-8.94-11.3c-2.75,1.8-7.07,1.73-11,2.43s-7.29,2-7.29,6.75c0,4,5.1,5.18,8.23,5.18,3.93,0,10-2,10-7.69Z"/><path class="cls-2" d="M518.33,385.59h8.47v6l.16.16a14.54,14.54,0,0,1,12.63-7.22c8.79,0,14.36,4.71,14.36,13.81v27.85h-9v-25.5c-.15-6.35-2.66-9.1-7.92-9.1-6,0-9.81,4.71-9.81,10.67v23.93h-8.94Z"/><path class="cls-2" d="M562.81,370.14h8.94V402l16.16-16.4h11L583.36,400.5l17,25.65h-10.9l-12.39-19.69-5.34,5.17v14.52h-8.94Z"/><path class="cls-2" d="M604.15,370.14h8.94v8.47h-8.94Zm0,15.45h8.94v40.56h-8.94Z"/><path class="cls-2" d="M622,385.59h8.48v6l.15.16a14.54,14.54,0,0,1,12.63-7.22c8.79,0,14.36,4.71,14.36,13.81v27.85h-8.94v-25.5c-.16-6.35-2.67-9.1-7.93-9.1-6,0-9.8,4.71-9.8,10.67v23.93h-9Z"/><path class="cls-2" d="M703.77,424c0,12.16-7.14,18.2-19.92,18.2-8.16,0-17.34-3.14-18.12-12.63h8.94c1.1,5.1,5.18,6,9.73,6,7.21,0,10.43-3.69,10.43-10.35V419h-.16a13.88,13.88,0,0,1-12.16,7.14c-12.86,0-18.19-9.73-18.19-21.34,0-10.9,6.82-20.32,18.35-20.32,5.1,0,9.73,2.12,12,6.67h.16v-5.57h8.94ZM694.83,405c0-7-3.14-13.42-10.9-13.42-7.93,0-10.67,7.38-10.67,14.12s3.21,13.42,10.67,13.42C691.85,419.09,694.83,411.87,694.83,405Z"/><path class="cls-2" d="M718.75,413.13c.48,5.17,4.4,7.06,9.18,7.06,3.38,0,9.26-.71,9-5.34s-6.74-5.25-13.25-6.74-13-3.77-13-12c0-8.86,9.58-11.61,17-11.61,8.31,0,15.85,3.45,16.94,12.48h-9.33c-.79-4.24-4.32-5.42-8.24-5.42-2.59,0-7.37.63-7.37,4.16,0,4.39,6.59,5,13.18,6.51s13.1,3.85,13.1,11.85c0,9.65-9.73,13.18-18.12,13.18-10.2,0-17.81-4.55-18-14.12Z"/><path class="cls-2" d="M507.12,31.18h2.57l9.56,14.73h.06V31.18h2.28V49.34H519l-9.49-14.57h0V49.34h-2.29Z"/><path class="cls-2" d="M530.83,35.89c4.17,0,6.38,3,6.38,6.89s-2.21,6.87-6.38,6.87-6.39-3-6.39-6.87S526.66,35.89,530.83,35.89Zm0,11.85c2.26,0,4.09-1.78,4.09-5s-1.83-5-4.09-5-4.1,1.78-4.1,5S528.56,47.74,530.83,47.74Z"/><path class="cls-2" d="M542.76,36.19h2.62V38.1h-2.62v8.16c0,1,.28,1.17,1.62,1.17h1v1.91h-1.66c-2.23,0-3.13-.46-3.13-2.87V38.1h-2.23V36.19h2.23V32.25h2.17Z"/><path class="cls-2" d="M560.51,35.89c4.17,0,6.39,3,6.39,6.89s-2.22,6.87-6.39,6.87-6.38-3-6.38-6.87S556.34,35.89,560.51,35.89Zm0,11.85c2.26,0,4.1-1.78,4.1-5s-1.84-5-4.1-5-4.1,1.78-4.1,5S558.25,47.74,560.51,47.74Z"/><path class="cls-2" d="M569.44,36.19h2v2.09h0a4.58,4.58,0,0,1,4.28-2.39c3.46,0,4.53,2,4.53,4.8v8.65h-2.17v-8.9a2.47,2.47,0,0,0-2.67-2.64c-2.62,0-3.89,1.75-3.89,4.12v7.42h-2.16Z"/><path class="cls-2" d="M594.8,45.17a5.31,5.31,0,0,1-5.62,4.48c-4.2,0-6.18-2.9-6.31-6.92s2.59-6.84,6.18-6.84c4.65,0,6.08,4.35,6,7.53h-9.84a3.87,3.87,0,0,0,4.09,4.32,3.17,3.17,0,0,0,3.41-2.57Zm-2.09-3.66a3.78,3.78,0,0,0-3.79-3.71,3.74,3.74,0,0,0-3.76,3.71Z"/><path class="cls-2" d="M609.6,31.18h2.67l7.1,18.16H616.7l-2-5.47H607l-2,5.47h-2.5Zm-1.81,10.66H614l-3-8.47h0Z"/><path class="cls-2" d="M631.65,36.5c-.28-2.6-2-3.72-4.5-3.72-2,0-4.07.74-4.07,3.11s2.9,2.57,5.83,3.23,5.8,1.68,5.8,5.24c0,3.86-3.79,5.42-7.1,5.42-4.07,0-7.5-2-7.5-6.41h2.28c0,3.05,2.55,4.37,5.3,4.37,2.18,0,4.6-.69,4.6-3.31s-2.9-2.92-5.8-3.56-5.83-1.47-5.83-4.8c0-3.69,3.29-5.32,6.59-5.32,3.72,0,6.54,1.75,6.69,5.75Z"/><path class="cls-2" d="M637.63,31.18h12.54v2H640.05V39h9.43v2h-9.43v6.28h10.2v2H637.63Z"/><path class="cls-2" d="M658.11,31.18h2.67l7.09,18.16H665.2l-2-5.47h-7.68l-2,5.47H651ZM656.3,41.84h6.16l-3-8.47h0Z"/><path class="cls-2" d="M669.63,31.18h2.57l9.56,14.73h0V31.18h2.29V49.34h-2.64L672,34.77h-.05V49.34h-2.29Z"/><path class="cls-2" d="M481.05,73.12a3.05,3.05,0,0,0-3.26-2.62c-3.12,0-4.09,2.47-4.09,5.14,0,2.41,1.09,4.8,3.84,4.8a3.39,3.39,0,0,0,3.61-3.2h2.22c-.49,3.2-2.5,5.11-5.8,5.11-4,0-6.16-2.8-6.16-6.71s2-7,6.21-7c3,0,5.36,1.4,5.67,4.53Z"/><path class="cls-2" d="M491.45,68.59c4.18,0,6.39,3,6.39,6.89s-2.21,6.87-6.39,6.87-6.38-3-6.38-6.87S487.28,68.59,491.45,68.59Zm0,11.85c2.27,0,4.1-1.78,4.1-5s-1.83-5-4.1-5-4.09,1.78-4.09,5S489.19,80.44,491.45,80.44Z"/><path class="cls-2" d="M511.27,82.05h-2V80h-.05a4.56,4.56,0,0,1-4.27,2.39c-3.46,0-4.53-2-4.53-4.8V68.9h2.16v8.9a2.48,2.48,0,0,0,2.67,2.64c2.62,0,3.9-1.75,3.9-4.12V68.9h2.16Z"/><path class="cls-2" d="M514.52,68.9h2V71h.05a4.57,4.57,0,0,1,4.27-2.39c3.46,0,4.53,2,4.53,4.81v8.65h-2.16V73.14a2.48,2.48,0,0,0-2.67-2.64c-2.62,0-3.89,1.75-3.89,4.12v7.43h-2.17Z"/><path class="cls-2" d="M531.67,68.9h2.62v1.9h-2.62V79c0,1,.28,1.17,1.63,1.17h1v1.91h-1.66c-2.23,0-3.13-.46-3.13-2.88V70.8h-2.23V68.9h2.23V65h2.17Z"/><path class="cls-2" d="M536.6,68.9h2v2.77h.05a4.77,4.77,0,0,1,4.83-3.08v2.29c-3.48,0-4.76,2-4.76,5.32v5.85H536.6Z"/><path class="cls-2" d="M550.31,83.8c-1,2.57-1.88,3.51-3.81,3.51a4.24,4.24,0,0,1-1.5-.23v-2a4.21,4.21,0,0,0,1.27.3,1.87,1.87,0,0,0,1.78-1.19l.89-2.24L543.72,68.9h2.44L550,79.66h0l3.69-10.76H556Z"/><path class="cls-2" d="M564.94,68.9h2v1.93h0a4.84,4.84,0,0,1,4.25-2.24,3.49,3.49,0,0,1,3.61,2.24A4.86,4.86,0,0,1,579,68.59c2.62,0,4.38,1.09,4.38,3.82v9.64h-2.16V73.42c0-1.62-.44-2.92-2.55-2.92a3.18,3.18,0,0,0-3.43,3.36v8.19h-2.16V73.42c0-1.7-.54-2.92-2.47-2.92a3.54,3.54,0,0,0-3.51,3.36v8.19h-2.16Z"/><path class="cls-2" d="M598.28,82a3,3,0,0,1-1.55.35c-1.12,0-1.83-.61-1.83-2a5.84,5.84,0,0,1-4.63,2c-2.39,0-4.35-1.07-4.35-3.69,0-3,2.21-3.61,4.45-4s4.43-.31,4.43-1.93c0-1.89-1.55-2.19-2.93-2.19-1.83,0-3.18.56-3.28,2.49h-2.16c.13-3.25,2.65-4.4,5.57-4.4,2.37,0,4.94.54,4.94,3.61V79c0,1,0,1.47.68,1.47a1.85,1.85,0,0,0,.66-.12Zm-3.51-6.74c-.84.61-2.46.63-3.91.89s-2.65.76-2.65,2.36c0,1.43,1.22,1.93,2.54,1.93,2.85,0,4-1.78,4-3Z"/><path class="cls-2" d="M612,82.05h-2.16V80.27h0c-.71,1.45-2.39,2.08-4.2,2.08-4,0-6-3.2-6-6.92s2-6.84,6-6.84a5,5,0,0,1,4.25,2.06h0V63.89H612Zm-6.1-1.61c2.9,0,4-2.49,4-5s-1.17-5-4.15-5-3.94,2.52-3.94,5.09S603.14,80.44,605.94,80.44Z"/><path class="cls-2" d="M626.59,77.88A5.29,5.29,0,0,1,621,82.35c-4.2,0-6.18-2.9-6.31-6.92s2.6-6.84,6.18-6.84c4.66,0,6.08,4.35,6,7.53H617a3.87,3.87,0,0,0,4.1,4.32,3.17,3.17,0,0,0,3.41-2.56Zm-2.08-3.67a3.78,3.78,0,0,0-7.56,0Z"/><path class="cls-2" d="M638.39,66.53h-2.16V63.89h2.16Zm-2.16,2.37h2.16V82.05h-2.16Z"/><path class="cls-2" d="M644.75,68.9h2.62v1.9h-2.62V79c0,1,.28,1.17,1.63,1.17h1v1.91h-1.65c-2.24,0-3.13-.46-3.13-2.88V70.8h-2.24V68.9h2.24V65h2.16Z"/><path class="cls-2" d="M659.84,68.9h2.62v1.9h-2.62V79c0,1,.28,1.17,1.62,1.17h1v1.91H660.8c-2.24,0-3.13-.46-3.13-2.88V70.8h-2.23V68.9h2.23V65h2.17Z"/><path class="cls-2" d="M670.52,68.59c4.17,0,6.38,3,6.38,6.89s-2.21,6.87-6.38,6.87-6.39-3-6.39-6.87S666.35,68.59,670.52,68.59Zm0,11.85c2.26,0,4.09-1.78,4.09-5s-1.83-5-4.09-5-4.1,1.78-4.1,5S668.25,80.44,670.52,80.44Z"/><path class="cls-2" d="M689.52,68.9h2.62v1.9h-2.62V79c0,1,.28,1.17,1.63,1.17h1v1.91h-1.65c-2.24,0-3.13-.46-3.13-2.88V70.8h-2.24V68.9h2.24V65h2.16Z"/><path class="cls-2" d="M694.53,63.89h2.16v6.94h0a4.45,4.45,0,0,1,4.15-2.24c3.46,0,4.53,2,4.53,4.81v8.65h-2.17V73.14a2.47,2.47,0,0,0-2.67-2.64c-2.62,0-3.89,1.75-3.89,4.12v7.43h-2.16Z"/><path class="cls-2" d="M719.89,77.88a5.3,5.3,0,0,1-5.62,4.47c-4.2,0-6.18-2.9-6.31-6.92s2.59-6.84,6.18-6.84c4.66,0,6.08,4.35,6,7.53h-9.84a3.87,3.87,0,0,0,4.09,4.32,3.17,3.17,0,0,0,3.41-2.56Zm-2.09-3.67A3.78,3.78,0,0,0,714,70.5a3.74,3.74,0,0,0-3.76,3.71Z"/><path class="cls-2" d="M460.56,523h-2.21v-1.91h2.21v-2c0-2.13,1.27-3.25,3.64-3.25a5.2,5.2,0,0,1,1.4.2v1.88a4.29,4.29,0,0,0-1.22-.18c-1.05,0-1.65.33-1.65,1.48v1.83h2.54V523h-2.54v11.24h-2.17Z"/><path class="cls-2" d="M472.87,520.76c4.18,0,6.39,3,6.39,6.89s-2.21,6.87-6.39,6.87-6.38-3-6.38-6.87S468.7,520.76,472.87,520.76Zm0,11.85c2.27,0,4.1-1.78,4.1-5s-1.83-5-4.1-5-4.09,1.78-4.09,5S470.61,532.61,472.87,532.61Z"/><path class="cls-2" d="M481.72,521.06h2v2.77h.05a4.77,4.77,0,0,1,4.83-3.07V523c-3.48,0-4.75,2-4.75,5.32v5.85h-2.17Z"/><path class="cls-2" d="M509,534.16a2.89,2.89,0,0,1-1.55.36c-1.12,0-1.83-.61-1.83-2a5.85,5.85,0,0,1-4.63,2c-2.39,0-4.35-1.07-4.35-3.69,0-3,2.21-3.61,4.45-4.05,2.39-.45,4.43-.3,4.43-1.93,0-1.88-1.55-2.19-2.93-2.19-1.83,0-3.18.56-3.28,2.5h-2.16c.13-3.26,2.64-4.4,5.57-4.4,2.37,0,4.93.53,4.93,3.61v6.76c0,1,0,1.48.69,1.48a1.9,1.9,0,0,0,.66-.13Zm-3.51-6.74c-.84.61-2.47.64-3.92.89s-2.64.76-2.64,2.37c0,1.42,1.22,1.93,2.54,1.93,2.85,0,4-1.78,4-3Z"/><path class="cls-2" d="M514,521.06h2.62V523H514v8.16c0,1,.28,1.17,1.63,1.17h1v1.91H515c-2.24,0-3.13-.46-3.13-2.87V523H509.6v-1.91h2.24v-3.94H514Z"/><path class="cls-2" d="M522,521.06h2.62V523H522v8.16c0,1,.28,1.17,1.63,1.17h1v1.91H523c-2.24,0-3.13-.46-3.13-2.87V523h-2.24v-1.91h2.24v-3.94H522Z"/><path class="cls-2" d="M538.67,534.16a2.89,2.89,0,0,1-1.55.36c-1.12,0-1.83-.61-1.83-2a5.83,5.83,0,0,1-4.63,2c-2.39,0-4.35-1.07-4.35-3.69,0-3,2.22-3.61,4.45-4.05,2.4-.45,4.43-.3,4.43-1.93,0-1.88-1.55-2.19-2.93-2.19-1.83,0-3.18.56-3.28,2.5h-2.16c.13-3.26,2.65-4.4,5.57-4.4,2.37,0,4.94.53,4.94,3.61v6.76c0,1,0,1.48.68,1.48a1.86,1.86,0,0,0,.66-.13Zm-3.51-6.74c-.83.61-2.46.64-3.91.89s-2.65.76-2.65,2.37c0,1.42,1.22,1.93,2.55,1.93,2.84,0,4-1.78,4-3Z"/><path class="cls-2" d="M543,518.69h-2.16v-2.64H543Zm-2.16,2.37H543v13.15h-2.16Z"/><path class="cls-2" d="M546.33,521.06h2v2.09h0a4.56,4.56,0,0,1,4.27-2.39c3.46,0,4.53,2,4.53,4.8v8.65h-2.17v-8.9a2.48,2.48,0,0,0-2.67-2.65c-2.62,0-3.89,1.76-3.89,4.12v7.43h-2.16Z"/><path class="cls-2" d="M562.76,518.69H560.6v-2.64h2.16Zm-2.16,2.37h2.16v13.15H560.6Z"/><path class="cls-2" d="M566.12,521.06h2v2.09h.05a4.59,4.59,0,0,1,4.28-2.39c3.46,0,4.52,2,4.52,4.8v8.65h-2.16v-8.9a2.48,2.48,0,0,0-2.67-2.65c-2.62,0-3.89,1.76-3.89,4.12v7.43h-2.16Z"/><path class="cls-2" d="M591.61,533.09c0,4.28-2,6.46-6.11,6.46-2.47,0-5.32-1-5.44-3.86h2.16c.1,1.57,2,2.13,3.41,2.13,2.82,0,3.94-2,3.94-5V532h-.05a4.37,4.37,0,0,1-4.1,2.39c-3.91,0-5.87-3.07-5.87-6.66,0-3.1,1.53-6.94,6.08-6.94a4.27,4.27,0,0,1,3.91,2.18h0v-1.88h2Zm-2.14-5.72c0-2.32-1-4.71-3.74-4.71s-3.89,2.27-3.89,4.79c0,2.36.86,5,3.71,5S589.47,529.84,589.47,527.37Z"/><path class="cls-2" d="M612.79,521.37c-.28-2.6-2-3.72-4.5-3.72-2,0-4.07.74-4.07,3.11s2.9,2.56,5.83,3.23,5.8,1.67,5.8,5.24c0,3.86-3.79,5.41-7.1,5.41-4.07,0-7.5-2-7.5-6.41h2.28c0,3.06,2.55,4.38,5.3,4.38,2.18,0,4.6-.69,4.6-3.31s-2.9-2.92-5.8-3.56-5.83-1.47-5.83-4.81c0-3.68,3.29-5.31,6.59-5.31,3.72,0,6.54,1.75,6.69,5.75Z"/><path class="cls-2" d="M629.3,534.21h-2v-2.08h-.06a4.58,4.58,0,0,1-4.27,2.39c-3.46,0-4.53-2-4.53-4.81v-8.65h2.17V530a2.47,2.47,0,0,0,2.67,2.65c2.62,0,3.89-1.76,3.89-4.12v-7.43h2.16Z"/><path class="cls-2" d="M633.88,530.07c.07,1.93,1.75,2.54,3.53,2.54,1.35,0,3.18-.31,3.18-2s-2.13-2-4.29-2.44-4.3-1.2-4.3-3.72,2.62-3.73,4.91-3.73c2.9,0,5.21.91,5.39,4.12h-2.16c-.16-1.68-1.63-2.22-3.06-2.22s-2.79.36-2.79,1.68c0,1.55,2.29,1.81,4.29,2.29,2.17.48,4.3,1.2,4.3,3.74,0,3.13-2.92,4.15-5.59,4.15-2.95,0-5.45-1.2-5.57-4.45Z"/><path class="cls-2" d="M648.28,521.06h2.62V523h-2.62v8.16c0,1,.28,1.17,1.62,1.17h1v1.91h-1.66c-2.24,0-3.13-.46-3.13-2.87V523h-2.23v-1.91h2.23v-3.94h2.17Z"/><path class="cls-2" d="M664.94,534.16a3,3,0,0,1-1.56.36c-1.11,0-1.83-.61-1.83-2a5.83,5.83,0,0,1-4.63,2c-2.39,0-4.35-1.07-4.35-3.69,0-3,2.22-3.61,4.46-4.05s4.42-.3,4.42-1.93c0-1.88-1.55-2.19-2.92-2.19-1.84,0-3.18.56-3.28,2.5h-2.17c.13-3.26,2.65-4.4,5.57-4.4,2.37,0,4.94.53,4.94,3.61v6.76c0,1,0,1.48.68,1.48a2,2,0,0,0,.67-.13Zm-3.51-6.74c-.84.61-2.47.64-3.92.89s-2.65.76-2.65,2.37c0,1.42,1.22,1.93,2.55,1.93,2.85,0,4-1.78,4-3Z"/><path class="cls-2" d="M669.23,518.69h-2.16v-2.64h2.16Zm-2.16,2.37h2.16v13.15h-2.16Z"/><path class="cls-2" d="M672.59,521.06h2v2.09h0a4.56,4.56,0,0,1,4.27-2.39c3.46,0,4.53,2,4.53,4.8v8.65h-2.16v-8.9a2.48,2.48,0,0,0-2.67-2.65c-2.62,0-3.9,1.76-3.9,4.12v7.43h-2.16Z"/><path class="cls-2" d="M698.38,534.16a2.89,2.89,0,0,1-1.55.36c-1.12,0-1.83-.61-1.83-2a5.85,5.85,0,0,1-4.63,2c-2.39,0-4.35-1.07-4.35-3.69,0-3,2.21-3.61,4.45-4.05s4.43-.3,4.43-1.93c0-1.88-1.55-2.19-2.93-2.19-1.83,0-3.18.56-3.28,2.5h-2.16c.13-3.26,2.65-4.4,5.57-4.4,2.37,0,4.94.53,4.94,3.61v6.76c0,1,0,1.48.68,1.48a1.9,1.9,0,0,0,.66-.13Zm-3.51-6.74c-.84.61-2.46.64-3.91.89s-2.65.76-2.65,2.37c0,1.42,1.22,1.93,2.54,1.93,2.85,0,4-1.78,4-3Z"/><path class="cls-2" d="M700.47,516.05h2.16v6.79h0c.71-1.45,2.39-2.08,4.2-2.08,4,0,6,3.2,6,6.91s-2,6.85-6,6.85a5,5,0,0,1-4.25-2.06h0v1.75h-2.16Zm6.1,6.61c-2.9,0-4,2.5-4,5s1.17,5,4.15,5,3.94-2.52,3.94-5.09S709.37,522.66,706.57,522.66Z"/><path class="cls-2" d="M715.6,516.05h2.16v18.16H715.6Z"/><path class="cls-2" d="M732.34,530a5.31,5.31,0,0,1-5.62,4.48c-4.2,0-6.18-2.9-6.31-6.92s2.59-6.84,6.18-6.84c4.66,0,6.08,4.35,5.95,7.52H722.7a3.87,3.87,0,0,0,4.09,4.33A3.17,3.17,0,0,0,730.2,530Zm-2.09-3.66a3.79,3.79,0,0,0-3.79-3.72,3.75,3.75,0,0,0-3.76,3.72Z"/><path class="cls-2" d="M440.44,548.75h6.23c5.6,0,8.73,2.8,8.73,8.65,0,6.08-2.67,9.52-8.73,9.52h-6.23Zm2.42,16.13h4c1.65,0,6.1-.46,6.1-7.15,0-4.32-1.6-6.94-6.05-6.94h-4.07Z"/><path class="cls-2" d="M469.21,562.74a5.3,5.3,0,0,1-5.62,4.48c-4.2,0-6.18-2.9-6.31-6.92s2.6-6.84,6.18-6.84c4.66,0,6.08,4.35,6,7.53h-9.84a3.87,3.87,0,0,0,4.09,4.32,3.16,3.16,0,0,0,3.41-2.57Zm-2.09-3.66a3.78,3.78,0,0,0-3.79-3.71,3.74,3.74,0,0,0-3.76,3.71Z"/><path class="cls-2" d="M477.58,566.92h-2.32l-4.88-13.15h2.42l3.69,11h.05l3.58-11h2.27Z"/><path class="cls-2" d="M495.59,562.74a5.31,5.31,0,0,1-5.62,4.48c-4.2,0-6.18-2.9-6.31-6.92s2.59-6.84,6.18-6.84c4.65,0,6.08,4.35,6,7.53H486a3.87,3.87,0,0,0,4.09,4.32,3.17,3.17,0,0,0,3.41-2.57Zm-2.09-3.66a3.78,3.78,0,0,0-3.79-3.71,3.74,3.74,0,0,0-3.76,3.71Z"/><path class="cls-2" d="M498.16,548.75h2.16v18.17h-2.16Z"/><path class="cls-2" d="M509.35,553.46c4.17,0,6.38,3,6.38,6.89s-2.21,6.87-6.38,6.87-6.39-3-6.39-6.87S505.18,553.46,509.35,553.46Zm0,11.85c2.26,0,4.09-1.78,4.09-5s-1.83-5-4.09-5-4.1,1.78-4.1,5S507.08,565.31,509.35,565.31Z"/><path class="cls-2" d="M518.35,553.77h2.16v1.78h0c.72-1.45,2.39-2.09,4.2-2.09,4,0,6,3.2,6,6.92s-2,6.84-6,6.84a5,5,0,0,1-4.25-2.06h0V572h-2.16Zm6.11,1.6c-2.9,0-4,2.49-4,5s1.17,5,4.14,5,3.95-2.52,3.95-5.08S527.25,555.37,524.46,555.37Z"/><path class="cls-2" d="M533.36,553.77h2v1.93h.05a4.85,4.85,0,0,1,4.25-2.24,3.49,3.49,0,0,1,3.61,2.24,4.87,4.87,0,0,1,4.12-2.24c2.62,0,4.38,1.09,4.38,3.82v9.64h-2.16v-8.63c0-1.63-.44-2.92-2.55-2.92a3.18,3.18,0,0,0-3.43,3.36v8.19H541.5v-8.63c0-1.7-.54-2.92-2.47-2.92a3.54,3.54,0,0,0-3.51,3.36v8.19h-2.16Z"/><path class="cls-2" d="M566.27,562.74a5.3,5.3,0,0,1-5.62,4.48c-4.2,0-6.18-2.9-6.31-6.92s2.6-6.84,6.18-6.84c4.66,0,6.08,4.35,6,7.53h-9.85a3.87,3.87,0,0,0,4.1,4.32,3.17,3.17,0,0,0,3.41-2.57Zm-2.08-3.66a3.79,3.79,0,0,0-3.79-3.71,3.74,3.74,0,0,0-3.77,3.71Z"/><path class="cls-2" d="M568.71,553.77h2v2.08h0a4.56,4.56,0,0,1,4.27-2.39c3.46,0,4.53,2,4.53,4.81v8.65h-2.16V558a2.48,2.48,0,0,0-2.67-2.64c-2.62,0-3.9,1.75-3.9,4.12v7.43h-2.16Z"/><path class="cls-2" d="M585.86,553.77h2.62v1.9h-2.62v8.17c0,1,.28,1.17,1.63,1.17h1v1.91h-1.66c-2.24,0-3.13-.46-3.13-2.88v-8.37h-2.23v-1.9h2.23v-3.95h2.17Z"/><path class="cls-2" d="M611.88,564.65a7.11,7.11,0,0,1-5.83,2.7c-5.42,0-8.65-4.43-8.65-9.16,0-5.29,2.9-9.87,8.65-9.87,4,0,7.12,1.78,7.81,6h-2.41c-.49-2.75-2.7-4-5.4-4-4.4,0-6.23,3.81-6.23,7.7s2.19,7.25,6.23,7.25a5.47,5.47,0,0,0,5.83-5.92h-5.8v-2h8v9.57h-1.53Z"/><path class="cls-2" d="M622.92,553.46c4.17,0,6.38,3,6.38,6.89s-2.21,6.87-6.38,6.87-6.39-3-6.39-6.87S618.75,553.46,622.92,553.46Zm0,11.85c2.26,0,4.09-1.78,4.09-5s-1.83-5-4.09-5-4.1,1.78-4.1,5S620.65,565.31,622.92,565.31Z"/><path class="cls-2" d="M643.49,566.86a2.89,2.89,0,0,1-1.55.36c-1.12,0-1.83-.61-1.83-2a5.87,5.87,0,0,1-4.63,2c-2.39,0-4.35-1.07-4.35-3.69,0-3,2.21-3.61,4.45-4s4.43-.31,4.43-1.93c0-1.89-1.55-2.19-2.93-2.19-1.83,0-3.18.56-3.28,2.49h-2.16c.13-3.26,2.65-4.4,5.57-4.4,2.37,0,4.94.53,4.94,3.61v6.77c0,1,0,1.47.68,1.47a1.85,1.85,0,0,0,.66-.12ZM640,560.12c-.84.61-2.46.64-3.91.89s-2.65.77-2.65,2.37c0,1.42,1.22,1.93,2.54,1.93,2.85,0,4-1.78,4-3Z"/><path class="cls-2" d="M645.63,548.75h2.16v18.17h-2.16Z"/><path class="cls-2" d="M652.47,562.77c.08,1.93,1.76,2.54,3.54,2.54,1.35,0,3.18-.3,3.18-2s-2.14-2-4.3-2.44-4.3-1.19-4.3-3.71,2.62-3.74,4.91-3.74c2.9,0,5.21.92,5.39,4.12h-2.16c-.15-1.68-1.63-2.21-3.05-2.21s-2.8.35-2.8,1.68c0,1.55,2.29,1.8,4.3,2.29,2.16.48,4.3,1.19,4.3,3.73,0,3.13-2.93,4.15-5.6,4.15-3,0-5.44-1.19-5.57-4.45Z"/><path class="cls-2" d="M673.23,551.4h-2.16v-2.65h2.16Zm-2.16,2.37h2.16v13.15h-2.16Z"/><path class="cls-2" d="M676.58,553.77h2v2.08h0a4.57,4.57,0,0,1,4.27-2.39c3.46,0,4.53,2,4.53,4.81v8.65h-2.16V558a2.48,2.48,0,0,0-2.67-2.64c-2.62,0-3.89,1.75-3.89,4.12v7.43h-2.17Z"/><path class="cls-2" d="M697.29,555.27c-.18-3.67,2-6.39,5.8-6.39,3.15,0,5.65,1.83,5.65,5.19,0,3.18-2.14,4.78-4.38,6.18s-4.63,2.52-5.06,4.76h9.26v1.91H696.78c.36-4.28,2.52-5.8,5.06-7.38,3-1.88,4.61-3,4.61-5.5a3.29,3.29,0,0,0-3.49-3.25c-2.52,0-3.59,2.31-3.51,4.48Z"/><path class="cls-2" d="M717.38,548.88c5.65,0,6,5.19,6,9.18s-.36,9.16-6,9.16-6-5.19-6-9.16S711.74,548.88,717.38,548.88Zm0,16.43c3.69,0,3.72-4.58,3.72-7.27s0-7.25-3.72-7.25-3.71,4.58-3.71,7.25S713.7,565.31,717.38,565.31Z"/><path class="cls-2" d="M725.57,555.27c-.17-3.67,2-6.39,5.8-6.39,3.16,0,5.65,1.83,5.65,5.19,0,3.18-2.14,4.78-4.37,6.18s-4.63,2.52-5.07,4.76h9.26v1.91H725.07c.35-4.28,2.51-5.8,5.06-7.38,3-1.88,4.6-3,4.6-5.5a3.29,3.29,0,0,0-3.48-3.25c-2.52,0-3.59,2.31-3.51,4.48Z"/><path class="cls-2" d="M747.65,566.92h-2.16V554h-4.68v-1.73c2.47,0,4.71-.66,5.19-3.38h1.65Z"/><path class="cls-3" d="M857.07,385.56a1.81,1.81,0,0,1-1.81-1.81V370.24H844.63a1.83,1.83,0,0,1-1.56-.88,1.81,1.81,0,0,1,0-1.79l34.45-63.17a1.82,1.82,0,0,1,1.59-.94h88a1.82,1.82,0,0,1,1.59.94l34.45,63.17a1.79,1.79,0,0,1,0,1.79,1.82,1.82,0,0,1-1.55.88H991v13.51a1.81,1.81,0,0,1-1.8,1.81Zm1.8-3.62H987.34v-11.7H858.87Zm95.33-15.31h44.34l-11.6-21.27H949Zm-58.47,0h54.75l-5.16-21.27H900.89Zm-48.06,0H892l5.16-21.27h-37.9Zm100.5-24.89H985l-9.51-17.44H943.94Zm-46.4,0h42.68l-4.23-17.44H906Zm-40.53,0h36.81l4.22-17.44H870.76Zm81.82-21.05h30.42l-7.42-13.61h-26.3Zm-36.19,0h32.47L936,307.08H910.17Zm-34.14,0h30.42l3.3-13.61h-26.3Z"/><path class="cls-3" d="M923.11,284.11a1.82,1.82,0,0,1-1.81-1.81v-7.82l-.9-.09a25.58,25.58,0,0,1-13.46-5.6l-.7-.56-5.54,5.53a1.81,1.81,0,0,1-2.56,0,1.8,1.8,0,0,1,0-2.55l5.54-5.54-.57-.7a25.57,25.57,0,0,1-5.59-13.47l-.1-.89h-7.81a1.81,1.81,0,0,1,0-3.62h7.81l.1-.89a25.57,25.57,0,0,1,5.59-13.47l.57-.7-5.54-5.54a1.8,1.8,0,0,1,0-2.55,1.81,1.81,0,0,1,2.56,0l5.54,5.53.7-.56a25.55,25.55,0,0,1,13.46-5.6l.9-.09V215.3a1.81,1.81,0,1,1,3.61,0v7.82l.9.09a25.58,25.58,0,0,1,13.47,5.6l.7.56,5.53-5.53a1.81,1.81,0,1,1,2.56,2.55l-5.54,5.54.57.7a25.66,25.66,0,0,1,5.6,13.47l.09.89h7.81a1.81,1.81,0,0,1,0,3.62h-7.81l-.09.89A25.66,25.66,0,0,1,943.1,265l-.57.7,5.54,5.54a1.8,1.8,0,0,1,0,2.55,1.81,1.81,0,0,1-2.56,0L940,268.23l-.7.56a25.62,25.62,0,0,1-13.47,5.6l-.9.09v7.82A1.81,1.81,0,0,1,923.11,284.11Zm0-57.43a22.12,22.12,0,1,0,22.12,22.12A22.14,22.14,0,0,0,923.11,226.68Z"/><path class="cls-3" d="M198.35,381.65a1.71,1.71,0,1,1,0-3.41h19.78V280.85L199.3,294.19a1.67,1.67,0,0,1-1,.32,1.65,1.65,0,0,1-.78-.2,1.68,1.68,0,0,1-.92-1.51V276.66a1.7,1.7,0,0,1,.72-1.4l81.25-57.55a1.72,1.72,0,0,1,2,0l81.25,57.56a1.7,1.7,0,0,1,.72,1.39v14.56a1.61,1.61,0,0,1-.07.49l-.09.3.09.29a1.69,1.69,0,0,1-.24,1.48,1.72,1.72,0,0,1-1.4.72,1.65,1.65,0,0,1-1-.31L341,280.85v97.39h19.79a1.71,1.71,0,1,1,0,3.41Zm23.2-103.22v99.73h116V278.43l-58-41.09ZM200,277.54v11.95l78.56-55.64a1.68,1.68,0,0,1,2,0l78.56,55.64V277.54L279.56,221.2Z"/><path class="cls-3" d="M280.62,355.19c-8,0-22.78-1.41-32.23-10.85-13.47-13.49-10.65-37.58-10.53-38.59a1.72,1.72,0,0,1,1.49-1.49,57.43,57.43,0,0,1,6.36-.32c8,0,22.78,1.41,32.23,10.85a30.12,30.12,0,0,1,3.24,3.88l.83,1.18.81-1.19a26.1,26.1,0,0,1,3-3.69c8.26-8.25,21.18-9.49,28.14-9.49a52.27,52.27,0,0,1,5.57.28,1.72,1.72,0,0,1,1.48,1.49c.11.89,2.57,21.93-9.21,33.7-6.4,6.41-15.65,8.54-22.28,9.2l-.85.08,0,.85c-.07,1.14-.15,1.91-.18,2.19l0,.13a1.8,1.8,0,0,1-.15.48,2.18,2.18,0,0,1-.27.43l-.08.05,0,.08a1.54,1.54,0,0,1-.34.22,1.56,1.56,0,0,1-.55.19l-.12,0h0A56.71,56.71,0,0,1,280.62,355.19Zm-35.08-47.81c-1.2,0-2.38,0-3.52.1l-.89,0,0,.9c-.37,6.77-.17,23.59,9.73,33.5,8.49,8.48,22.25,9.79,29.7,9.82h2.42l-29.51-29.52a1.7,1.7,0,0,1,0-2.41,1.71,1.71,0,0,1,2.42,0l29.5,29.5v-2.43c0-2.5-.11-4.67-.31-6.61a45.53,45.53,0,0,0-4.48-16.1,28,28,0,0,0-5-7C267,308.66,253.07,307.38,245.54,307.38Zm60.73,11.45a1.7,1.7,0,0,1,1.21.5,1.74,1.74,0,0,1,.5,1.21,1.7,1.7,0,0,1-.5,1.21l-19,19,0,.47c.12,1.43.19,2.94.22,4.48l0,1.1,1.09-.12c8.42-.94,15.19-3.76,19.59-8.15,8.46-8.46,8.69-22.82,8.4-28.61l0-.9-.91,0c-.89-.05-1.83-.07-2.77-.07-6.48,0-18.46,1.1-25.83,8.47a23.61,23.61,0,0,0-4.07,5.59l-.24.44.21.46a46.06,46.06,0,0,1,3.43,10.71l.36,1.84,17.1-17.1A1.7,1.7,0,0,1,306.27,318.83Z"/></g></svg>