<svg xmlns="http://www.w3.org/2000/svg" xmlns:xlink="http://www.w3.org/1999/xlink" viewBox="0 0 70 30"><defs><style>.cls-1{fill:none;}.cls-2{clip-path:url(#clip-path);}.cls-3{fill:#6dff40;}</style><clipPath id="clip-path"><rect class="cls-1" x="-890.66" y="481.37" width="1920" height="600"/></clipPath></defs><g id="bg"><g class="cls-2"><image width="1960" height="1470" transform="translate(-910.66 15.95)" xlink:href="../images/aaa.jpg"/></g></g><g id="Layer_1" data-name="Layer 1"><path class="cls-3" d="M10.64,24.64a1.22,1.22,0,0,1-.85-.35,1.2,1.2,0,0,1,0-1.7L17.38,15,9.79,7.41a1.2,1.2,0,0,1,0-1.7,1.22,1.22,0,0,1,1.7,0l8.44,8.44a1.2,1.2,0,0,1,0,1.7l-8.44,8.44A1.2,1.2,0,0,1,10.64,24.64Z"/><path class="cls-3" d="M18.7,24.64a1.2,1.2,0,0,1-.85-2.05L25.44,15,17.85,7.41a1.2,1.2,0,0,1,0-1.7,1.22,1.22,0,0,1,1.7,0L28,14.15a1.2,1.2,0,0,1,0,1.7l-8.43,8.44A1.24,1.24,0,0,1,18.7,24.64Z"/><path class="cls-3" d="M26.75,24.64a1.2,1.2,0,0,1-.84-2.05L33.49,15,25.91,7.41a1.2,1.2,0,0,1,1.69-1.7L36,14.15a1.2,1.2,0,0,1,0,1.7L27.6,24.29A1.2,1.2,0,0,1,26.75,24.64Z"/><path class="cls-3" d="M34.81,24.64a1.22,1.22,0,0,1-.85-.35,1.2,1.2,0,0,1,0-1.7L41.55,15,34,7.41a1.2,1.2,0,0,1,0-1.7,1.22,1.22,0,0,1,1.7,0l8.43,8.44a1.2,1.2,0,0,1,0,1.7l-8.43,8.44A1.22,1.22,0,0,1,34.81,24.64Z"/><path class="cls-3" d="M42.87,24.64A1.2,1.2,0,0,1,42,22.59L49.61,15,42,7.41a1.2,1.2,0,0,1,1.69-1.7l8.44,8.44a1.2,1.2,0,0,1,0,1.7l-8.44,8.44A1.2,1.2,0,0,1,42.87,24.64Z"/><path class="cls-3" d="M50.92,24.64a1.24,1.24,0,0,1-.85-.35,1.2,1.2,0,0,1,0-1.7L57.66,15,50.07,7.41a1.2,1.2,0,0,1,0-1.7,1.22,1.22,0,0,1,1.7,0l8.44,8.44a1.2,1.2,0,0,1,0,1.7l-8.44,8.44A1.2,1.2,0,0,1,50.92,24.64Z"/></g></svg>