<svg xmlns="http://www.w3.org/2000/svg" viewBox="0 0 1450 400"><defs><style>.cls-1{fill:#00de76;}.cls-2{fill:#6dff40;}</style></defs><g id="Layer_3" data-name="Layer 3"><path class="cls-1" d="M742.29,277.23a1,1,0,0,1-.8-1c0-.49.4-1,.8-1h8.45a1,1,0,0,1,0,2Z"/><path class="cls-1" d="M775.57,307.89a14.15,14.15,0,0,1-14-12.46l-.11-.88H728l-.1.88a14.15,14.15,0,0,1-28.09,0l-.1-.88h-8a.82.82,0,0,1-.81-.81V278.63a8,8,0,0,1,7.33-8l23.38-2.88,7.6-11.54a13.8,13.8,0,0,1,10.73-6h30.88c4.25,0,8.26,3,9.12,6.88l2.9,10.49h10c4.21,0,8.2,4.1,8.2,8.44v17.7a.81.81,0,0,1-.81.81H789.72l-.11.88A14.15,14.15,0,0,1,775.57,307.89Zm0-26.69a12.54,12.54,0,1,0,12.54,12.54A12.55,12.55,0,0,0,775.57,281.2Zm-61.76,0a12.54,12.54,0,1,0,12.54,12.54A12.55,12.55,0,0,0,713.81,281.2Zm61.76-1.62c.45,0,.92,0,1.4.07l.23,0,.22,0c.3,0,.61.08.91.14l.31.07.2.05.8.2.37.13.15.05c.25.09.5.17.74.27l.45.2.75.36.5.28.65.39.46.32.61.45.43.36.57.51.39.39c.18.18.36.38.53.57l.09.11.26.3.48.64.1.14c.06.09.13.18.19.28s.31.49.45.73c0,0,.2.33.24.41.16.29.3.6.44.91l.13.27a12.94,12.94,0,0,1,.46,1.27l.06.21c.1.35.2.72.28,1.09a2.34,2.34,0,0,1,0,.26l.08.44c0,.17.06.35.08.52l.11.89h9.65v-5h-4.62a.8.8,0,0,1-.8-.81V279.9a.81.81,0,0,1,.8-.81h4.62v-3c0-3.38-3.32-6.83-6.58-6.83H782.7a3.73,3.73,0,0,1-.43,0H722.53l-24.17,3a6.43,6.43,0,0,0-5.92,6.43v14.3h7.22l.1-.89c0-.17.06-.35.09-.52l.07-.44c0-.09,0-.17,0-.25.08-.38.18-.75.29-1.11l0-.15a11.86,11.86,0,0,1,.48-1.31l.13-.28c.14-.31.28-.62.44-.92,0-.08.23-.39.23-.39.15-.25.29-.5.45-.74l.2-.28.1-.13c.16-.22.31-.44.48-.65l.25-.3.1-.11c.17-.19.34-.39.52-.57l.35-.34.61-.56.44-.36.6-.45.47-.32.64-.39.5-.28.69-.33.52-.23c.24-.1.48-.18.73-.27l.15-.05.38-.13.75-.19.24-.06.32-.07c.3-.06.6-.1.91-.14l.45-.07c.48,0,1-.07,1.39-.07s.92,0,1.4.07l.24,0,.21,0c.31,0,.61.08.91.14l.32.07.19.05.8.2.36.13.17.05c.24.09.49.17.73.27l.44.19.76.37.51.28c.21.13.43.25.64.39l.47.32.6.45.44.36c.19.16.38.33.56.51l.4.39c.18.18.35.38.52.57l.1.12.25.29c.17.21.32.43.48.64l.11.15.19.27c.16.24.3.49.45.74,0,0,.19.31.23.39.16.3.3.61.44.92l.13.28c.18.41.33.84.47,1.26l0,.2c.1.36.2.73.28,1.11,0,.08.08.46.08.46l0,.23c0,.17.07.35.09.53l.1.88h33.44l.11-.88c0-.18.05-.36.08-.53,0,0,.11-.61.12-.69.08-.38.18-.75.29-1.12l0-.14a12.44,12.44,0,0,1,.47-1.31l.14-.29c.13-.3.28-.61.44-.91a1.59,1.59,0,0,1,.13-.22l.1-.17c.14-.25.29-.5.45-.74l.19-.27.11-.15c.15-.21.31-.43.48-.64a3.22,3.22,0,0,1,.24-.28l.11-.13c.17-.19.34-.39.52-.57l.39-.39q.28-.27.57-.51l.43-.36.61-.45.46-.32.65-.39.5-.28.69-.33.09,0,.43-.19c.23-.1.48-.18.73-.27l.16-.05.37-.13.76-.19.23-.06.32-.07c.3-.06.6-.1.9-.14l.22,0,.24,0C774.65,279.61,775.12,279.58,775.57,279.58Zm20,6.75h3.81v-5.62h-3.81ZM756.75,267.6H781l-2.74-10.26a8.15,8.15,0,0,0-7.55-6.11h-14Zm-16.89-16.37c-3.15,0-7.27,2.5-9.37,5.7l-6.7,10.67h31.34V251.23Z"/><path class="cls-1" d="M775.57,299.37a5.64,5.64,0,1,1,5.64-5.63A5.64,5.64,0,0,1,775.57,299.37Zm0-9.65a4,4,0,1,0,4,4A4,4,0,0,0,775.57,289.72Z"/><path class="cls-1" d="M713.81,299.37a5.64,5.64,0,1,1,5.64-5.63A5.64,5.64,0,0,1,713.81,299.37Zm0-9.65a4,4,0,1,0,4,4A4,4,0,0,0,713.81,289.72Z"/><path class="cls-1" d="M786.92,257.79a.81.81,0,0,1,0-1.62h1.63a3.6,3.6,0,0,0,3.6-3.6v-8.06a3.6,3.6,0,0,0-3.6-3.6H769.62a5.24,5.24,0,0,1-5.22-5.22v-6.86a5.23,5.23,0,0,1,5.22-5.22h17.72a3.61,3.61,0,0,0,3.6-3.6v-7.15a3.61,3.61,0,0,0-3.6-3.6H732.25v1a6.57,6.57,0,0,1-6.56,6.52h-7.52a.81.81,0,0,1-.81-.81v-1.6h-5.22a.81.81,0,0,1,0-1.62h5.22v-6.82h-5.22a.81.81,0,0,1,0-1.62h5.22V202.7a.81.81,0,0,1,.81-.81h7.52a6.55,6.55,0,0,1,6.36,5l.19.76h55.1a5.22,5.22,0,0,1,5.22,5.22V220a5.23,5.23,0,0,1-5.22,5.22H769.62a3.6,3.6,0,0,0-3.6,3.6v6.86a3.61,3.61,0,0,0,3.6,3.6h18.93a5.22,5.22,0,0,1,5.21,5.22v8.06a5.22,5.22,0,0,1-5.21,5.22ZM719,215.16h6.71a4.94,4.94,0,0,0,4.94-4.94v-1.77a5,5,0,0,0-4.94-4.94H719Z"/><g id="_1" data-name="1"><path class="cls-1" d="M1366.44,142.52a.56.56,0,1,1,0-1.12h22.17a.56.56,0,1,1,0,1.12Z"/><path class="cls-1" d="M1370.67,173.83c-1.29,0-2.3-1.31-2.3-3v-3.22h-5.66a6.59,6.59,0,0,1-6.58-6.58V152a.63.63,0,0,1,0-.15l.33-1.26-1.2-.5a9.65,9.65,0,0,1-6-8.92v-3.85a2.75,2.75,0,0,1,2.75-2.75h7.83v-8.77l-7.71,2.22a6,6,0,0,1-7.67-5.17,5.87,5.87,0,0,1,2.13-5l1.37-1.16-1.38-1.15a5.92,5.92,0,0,1,0-9.09l1.36-1.15-1.36-1.14a5.86,5.86,0,0,1-1.86-2.81,5.93,5.93,0,0,1,1.86-6.26l1.36-1.15-1.36-1.14a5.81,5.81,0,0,1-1.86-2.81,5.94,5.94,0,0,1,4-7.4l5.36-1.63-.8-2.69a5.94,5.94,0,0,1,4-7.4l27.13-8.56a6,6,0,0,1,1.74-.26,6,6,0,0,1,5.67,4.22l.83,3,3.13-.95a6,6,0,0,1,1.73-.26,5.93,5.93,0,0,1,3.81,10.48l-1.36,1.15,1.36,1.14a5.93,5.93,0,0,1,0,9.07L1399.92,91l1.36,1.14a5.93,5.93,0,0,1,0,9.07l-1.37,1.16,1.38,1.14a5.53,5.53,0,0,1,1.37,1.66,5.92,5.92,0,0,1-3.48,8.54L1388,117.12v17.4h7.83a2.75,2.75,0,0,1,2.75,2.75v3.85a9.63,9.63,0,0,1-6.06,9l-1.2.48.3,1.26c0,.07,0,.1,0,.13v9.11a6.59,6.59,0,0,1-6.58,6.58h-5.67v3.22c0,1.66-1,3-2.29,3Zm-1.17-3a2.61,2.61,0,0,0,.12.79l.33,1h7.87l.33-1a2.61,2.61,0,0,0,.12-.79v-3.22h-8.77Zm-12.25-9.8a5.46,5.46,0,0,0,5.46,5.45h22.35a5.46,5.46,0,0,0,5.45-5.45v-1.68h-4.94a.56.56,0,1,1,0-1.12h4.94v-7.49h-31.73l-1.53,0Zm-5.18-25.41a1.62,1.62,0,0,0-1.63,1.62v3.85a8.55,8.55,0,0,0,8.54,8.53h30a8.54,8.54,0,0,0,8.53-8.53v-3.85a1.62,1.62,0,0,0-1.63-1.62Zm27.41-16v14.82h7.4V117.46Zm-9.88,3-.06,11.82h8.82V120Zm-11.25,2.35a2.64,2.64,0,0,1,1.59.53,2.69,2.69,0,0,1,1.09,2.17v6.77h7.39V123.87a2.67,2.67,0,0,1,1.91-2.57l28.52-8.64a4.79,4.79,0,0,0-1.42-9.39,5.14,5.14,0,0,0-1.5.22l-46.75,14.16a4.88,4.88,0,0,0-3.53,5,4.8,4.8,0,0,0,6.19,4.2l5.71-1.73A2.72,2.72,0,0,1,1358.35,125.05Zm39.11-33.17a4.7,4.7,0,0,0-1.4.21l-47,14.24a4.82,4.82,0,0,0-.88,8.85,4.87,4.87,0,0,0,2.27.57,4.8,4.8,0,0,0,1.4-.21l47-14.24a4.81,4.81,0,0,0-1.39-9.42Zm0-11.36a4.75,4.75,0,0,0-1.4.21l-47,14.24a4.82,4.82,0,0,0-.88,8.85,4.87,4.87,0,0,0,2.27.57,4.8,4.8,0,0,0,1.4-.21l47-14.24a4.81,4.81,0,0,0-1.39-9.42Zm0-11.36a4.8,4.8,0,0,0-1.4.21l-47,14.24a4.81,4.81,0,0,0-3.21,6,4.79,4.79,0,0,0,2.33,2.85,4.9,4.9,0,0,0,2.27.57,4.8,4.8,0,0,0,1.4-.21l47-14.24a4.82,4.82,0,0,0,.88-8.85A4.9,4.9,0,0,0,1397.46,69.16Zm-11.36-6a4.68,4.68,0,0,0-1.39.21l-27.14,8.56a4.82,4.82,0,0,0-3.21,6l.8,2.69,36.38-11-.84-3a4.82,4.82,0,0,0-4.6-3.4Z"/><path class="cls-1" d="M1364.94,159.38a.56.56,0,1,1,0-1.12h8.26a.56.56,0,0,1,0,1.12Z"/></g><g id="_24" data-name="24"><path class="cls-1" d="M128.77,183.27a7.46,7.46,0,0,1-7.38-6.54l-.16-1.32H117.6a6.59,6.59,0,0,1-6.58-6.58V157a3.29,3.29,0,0,1,2.37-3.15l1.06-.32v-4.6c0-4.74-4.06-9.47-7.64-13.63-1.14-1.33-2.21-2.59-3.14-3.81a31.44,31.44,0,0,1,25.09-50.4c.58,0,1.17,0,1.76,0a31.53,31.53,0,0,1,29.72,31,31.1,31.1,0,0,1-6.49,19.57c-.92,1.19-2,2.42-3.13,3.72-3.53,4-7.52,8.61-7.52,13.2v5l1.06.32a3.29,3.29,0,0,1,2.37,3.15v11.87a6.59,6.59,0,0,1-6.58,6.58h-3.64l-.16,1.32A7.44,7.44,0,0,1,128.77,183.27Zm-6.14-6a6.3,6.3,0,0,0,12.29,0l.42-1.83H122.21Zm-10.21-6.75a5.45,5.45,0,0,0,5.18,3.79H140a5.43,5.43,0,0,0,5.17-3.79l.63-2h-8a.56.56,0,0,1-.56-.56.57.57,0,0,1,.56-.57h7.69v-5.75h-7.69a.56.56,0,0,1,0-1.12h7.69V157a2.19,2.19,0,0,0-2.18-2.18H114.33a2.19,2.19,0,0,0-2.19,2.18v3.57h7.69a.56.56,0,1,1,0,1.12h-7.69v5.75h7.69a.58.58,0,0,1,.57.57.57.57,0,0,1-.57.56h-8ZM98.5,114.34a30.08,30.08,0,0,0,6.07,16.43c.89,1.18,2,2.41,3.06,3.71,3.75,4.36,8,9.25,8,14.41v4.76H142v-5.11c0-5,4.15-9.76,7.8-13.94,1.13-1.28,2.19-2.49,3.09-3.67a29.93,29.93,0,0,0,6.25-18.81l0-2-1.93.62a5.17,5.17,0,0,1-1.54.25h-.29a5.7,5.7,0,0,1-3.43-1.48l-1.39-1.22-.91,1.61a4.72,4.72,0,0,1-4.43,2.52l-1.92.08.55,1.84a7.26,7.26,0,0,1-.59,6.06,3,3,0,0,1-.73.74l-1,.73L142,123a5.56,5.56,0,0,1,.28,4.09,8.25,8.25,0,0,1-5.81,5.21l-.91.24-.18.92a3.22,3.22,0,0,1-1.6,2.28,4.1,4.1,0,0,1-2,.49,5.42,5.42,0,0,1-3.41-1.27c-1.08-.88-2.78-2.93-2.19-6.8l.21-1.36-1.35-.32c-4.09-1-6-4-6.06-6.55a5.53,5.53,0,0,1,3.81-5.35l1.28-.48-.36-1.32a6,6,0,0,1,2.08-6.39,4.36,4.36,0,0,1,2.58-.91,4.12,4.12,0,0,1,3.15,1.57A3,3,0,0,0,134,108.3a2.76,2.76,0,0,0,.57-.06,4.56,4.56,0,0,0,2.89-2.31l1.38-2.2-2.6-.1a6.39,6.39,0,0,1-4.81-2.19,4.3,4.3,0,0,1-.69-4.29l.3-.86-.62-.67c-1.74-1.84-2.06-4.57-.86-7.28A10,10,0,0,1,132,84.92l2.67-2.35-3.54-.28-.23,0-.47,0c-.57,0-1.14,0-1.7,0a30.1,30.1,0,0,0-17.18,5.37L110,88.64l1.43,1.27A6.47,6.47,0,0,1,113.51,96l-.17.82.61.58a7.11,7.11,0,0,1,1.89,7.2,7.1,7.1,0,0,1-6.74,5,6.8,6.8,0,0,1-.9-.06l-.85-.11-.53.68a7,7,0,0,1-5.55,2.74,7.54,7.54,0,0,1-1-.08l-1.83-.27Zm29.89-7.78a3.16,3.16,0,0,0-1.92.69c-1.82,1.36-2.68,4.2-.83,7a.56.56,0,0,1-.41.87c-3.18.31-5.19,2.17-5.12,4.72.07,2.7,2.55,5.54,7.15,5.75a.55.55,0,0,1,.43.24.57.57,0,0,1,.08.49c-1.09,3.33-.61,6.13,1.31,7.7a4.38,4.38,0,0,0,2.72,1,2.87,2.87,0,0,0,1.42-.35,2.37,2.37,0,0,0,1.06-2.66.62.62,0,0,1,.12-.44.56.56,0,0,1,.4-.2,7.3,7.3,0,0,0,6.39-4.69c.44-1.42.42-3.56-2.17-5.63a.57.57,0,0,1-.13-.75.58.58,0,0,1,.48-.25.54.54,0,0,1,.25.06,2.82,2.82,0,0,0,1.2.33,1.75,1.75,0,0,0,1.48-.79c1.22-1.69,1-5.66-1.07-7.7a.57.57,0,0,1,.41-1,27.35,27.35,0,0,0,3.16.28c3.58,0,4.35-2.42,4.93-5.34a.55.55,0,0,1,.5-.45h0a.6.6,0,0,1,.57.36c.87,2.34,2.59,3.82,4.59,3.94h.26a3.53,3.53,0,0,0,2.62-1.11l.5-.55-.12-.73a30.52,30.52,0,0,0-19.1-23.26l-.37-.14-.41.06h-.1l-.13,0a5.38,5.38,0,0,0-1.33-.16c-3.12,0-5.65,2.52-6.68,4.86-1.22,2.77-.61,5.4,1.6,6.86a.56.56,0,0,1,.16.78,3.48,3.48,0,0,0-.05,4.31,5.46,5.46,0,0,0,4.26,1.77,7.5,7.5,0,0,0,2.66-.5.71.71,0,0,1,.2,0,.59.59,0,0,1,.55.71c-.94,3.75-2.82,6.18-5.16,6.66a4,4,0,0,1-.83.09,4.12,4.12,0,0,1-3.29-1.72A2.89,2.89,0,0,0,128.39,106.56ZM108.1,90.32l-.19.17a30.19,30.19,0,0,0-9.35,19.43l-.1,1.23,1.19.34a5.93,5.93,0,0,0,6.9-3,.56.56,0,0,1,.68-.28l.08,0,.14,0a5.95,5.95,0,0,0,4.4-.45,5.92,5.92,0,0,0,.42-10.25.56.56,0,0,1-.22-.7l.1-.22.11-.24a5.38,5.38,0,0,0-2.39-6.24l-1-.56Z"/><path class="cls-1" d="M171.32,197.07a23.34,23.34,0,0,1-10.12-2.4.54.54,0,0,1-.31-.38l-5.78-25.11a14.73,14.73,0,0,1,8.15-16.31,2.71,2.71,0,0,0,1.51-2l1.35-8.32a8.63,8.63,0,0,1,5.79-6.79l1.47-.49-6.52-17.56a4.62,4.62,0,0,1,2.73-6,4.55,4.55,0,0,1,1.59-.28,4.66,4.66,0,0,1,4.23,2.72L186.1,138a9.69,9.69,0,0,1,.61,3.94l-.88,16.51a9.76,9.76,0,0,1-2.92,6.45l-5.9,5.76a6.64,6.64,0,0,0-1.95,5.44l0,.18L181.57,194a.57.57,0,0,1-.28.7A22.34,22.34,0,0,1,171.32,197.07Zm3.31-60.62a7.52,7.52,0,0,0-7.39,6.29l-1.36,8.32a3.82,3.82,0,0,1-2.14,2.83,13.57,13.57,0,0,0-7.53,15.05l5.72,24.84.7.3a22,22,0,0,0,8.69,1.85,20.86,20.86,0,0,0,7.67-1.47l1.36-.54L174,176.57a.58.58,0,0,1,0-.1,7.73,7.73,0,0,1,2.24-6.67l5.89-5.76a8.56,8.56,0,0,0,2.58-5.7l.89-16.51a8.6,8.6,0,0,0-.5-3.38l-.05-.11-10.66-23.67a3.51,3.51,0,0,0-3.19-2.06,3.33,3.33,0,0,0-1.21.22,3.51,3.51,0,0,0-2.07,4.49l6.67,18,.93.09.51.07a2.64,2.64,0,0,1,2.17,3l-2.72,16.62a.55.55,0,0,1-.55.47h-.1a.56.56,0,0,1-.46-.64l3-18.1-1.49-.24A8.09,8.09,0,0,0,174.63,136.45Z"/><path class="cls-1" d="M86.32,197.07a22.3,22.3,0,0,1-10-2.4.56.56,0,0,1-.28-.7l6.48-17.74,0-.18a6.64,6.64,0,0,0-1.95-5.44l-5.89-5.76a9.71,9.71,0,0,1-2.92-6.44l-.89-16.52a9.66,9.66,0,0,1,.6-3.91l10.7-23.77a4.66,4.66,0,0,1,4.24-2.72,4.59,4.59,0,0,1,1.59.28,4.63,4.63,0,0,1,2.72,6l-6.51,17.56,1.47.49a8.61,8.61,0,0,1,5.78,6.79l1.36,8.32a2.67,2.67,0,0,0,1.5,2,14.69,14.69,0,0,1,8.16,16.29l-5.79,25.13a.55.55,0,0,1-.3.38A23.4,23.4,0,0,1,86.32,197.07Zm.12-84.46a3.5,3.5,0,0,0-3.19,2.06L72.56,138.39v.06a8.42,8.42,0,0,0-.5,3.38l.88,16.51a8.63,8.63,0,0,0,2.58,5.7l5.9,5.76a7.75,7.75,0,0,1,2.24,6.66l0,.12-6.34,17.34,1.37.54a20.85,20.85,0,0,0,7.66,1.47,22,22,0,0,0,8.7-1.85l.7-.3,5.72-24.86a13.53,13.53,0,0,0-7.54-15,3.81,3.81,0,0,1-2.13-2.83l-1.36-8.32A7.52,7.52,0,0,0,83,136.45a8.5,8.5,0,0,0-1.23.1l-1.48.25,3,18.09a.55.55,0,0,1-.46.64h0a.58.58,0,0,1-.63-.46l-2.71-16.62a2.63,2.63,0,0,1,2.16-3l.52-.07.93-.09,6.66-18a3.5,3.5,0,0,0-2.07-4.49A3.29,3.29,0,0,0,86.44,112.61Z"/></g><path class="cls-1" d="M1091.28,255.43a11.07,11.07,0,0,1-9.21-5.06,8.91,8.91,0,0,1-4.79,1.39,9.25,9.25,0,0,1-9-7.34,9.9,9.9,0,0,1-7.43-9.7.75.75,0,0,1,1.5,0,8.38,8.38,0,0,0,6.71,8.34.74.74,0,0,1,.6.61,7.77,7.77,0,0,0,7.57,6.59,7.45,7.45,0,0,0,4.56-1.56.77.77,0,0,1,1.11.23,9.61,9.61,0,0,0,8.33,5,9.82,9.82,0,0,0,9.62-10,.72.72,0,0,1,.23-.53.67.67,0,0,1,.54-.22.84.84,0,0,1,.84.75.88.88,0,0,1-.12.46A11.31,11.31,0,0,1,1091.28,255.43Z"/><path class="cls-1" d="M1112.49,256.32a.75.75,0,0,1-.75-.75V242.76a7.95,7.95,0,0,0-13.79-5,.75.75,0,0,1-1.3-.51,10.54,10.54,0,0,0-21.08,0,.75.75,0,1,1-1.5,0,12,12,0,0,1,24-1.58,9.46,9.46,0,0,1,12.15.54,9.36,9.36,0,0,1,3,6.56v12.84A.76.76,0,0,1,1112.49,256.32Z"/><path class="cls-1" d="M1069.56,326.15h-32.27a.74.74,0,0,1-.75-.75V265.8a.72.72,0,0,1,.45-.68.75.75,0,0,1,.81.13l32.27,29.8a.76.76,0,0,1,.24.55v29.8A.75.75,0,0,1,1069.56,326.15Zm-31.52-1.5h30.77V295.93L1038,267.52Z"/><path class="cls-1" d="M1101.76,326.15h-32.27a.75.75,0,0,1-.75-.75V265.8a.73.73,0,0,1,.45-.68.75.75,0,0,1,.81.13l32.27,29.8a.76.76,0,0,1,.24.55v29.8A.75.75,0,0,1,1101.76,326.15Zm-31.52-1.5H1101V295.93l-30.77-28.41Z"/><path class="cls-1" d="M1122.61,326.15h-20.85a.75.75,0,0,1-.75-.75V272.7a.75.75,0,0,1,.75-.75h20.85a.75.75,0,0,1,.75.75v52.7A.75.75,0,0,1,1122.61,326.15Zm-20.1-1.5h19.35v-51.2h-19.35Z"/><path class="cls-1" d="M1125.86,273.45h-27.35a.76.76,0,0,1-.75-.75V261.11a.76.76,0,0,1,.75-.75h27.35a.76.76,0,0,1,.75.75V272.7A.76.76,0,0,1,1125.86,273.45Zm-26.6-1.5h25.85V261.86h-25.85Z"/><path class="cls-1" d="M1045,326.15a.75.75,0,0,1-.75-.75V288.57a.75.75,0,1,1,1.5,0V325.4A.74.74,0,0,1,1045,326.15Z"/><path class="cls-1" d="M1077.14,326.15a.74.74,0,0,1-.75-.75V288.57a.75.75,0,1,1,1.5,0V325.4A.75.75,0,0,1,1077.14,326.15Z"/><path class="cls-1" d="M1134.29,326.15H1026a.75.75,0,0,1,0-1.5h108.25a.75.75,0,0,1,0,1.5Z"/><g id="_28" data-name="28"><path class="cls-1" d="M443.12,199a.46.46,0,0,1-.3-.11.45.45,0,0,1,0-.65,42.66,42.66,0,0,1,3.93-3.91.49.49,0,0,1,.31-.11.48.48,0,0,1,.35.16.46.46,0,0,1-.05.64,41,41,0,0,0-3.85,3.83A.47.47,0,0,1,443.12,199Z"/><path class="cls-1" d="M474.28,252.32a26.29,26.29,0,0,1-14.7-48.09,3.8,3.8,0,0,1,2.13-.66,4.53,4.53,0,0,1,.74.07,3.83,3.83,0,0,1,1.42,6.94,18.64,18.64,0,1,0,20.83,0,3.83,3.83,0,0,1,4.29-6.35,26.29,26.29,0,0,1-14.71,48.09Zm-12.56-47.83a2.9,2.9,0,0,0-1.63.5,25.38,25.38,0,1,0,28.38,0,2.91,2.91,0,1,0-3.26,4.82,19.55,19.55,0,1,1-21.86,0,2.92,2.92,0,0,0,.79-4,2.89,2.89,0,0,0-1.87-1.22A2.57,2.57,0,0,0,461.72,204.49Z"/><path class="cls-1" d="M508,274.78a15.09,15.09,0,0,1-14.18-10l-.45-1.27-1.22.57a42,42,0,0,1-54.07-59.34.46.46,0,1,1,.79.47,41.09,41.09,0,0,0,53.53,57.73l.79-.39-.11-.87a14.25,14.25,0,0,1-.14-1.94A15.08,15.08,0,0,1,508,244.66a16.06,16.06,0,0,1,1.94.14l.87.12.38-.79a40.69,40.69,0,0,0,4.21-18.1,41.11,41.11,0,0,0-61.94-35.43.48.48,0,0,1-.23.07.48.48,0,0,1-.4-.23.53.53,0,0,1-.05-.35.44.44,0,0,1,.22-.28A42,42,0,0,1,516.3,226a41.48,41.48,0,0,1-4,17.84l-.57,1.22,1.27.46a15,15,0,0,1-5,29.23Zm-7.15-8.37a.48.48,0,0,1,.46.46.47.47,0,0,1-.14.33l-2.88,2.88,1.11.85a14,14,0,0,0,17.2,0l1.1-.85-2.88-2.88a.46.46,0,0,1,0-.65.47.47,0,0,1,.33-.14.45.45,0,0,1,.32.14l2.88,2.88.85-1.11a14,14,0,0,0,0-17.19l-.85-1.11-2.88,2.88a.45.45,0,0,1-.32.14.47.47,0,0,1-.33-.14.46.46,0,0,1,0-.65l2.88-2.88-1.1-.85a14,14,0,0,0-17.2,0l-1.11.85,2.88,2.88a.45.45,0,0,1,0,.65.44.44,0,0,1-.32.14.49.49,0,0,1-.33-.14L497.62,250l-.85,1.11a14.1,14.1,0,0,0-2.65,11.4v.09a14,14,0,0,0,2.63,5.7l.85,1.11,2.88-2.88A.47.47,0,0,1,500.83,266.41Z"/><path class="cls-1" d="M474.57,227.05a3.84,3.84,0,0,1-3.83-3.83V197.39a3.83,3.83,0,0,1,7.66,0v25.83A3.84,3.84,0,0,1,474.57,227.05Zm0-32.57a2.91,2.91,0,0,0-2.91,2.91v25.83a2.91,2.91,0,0,0,5.82,0V197.39A2.91,2.91,0,0,0,474.57,194.48Z"/><path class="cls-1" d="M507.14,261.87a.46.46,0,0,1-.46-.46V253a.45.45,0,0,1,.46-.45.46.46,0,0,1,.46.45v8H513a.45.45,0,0,1,.46.46.46.46,0,0,1-.46.46Z"/></g><path class="cls-2" d="M224.5,127.28a1.23,1.23,0,0,1,.35-.85l8.44-8.43a1.2,1.2,0,0,1,1.7,0,1.19,1.19,0,0,1,0,1.69l-7.59,7.59,7.59,7.59a1.2,1.2,0,0,1-1.7,1.7l-8.44-8.44A1.21,1.21,0,0,1,224.5,127.28Z"/><path class="cls-2" d="M214.1,127.28a1.23,1.23,0,0,1,.35-.85l8.44-8.43a1.2,1.2,0,0,1,1.7,0,1.19,1.19,0,0,1,0,1.69L217,127.28l7.59,7.59a1.2,1.2,0,1,1-1.7,1.7l-8.44-8.44A1.21,1.21,0,0,1,214.1,127.28Z"/><path class="cls-2" d="M204.5,127.28a1.23,1.23,0,0,1,.35-.85l8.44-8.43a1.2,1.2,0,0,1,1.7,0,1.19,1.19,0,0,1,0,1.69l-7.59,7.59,7.59,7.59a1.2,1.2,0,0,1-1.7,1.7l-8.44-8.44A1.21,1.21,0,0,1,204.5,127.28Z"/><path class="cls-2" d="M1148.15,241.87h-8.4a.75.75,0,0,1,0-1.5h8.4a.75.75,0,0,1,0,1.5Z"/><path class="cls-2" d="M1163.87,241.87h-8.4a.75.75,0,0,1,0-1.5h8.4a.75.75,0,0,1,0,1.5Z"/><path class="cls-2" d="M1179.58,241.87h-8.4a.75.75,0,0,1,0-1.5h8.4a.75.75,0,0,1,0,1.5Z"/><path class="cls-2" d="M1195.3,241.87h-8.4a.75.75,0,0,1,0-1.5h8.4a.75.75,0,0,1,0,1.5Z"/><path class="cls-2" d="M1211,241.87h-8.39a.75.75,0,0,1,0-1.5H1211a.75.75,0,0,1,0,1.5Z"/><path class="cls-2" d="M1336.48,253.13H1169.37v-2h167.11a38.26,38.26,0,0,0,38.21-38.22V190.46h2v22.45A40.26,40.26,0,0,1,1336.48,253.13Z"/><path class="cls-2" d="M670,194.8a16.95,16.95,0,1,1,16.94-17A17,17,0,0,1,670,194.8Zm0-32.39a15.45,15.45,0,1,0,15.44,15.44A15.46,15.46,0,0,0,670,162.41Z"/><path class="cls-2" d="M73.4,220.06h0a26.8,26.8,0,0,1-19-45.75l1.06,1.06a25.3,25.3,0,0,0,35.78,35.78l1.06,1.06A26.63,26.63,0,0,1,73.4,220.06Z"/><path class="cls-2" d="M145.41,314.17H65.48v-.75a26.8,26.8,0,0,1,51.11-11.27,16.62,16.62,0,0,1,28.82,11.27ZM67,312.67h76.9A15.11,15.11,0,0,0,117,304l-.79,1-.49-1.19A25.3,25.3,0,0,0,67,312.67Z"/><path class="cls-2" d="M1157.32,175.43h-79.93v-.75a16.61,16.61,0,0,1,28.82-11.27,26.8,26.8,0,0,1,51.11,11.27Zm-78.41-1.5h76.9a25.3,25.3,0,0,0-48.7-8.84l-.49,1.18-.79-1a15.11,15.11,0,0,0-26.92,8.66Z"/><path class="cls-2" d="M1227.33,275a20.08,20.08,0,0,1-20-20.06h1.5a18.56,18.56,0,1,0,37.11,0h1.5A20.08,20.08,0,0,1,1227.33,275Z"/><path class="cls-2" d="M818.69,309c3.88,0,5.87,1.91,7.63,3.6s3,2.93,6,2.93,4.33-1.36,6-2.93,3.75-3.6,7.63-3.6,5.87,1.91,7.62,3.6,3,2.93,6,2.93,4.32-1.36,6-2.93,3.74-3.6,7.62-3.6,5.87,1.91,7.63,3.6,3,2.93,6,2.93,4.32-1.36,6-2.93,3.74-3.6,7.62-3.6,5.87,1.91,7.62,3.6,3,2.93,6,2.93,4.32-1.36,6-2.93,3.74-3.6,7.62-3.6a1.2,1.2,0,1,1,0,2.4c-2.91,0-4.33,1.36-6,2.93s-3.74,3.6-7.62,3.6-5.87-1.92-7.62-3.6-3-2.93-6-2.93-4.33,1.36-6,2.93-3.75,3.6-7.62,3.6-5.87-1.92-7.63-3.6-3-2.93-6-2.93-4.32,1.36-6,2.93-3.74,3.6-7.62,3.6-5.87-1.92-7.62-3.6-3.05-2.93-6-2.93-4.33,1.36-6,2.93-3.75,3.6-7.63,3.6-5.87-1.92-7.63-3.6-3-2.93-6-2.93a1.2,1.2,0,0,1,0-2.4Z"/><path class="cls-2" d="M845.85,319c3.88,0,5.87,1.92,7.63,3.6s3,2.93,6,2.93,4.33-1.35,6-2.93,3.75-3.6,7.63-3.6,5.86,1.92,7.62,3.6,3,2.93,6,2.93,4.32-1.35,6-2.93,3.74-3.6,7.62-3.6,5.87,1.92,7.62,3.6,3,2.93,6,2.93,4.33-1.35,6-2.93,3.75-3.6,7.63-3.6,5.86,1.92,7.62,3.6,3,2.93,6,2.93,4.32-1.35,5.95-2.93,3.75-3.6,7.62-3.6a1.2,1.2,0,1,1,0,2.4c-2.91,0-4.32,1.36-5.95,2.93S944.83,328,941,328s-5.87-1.91-7.62-3.6-3.05-2.93-6-2.93-4.33,1.36-6,2.93-3.75,3.6-7.63,3.6-5.86-1.91-7.62-3.6-3-2.93-6-2.93-4.32,1.36-6,2.93-3.74,3.6-7.62,3.6-5.87-1.91-7.62-3.6-3-2.93-6-2.93-4.33,1.36-6,2.93-3.74,3.6-7.62,3.6-5.88-1.91-7.63-3.6-3.05-2.93-6-2.93a1.2,1.2,0,0,1,0-2.4Z"/><path class="cls-2" d="M874.58,329.07c3.88,0,5.87,1.91,7.63,3.6s3,2.93,6,2.93,4.33-1.36,6-2.93,3.75-3.6,7.63-3.6,5.87,1.91,7.62,3.6,3.05,2.93,6,2.93,4.32-1.36,6-2.93,3.74-3.6,7.62-3.6,5.87,1.91,7.63,3.6,3,2.93,6,2.93,4.32-1.36,6-2.93,3.75-3.6,7.63-3.6,5.87,1.91,7.62,3.6,3,2.93,6,2.93,4.32-1.36,6-2.93,3.74-3.6,7.62-3.6a1.2,1.2,0,1,1,0,2.4c-2.92,0-4.33,1.36-6,2.93s-3.74,3.6-7.62,3.6-5.87-1.91-7.62-3.6-3-2.93-6-2.93-4.33,1.36-6,2.93-3.75,3.6-7.62,3.6-5.87-1.91-7.63-3.6-3-2.93-6-2.93-4.32,1.36-6,2.93-3.74,3.6-7.62,3.6-5.87-1.91-7.62-3.6-3.05-2.93-6-2.93-4.33,1.36-6,2.93-3.75,3.6-7.63,3.6-5.87-1.91-7.63-3.6-3-2.93-6-2.93a1.2,1.2,0,0,1,0-2.4Z"/><path class="cls-2" d="M585.57,220.47H570.93V205.83a.52.52,0,0,0-1,0v14.64H555.25a.52.52,0,0,0,0,1h14.64v14.64a.52.52,0,0,0,1,0V221.51h14.64a.52.52,0,0,0,0-1Z"/><path class="cls-2" d="M412.67,228.74,404.92,221l7.75-7.75a.38.38,0,0,0,0-.54.39.39,0,0,0-.55,0l-7.75,7.74-7.74-7.74a.39.39,0,0,0-.55,0,.38.38,0,0,0,0,.54l7.75,7.75-7.75,7.75a.38.38,0,0,0,0,.54.38.38,0,0,0,.55,0l7.74-7.74,7.75,7.74a.38.38,0,0,0,.55,0A.38.38,0,0,0,412.67,228.74Z"/><path class="cls-2" d="M259.93,241.12a1.6,1.6,0,1,1-1.6-1.6A1.6,1.6,0,0,1,259.93,241.12Zm5-1.09a1.67,1.67,0,1,1-.25,0Zm6.46,1.54a1.6,1.6,0,0,1-1,3.05,1.61,1.61,0,0,1-1-2,1.59,1.59,0,0,1,1.52-1.11A1.67,1.67,0,0,1,271.41,241.57Zm6.15,2.53a1.58,1.58,0,1,1-.72-.18A1.6,1.6,0,0,1,277.56,244.1Zm5.68,3.45a1.62,1.62,0,1,1-.94-.3A1.6,1.6,0,0,1,283.24,247.55Zm5.07,4.29a1.6,1.6,0,1,1-2.27,0,1.62,1.62,0,0,1,2.27,0Zm4.34,5a1.6,1.6,0,1,1-2.57,1.9,1.6,1.6,0,1,1,2.57-1.9Zm3.51,5.63a1.6,1.6,0,1,1-2.16-.68,1.69,1.69,0,0,1,.75-.18A1.58,1.58,0,0,1,296.16,262.49Zm2.6,6.11a1.6,1.6,0,0,1-3,1,1.6,1.6,0,0,1,1-2,1.8,1.8,0,0,1,.5-.08A1.6,1.6,0,0,1,298.76,268.6Zm1.61,6.45a1.6,1.6,0,1,1-1.84-1.31l.27,0A1.6,1.6,0,0,1,300.37,275.05Zm.59,6.61a1.6,1.6,0,1,1-1.62-1.58A1.61,1.61,0,0,1,301,281.66Zm-1.79,4.81a1.65,1.65,0,1,1-.23,0ZM298,292.76a1.6,1.6,0,1,1-.47-.07A1.58,1.58,0,0,1,298,292.76Zm-2.13,6a1.6,1.6,0,1,1-2.14.73,1.61,1.61,0,0,1,1.44-.9A1.64,1.64,0,0,1,295.88,298.8Zm-3,5.62a1.62,1.62,0,0,1,.39,2.24,1.6,1.6,0,1,1-1.31-2.52A1.56,1.56,0,0,1,292.84,304.42ZM289,309.51a1.61,1.61,0,0,1,0,2.27,1.63,1.63,0,0,1-2.27,0,1.61,1.61,0,0,1,0-2.27,1.58,1.58,0,0,1,1.15-.49A1.63,1.63,0,0,1,289,309.51Zm-4.62,4.43a1.6,1.6,0,1,1-2.25-.32,1.68,1.68,0,0,1,1-.32A1.6,1.6,0,0,1,284.34,313.94Zm-5.25,3.65a1.58,1.58,0,1,1-1.41-.85A1.61,1.61,0,0,1,279.09,317.59Zm-5.75,2.8a1.58,1.58,0,0,1-1,2,1.59,1.59,0,1,1-1.05-3,1.37,1.37,0,0,1,.52-.1A1.61,1.61,0,0,1,273.34,320.39Zm-6.12,1.87a1.59,1.59,0,1,1-1.86-1.3,1.46,1.46,0,0,1,.29,0A1.59,1.59,0,0,1,267.22,322.26Zm-6.33.88a1.61,1.61,0,0,1-1.57,1.64,1.6,1.6,0,0,1-.07-3.2h0A1.6,1.6,0,0,1,260.89,323.14Z"/><path class="cls-2" d="M259.93,249.55a1.6,1.6,0,1,1-1.6-1.59A1.6,1.6,0,0,1,259.93,249.55Zm5.07-.94a1.6,1.6,0,1,1-.32,0A1.16,1.16,0,0,1,265,248.61Zm6.41,1.93a1.6,1.6,0,1,1-1.22,3,1.59,1.59,0,0,1-.87-2.08,1.61,1.61,0,0,1,1.48-1A1.66,1.66,0,0,1,271.41,250.54Zm5.91,3.17a1.59,1.59,0,1,1-.88-.27A1.59,1.59,0,0,1,277.32,253.71ZM282.5,258a1.61,1.61,0,1,1-1.13-.46A1.59,1.59,0,0,1,282.5,258Zm4.26,5.18a1.6,1.6,0,1,1-1.33-.71A1.61,1.61,0,0,1,286.76,263.14Zm3.16,5.91a1.59,1.59,0,0,1-.86,2.09,1.6,1.6,0,1,1-.61-3.08A1.58,1.58,0,0,1,289.92,269.05Zm2,6.41a1.6,1.6,0,1,1-3.14.62A1.59,1.59,0,0,1,290,274.2a1.55,1.55,0,0,1,.31,0A1.62,1.62,0,0,1,291.88,275.46Zm.65,6.67a1.6,1.6,0,1,1-1.6-1.6A1.6,1.6,0,0,1,292.53,282.13Zm-1.9,4.78a1.6,1.6,0,1,1-.31,0Zm-1.55,6.21a1.6,1.6,0,1,1-1.22,3,1.6,1.6,0,0,1,.62-3.08A1.61,1.61,0,0,1,289.08,293.12Zm-2.73,5.78a1.6,1.6,0,1,1-2.22.44,1.63,1.63,0,0,1,1.33-.71A1.6,1.6,0,0,1,286.35,298.9ZM282.54,304a1.6,1.6,0,1,1-2.26,0,1.61,1.61,0,0,1,2.26,0Zm-4.73,4.3a1.61,1.61,0,0,1-.44,2.23,1.6,1.6,0,0,1-1.78-2.66,1.61,1.61,0,0,1,2.22.43Zm-5.48,3.31a1.6,1.6,0,1,1-2.09-.87,1.66,1.66,0,0,1,.61-.12A1.59,1.59,0,0,1,272.33,311.65Zm-6,2.16a1.61,1.61,0,0,1-3.15.63,1.6,1.6,0,0,1,1.27-1.88,1.55,1.55,0,0,1,.31,0A1.61,1.61,0,0,1,266.32,313.81Zm-6.33.94a1.6,1.6,0,1,1-1.6-1.6A1.6,1.6,0,0,1,260,314.75Z"/><path class="cls-2" d="M259.93,258.12a1.6,1.6,0,1,1-1.6-1.6A1.6,1.6,0,0,1,259.93,258.12Zm5-.75a1.62,1.62,0,1,1-.41-.05A1.44,1.44,0,0,1,264.91,257.37Zm6.14,2.52a1.6,1.6,0,1,1-.79-.21A1.54,1.54,0,0,1,271.05,259.89Zm5.28,4a1.59,1.59,0,1,1-1.12-.46A1.57,1.57,0,0,1,276.33,263.9Zm4.09,5.23a1.6,1.6,0,1,1-2.19-.56,1.58,1.58,0,0,1,2.19.56Zm2.6,6.1a1.6,1.6,0,1,1-2-1.1,1.68,1.68,0,0,1,.43-.07A1.6,1.6,0,0,1,283,275.23Zm.94,6.57a1.58,1.58,0,0,1-1.57,1.62A1.6,1.6,0,1,1,284,281.8ZM282,286.45a1.59,1.59,0,1,1-.39-.05A1.74,1.74,0,0,1,282,286.45Zm-1.89,5.94a1.6,1.6,0,1,1-.78-.2A1.68,1.68,0,0,1,280.15,292.39Zm-3.37,5.25a1.61,1.61,0,1,1-1.1-.44A1.54,1.54,0,0,1,276.78,297.64Zm-4.58,4.22a1.6,1.6,0,1,1-2.2-.53,1.53,1.53,0,0,1,.83-.23A1.63,1.63,0,0,1,272.2,301.86Zm-5.52,2.9a1.6,1.6,0,1,1-2-1.08,1.49,1.49,0,0,1,.46-.06A1.6,1.6,0,0,1,266.68,304.76Zm-6.08,1.38a1.61,1.61,0,0,1-1.56,1.64,1.6,1.6,0,0,1-.09-3.2H259A1.61,1.61,0,0,1,260.6,306.14Z"/><path class="cls-2" d="M801,324.28H637.67a28.39,28.39,0,0,1-28.36-28.36V210a23.55,23.55,0,0,0-23.52-23.52H531.33v-1h54.46A24.55,24.55,0,0,1,610.31,210v85.9a27.39,27.39,0,0,0,27.36,27.36H801Z"/><path class="cls-2" d="M262.74,284.63H154.45A26.48,26.48,0,0,1,128,258.19V208.12h1.5v50.07a25,25,0,0,0,24.95,24.94H262.74Z"/><rect class="cls-2" x="939.4" y="213.04" width="2.23" height="8.65"/><rect class="cls-2" x="928.51" y="215.36" width="2.23" height="8.65" transform="translate(-8.98 397.11) rotate(-24)"/><rect class="cls-2" x="919.5" y="221.9" width="2.23" height="8.65" transform="translate(136.5 759.03) rotate(-48)"/><rect class="cls-2" x="913.93" y="231.54" width="2.23" height="8.65" transform="translate(407.96 1033.24) rotate(-72)"/><rect class="cls-2" x="909.56" y="245.83" width="8.65" height="2.23" transform="translate(-20.8 96.85) rotate(-6)"/><rect class="cls-2" x="913" y="256.42" width="8.65" height="2.23" transform="translate(-5.89 493.09) rotate(-30)"/><rect class="cls-2" x="920.45" y="264.69" width="8.65" height="2.23" transform="translate(166.17 857.73) rotate(-54)"/><rect class="cls-2" x="930.62" y="269.22" width="8.65" height="2.23" transform="translate(475.99 1128.56) rotate(-77.99)"/><rect class="cls-2" x="944.96" y="266.01" width="2.23" height="8.65" transform="translate(-35.53 202.55) rotate(-12)"/><rect class="cls-2" x="955.14" y="261.48" width="2.23" height="8.65" transform="translate(26.38 612.8) rotate(-36)"/><rect class="cls-2" x="962.59" y="253.2" width="2.23" height="8.65" transform="translate(258.82 963.36) rotate(-60)"/><rect class="cls-2" x="966.03" y="242.62" width="2.23" height="8.65" transform="translate(620.46 1182.97) rotate(-84)"/><rect class="cls-2" x="961.65" y="234.76" width="8.65" height="2.23" transform="matrix(0.95, -0.31, 0.31, 0.95, -25.61, 309.99)"/><rect class="cls-2" x="956.08" y="225.11" width="8.65" height="2.23" transform="translate(95.25 700.63) rotate(-41.99)"/><rect class="cls-2" x="947.07" y="218.57" width="8.65" height="2.23" transform="translate(363.74 999.48) rotate(-66)"/><path class="cls-2" d="M358.68,281.27a1.2,1.2,0,0,1-.84-2l7.58-7.59L357.84,264a1.2,1.2,0,0,1,1.69-1.69l8.44,8.43a1.2,1.2,0,0,1,0,1.7l-8.44,8.44A1.2,1.2,0,0,1,358.68,281.27Z"/><path class="cls-2" d="M366.74,281.27a1.22,1.22,0,0,1-.85-.35,1.2,1.2,0,0,1,0-1.7l7.59-7.59L365.89,264a1.19,1.19,0,0,1,0-1.69,1.2,1.2,0,0,1,1.7,0l8.43,8.43a1.2,1.2,0,0,1,0,1.7l-8.43,8.44A1.22,1.22,0,0,1,366.74,281.27Z"/><path class="cls-2" d="M374.8,281.27a1.2,1.2,0,0,1-.85-2l7.59-7.59L374,264a1.2,1.2,0,0,1,1.69-1.69l8.44,8.43a1.2,1.2,0,0,1,0,1.7l-8.44,8.44A1.2,1.2,0,0,1,374.8,281.27Z"/><path class="cls-2" d="M382.85,281.27a1.24,1.24,0,0,1-.85-.35,1.2,1.2,0,0,1,0-1.7l7.59-7.59L382,264a1.19,1.19,0,0,1,0-1.69,1.2,1.2,0,0,1,1.7,0l8.44,8.43a1.2,1.2,0,0,1,0,1.7l-8.44,8.44A1.2,1.2,0,0,1,382.85,281.27Z"/><path class="cls-2" d="M390.91,281.27a1.2,1.2,0,0,1-.85-2l7.59-7.59L390.06,264a1.19,1.19,0,0,1,0-1.69,1.2,1.2,0,0,1,1.7,0l8.43,8.43a1.2,1.2,0,0,1,0,1.7l-8.43,8.44A1.22,1.22,0,0,1,390.91,281.27Z"/><path class="cls-2" d="M399,281.27a1.2,1.2,0,0,1-.84-2l7.58-7.59L398.12,264a1.2,1.2,0,0,1,1.69-1.69l8.44,8.43a1.2,1.2,0,0,1,0,1.7l-8.44,8.44A1.2,1.2,0,0,1,399,281.27Z"/><path class="cls-2" d="M1368.86,266.32a1.33,1.33,0,0,1,.85.31,1,1,0,0,1,0,1.5l-7.59,6.67,7.59,6.67a1,1,0,0,1,0,1.49,1.33,1.33,0,0,1-1.7,0l-8.44-7.42a1,1,0,0,1,0-1.49l8.44-7.42A1.31,1.31,0,0,1,1368.86,266.32Z"/><path class="cls-2" d="M1360.8,266.32a1.31,1.31,0,0,1,.85.31,1,1,0,0,1,0,1.5l-7.59,6.67,7.59,6.67a1,1,0,0,1,0,1.49,1.33,1.33,0,0,1-1.7,0l-8.43-7.42a1,1,0,0,1,0-1.49l8.43-7.42A1.35,1.35,0,0,1,1360.8,266.32Z"/><path class="cls-2" d="M1352.75,266.32a1.3,1.3,0,0,1,.84.31,1,1,0,0,1,0,1.5L1346,274.8l7.58,6.67a1,1,0,0,1,0,1.49,1.31,1.31,0,0,1-1.69,0l-8.44-7.42a1,1,0,0,1,0-1.49l8.44-7.42A1.31,1.31,0,0,1,1352.75,266.32Z"/><path class="cls-2" d="M1344.69,266.32a1.33,1.33,0,0,1,.85.31,1,1,0,0,1,0,1.5L1338,274.8l7.59,6.67a1,1,0,0,1,0,1.49,1.33,1.33,0,0,1-1.7,0l-8.44-7.42a1,1,0,0,1,0-1.49l8.44-7.42A1.33,1.33,0,0,1,1344.69,266.32Z"/><path class="cls-2" d="M1336.63,266.32a1.31,1.31,0,0,1,.85.31,1,1,0,0,1,0,1.5l-7.59,6.67,7.59,6.67a1,1,0,0,1,0,1.49,1.31,1.31,0,0,1-1.69,0l-8.44-7.42a1,1,0,0,1,0-1.49l8.44-7.42A1.3,1.3,0,0,1,1336.63,266.32Z"/><path class="cls-2" d="M1328.58,266.32a1.35,1.35,0,0,1,.85.31,1,1,0,0,1,0,1.5l-7.59,6.67,7.59,6.67a1,1,0,0,1,0,1.49,1.33,1.33,0,0,1-1.7,0l-8.44-7.42a1,1,0,0,1,0-1.49l8.44-7.42A1.31,1.31,0,0,1,1328.58,266.32Z"/><path class="cls-2" d="M648.53,289.27a1.24,1.24,0,0,1-.35.85,1.22,1.22,0,0,1-1.7,0l-7.59-7.59-7.58,7.59a1.22,1.22,0,0,1-1.7,0,1.2,1.2,0,0,1,0-1.7l8.44-8.44a1.19,1.19,0,0,1,1.69,0l8.44,8.44A1.2,1.2,0,0,1,648.53,289.27Z"/><path class="cls-2" d="M648.53,281.27a1.24,1.24,0,0,1-.35.85,1.22,1.22,0,0,1-1.7,0l-7.59-7.59-7.58,7.59a1.22,1.22,0,0,1-1.7,0,1.2,1.2,0,0,1,0-1.7l8.44-8.44a1.19,1.19,0,0,1,1.69,0l8.44,8.44A1.2,1.2,0,0,1,648.53,281.27Z"/><path class="cls-2" d="M648.53,273.27a1.24,1.24,0,0,1-.35.85,1.22,1.22,0,0,1-1.7,0l-7.59-7.59-7.58,7.59a1.22,1.22,0,0,1-1.7,0,1.2,1.2,0,0,1,0-1.7l8.44-8.44a1.19,1.19,0,0,1,1.69,0l8.44,8.44A1.2,1.2,0,0,1,648.53,273.27Z"/></g></svg>