<svg xmlns="http://www.w3.org/2000/svg" xmlns:xlink="http://www.w3.org/1999/xlink" viewBox="0 0 270 200"><defs><style>.cls-1{fill:none;}.cls-2{clip-path:url(#clip-path);}.cls-3{fill:#00de76;}</style><clipPath id="clip-path"><rect class="cls-1" x="-165.26" y="-835.99" width="1920" height="600"/></clipPath></defs><g id="bg"><g class="cls-2"><image width="1960" height="1470" transform="translate(-185.26 -1301.41)" xlink:href="../images/aaa.jpg"/></g></g><g id="Layer_3" data-name="Layer 3"><path class="cls-3" d="M71.74,173.44A29.82,29.82,0,0,1,42,143.66V102l-1.38,0A21.42,21.42,0,0,1,19.5,80.59V56.82a1.13,1.13,0,0,1,1.13-1.13h9v-19a1.13,1.13,0,0,1,2.26,0v19H53.41v-19a1.13,1.13,0,0,1,2.26,0v19h9a1.13,1.13,0,0,1,1.13,1.13V80.59a21.34,21.34,0,0,1-20.21,21.3l-1.33.07v41.7a27.56,27.56,0,0,0,27.53,27.52h47.18a27.56,27.56,0,0,0,27.52-27.52v-6.88h-1.71a23.07,23.07,0,0,1-23-23v-1.92a1.13,1.13,0,0,1,1.13-1.13h1.92a23,23,0,0,1,19.14,10.23l2.56,3.8V105l-.48-.42c-4.4-3.86-18.77-17.8-18.77-34.94,0-19.56,18.86-35.06,19.67-35.71a1.11,1.11,0,0,1,.71-.25,1.09,1.09,0,0,1,.71.25C149.09,34.6,168,50.1,168,69.66c0,17.15-14.37,31.08-18.77,34.94l-.48.42v19.71l2.56-3.81a23,23,0,0,1,19.14-10.23h1.92a1.13,1.13,0,0,1,1.13,1.13v1.92a23.07,23.07,0,0,1-23,23H148.7v6.88a29.81,29.81,0,0,1-29.78,29.78Zm98-60.48a20.8,20.8,0,0,0-20.11,20.11l0,1.48,1.49,0a20.81,20.81,0,0,0,20.1-20.11l.05-1.49ZM124,114.4a20.82,20.82,0,0,0,20.11,20.11l1.49,0-.05-1.48A20.79,20.79,0,0,0,125.41,113l-1.49,0Zm22.66-77.22c-5.16,4.78-17.17,17.53-17.17,32.48,0,13,9.14,24.32,14.59,29.94l2.4,2.48V60.49a1.13,1.13,0,1,1,2.26,0v41.59l2.4-2.49c5.45-5.63,14.59-17,14.59-29.93,0-15-12-27.71-17.17-32.49l-1-.87ZM21.76,80.59a19.12,19.12,0,0,0,19.09,19.1H44.4a19.12,19.12,0,0,0,19.09-19.1V58H21.76Z"/><path class="cls-3" d="M209.47,28.16a1.6,1.6,0,1,1-1.6-1.6A1.6,1.6,0,0,1,209.47,28.16Zm5-1.09a1.67,1.67,0,1,1-.25,0ZM221,28.61a1.6,1.6,0,0,1-1,3.05,1.6,1.6,0,0,1,.49-3.13A1.67,1.67,0,0,1,221,28.61Zm6.14,2.53a1.57,1.57,0,1,1-.72-.18A1.54,1.54,0,0,1,227.09,31.14Zm5.68,3.45a1.6,1.6,0,1,1-.93-.3A1.61,1.61,0,0,1,232.77,34.59Zm5.08,4.29a1.6,1.6,0,0,1-2.26,2.27,1.61,1.61,0,0,1,0-2.26,1.64,1.64,0,0,1,1.15-.47A1.61,1.61,0,0,1,237.85,38.88Zm4.34,5a1.61,1.61,0,1,1-1.29-.65A1.61,1.61,0,0,1,242.19,43.9Zm3.51,5.63a1.6,1.6,0,1,1-2.16-.68,1.69,1.69,0,0,1,.75-.18A1.6,1.6,0,0,1,245.7,49.53Zm2.6,6.11a1.6,1.6,0,1,1-2-1,1.74,1.74,0,0,1,.5-.08A1.61,1.61,0,0,1,248.3,55.64Zm1.61,6.45a1.6,1.6,0,0,1-3.15.53,1.59,1.59,0,0,1,1.31-1.84l.26,0A1.6,1.6,0,0,1,249.91,62.09Zm.59,6.61a1.6,1.6,0,1,1-1.62-1.58A1.61,1.61,0,0,1,250.5,68.7Zm-1.79,4.81a1.66,1.66,0,1,1-.23,0Zm-1.16,6.29a1.6,1.6,0,1,1-.47-.07A1.58,1.58,0,0,1,247.55,79.8Zm-2.13,6a1.58,1.58,0,1,1-.7-.17A1.64,1.64,0,0,1,245.42,85.84Zm-3,5.62a1.6,1.6,0,1,1-1.84,2.62,1.6,1.6,0,0,1-.39-2.22,1.58,1.58,0,0,1,1.31-.68A1.56,1.56,0,0,1,242.37,91.46Zm-3.88,5.09a1.6,1.6,0,1,1-2.26,0,1.59,1.59,0,0,1,2.26,0ZM233.88,101a1.6,1.6,0,1,1-2.25-.32,1.68,1.68,0,0,1,1-.32A1.6,1.6,0,0,1,233.88,101Zm-5.25,3.65a1.58,1.58,0,1,1-1.42-.85A1.63,1.63,0,0,1,228.63,104.63Zm-5.75,2.8a1.6,1.6,0,1,1-2-1,1.34,1.34,0,0,1,.52-.1A1.61,1.61,0,0,1,222.88,107.43Zm-6.12,1.87a1.6,1.6,0,1,1-1.86-1.3,1.42,1.42,0,0,1,.29,0A1.59,1.59,0,0,1,216.76,109.3Zm-6.33.88a1.61,1.61,0,0,1-1.57,1.64,1.6,1.6,0,0,1-.07-3.2h0A1.6,1.6,0,0,1,210.43,110.18Z"/><path class="cls-3" d="M209.47,36.59a1.6,1.6,0,1,1-1.6-1.59A1.6,1.6,0,0,1,209.47,36.59Zm5.06-.94a1.6,1.6,0,0,1,1.27,1.88,1.61,1.61,0,1,1-1.58-1.91A1.05,1.05,0,0,1,214.53,35.65ZM221,37.59a1.6,1.6,0,1,1-2.09.87,1.61,1.61,0,0,1,1.48-1A1.49,1.49,0,0,1,221,37.59Zm5.91,3.16a1.6,1.6,0,1,1-2.21.44,1.57,1.57,0,0,1,1.32-.71A1.6,1.6,0,0,1,226.86,40.75ZM232,45a1.62,1.62,0,1,1-1.13-.46A1.59,1.59,0,0,1,232,45Zm4.26,5.18a1.6,1.6,0,1,1-1.33-.71A1.61,1.61,0,0,1,236.3,50.18Zm3.16,5.91a1.6,1.6,0,1,1-2.09-.87,1.67,1.67,0,0,1,.62-.12A1.59,1.59,0,0,1,239.46,56.09Zm1.95,6.41a1.6,1.6,0,1,1-1.88-1.26,1.73,1.73,0,0,1,.32,0A1.6,1.6,0,0,1,241.41,62.5Zm.66,6.67a1.6,1.6,0,1,1-1.6-1.6A1.6,1.6,0,0,1,242.07,69.17ZM240.17,74a1.6,1.6,0,1,1-.32,0C240,73.92,240.06,73.94,240.17,74Zm-1.55,6.21A1.6,1.6,0,1,1,238,80,1.66,1.66,0,0,1,238.62,80.16Zm-2.73,5.78a1.6,1.6,0,1,1-2.22.44,1.6,1.6,0,0,1,2.22-.44Zm-3.81,5.14a1.6,1.6,0,1,1-2.26,2.27,1.61,1.61,0,0,1,0-2.26,1.62,1.62,0,0,1,2.27,0Zm-4.73,4.3a1.6,1.6,0,1,1-2.22-.43,1.61,1.61,0,0,1,2.22.43Zm-5.48,3.31a1.6,1.6,0,1,1-2.1-.87,1.75,1.75,0,0,1,.62-.12A1.6,1.6,0,0,1,221.87,98.69Zm-6,2.16A1.6,1.6,0,1,1,214,99.6a1.73,1.73,0,0,1,.32,0A1.59,1.59,0,0,1,215.85,100.85Zm-6.32.94a1.6,1.6,0,1,1-1.6-1.6A1.6,1.6,0,0,1,209.53,101.79Z"/><path class="cls-3" d="M209.47,45.16a1.6,1.6,0,1,1-1.6-1.6A1.6,1.6,0,0,1,209.47,45.16Zm5-.75a1.62,1.62,0,1,1-.41,0A2,2,0,0,1,214.45,44.41Zm6.14,2.52a1.6,1.6,0,1,1-.79-.21A1.64,1.64,0,0,1,220.59,46.93Zm5.28,4a1.6,1.6,0,1,1-2.26,0,1.59,1.59,0,0,1,1.14-.48A1.57,1.57,0,0,1,225.87,50.94ZM230,56.17a1.6,1.6,0,1,1-2.19-.56,1.57,1.57,0,0,1,.8-.23A1.61,1.61,0,0,1,230,56.17Zm2.6,6.1a1.6,1.6,0,1,1-3.08.87,1.59,1.59,0,0,1,1.11-2,1.56,1.56,0,0,1,2,1.1Zm.94,6.57a1.58,1.58,0,0,1-1.57,1.62,1.6,1.6,0,1,1,1.57-1.62Zm-1.92,4.65a1.59,1.59,0,1,1-.39,0A1.74,1.74,0,0,1,231.58,73.49Zm-1.89,5.94a1.6,1.6,0,0,1-1.56,2.8,1.6,1.6,0,0,1,.78-3A1.71,1.71,0,0,1,229.69,79.43Zm-3.37,5.25a1.6,1.6,0,1,1-2.26,0,1.61,1.61,0,0,1,2.26,0Zm-4.59,4.22a1.61,1.61,0,1,1-1.36-.76A1.6,1.6,0,0,1,221.73,88.9Zm-5.52,2.9a1.6,1.6,0,1,1-2-1.08,1.46,1.46,0,0,1,.46-.06A1.58,1.58,0,0,1,216.21,91.8Zm-6.08,1.38a1.6,1.6,0,1,1-3.2.08,1.61,1.61,0,0,1,1.56-1.64h0A1.6,1.6,0,0,1,210.13,93.18Z"/></g></svg>