<svg id="eSJQvY1eC091" xmlns="http://www.w3.org/2000/svg" xmlns:xlink="http://www.w3.org/1999/xlink" viewBox="0 0 1200 600" shape-rendering="geometricPrecision" text-rendering="geometricPrecision"><g transform="translate(0 0.000001)" opacity="0.3"><line x1="362.6" y1="379.8" x2="196.5" y2="379.8" fill="none" stroke="#6dff40" stroke-width="3" stroke-linecap="round" stroke-linejoin="round" stroke-miterlimit="10"/><g><line x1="338.8" y1="379.8" x2="338.8" y2="278.4" fill="none" stroke="#6dff40" stroke-width="3" stroke-linecap="round" stroke-linejoin="round" stroke-miterlimit="10"/><line x1="220.4" y1="379.8" x2="220.4" y2="278.4" fill="none" stroke="#6dff40" stroke-width="3" stroke-linecap="round" stroke-linejoin="round" stroke-miterlimit="10"/></g><polygon points="359.6,272.3 279.6,216.3 199.5,272.3 199.5,292.2 279.6,235.5 359.6,292.2" fill="none" stroke="#6dff40" stroke-width="3" stroke-linecap="round" stroke-linejoin="round" stroke-miterlimit="10"/><path d="M285.4,353.9c0,0-25.1,1.3-36-10.5s-11.4-38-11.4-38s29.9-1.5,39.6,12.2c13.4,15.8,7.8,36.3,7.8,36.3Z" fill="none" stroke="#6dff40" stroke-width="3" stroke-linecap="round" stroke-linejoin="round" stroke-miterlimit="10"/><line x1="253.3" y1="320" x2="285.4" y2="353.9" fill="none" stroke="#6dff40" stroke-width="3" stroke-linecap="round" stroke-linejoin="round" stroke-miterlimit="10"/><path d="M282.4,324.9c3-21,36.6-17.7,36.6-17.7s1.5,25.4-9.5,33.9-23.2,7.3-23.2,7.3" fill="none" stroke="#6dff40" stroke-width="3" stroke-linecap="round" stroke-linejoin="round" stroke-miterlimit="10"/><line x1="307.1" y1="319.4" x2="286.4" y2="339.5" fill="none" stroke="#6dff40" stroke-width="3" stroke-linecap="round" stroke-linejoin="round" stroke-miterlimit="10"/></g><g transform="translate(0 0.000001)"><line id="eSJQvY1eC0913" x1="362.6" y1="379.8" x2="196.5" y2="379.8" fill="none" stroke="#6dff40" stroke-width="3" stroke-linecap="round" stroke-linejoin="round" stroke-miterlimit="10" stroke-dashoffset="166.1" stroke-dasharray="166.1"/><line id="eSJQvY1eC0914" x1="338.8" y1="379.8" x2="338.8" y2="278.4" fill="none" stroke="#6dff40" stroke-width="3" stroke-linecap="round" stroke-linejoin="round" stroke-miterlimit="10" stroke-dashoffset="101.4" stroke-dasharray="101.4"/><line id="eSJQvY1eC0915" x1="220.4" y1="379.8" x2="220.4" y2="278.4" fill="none" stroke="#6dff40" stroke-width="3" stroke-linecap="round" stroke-linejoin="round" stroke-miterlimit="10" stroke-dashoffset="101.4" stroke-dasharray="101.4"/><polygon id="eSJQvY1eC0916" points="359.6,272.3 279.6,216.3 199.5,272.3 199.5,292.2 279.6,235.5 359.6,292.2" fill="none" stroke="#6dff40" stroke-width="3" stroke-linecap="round" stroke-linejoin="round" stroke-miterlimit="10" stroke-dashoffset="431.379524" stroke-dasharray="431.379524"/><path id="eSJQvY1eC0917" d="M285.4,353.9c0,0-25.1,1.3-36-10.5s-11.4-38-11.4-38s29.9-1.5,39.6,12.2c13.4,15.8,7.8,36.3,7.8,36.3Z" fill="none" stroke="#6dff40" stroke-width="3" stroke-linecap="round" stroke-linejoin="round" stroke-miterlimit="10" stroke-dashoffset="160.248507" stroke-dasharray="160.248507"/><line id="eSJQvY1eC0918" x1="253.3" y1="320" x2="285.4" y2="353.9" fill="none" stroke="#6dff40" stroke-width="3" stroke-linecap="round" stroke-linejoin="round" stroke-miterlimit="10" stroke-dashoffset="46.686401" stroke-dasharray="46.686401"/><path id="eSJQvY1eC0919" d="M282.4,324.9c3-21,36.6-17.7,36.6-17.7s1.5,25.4-9.5,33.9-23.2,7.3-23.2,7.3" fill="none" stroke="#6dff40" stroke-width="3" stroke-linecap="round" stroke-linejoin="round" stroke-miterlimit="10" stroke-dashoffset="105.903999" stroke-dasharray="105.903999"/><line id="eSJQvY1eC0920" x1="307.1" y1="319.4" x2="286.4" y2="339.5" fill="none" stroke="#6dff40" stroke-width="3" stroke-linecap="round" stroke-linejoin="round" stroke-miterlimit="10" stroke-dashoffset="28.853076" stroke-dasharray="28.853076"/></g><g opacity="0.3"><polygon points="967.3,303.5 879.1,303.5 843.1,369.4 1003.3,369.4" fill="none" stroke="#6dff40" stroke-width="3" stroke-linecap="round" stroke-linejoin="round" stroke-miterlimit="10"/><line x1="936.7" y1="303.5" x2="953" y2="369.4" fill="none" stroke="#6dff40" stroke-width="3" stroke-linecap="round" stroke-linejoin="round" stroke-miterlimit="10"/><line x1="909.6" y1="303.5" x2="893.4" y2="369.4" fill="none" stroke="#6dff40" stroke-width="3" stroke-linecap="round" stroke-linejoin="round" stroke-miterlimit="10"/><line x1="867.7" y1="324.3" x2="977.6" y2="324.3" fill="none" stroke="#6dff40" stroke-width="3" stroke-linecap="round" stroke-linejoin="round" stroke-miterlimit="10"/><line x1="856.2" y1="345.4" x2="989.7" y2="345.4" fill="none" stroke="#6dff40" stroke-width="3.3073" stroke-linecap="round" stroke-linejoin="round" stroke-miterlimit="10"/><polyline points="990.4,369.4 990.4,385.6 856,385.6 856,370.1" fill="none" stroke="#6dff40" stroke-width="3.3073" stroke-linecap="round" stroke-linejoin="round" stroke-miterlimit="10"/></g><g><polygon id="eSJQvY1eC0929" points="967.3,303.5 879.1,303.5 843.1,369.4 1003.3,369.4" fill="none" stroke="#6dff40" stroke-width="3" stroke-linecap="round" stroke-linejoin="round" stroke-miterlimit="10" stroke-dashoffset="398.58402" stroke-dasharray="398.58402"/><line id="eSJQvY1eC0930" x1="936.7" y1="303.5" x2="953" y2="369.4" fill="none" stroke="#6dff40" stroke-width="3" stroke-linecap="round" stroke-linejoin="round" stroke-miterlimit="10" stroke-dashoffset="67.885934" stroke-dasharray="67.885934"/><line id="eSJQvY1eC0931" x1="909.6" y1="303.5" x2="893.4" y2="369.4" fill="none" stroke="#6dff40" stroke-width="3" stroke-linecap="round" stroke-linejoin="round" stroke-miterlimit="10" stroke-dashoffset="67.861992" stroke-dasharray="67.861992"/><line id="eSJQvY1eC0932" x1="867.7" y1="324.3" x2="977.6" y2="324.3" fill="none" stroke="#6dff40" stroke-width="3" stroke-linecap="round" stroke-linejoin="round" stroke-miterlimit="10" stroke-dashoffset="109.9" stroke-dasharray="109.9"/><line id="eSJQvY1eC0933" x1="856.2" y1="345.4" x2="989.7" y2="345.4" fill="none" stroke="#6dff40" stroke-width="3.3073" stroke-linecap="round" stroke-linejoin="round" stroke-miterlimit="10" stroke-dashoffset="133.5" stroke-dasharray="133.5"/><polyline id="eSJQvY1eC0934" points="990.4,369.4 990.4,385.6 856,385.6 856,370.1" fill="none" stroke="#6dff40" stroke-width="3.3073" stroke-linecap="round" stroke-linejoin="round" stroke-miterlimit="10" stroke-dashoffset="166.1" stroke-dasharray="166.1"/></g><g><circle id="eSJQvY1eC0936" r="25.1" transform="translate(922.9 249.7)" opacity="0" fill="none" stroke="#6dff40" stroke-width="3.3073" stroke-linecap="round" stroke-linejoin="round" stroke-miterlimit="10"/><g id="eSJQvY1eC0937" opacity="0"><line x1="923.2" y1="209.6" x2="923.2" y2="220.5" fill="none" stroke="#6dff40" stroke-width="3.3073" stroke-linecap="round" stroke-linejoin="round" stroke-miterlimit="10"/><line x1="923.2" y1="278.6" x2="923.2" y2="289.5" fill="none" stroke="#6dff40" stroke-width="3.3073" stroke-linecap="round" stroke-linejoin="round" stroke-miterlimit="10"/></g><g id="eSJQvY1eC0940" opacity="0"><line x1="963.1" y1="249.6" x2="952.2" y2="249.6" fill="none" stroke="#6dff40" stroke-width="3.3073" stroke-linecap="round" stroke-linejoin="round" stroke-miterlimit="10"/><line x1="894.2" y1="249.6" x2="883.3" y2="249.6" fill="none" stroke="#6dff40" stroke-width="3.3073" stroke-linecap="round" stroke-linejoin="round" stroke-miterlimit="10"/></g><g id="eSJQvY1eC0943" opacity="0"><line x1="951.4" y1="277.8" x2="943.7" y2="270.1" fill="none" stroke="#6dff40" stroke-width="3.3073" stroke-linecap="round" stroke-linejoin="round" stroke-miterlimit="10"/><line x1="902.7" y1="229" x2="895" y2="221.3" fill="none" stroke="#6dff40" stroke-width="3.3073" stroke-linecap="round" stroke-linejoin="round" stroke-miterlimit="10"/></g><g id="eSJQvY1eC0946" opacity="0"><line x1="895" y1="277.8" x2="902.7" y2="270.1" fill="none" stroke="#6dff40" stroke-width="3.3073" stroke-linecap="round" stroke-linejoin="round" stroke-miterlimit="10"/><line x1="943.7" y1="229" x2="951.4" y2="221.3" fill="none" stroke="#6dff40" stroke-width="3.3073" stroke-linecap="round" stroke-linejoin="round" stroke-miterlimit="10"/></g></g><line id="eSJQvY1eC0949" x1="486.3" y1="106" x2="704.9" y2="106" fill="none" stroke="#00de76" stroke-width="3.3073" stroke-linecap="round" stroke-linejoin="round" stroke-miterlimit="10" stroke-dashoffset="218.6" stroke-dasharray="40,10"/><line id="eSJQvY1eC0950" x1="704.9" y1="488.9" x2="486.3" y2="488.9" fill="none" stroke="#00de76" stroke-width="3.3073" stroke-linecap="round" stroke-linejoin="round" stroke-miterlimit="10" stroke-dashoffset="218.6" stroke-dasharray="40,10"/><g transform="translate(375.695003 3.079999)"><path d="M69.94,29.93h-5.71v-1.93h13.7v1.92h-5.71v15.23h-2.28Z" fill="#060"/><path d="M81.65,30.51h-2v-2.51h2Zm-2,2.23h2v12.41h-2Z" fill="#060"/><path d="M95.91,45.15h-2v-1.68h-.05c-.834616,1.383843-2.392155,2.162613-4,2-3.82,0-5.71-3-5.71-6.53s1.87-6.46,5.66-6.46c1.571967-.05393,3.069086.672172,4,1.94h.05v-6.42h2Zm-5.76-1.51c2.73,0,3.79-2.36,3.79-4.68s-1.1-4.71-3.91-4.71-3.72,2.38-3.72,4.8s1.2,4.59,3.84,4.59Z" fill="#060"/><path d="M110,45.1c-.444618.249387-.950948.367299-1.46.34-1.06,0-1.73-.58-1.73-1.92-1.089476,1.270468-2.697335,1.976896-4.37,1.92-2.25,0-4.1-1-4.1-3.48c0-2.81,2.09-3.41,4.2-3.82s4.18-.29,4.18-1.83c0-1.77-1.47-2.06-2.77-2.06-1.72,0-3,.53-3.09,2.35h-2c.12-3.07,2.49-4.15,5.25-4.15c2.24,0,4.66.51,4.66,3.41v6.38c0,1,0,1.4.65,1.4.212017-.00417.421738-.044762.62-.12Zm-3.31-6.36c-.79.58-2.33.6-3.7.84s-2.49.72-2.49,2.23c0,1.35,1.15,1.83,2.4,1.83c2.69,0,3.79-1.68,3.79-2.81Z" fill="#060"/><path d="M112.06,28h2v10.16l5.66-5.42h2.74l-4.92,4.51l5.28,7.9h-2.59L116,38.67l-1.92,1.77v4.71h-2Z" fill="#060"/><path d="M132.31,41.24c.08,1.82,1.66,2.4,3.34,2.4c1.27,0,3-.29,3-1.85s-2-1.85-4.06-2.31-4.05-1.12-4.05-3.5s2.47-3.53,4.63-3.53c2.74,0,4.92.86,5.09,3.89h-2c-.15-1.59-1.54-2.09-2.88-2.09s-2.64.34-2.64,1.58c0,1.47,2.16,1.71,4.05,2.17c2,.45,4.06,1.12,4.06,3.52c0,3-2.76,3.92-5.28,3.92-2.78,0-5.14-1.13-5.26-4.2Z" fill="#060"/><path d="M154.06,45.1c-.44833.249177-.957789.367012-1.47.34-1.05,0-1.72-.58-1.72-1.92-1.089476,1.270468-2.697335,1.976896-4.37,1.92-2.26,0-4.11-1-4.11-3.48c0-2.81,2.09-3.41,4.2-3.82s4.18-.29,4.18-1.83c0-1.77-1.46-2.06-2.76-2.06-1.73,0-3,.53-3.1,2.35h-2c.12-3.07,2.5-4.15,5.26-4.15c2.23,0,4.66.51,4.66,3.41v6.38c0,1,0,1.4.64,1.4.215203-.004772.428112-.045326.63-.12Zm-3.31-6.36c-.8.58-2.33.6-3.7.84s-2.5.72-2.5,2.23c0,1.35,1.16,1.83,2.4,1.83c2.69,0,3.8-1.68,3.8-2.81Z" fill="#060"/><path d="M158.79,32.74h2.47v1.8h-2.47v7.7c0,.94.26,1.11,1.53,1.11h.94v1.8h-1.56c-2.11,0-2.95-.43-2.95-2.71v-7.9h-2.12v-1.8h2.12v-3.74h2Z" fill="#060"/><path d="M173.79,45.15h-1.92v-2h-.05c-.789019,1.458655-2.343403,2.336882-4,2.26-3.27,0-4.28-1.88-4.28-4.54v-8.13h2v8.4c-.0488.680387.20172,1.348196.68598,1.828613s1.154044.725607,1.83402.671387c2.48,0,3.68-1.66,3.68-3.89v-7h2Z" fill="#060"/><path d="M183.6,32.74h2v1.68h.05c.832881-1.385721,2.391695-2.165128,4-2c3.81,0,5.71,3,5.71,6.53s-1.87,6.46-5.66,6.46c-1.574929.056956-3.074779-.674221-4-1.95h-.05v6.44h-2Zm5.76,1.51c-2.73,0-3.79,2.35-3.79,4.68s1.1,4.71,3.91,4.71s3.72-2.38,3.72-4.81-1.2-4.58-3.84-4.58Z" fill="#060"/><path d="M208,45.15h-1.92v-2h-.05c-.785414,1.462189-2.342236,2.341793-4,2.26-3.26,0-4.27-1.88-4.27-4.54v-8.13h2v8.4c-.0488.680387.20172,1.348196.68598,1.828613s1.154044.725607,1.83402.671387c2.47,0,3.67-1.66,3.67-3.89v-7h2Z" fill="#060"/><path d="M211.1,32.74h1.9v2v0c.789019-1.458655,2.343403-2.336882,4-2.26c3.27,0,4.28,1.87,4.28,4.54v8.16h-2v-8.4c.0488-.680387-.20172-1.348196-.68598-1.828613s-1.154044-.725607-1.83402-.671387c-2.48,0-3.68,1.66-3.68,3.89v7h-2Z" fill="#060"/><path d="M231.12,32.74h1.88v2h.05c.785414-1.462189,2.342236-2.341793,4-2.26c3.26,0,4.27,1.87,4.27,4.54v8.16h-2v-8.4c.0488-.680387-.20172-1.348196-.68598-1.828613s-1.154044-.725607-1.83402-.671387c-2.47,0-3.67,1.66-3.67,3.89v7h-2Z" fill="#060"/><path d="M255.05,41.21c-.39484,2.579703-2.707317,4.421846-5.31,4.23-4,0-5.83-2.74-6-6.53s2.45-6.46,5.83-6.46c4.4,0,5.74,4.1,5.62,7.11h-9.19c-.126893,1.078799.231959,2.158227.979494,2.946326s1.806512,1.203436,2.890506,1.133674c1.505947.09232,2.84616-.948166,3.13-2.43Zm-2-3.46c-.038198-1.948163-1.631472-3.505833-3.58-3.5-1.945701-.011094-3.533496,1.554337-3.55,3.5Z" fill="#060"/><path d="M268.06,44.09c0,4-1.85,6.1-5.76,6.1-2.33,0-5-.94-5.14-3.65h2c.1,1.49,1.87,2,3.22,2c2.66,0,3.72-1.92,3.72-4.71v-.83h-.05c-.738335,1.442899-2.250778,2.322226-3.87,2.25-3.69,0-5.54-2.9-5.54-6.29c0-2.92,1.44-6.55,5.74-6.55c1.521955-.072167,2.952733.726587,3.69,2.06v0-1.73h1.92Zm-2-5.4c0-2.18-1-4.44-3.53-4.44s-3.67,2.14-3.67,4.51.82,4.73,3.5,4.73s3.64-2.49,3.64-4.8Z" fill="#060"/><path d="M282.12,45.1c-.445212.247851-.951093.365659-1.46.34-1.06,0-1.73-.58-1.73-1.92-1.089476,1.270468-2.697335,1.976896-4.37,1.92-2.26,0-4.11-1-4.11-3.48c0-2.81,2.09-3.41,4.2-3.82c2.26-.43,4.18-.29,4.18-1.83c0-1.77-1.46-2.06-2.76-2.06-1.73,0-3,.53-3.1,2.35h-2c.12-3.07,2.5-4.15,5.26-4.15c2.23,0,4.66.51,4.66,3.41v6.38c0,1,0,1.4.65,1.4.211834-.005869.421275-.046406.62-.12Zm-3.31-6.36c-.8.58-2.33.6-3.7.84s-2.5.72-2.5,2.23c0,1.35,1.16,1.83,2.4,1.83c2.69,0,3.8-1.68,3.8-2.81Z" fill="#060"/><path d="M283.94,32.74h1.92v2.61h.05c.708472-1.871124,2.565009-3.051817,4.56-2.9v2.16c-3.29,0-4.49,1.87-4.49,5v5.52h-2Z" fill="#060"/><path d="M303,45.1c-.445212.247851-.951093.365659-1.46.34-1.06,0-1.73-.58-1.73-1.92-1.089476,1.270468-2.697335,1.976896-4.37,1.92-2.26,0-4.11-1-4.11-3.48c0-2.81,2.09-3.41,4.2-3.82c2.26-.43,4.18-.29,4.18-1.83c0-1.77-1.46-2.06-2.76-2.06-1.73,0-3,.53-3.1,2.35h-2c.12-3.07,2.5-4.15,5.26-4.15c2.23,0,4.66.51,4.66,3.41v6.38c0,1,0,1.4.65,1.4.211834-.005869.421275-.046406.62-.12Zm-3.31-6.36c-.8.58-2.33.6-3.7.84s-2.5.72-2.5,2.23c0,1.35,1.16,1.83,2.4,1.83c2.69,0,3.8-1.68,3.8-2.81Z" fill="#060"/><path d="M316.56,28h2.52l6.69,17.14h-2.51L321.38,40h-7.25l-1.92,5.16h-2.35Zm-1.71,10.06h5.81l-2.85-8h-.05Z" fill="#060"/><path d="M337.37,33c-.27-2.45-1.9-3.51-4.25-3.51-1.92,0-3.84.7-3.84,2.93s2.73,2.43,5.49,3s5.48,1.58,5.48,4.94c0,3.65-3.58,5.12-6.7,5.12-3.84,0-7.08-1.88-7.08-6.05h2.16c0,2.88,2.4,4.13,5,4.13c2.07,0,4.35-.65,4.35-3.12s-2.74-2.77-5.48-3.36-5.5-1.32-5.5-4.46c0-3.48,3.09-5,6.21-5c3.51,0,6.17,1.66,6.32,5.43Z" fill="#060"/><path d="M343,28h11.83v1.92h-9.55v5.45h8.9v1.93h-8.9v5.93h9.62v1.92h-11.9Z" fill="#060"/><path d="M362.33,28h2.52l6.69,17.14h-2.54L367.15,40h-7.25L358,45.15h-2.35Zm-1.71,10.06h5.81l-2.86-8v0Z" fill="#060"/><path d="M373.2,28h2.42l9,13.9v0-13.9h2.16v17.15h-2.49l-8.95-13.76h-.05v13.76h-2.09Z" fill="#060"/><path d="M86.34,76.8c-.93,2.43-1.77,3.32-3.6,3.32-.479388.011777-.956987-.062742-1.41-.22v-1.9c.383211.156243.78773.254001,1.2.29.741414.012426,1.411984-.438612,1.68-1.13l.84-2.11-4.92-12.31h2.3l3.62,10.15v0l3.48-10.15h2.16Z" fill="#060"/><path d="M104.46,75.1c-.444618.249387-.950948.367299-1.46.34-1.06,0-1.73-.58-1.73-1.92-1.089476,1.270468-2.697335,1.976896-4.37,1.92-2.25,0-4.1-1-4.1-3.48c0-2.81,2.09-3.41,4.2-3.82c2.26-.43,4.18-.29,4.18-1.83c0-1.77-1.47-2.06-2.76-2.06-1.73,0-3,.53-3.1,2.35h-2c.12-3.07,2.49-4.15,5.26-4.15c2.23,0,4.65.51,4.65,3.41v6.38c0,1,0,1.4.65,1.4.212017-.00417.421738-.044762.62-.12Zm-3.31-6.36c-.79.58-2.33.6-3.69.84s-2.46.72-2.46,2.23c0,1.35,1.15,1.83,2.4,1.83c2.69,0,3.79-1.68,3.79-2.81Z" fill="#060"/><path d="M106.36,62.74h1.92v2v0c.785414-1.462189,2.342236-2.341793,4-2.26c3.26,0,4.27,1.87,4.27,4.54v8.16h-2v-8.4c.0488-.680387-.20172-1.348196-.68598-1.828613s-1.154044-.725607-1.83402-.671387c-2.47,0-3.67,1.66-3.67,3.89v7h-2Z" fill="#060"/><path d="M130.41,74.09c0,4-1.85,6.1-5.76,6.1-2.33,0-5-.94-5.14-3.65h2c.1,1.49,1.87,2,3.22,2c2.66,0,3.72-1.92,3.72-4.71v-.83h-.05c-.738335,1.442899-2.250778,2.322226-3.87,2.25-3.69,0-5.54-2.9-5.54-6.29c0-2.92,1.44-6.55,5.74-6.55c1.521955-.072167,2.952733.726587,3.69,2.06v0-1.73h1.92Zm-2-5.4c0-2.18-1-4.44-3.53-4.44s-3.67,2.14-3.67,4.51.82,4.73,3.5,4.73s3.68-2.49,3.68-4.8Z" fill="#060"/><path d="M140.22,58h2v6.41h.05c.834616-1.383843,2.392155-2.162613,4-2c3.82,0,5.71,3,5.71,6.53s-1.87,6.46-5.66,6.46c-1.583399.041961-3.08353-.708104-4-2h-.05v1.66h-2ZM146,64.25c-2.73,0-3.79,2.35-3.79,4.68s1.1,4.71,3.91,4.71s3.72-2.38,3.72-4.81-1.22-4.58-3.84-4.58Z" fill="#060"/><path d="M165,71.21c-.39484,2.579703-2.707317,4.421846-5.31,4.23-4,0-5.83-2.74-5.95-6.53s2.45-6.46,5.83-6.46c4.39,0,5.74,4.1,5.62,7.11h-9.29c-.130169,1.077758.226159,2.157529.972232,2.946124s1.804456,1.204167,2.887768,1.133876c1.546299.151187,2.952176-.90322,3.24-2.43Zm-2-3.46c-.038198-1.948163-1.631472-3.505833-3.58-3.5-1.945701-.011094-3.533496,1.554337-3.55,3.5Z" fill="#060"/><path d="M167.2,62.74h1.92v2.61v0c.708472-1.871124,2.565009-3.051817,4.56-2.9v2.16c-3.29,0-4.49,1.87-4.49,5v5.52h-2Z" fill="#060"/><path d="M175.26,58h2v6.55v0c.792442-1.393334,2.310361-2.212467,3.91-2.11c3.27,0,4.27,1.87,4.27,4.54v8.16h-2v-8.4c.0488-.680387-.20172-1.348196-.68598-1.828613s-1.154044-.725607-1.83402-.671387c-2.47,0-3.67,1.66-3.67,3.89v7h-2Z" fill="#060"/><path d="M199.6,75.1c-.44833.249177-.957789.367012-1.47.34-1,0-1.72-.58-1.72-1.92-1.099227,1.280463-2.723793,1.987757-4.41,1.92-2.26,0-4.11-1-4.11-3.48c0-2.81,2.09-3.41,4.2-3.82c2.26-.43,4.18-.29,4.18-1.83c0-1.77-1.47-2.06-2.76-2.06-1.73,0-3,.53-3.1,2.35h-2c.12-3.07,2.5-4.15,5.26-4.15c2.23,0,4.66.51,4.66,3.41v6.38c0,1,0,1.4.64,1.4.215203-.004772.428112-.045326.63-.12Zm-3.31-6.36c-.8.58-2.33.6-3.7.84s-2.5.72-2.5,2.23c0,1.35,1.16,1.83,2.4,1.83c2.69,0,3.8-1.68,3.8-2.81Z" fill="#060"/><path d="M202.74,71.24c.07,1.82,1.66,2.4,3.34,2.4c1.27,0,3-.29,3-1.85s-2-1.85-4.06-2.31-4.02-1.12-4.02-3.48s2.48-3.53,4.64-3.53c2.73,0,4.92.86,5.08,3.89h-2c-.14-1.59-1.53-2.09-2.88-2.09s-2.64.34-2.64,1.58c0,1.47,2.16,1.71,4.06,2.17s4.06,1.12,4.06,3.52c0,3-2.76,3.92-5.28,3.92-2.79,0-5.14-1.13-5.26-4.2Z" fill="#060"/><path d="M215.65,60.51h-2v-2.51h2Zm-2,2.23h2v12.41h-2Z" fill="#060"/><path d="M218.94,58h2v17.15h-2Z" fill="#060"/><path d="M230.82,62.74h1.92v1.82v0c.867494-1.36,2.387719-2.161918,4-2.11c1.48266-.147117,2.879999.717512,3.41,2.11.846385-1.321665,2.310573-2.117911,3.88-2.11c2.48,0,4.13,1,4.13,3.6v9.1h-2v-8.15c0-1.54-.41-2.76-2.4-2.76-.866786-.071144-1.721787.237368-2.343438.845587s-.94876,1.45628-.896562,2.324413v7.73h-2v-8.14c0-1.61-.5-2.76-2.33-2.76-1.766613.018548-3.21517,1.405837-3.31,3.17v7.73h-2Z" fill="#060"/><path d="M262.29,75.1c-.448718.248167-.957884.365933-1.47.34-1.06,0-1.73-.58-1.73-1.92-1.089476,1.270468-2.697335,1.976896-4.37,1.92-2.25,0-4.1-1-4.1-3.48c0-2.81,2.09-3.41,4.2-3.82c2.26-.43,4.18-.29,4.18-1.83c0-1.77-1.47-2.06-2.76-2.06-1.73,0-3,.53-3.1,2.35h-2c.12-3.07,2.5-4.15,5.26-4.15c2.23,0,4.65.51,4.65,3.41v6.38c0,1,0,1.4.65,1.4.215203-.004772.428112-.045326.63-.12ZM259,68.74c-.79.58-2.33.6-3.69.84s-2.5.72-2.5,2.23c0,1.35,1.15,1.83,2.4,1.83c2.69,0,3.79-1.68,3.79-2.81Z" fill="#060"/><path d="M265.43,71.24c.07,1.82,1.65,2.4,3.33,2.4c1.28,0,3-.29,3-1.85s-2-1.85-4.05-2.31-4.06-1.12-4.06-3.5s2.47-3.53,4.63-3.53c2.74,0,4.92.86,5.09,3.89h-2c-.14-1.59-1.53-2.09-2.88-2.09s-2.64.34-2.64,1.58c0,1.47,2.16,1.71,4.06,2.17s4.05,1.12,4.05,3.52c0,3-2.76,3.92-5.28,3.92-2.78,0-5.13-1.13-5.25-4.2Z" fill="#060"/><path d="M286.45,75.15h-1.92v-2v0c-.785414,1.462189-2.342236,2.341793-4,2.26-3.26,0-4.27-1.88-4.27-4.54v-8.13h2v8.4c-.0488.680387.20172,1.348196.68598,1.828613s1.154044.725607,1.83402.671387c2.47,0,3.67-1.66,3.67-3.89v-7h2Z" fill="#060"/><path d="M289.64,58h2v10.16l5.67-5.42h2.73l-4.92,4.51l5.28,7.9h-2.59l-4.25-6.48-1.92,1.77v4.71h-2Z" fill="#060"/><path d="M319.74,75.15h-2v-1.68h-.05c-.832881,1.385721-2.391695,2.165128-4,2-3.81,0-5.71-3-5.71-6.53s1.87-6.46,5.66-6.46c1.57234-.055694,3.07024.670788,4,1.94h.05v-6.42h2ZM314,73.64c2.74,0,3.79-2.36,3.79-4.68s-1.1-4.71-3.91-4.71-3.72,2.38-3.72,4.8s1.18,4.59,3.84,4.59Z" fill="#060"/><path d="M333.88,75.1c-.44833.249177-.957789.367012-1.47.34-1.05,0-1.73-.58-1.73-1.92-1.085471,1.270085-2.690227,1.976767-4.36,1.92-2.26,0-4.11-1-4.11-3.48c0-2.81,2.09-3.41,4.2-3.82s4.18-.29,4.18-1.83c0-1.77-1.47-2.06-2.76-2.06-1.73,0-3,.53-3.1,2.35h-2c.12-3.07,2.5-4.15,5.26-4.15c2.23,0,4.65.51,4.65,3.41v6.38c0,1,0,1.4.65,1.4.215203-.004772.428112-.045326.63-.12Zm-3.32-6.36c-.79.58-2.32.6-3.69.84s-2.5.72-2.5,2.23c0,1.35,1.15,1.83,2.4,1.83c2.69,0,3.79-1.68,3.79-2.81Z" fill="#060"/><path d="M335.89,58h2v17.15h-2Z" fill="#060"/><path d="M352.09,75.1c-.445212.247851-.951093.365659-1.46.34-1.06,0-1.73-.58-1.73-1.92-1.089476,1.270468-2.697335,1.976896-4.37,1.92-2.26,0-4.1-1-4.1-3.48c0-2.81,2.08-3.41,4.2-3.82s4.17-.29,4.17-1.83c0-1.77-1.46-2.06-2.76-2.06-1.73,0-3,.53-3.09,2.35h-2c.12-3.07,2.49-4.15,5.25-4.15c2.23,0,4.66.51,4.66,3.41v6.38c0,1,0,1.4.65,1.4.211934-.004946.421526-.045512.62-.12Zm-3.31-6.36c-.79.58-2.33.6-3.7.84s-2.49.72-2.49,2.23c0,1.35,1.15,1.83,2.4,1.83c2.68,0,3.79-1.68,3.79-2.81Z" fill="#060"/><path d="M354,62.74h1.92v1.82v0c.870293-1.356956,2.388651-2.15789,4-2.11c1.483484-.150686,2.882825.715181,3.41,2.11.849616-1.323251,2.317501-2.119457,3.89-2.11c2.47,0,4.13,1,4.13,3.6v9.1h-2v-8.15c0-1.54-.41-2.76-2.4-2.76-.866786-.071144-1.721787.237368-2.343438.845587s-.94876,1.45628-.896562,2.324413v7.73h-2v-8.14c0-1.61-.51-2.76-2.33-2.76-1.799355-.02361-3.293951,1.382548-3.38,3.18v7.73h-2Z" fill="#060"/></g><g transform="translate(367.340008 127.84)"><path d="M227.4,146.5v35.68h-22.55v38.41h-42.12v-38.41h-75.57v-39.39l77.31-94.9h40.38v98.61Zm-63.43,0v-55.75h-.5l-43.6,55.75Z" fill="#060"/><path d="M238.55,134.11c0-46.08,18.58-88.45,67.64-88.45c50.55,0,70.37,42.37,70.37,88.45s-19.82,88.71-70.37,88.71c-49.06,0-67.64-42.62-67.64-88.71Zm97.37,0c0-22.54-.74-54.26-28.49-54.26-26.76,0-28.25,31.72-28.25,54.26s1.49,54.51,28.25,54.51c27.75,0,28.49-31.96,28.49-54.51Z" fill="#060"/><path d="M378.08,47.3h1.92v6.05h.05c.78676-1.280728,2.233663-2.00224,3.73-1.86c3.6,0,5.39,2.85,5.39,6.16s-1.76,6.09-5.34,6.09c-1.485583.054941-2.901666-.630623-3.78-1.83h-.05v1.56h-1.92Zm5.43,5.89c-2.58,0-3.58,2.22-3.58,4.42s1.07,4.39,3.69,4.39s3.51-2.24,3.51-4.52-1.13-4.29-3.62-4.29Z" fill="#060"/><path d="M401.43,59.76c-.36921,2.432819-2.545472,4.173829-5,4-3.73,0-5.5-2.58-5.61-6.16s2.31-6.09,5.5-6.09c4.14,0,5.41,3.87,5.3,6.7h-8.77c-.101508,1.006339.243702,2.006532.94432,2.736022s1.686064,1.114787,2.69568,1.053978c1.435522.11766,2.729005-.865387,3-2.28Zm-1.86-3.26c-.097466-1.787242-1.575102-3.186493-3.365-3.186493s-3.267534,1.399251-3.365,3.186493Z" fill="#060"/><path d="M404.78,59.78c.07,1.72,1.56,2.26,3.15,2.26c1.2,0,2.83-.27,2.83-1.74s-1.9-1.74-3.83-2.17-3.82-1.07-3.82-3.31s2.33-3.33,4.37-3.33c2.58,0,4.64.82,4.8,3.67h-1.93c-.13-1.49-1.45-2-2.71-2s-2.5.32-2.5,1.49c0,1.39,2,1.61,3.83,2s3.83,1.07,3.83,3.33c0,2.79-2.61,3.69-5,3.69-2.63,0-4.85-1.06-5-4Z" fill="#060"/><path d="M425.3,63.43c-.423242.226927-.900366.334107-1.38.31-1,0-1.63-.54-1.63-1.81-1.024956,1.200723-2.542349,1.867345-4.12,1.81-2.13,0-3.87-1-3.87-3.28c0-2.65,2-3.22,4-3.6s3.94-.27,3.94-1.72c0-1.68-1.38-2-2.61-2-1.63,0-2.83.5-2.92,2.22h-1.92c.11-2.9,2.35-3.92,5-3.92c2.1,0,4.39.48,4.39,3.22v6c0,.91,0,1.31.61,1.31.201738-.00029.401712-.037573.59-.11Zm-3.12-6c-.75.55-2.2.57-3.49.8s-2.36.68-2.36,2.1s1.09,1.67,2.27,1.67c2.53,0,3.58-1.58,3.58-2.65Z" fill="#060"/><path d="M427,51.76h1.81v2.47v0c.669232-1.768748,2.424413-2.88457,4.31-2.74v2c-3.11,0-4.24,1.77-4.24,4.73v5.21h-1.88Z" fill="#060"/><path d="M91,274.94h-4.8v-3.12h-.09c-1.33,2.63-4.22,3.74-7.12,3.74-7.25,0-10.76-5.38-10.76-12.28c0-8.32,4.94-12,10-12c2.9,0,6.1,1.06,7.65,3.6h.12v-11.7h5Zm-11.34-3.38c4.54,0,6.45-4.14,6.45-8.14c0-5.08-2.44-8.1-6.36-8.1-4.76,0-6.45,4.23-6.45,8.36.02,3.96,1.98,7.88,6.38,7.88Z" fill="#060"/><path d="M115.36,269.82c0,1.25.26,1.74,1.2,1.74.415205.007594.830243-.02253,1.24-.09v3.53c-1.037051.331085-2.112718.52605-3.2.58-2,0-3.51-.71-3.92-2.8-2,1.95-5.24,2.8-8,2.8-4.13,0-7.87-2.23-7.87-6.72c0-5.74,4.58-6.67,8.85-7.16c3.65-.67,6.9-.27,6.9-3.25c0-2.62-2.72-3.11-4.76-3.11-2.85,0-4.85,1.16-5.07,3.65h-5.03c.35-5.92,5.38-7.65,10.45-7.65c4.49,0,9.21,1.82,9.21,6.67Zm-5.08-6.4c-1.55,1-4,1-6.22,1.37s-4.14,1.16-4.14,3.83c0,2.27,2.89,2.94,4.67,2.94c2.23,0,5.69-1.16,5.69-4.36Z" fill="#060"/><path d="M120.52,243.18h5.07v31.76h-5.07Z" fill="#060"/><path d="M149.92,269.82c0,1.25.26,1.74,1.2,1.74.415205.007594.830243-.02253,1.24-.09v3.53c-1.036831.33197-2.112614.526955-3.2.58-2,0-3.51-.71-3.91-2.8-2.230264,1.887711-5.079328,2.884883-8,2.8-4.13,0-7.87-2.23-7.87-6.72c0-5.74,4.58-6.67,8.85-7.16c3.65-.67,6.9-.27,6.9-3.25c0-2.62-2.72-3.11-4.76-3.11-2.85,0-4.85,1.16-5.07,3.65h-5.07c.35-5.92,5.38-7.65,10.45-7.65c4.49,0,9.21,1.82,9.21,6.67Zm-5.07-6.4c-1.56,1-4,1-6.23,1.37s-4.14,1.16-4.14,3.83c0,2.27,2.89,2.94,4.67,2.94c2.23,0,5.7-1.16,5.7-4.36Z" fill="#060"/><path d="M154.94,251.94h4.81v3.2h.13c1.449316-2.503066,4.182027-3.97958,7.07-3.82c2.81,0,5.43,1.2,6.45,3.82c1.566962-2.449805,4.303008-3.899416,7.21-3.82c4.85,0,7.69,2.13,7.69,7.74v15.88h-5.07v-13.44c0-3.64-.22-6.18-4.18-6.18-3.42,0-4.89,2.27-4.89,6.14v13.48h-5.07v-14.77c0-3.16-1-4.85-4.05-4.85-2.62,0-5,2.14-5,6v13.66h-5.07Z" fill="#060"/><path d="M205.25,251.94h4.81v3.11h.08c1.43-2.62,4.19-3.73,7.12-3.73c7.25,0,10.77,5.51,10.77,12.23c0,6.18-3.12,12-9.92,12-2.94,0-6.1-1.07-7.7-3.6h-.09v11.47h-5.07Zm11.34,3.38c-4.27,0-6.45,3.25-6.45,8.14c0,4.63,2.36,8.1,6.45,8.1c4.63,0,6.36-4.1,6.36-8.1.05-4.18-2.17-8.14-6.36-8.14Z" fill="#060"/><path d="M235.81,264.75c0,3.6,2,6.81,6.18,6.81c2.94,0,4.72-1.29,5.61-3.83h4.8c-1.11,5-5.38,7.83-10.41,7.83-7.2,0-11.25-5-11.25-12.1c0-6.54,4.27-12.14,11.12-12.14c7.25,0,11.7,6.54,10.85,13.43Zm11.83-3.34c-.18-3.2-2.36-6.09-5.78-6.09-1.615667-.013647-3.168555.624899-4.307275,1.771147s-1.767019,2.703311-1.742725,4.318853Z" fill="#060"/><path d="M256.14,251.94h4.76v4.45h.1c.965651-2.920259,3.637027-4.938721,6.71-5.07.642333-.004161,1.284091.039291,1.92.13v4.89c-.721554-.117314-1.449556-.190782-2.18-.22-3.47,0-6.23,2.8-6.23,7.87v10.95h-5.07Z" fill="#060"/><path d="M271.48,243.18h5.07v4.82h-5.07Zm0,8.76h5.07v23h-5.07Z" fill="#060"/><path d="M281.63,251.94h4.8v3.38l.09.09c1.479285-2.549923,4.212128-4.111003,7.16-4.09c5,0,8.14,2.67,8.14,7.83v15.79h-5.07v-14.46c-.09-3.6-1.51-5.16-4.49-5.16-3.38,0-5.56,2.67-5.56,6.05v13.57h-5.07Z" fill="#060"/><path d="M328,273.73c0,6.9-4,10.32-11.29,10.32-4.63,0-9.83-1.78-10.28-7.16h5.07c.62,2.89,2.94,3.38,5.52,3.38c4.09,0,5.91-2.09,5.91-5.87v-3.51h-.09c-1.389307,2.502479-4.027734,4.053369-6.89,4.05-7.3,0-10.32-5.52-10.32-12.1c0-6.19,3.87-11.52,10.41-11.52c2.809752-.173417,5.464081,1.302077,6.8,3.78h.09v-3.16h5.07Zm-5.07-10.8c0-4-1.78-7.61-6.18-7.61s-6.05,4.18-6.05,8s1.82,7.6,6.05,7.6c4.46.01,6.15-4.08,6.15-7.99Z" fill="#060"/><path d="M332.78,243.18h5.07v18.06l9.16-9.3h6.23l-8.81,8.45l9.65,14.55h-6.18l-7-11.17-3,2.94v8.23h-5.07Z" fill="#060"/><path d="M375.34,269.82c0,1.25.27,1.74,1.21,1.74.415205.007594.830243-.02253,1.24-.09v3.53c-1.037269.330212-2.112821.525156-3.2.58-2,0-3.52-.71-3.92-2.8-2,1.95-5.24,2.8-8,2.8-4.13,0-7.87-2.23-7.87-6.72c0-5.74,4.58-6.67,8.85-7.16c3.65-.67,6.9-.27,6.9-3.25c0-2.62-2.72-3.11-4.76-3.11-2.85,0-4.85,1.16-5.07,3.65h-5.08c.36-5.92,5.39-7.65,10.46-7.65c4.49,0,9.2,1.82,9.2,6.67Zm-5.07-6.4c-1.55,1-4,1-6.22,1.37s-4.14,1.16-4.14,3.83c0,2.27,2.89,2.94,4.67,2.94c2.22,0,5.69-1.16,5.69-4.36Z" fill="#060"/><path d="M378.06,251.94h3.82v-6.89h5.12v6.89h4.59v3.78h-4.59v12.28c0,2.09.18,3.15,2.45,3.15.717535.027592,1.435821-.029468,2.14-.17v3.91c-1.12.09-2.18.27-3.3.27-5.29,0-6.27-2.05-6.36-5.87v-13.57h-3.82Z" fill="#060"/></g><g transform="translate(373.455002 487.889977)"><path d="M118.47,32.88h2v1.68v0c.83634-1.381977,2.392615-2.160114,4-2c3.82,0,5.72,3,5.72,6.53s-1.87,6.46-5.67,6.46c-1.573795.051626-3.071279-.678397-4-1.95v0v6.4h-2Zm5.76,1.51c-2.74,0-3.8,2.35-3.8,4.68s1.11,4.71,3.92,4.71s3.72-2.38,3.72-4.8-1.2-4.59-3.84-4.59Z" fill="#060"/><path d="M143.21,41.35c-.394595,2.575602-2.701022,4.416391-5.3,4.23-4,0-5.84-2.74-6-6.53s2.45-6.46,5.84-6.46c4.39,0,5.73,4.1,5.61,7.11h-9.29c-.129543,1.08996.236933,2.180518.998408,2.971056s1.837546,1.197588,2.931592,1.108944c1.53535.134832,2.92307-.915685,3.21-2.43Zm-2-3.45c-.100431-1.8956-1.666741-3.381122-3.565-3.381122s-3.464569,1.485522-3.565,3.381122Z" fill="#060"/><path d="M145.51,32.88h1.92v2v0c.789019-1.458655,2.343403-2.336882,4-2.26c3.27,0,4.28,1.87,4.28,4.54v8.16h-2v-8.4c.0488-.680387-.20172-1.348196-.68598-1.828613s-1.154044-.725607-1.83402-.671387c-2.48,0-3.68,1.66-3.68,3.89v7h-2Z" fill="#060"/><path d="M167.28,36.86c-.211873-1.50408-1.555434-2.585057-3.07-2.47-3,0-3.86,2.33-3.86,4.85c0,2.28,1,4.54,3.62,4.54c1.768446.108461,3.29227-1.232147,3.41-3h2.09c-.46,3-2.36,4.83-5.48,4.83-3.79,0-5.8-2.64-5.8-6.34s1.92-6.65,5.85-6.65c2.81,0,5.07,1.32,5.35,4.27Z" fill="#060"/><path d="M182.74,45.24c-.44833.249177-.957789.367012-1.47.34-1.05,0-1.72-.58-1.72-1.92-1.089476,1.270468-2.697335,1.976896-4.37,1.92-2.26,0-4.11-1-4.11-3.48c0-2.81,2.09-3.41,4.2-3.82s4.18-.29,4.18-1.83c0-1.77-1.46-2.06-2.76-2.06-1.73,0-3,.53-3.1,2.35h-2c.12-3.07,2.5-4.15,5.26-4.15c2.23,0,4.66.5,4.66,3.41v6.38c0,1,0,1.4.64,1.4.215203-.004772.428112-.045326.63-.12Zm-3.31-6.36c-.8.58-2.33.6-3.7.84s-2.5.72-2.5,2.23c0,1.35,1.16,1.83,2.4,1.83c2.69,0,3.8-1.68,3.8-2.81Z" fill="#060"/><path d="M184.71,32.88h2v1.68v0c.834616-1.383843,2.392155-2.162613,4-2c3.82,0,5.72,3,5.72,6.53s-1.88,6.46-5.67,6.46c-1.573795.051626-3.071279-.678397-4-1.95v0v6.4h-2Zm5.75,1.51c-2.73,0-3.79,2.35-3.79,4.68s1.11,4.71,3.92,4.71s3.72-2.38,3.72-4.8-1.2-4.59-3.85-4.59Z" fill="#060"/><path d="M209.86,45.24c-.44833.249177-.957789.367012-1.47.34-1,0-1.72-.58-1.72-1.92-1.090365,1.269268-2.697617,1.975429-4.37,1.92-2.26,0-4.11-1-4.11-3.48c0-2.81,2.09-3.41,4.2-3.82c2.26-.43,4.18-.29,4.18-1.83c0-1.77-1.47-2.06-2.76-2.06-1.73,0-3,.53-3.1,2.35h-2c.12-3.07,2.5-4.15,5.26-4.15c2.23,0,4.66.5,4.66,3.41v6.38c0,1,0,1.4.64,1.4.215203-.004772.428112-.045326.63-.12Zm-3.31-6.36c-.8.58-2.33.6-3.7.84s-2.5.72-2.5,2.23c0,1.35,1.16,1.83,2.4,1.83c2.69,0,3.8-1.68,3.8-2.81Z" fill="#060"/><path d="M213.91,30.65h-2v-2.5h2Zm-2,2.23h2v12.41h-2Z" fill="#060"/><path d="M228.07,45.24c-.444618.249387-.950948.367299-1.46.34-1.06,0-1.73-.58-1.73-1.92-1.089476,1.270468-2.697335,1.976896-4.37,1.92-2.25,0-4.1-1-4.1-3.48c0-2.81,2.09-3.41,4.2-3.82s4.18-.29,4.18-1.83c0-1.77-1.47-2.06-2.77-2.06-1.72,0-3,.53-3.09,2.35h-2c.12-3.07,2.49-4.15,5.25-4.15c2.24,0,4.66.5,4.66,3.41v6.38c0,1,0,1.4.65,1.4.212017-.00417.421738-.044762.62-.12Zm-3.31-6.36c-.79.58-2.33.6-3.7.84s-2.49.72-2.49,2.23c0,1.35,1.15,1.83,2.4,1.83c2.69,0,3.79-1.68,3.79-2.81Z" fill="#060"/><path d="M230,32.88h1.92v2h.05c.785414-1.462189,2.342236-2.341793,4-2.26c3.26,0,4.27,1.87,4.27,4.54v8.16h-2v-8.4c.0488-.680387-.20172-1.348196-.68598-1.828613s-1.154044-.725607-1.83402-.671387c-2.47,0-3.67,1.66-3.67,3.89v7h-2Z" fill="#060"/><path d="M260.23,33.17c-.26-2.45-1.89-3.51-4.25-3.51-1.92,0-3.84.7-3.84,2.93s2.74,2.42,5.5,3s5.47,1.58,5.47,4.94c0,3.65-3.57,5.12-6.69,5.12-3.84,0-7.08-1.88-7.08-6.05h2.16c0,2.88,2.4,4.13,5,4.13c2.06,0,4.34-.65,4.34-3.12s-2.73-2.76-5.47-3.37-5.5-1.39-5.5-4.53c0-3.48,3.1-5,6.22-5c3.5,0,6.17,1.66,6.31,5.43Z" fill="#060"/><path d="M276.53,45.24c-.44833.249177-.957789.367012-1.47.34-1.05,0-1.72-.58-1.72-1.92-1.082807,1.262132-2.67772,1.967716-4.34,1.92-2.26,0-4.11-1-4.11-3.48c0-2.81,2.09-3.41,4.2-3.82s4.18-.29,4.18-1.83c0-1.77-1.46-2.06-2.76-2.06-1.73,0-3,.53-3.1,2.35h-2c.12-3.07,2.5-4.15,5.26-4.15c2.23,0,4.66.5,4.66,3.41v6.38c0,1,0,1.4.64,1.4.215203-.004772.428112-.045326.63-.12Zm-3.31-6.36c-.8.58-2.33.6-3.7.84s-2.52.72-2.52,2.28c0,1.35,1.16,1.83,2.4,1.83c2.69,0,3.8-1.68,3.8-2.81Z" fill="#060"/><path d="M279.67,41.38c.07,1.82,1.66,2.4,3.34,2.4c1.27,0,3-.29,3-1.85s-2-1.85-4.06-2.31-4.06-1.12-4.06-3.5s2.48-3.53,4.64-3.53c2.73,0,4.92.86,5.09,3.89h-2c-.15-1.59-1.54-2.09-2.88-2.09s-2.65.34-2.65,1.58c0,1.47,2.16,1.71,4.06,2.16s4.06,1.13,4.06,3.53c0,3-2.76,3.92-5.28,3.92-2.79,0-5.14-1.13-5.26-4.2Z" fill="#060"/><path d="M301.42,45.24c-.44833.249177-.957789.367012-1.47.34-1.05,0-1.73-.58-1.73-1.92-1.085471,1.270085-2.690227,1.976767-4.36,1.92-2.26,0-4.11-1-4.11-3.48c0-2.81,2.09-3.41,4.2-3.82s4.18-.29,4.18-1.83c0-1.77-1.47-2.06-2.76-2.06-1.73,0-3,.53-3.1,2.35h-2c.12-3.07,2.5-4.15,5.26-4.15c2.23,0,4.65.5,4.65,3.41v6.38c0,1,0,1.4.65,1.4.215203-.004772.428112-.045326.63-.12Zm-3.32-6.36c-.79.58-2.32.6-3.69.84s-2.5.72-2.5,2.23c0,1.35,1.15,1.83,2.4,1.83c2.69,0,3.79-1.68,3.79-2.81Z" fill="#060"/><path d="M303.24,32.88h1.92v2.61v0c.708472-1.871124,2.565009-3.051817,4.56-2.9v2.16c-3.29,0-4.49,1.87-4.49,5v5.52h-2Z" fill="#060"/><path d="M322.3,45.24c-.44833.249177-.957789.367012-1.47.34-1.05,0-1.73-.58-1.73-1.92-1.085471,1.270085-2.690227,1.976767-4.36,1.92-2.26,0-4.11-1-4.11-3.48c0-2.81,2.09-3.41,4.2-3.82c2.26-.43,4.18-.29,4.18-1.83c0-1.77-1.47-2.06-2.76-2.06-1.73,0-3,.53-3.1,2.35h-2c.12-3.07,2.5-4.15,5.26-4.15c2.23,0,4.65.5,4.65,3.41v6.38c0,1,0,1.4.65,1.4.215203-.004772.428112-.045326.63-.12ZM319,38.88c-.79.58-2.32.6-3.69.84s-2.5.72-2.5,2.23c0,1.35,1.15,1.83,2.4,1.83c2.69,0,3.79-1.68,3.79-2.81Z" fill="#060"/><path d="M324.19,32.88h1.92v2h.05c.787223-1.460417,2.34282-2.33933,4-2.26c3.27,0,4.27,1.87,4.27,4.54v8.16h-2v-8.4c.0488-.680387-.20172-1.348196-.68598-1.828613s-1.154044-.725607-1.83402-.671387c-2.47,0-3.67,1.66-3.67,3.89v7h-2Z" fill="#060"/><path d="M60.47,58.15h7.53c3.41,0,5.26,1.9,5.26,5.06s-1.87,5.09-5.26,5.07h-5.25v7h-2.28Zm2.28,8.21h4.47c2.56,0,3.74-1.1,3.74-3.15s-1.18-3.14-3.74-3.14h-4.47Z" fill="#060"/><path d="M86.27,71.35c-.393803,2.56336-2.682152,4.400119-5.27,4.23-4,0-5.83-2.74-6-6.53s2.44-6.46,5.83-6.46c4.39,0,5.73,4.1,5.61,7.1h-9.26c-.128566,1.070417.222664,2.142913.959514,2.929915s1.783932,1.207992,2.860486,1.150085c1.535818.14094,2.928281-.905569,3.22-2.42Zm-2-3.45c-.032747-1.948186-1.621539-3.510275-3.57-3.51-.936219-.005319-1.836204.361498-2.501961,1.019754s-1.04275,1.554027-1.048039,2.490246Z" fill="#060"/><path d="M88.58,62.88h1.92v1.82v0c.870293-1.356956,2.388651-2.15789,4-2.11c1.515018-.19441,2.964587.679473,3.5,2.11.849616-1.323251,2.317501-2.119457,3.89-2.11c2.47,0,4.13,1,4.13,3.6v9.1h-2v-8.14c0-1.54-.41-2.76-2.4-2.76-.866786-.071144-1.721787.237368-2.343438.845587s-.94876,1.45628-.896562,2.324413v7.73h-2v-8.14c0-1.61-.51-2.76-2.33-2.76-1.768628.013597-3.22003,1.40361-3.31,3.17v7.73h-2Z" fill="#060"/><path d="M109.12,58.15h2v6.41v0c.832881-1.385721,2.391695-2.165128,4-2c3.81,0,5.71,3,5.71,6.53s-1.87,6.46-5.66,6.46c-1.584196.045561-3.085931-.705306-4-2v0v1.66h-2Zm5.76,6.24c-2.74,0-3.79,2.35-3.79,4.68s1.1,4.7,3.91,4.7s3.72-2.37,3.72-4.79-1.2-4.59-3.84-4.59Z" fill="#060"/><path d="M134.27,75.24c-.444618.249387-.950948.367299-1.46.34-1.06,0-1.73-.58-1.73-1.92-1.089476,1.270468-2.697335,1.976896-4.37,1.92-2.26,0-4.1-1-4.1-3.48c0-2.81,2.08-3.41,4.2-3.82s4.19-.28,4.19-1.83c0-1.77-1.46-2.06-2.76-2.06-1.73,0-3,.53-3.09,2.35h-2c.12-3.07,2.49-4.15,5.25-4.15c2.24,0,4.66.51,4.66,3.41v6.38c0,1,0,1.39.65,1.39.211525.000047.421402-.037189.62-.11ZM131,68.88c-.79.57-2.33.6-3.7.84s-2.49.72-2.49,2.23c0,1.35,1.15,1.82,2.4,1.82c2.68,0,3.79-1.67,3.79-2.8Z" fill="#060"/><path d="M136.17,62.88h1.92v2v0c.790802-1.456903,2.343983-2.33445,4-2.26c3.26,0,4.27,1.87,4.27,4.54v8.16h-2v-8.4c.0488-.680387-.20172-1.348196-.68598-1.828613s-1.154044-.725607-1.83402-.671387c-2.47,0-3.67,1.66-3.67,3.89v7h-2Z" fill="#060"/><path d="M160.21,74.23c0,4-1.84,6.1-5.76,6.1-2.32,0-5-.94-5.13-3.65h2c.09,1.49,1.87,2,3.21,2c2.67,0,3.73-1.92,3.73-4.71v-.81h-.05c-.740232,1.441101-2.251403,2.319688-3.87,2.25-3.69,0-5.54-2.9-5.54-6.29c0-2.93,1.44-6.55,5.73-6.55c1.522137-.061871,2.950817.733556,3.7,2.06v0-1.75h1.91Zm-2-5.4c0-2.18-1-4.44-3.53-4.44s-3.68,2.14-3.68,4.51.81,4.73,3.5,4.73s3.7-2.47,3.7-4.8Z" fill="#060"/><path d="M173.56,75.29h-1.92v-2v0c-.790802,1.456903-2.343983,2.33445-4,2.26-3.27,0-4.27-1.88-4.27-4.54v-8.13h2v8.4c-.049209.679623.201552,1.34673.686252,1.82566s1.154763.721684,1.833748.66434c2.47,0,3.67-1.65,3.67-3.88v-7h2Z" fill="#060"/><path d="M176.63,62.88h1.92v2v0c.785414-1.462189,2.342236-2.341793,4-2.26c3.26,0,4.27,1.87,4.27,4.54v8.16h-2v-8.4c.0488-.680387-.20172-1.348196-.68598-1.828613s-1.154044-.725607-1.83402-.671387c-2.47,0-3.67,1.66-3.67,3.89v7h-2Z" fill="#060"/><path d="M201,75.24c-.44833.249177-.957789.367012-1.47.34-1.05,0-1.73-.58-1.73-1.92-1.085471,1.270085-2.690227,1.976767-4.36,1.92-2.26,0-4.11-1-4.11-3.48c0-2.81,2.09-3.41,4.2-3.82s4.18-.29,4.18-1.83c0-1.77-1.47-2.06-2.76-2.06-1.73,0-3,.53-3.1,2.35h-2c.12-3.07,2.5-4.15,5.26-4.15c2.23,0,4.65.51,4.65,3.41v6.38c0,1,0,1.39.65,1.39.214724-.000613.427773-.037812.63-.11Zm-3.32-6.36c-.79.57-2.32.6-3.69.84s-2.5.72-2.5,2.23c0,1.35,1.15,1.82,2.4,1.82c2.69,0,3.79-1.67,3.79-2.8Z" fill="#060"/><path d="M202.86,62.88h1.92v2h.05c.787223-1.460417,2.34282-2.33933,4-2.26c3.27,0,4.27,1.87,4.27,4.54v8.16h-2v-8.4c.0488-.680387-.20172-1.348196-.68598-1.828613s-1.154044-.725607-1.83402-.671387c-2.47,0-3.67,1.66-3.67,3.89v7h-2Z" fill="#060"/><path d="M223.21,58.15h6.22c1.51,0,3.5,0,4.53.62c1.261508.747275,2.025034,2.113987,2,3.58.048679,1.687803-.967714,3.224398-2.54,3.84v0c1.983872.338837,3.39115,2.121677,3.26,4.13.017308,1.361392-.536066,2.667869-1.525949,3.602653s-2.325878,1.412511-3.684051,1.317347h-8.28Zm2.28,7.37h4.56c2.59,0,3.65-.94,3.65-2.74c0-2.37-1.68-2.71-3.65-2.71h-4.56Zm0,7.85h5.72c.848497.079268,1.689641-.213533,2.305512-.802543s.945865-1.416271.904488-2.267457c0-2.24-1.8-2.86-3.72-2.86h-5.21Z" fill="#060"/><path d="M249.9,71.35c-.394595,2.575602-2.701022,4.416391-5.3,4.23-4,0-5.84-2.74-6-6.53s2.45-6.46,5.84-6.46c4.39,0,5.73,4.1,5.61,7.1h-9.25c-.126893,1.078799.231959,2.158227.979494,2.946326s1.806512,1.203436,2.890506,1.133674c1.532167.135524,2.918607-.909704,3.21-2.42Zm-2-3.45c-.100431-1.8956-1.666741-3.381122-3.565-3.381122s-3.464569,1.485522-3.565,3.381122Z" fill="#060"/><path d="M252.13,62.88h1.92v2.61v0c.708472-1.871124,2.565009-3.051817,4.56-2.9v2.16c-3.29,0-4.49,1.87-4.49,5v5.52h-2Z" fill="#060"/><path d="M260.32,58.15h2v10.15L268,62.88h2.74l-4.92,4.51l5.28,7.9h-2.59l-4.25-6.48-1.92,1.77v4.71h-2Z" fill="#060"/><path d="M283.24,71.35c-.39484,2.579703-2.707317,4.421846-5.31,4.23-4,0-5.83-2.74-5.95-6.53s2.45-6.46,5.83-6.46c4.4,0,5.74,4.1,5.62,7.1h-9.29c-.126485,1.076957.231091,2.154559.976317,2.942259s1.801375,1.204398,2.883683,1.137741c1.532167.135524,2.918607-.909704,3.21-2.42Zm-2-3.45c-.032804-1.952084-1.627649-3.515744-3.58-3.51-1.947329-.005571-3.533505,1.562733-3.55,3.51Z" fill="#060"/><path d="M285.66,58.15h2v17.14h-2Z" fill="#060"/><path d="M301.86,75.24c-.445212.247851-.951093.365659-1.46.34-1.06,0-1.73-.58-1.73-1.92-1.089476,1.270468-2.697335,1.976896-4.37,1.92-2.26,0-4.1-1-4.1-3.48c0-2.81,2.08-3.41,4.2-3.82s4.17-.29,4.17-1.83c0-1.77-1.46-2.06-2.76-2.06-1.73,0-3,.53-3.09,2.35h-2.05c.13-3.07,2.5-4.15,5.26-4.15c2.23,0,4.66.51,4.66,3.41v6.38c0,1,0,1.39.65,1.39.211452-.000769.421189-.03798.62-.11Zm-3.31-6.36c-.79.57-2.33.6-3.7.84s-2.49.72-2.49,2.23c0,1.35,1.15,1.82,2.4,1.82c2.68,0,3.79-1.67,3.79-2.8Z" fill="#060"/><path d="M303.76,62.88h1.91v2h.05c.790802-1.456903,2.343983-2.33445,4-2.26c3.26,0,4.27,1.87,4.27,4.54v8.16h-2v-8.4c.0488-.680387-.20172-1.348196-.68598-1.828613s-1.154044-.725607-1.83402-.671387c-2.47,0-3.67,1.66-3.67,3.89v7h-2Z" fill="#060"/><path d="M319.26,76.87c0,2.21-1.18,3.17-3,3.17-.3359.001458-.67104-.032056-1-.1v-1.75c.279434.025179.560566.025179.84,0c.89,0,1.15-.43,1.15-1.7v-13.61h2Zm0-16.22h-2v-2.5h2Z" fill="#060"/><path d="M332.7,75.29h-1.92v-2v0c-.790802,1.456903-2.343983,2.33445-4,2.26-3.27,0-4.27-1.88-4.27-4.54v-8.13h2v8.4c-.048116.673992.198729,1.335677.676526,1.813474s1.139482.724642,1.813474.676526c2.47,0,3.67-1.65,3.67-3.88v-7h2Z" fill="#060"/><path d="M338.6,62.88h2.47v1.8h-2.47v7.7c0,.94.27,1.11,1.54,1.11h.93v1.8h-1.56c-2.11,0-2.95-.44-2.95-2.71v-7.9h-2.11v-1.8h2.11v-3.72h2Z" fill="#060"/><path d="M354.32,75.24c-.444618.249387-.950948.367299-1.46.34-1.06,0-1.73-.58-1.73-1.92-1.089476,1.270468-2.697335,1.976896-4.37,1.92-2.25,0-4.1-1-4.1-3.48c0-2.81,2.09-3.41,4.2-3.82s4.14-.28,4.14-1.83c0-1.77-1.46-2.06-2.76-2.06-1.72,0-3,.53-3.09,2.35h-2c.12-3.07,2.49-4.15,5.25-4.15c2.24,0,4.66.51,4.66,3.41v6.38c0,1,0,1.39.65,1.39.211525.000047.421402-.037189.62-.11ZM351,68.88c-.79.57-2.33.6-3.7.84s-2.49.72-2.49,2.23c0,1.35,1.15,1.82,2.4,1.82c2.69,0,3.79-1.67,3.79-2.8Z" fill="#060"/><path d="M356.22,62.88h1.92v2v0c.790802-1.456903,2.343983-2.33445,4-2.26c3.26,0,4.27,1.87,4.27,4.54v8.16h-2v-8.4c.0488-.680387-.20172-1.348196-.68598-1.828613s-1.154044-.725607-1.83402-.671387c-2.47,0-3.67,1.66-3.67,3.89v7h-2Z" fill="#060"/><path d="M387.32,75.29h-2v-1.68v0c-.832881,1.385721-2.391695,2.165128-4,2-3.81,0-5.71-3-5.71-6.53s1.87-6.46,5.66-6.46c1.57234-.055694,3.07024.670788,4,1.94v0-6.41h2Zm-5.76-1.52c2.74,0,3.79-2.35,3.79-4.67s-1.1-4.71-3.91-4.71-3.72,2.38-3.72,4.8s1.2,4.58,3.84,4.58Z" fill="#060"/><path d="M392.62,60.65h-2v-2.5h2Zm-2,2.23h2v12.41h-2Z" fill="#060"/><path d="M170.53,92.88h2.47v1.8h-2.48v7.7c0,.94.27,1.11,1.54,1.11h.94v1.8h-1.56c-2.12,0-3-.44-3-2.71v-7.9h-2.11v-1.8h2.11v-3.72h2Z" fill="#060"/><path d="M186.25,105.24c-.444618.249387-.950948.367299-1.46.34-1.06,0-1.73-.58-1.73-1.92-1.089476,1.270468-2.697335,1.976896-4.37,1.92-2.25,0-4.1-1-4.1-3.48c0-2.81,2.09-3.41,4.2-3.82c2.26-.43,4.18-.29,4.18-1.83c0-1.77-1.47-2.06-2.76-2.06-1.73,0-3,.53-3.1,2.35h-2c.12-3.07,2.5-4.15,5.26-4.15c2.23,0,4.65.51,4.65,3.41v6.38c0,1,0,1.39.65,1.39.211525.000047.421402-.037189.62-.11Zm-3.31-6.36c-.79.57-2.33.6-3.69.84s-2.5.72-2.5,2.23c0,1.35,1.15,1.82,2.4,1.82c2.69,0,3.79-1.67,3.79-2.8Z" fill="#060"/><path d="M188.15,88.15h2v6.55h.05c.792442-1.393334,2.310361-2.212467,3.91-2.11c3.26,0,4.27,1.87,4.27,4.54v8.16h-2v-8.4c.0488-.680387-.20172-1.348196-.68598-1.828613s-1.154044-.725607-1.83402-.671387c-2.47,0-3.67,1.66-3.67,3.89v7h-2Z" fill="#060"/><path d="M211.76,105.29h-1.92v-2v0c-.794333,1.453426-2.345139,2.329631-4,2.26-3.26,0-4.27-1.88-4.27-4.54v-8.13h2v8.4c-.049209.679623.201552,1.34673.686252,1.82566s1.154763.721684,1.833748.66434c2.47,0,3.67-1.65,3.67-3.88v-7h2Z" fill="#060"/><path d="M214.84,92.88h1.92v2v0c.790802-1.456903,2.343983-2.33445,4-2.26c3.26,0,4.27,1.87,4.27,4.54v8.16h-2v-8.4c.0488-.680387-.20172-1.348196-.68598-1.828613s-1.154044-.725607-1.83402-.671387c-2.47,0-3.67,1.66-3.67,3.89v7h-2Z" fill="#060"/><path d="M234.37,94.29c-.17-3.45,1.87-6,5.47-6c3,0,5.33,1.73,5.33,4.9c0,3-2,4.51-4.13,5.83s-4.36,2.38-4.77,4.49h8.73v1.8h-11.11c.34-4,2.38-5.48,4.78-7c2.88-1.78,4.34-2.84,4.34-5.19-.006634-.850954-.362789-1.661763-.984965-2.242334s-1.455657-.879849-2.305035-.827666c-2.37,0-3.38,2.18-3.31,4.22Z" fill="#060"/><path d="M253.33,88.27c5.33,0,5.67,4.9,5.67,8.67s-.34,8.64-5.67,8.64-5.66-4.9-5.66-8.64.33-8.67,5.66-8.67Zm0,15.5c3.48,0,3.51-4.32,3.51-6.86s0-6.84-3.51-6.84-3.5,4.32-3.5,6.84.02,6.86,3.5,6.86Z" fill="#060"/><path d="M261.06,94.29c-.17-3.45,1.87-6,5.47-6c3,0,5.33,1.73,5.33,4.9c0,3-2,4.51-4.13,5.83s-4.37,2.38-4.77,4.49h8.73v1.8h-11.11c.34-4,2.38-5.48,4.78-7c2.88-1.78,4.34-2.84,4.34-5.19-.006634-.850954-.362789-1.661763-.984965-2.242334s-1.455657-.879849-2.305035-.827666c-2.37,0-3.38,2.18-3.31,4.22Z" fill="#060"/><path d="M281.89,105.29h-2v-12.19h-4.42v-1.64c2.33,0,4.45-.62,4.9-3.19h1.56Z" fill="#060"/></g><script><![CDATA[!function(t,n){"object"==typeof exports&&"undefined"!=typeof module?module.exports=n():"function"==typeof define&&define.amd?define(n):((t="undefined"!=typeof globalThis?globalThis:t||self).__SVGATOR_PLAYER__=t.__SVGATOR_PLAYER__||{},t.__SVGATOR_PLAYER__["91c80d77"]=n())}(this,(function(){"use strict";function t(t,n){var r=Object.keys(t);if(Object.getOwnPropertySymbols){var e=Object.getOwnPropertySymbols(t);n&&(e=e.filter((function(n){return Object.getOwnPropertyDescriptor(t,n).enumerable}))),r.push.apply(r,e)}return r}function n(n){for(var r=1;r<arguments.length;r++){var e=null!=arguments[r]?arguments[r]:{};r%2?t(Object(e),!0).forEach((function(t){o(n,t,e[t])})):Object.getOwnPropertyDescriptors?Object.defineProperties(n,Object.getOwnPropertyDescriptors(e)):t(Object(e)).forEach((function(t){Object.defineProperty(n,t,Object.getOwnPropertyDescriptor(e,t))}))}return n}function r(t){return(r="function"==typeof Symbol&&"symbol"==typeof Symbol.iterator?function(t){return typeof t}:function(t){return t&&"function"==typeof Symbol&&t.constructor===Symbol&&t!==Symbol.prototype?"symbol":typeof t})(t)}function e(t,n){if(!(t instanceof n))throw new TypeError("Cannot call a class as a function")}function i(t,n){for(var r=0;r<n.length;r++){var e=n[r];e.enumerable=e.enumerable||!1,e.configurable=!0,"value"in e&&(e.writable=!0),Object.defineProperty(t,e.key,e)}}function u(t,n,r){return n&&i(t.prototype,n),r&&i(t,r),t}function o(t,n,r){return n in t?Object.defineProperty(t,n,{value:r,enumerable:!0,configurable:!0,writable:!0}):t[n]=r,t}function a(t){return(a=Object.setPrototypeOf?Object.getPrototypeOf:function(t){return t.__proto__||Object.getPrototypeOf(t)})(t)}function l(t,n){return(l=Object.setPrototypeOf||function(t,n){return t.__proto__=n,t})(t,n)}function s(){if("undefined"==typeof Reflect||!Reflect.construct)return!1;if(Reflect.construct.sham)return!1;if("function"==typeof Proxy)return!0;try{return Boolean.prototype.valueOf.call(Reflect.construct(Boolean,[],(function(){}))),!0}catch(t){return!1}}function f(t,n,r){return(f=s()?Reflect.construct:function(t,n,r){var e=[null];e.push.apply(e,n);var i=new(Function.bind.apply(t,e));return r&&l(i,r.prototype),i}).apply(null,arguments)}function c(t,n){if(n&&("object"==typeof n||"function"==typeof n))return n;if(void 0!==n)throw new TypeError("Derived constructors may only return object or undefined");return function(t){if(void 0===t)throw new ReferenceError("this hasn't been initialised - super() hasn't been called");return t}(t)}function h(t,n,r){return(h="undefined"!=typeof Reflect&&Reflect.get?Reflect.get:function(t,n,r){var e=function(t,n){for(;!Object.prototype.hasOwnProperty.call(t,n)&&null!==(t=a(t)););return t}(t,n);if(e){var i=Object.getOwnPropertyDescriptor(e,n);return i.get?i.get.call(r):i.value}})(t,n,r||t)}function v(t){return function(t){if(Array.isArray(t))return d(t)}(t)||function(t){if("undefined"!=typeof Symbol&&null!=t[Symbol.iterator]||null!=t["@@iterator"])return Array.from(t)}(t)||function(t,n){if(!t)return;if("string"==typeof t)return d(t,n);var r=Object.prototype.toString.call(t).slice(8,-1);"Object"===r&&t.constructor&&(r=t.constructor.name);if("Map"===r||"Set"===r)return Array.from(t);if("Arguments"===r||/^(?:Ui|I)nt(?:8|16|32)(?:Clamped)?Array$/.test(r))return d(t,n)}(t)||function(){throw new TypeError("Invalid attempt to spread non-iterable instance.\nIn order to be iterable, non-array objects must have a [Symbol.iterator]() method.")}()}function d(t,n){(null==n||n>t.length)&&(n=t.length);for(var r=0,e=new Array(n);r<n;r++)e[r]=t[r];return e}var y=g(Math.pow(10,-6));function g(t){var n=arguments.length>1&&void 0!==arguments[1]?arguments[1]:6;if(Number.isInteger(t))return t;var r=Math.pow(10,n);return Math.round((+t+Number.EPSILON)*r)/r}function p(t,n){var r=arguments.length>2&&void 0!==arguments[2]?arguments[2]:y;return Math.abs(t-n)<r}var m=Math.PI/180;function b(t){return t}function w(t,n,r){var e=1-r;return 3*r*e*(t*e+n*r)+r*r*r}function A(){var t=arguments.length>0&&void 0!==arguments[0]?arguments[0]:0,n=arguments.length>1&&void 0!==arguments[1]?arguments[1]:0,r=arguments.length>2&&void 0!==arguments[2]?arguments[2]:1,e=arguments.length>3&&void 0!==arguments[3]?arguments[3]:1;return t<0||t>1||r<0||r>1?null:p(t,n)&&p(r,e)?b:function(i){if(i<=0)return t>0?i*n/t:0===n&&r>0?i*e/r:0;if(i>=1)return r<1?1+(i-1)*(e-1)/(r-1):1===r&&t<1?1+(i-1)*(n-1)/(t-1):1;for(var u,o=0,a=1;o<a;){var l=w(t,r,u=(o+a)/2);if(p(i,l))break;l<i?o=u:a=u}return w(n,e,u)}}function x(){return 1}function k(t){return 1===t?1:0}function _(){var t=arguments.length>0&&void 0!==arguments[0]?arguments[0]:1,n=arguments.length>1&&void 0!==arguments[1]?arguments[1]:0;if(1===t){if(0===n)return k;if(1===n)return x}var r=1/t;return function(t){return t>=1?1:(t+=n*r)-t%r}}var S=Math.sin,O=Math.cos,M=Math.acos,E=Math.asin,j=Math.tan,P=Math.atan2,I=Math.PI/180,B=180/Math.PI,R=Math.sqrt,T=function(){function t(){var n=arguments.length>0&&void 0!==arguments[0]?arguments[0]:1,r=arguments.length>1&&void 0!==arguments[1]?arguments[1]:0,i=arguments.length>2&&void 0!==arguments[2]?arguments[2]:0,u=arguments.length>3&&void 0!==arguments[3]?arguments[3]:1,o=arguments.length>4&&void 0!==arguments[4]?arguments[4]:0,a=arguments.length>5&&void 0!==arguments[5]?arguments[5]:0;e(this,t),this.m=[n,r,i,u,o,a],this.i=null,this.w=null,this.s=null}return u(t,[{key:"determinant",get:function(){var t=this.m;return t[0]*t[3]-t[1]*t[2]}},{key:"isIdentity",get:function(){if(null===this.i){var t=this.m;this.i=1===t[0]&&0===t[1]&&0===t[2]&&1===t[3]&&0===t[4]&&0===t[5]}return this.i}},{key:"point",value:function(t,n){var r=this.m;return{x:r[0]*t+r[2]*n+r[4],y:r[1]*t+r[3]*n+r[5]}}},{key:"translateSelf",value:function(){var t=arguments.length>0&&void 0!==arguments[0]?arguments[0]:0,n=arguments.length>1&&void 0!==arguments[1]?arguments[1]:0;if(!t&&!n)return this;var r=this.m;return r[4]+=r[0]*t+r[2]*n,r[5]+=r[1]*t+r[3]*n,this.w=this.s=this.i=null,this}},{key:"rotateSelf",value:function(){var t=arguments.length>0&&void 0!==arguments[0]?arguments[0]:0;if(t%=360){var n=S(t*=I),r=O(t),e=this.m,i=e[0],u=e[1];e[0]=i*r+e[2]*n,e[1]=u*r+e[3]*n,e[2]=e[2]*r-i*n,e[3]=e[3]*r-u*n,this.w=this.s=this.i=null}return this}},{key:"scaleSelf",value:function(){var t=arguments.length>0&&void 0!==arguments[0]?arguments[0]:1,n=arguments.length>1&&void 0!==arguments[1]?arguments[1]:1;if(1!==t||1!==n){var r=this.m;r[0]*=t,r[1]*=t,r[2]*=n,r[3]*=n,this.w=this.s=this.i=null}return this}},{key:"skewSelf",value:function(t,n){if(n%=360,(t%=360)||n){var r=this.m,e=r[0],i=r[1],u=r[2],o=r[3];t&&(t=j(t*I),r[2]+=e*t,r[3]+=i*t),n&&(n=j(n*I),r[0]+=u*n,r[1]+=o*n),this.w=this.s=this.i=null}return this}},{key:"resetSelf",value:function(){var t=arguments.length>0&&void 0!==arguments[0]?arguments[0]:1,n=arguments.length>1&&void 0!==arguments[1]?arguments[1]:0,r=arguments.length>2&&void 0!==arguments[2]?arguments[2]:0,e=arguments.length>3&&void 0!==arguments[3]?arguments[3]:1,i=arguments.length>4&&void 0!==arguments[4]?arguments[4]:0,u=arguments.length>5&&void 0!==arguments[5]?arguments[5]:0,o=this.m;return o[0]=t,o[1]=n,o[2]=r,o[3]=e,o[4]=i,o[5]=u,this.w=this.s=this.i=null,this}},{key:"recomposeSelf",value:function(){var t=arguments.length>0&&void 0!==arguments[0]?arguments[0]:null,n=arguments.length>1&&void 0!==arguments[1]?arguments[1]:null,r=arguments.length>2&&void 0!==arguments[2]?arguments[2]:null,e=arguments.length>3&&void 0!==arguments[3]?arguments[3]:null,i=arguments.length>4&&void 0!==arguments[4]?arguments[4]:null;return this.isIdentity||this.resetSelf(),t&&(t.x||t.y)&&this.translateSelf(t.x,t.y),n&&this.rotateSelf(n),r&&(r.x&&this.skewSelf(r.x,0),r.y&&this.skewSelf(0,r.y)),!e||1===e.x&&1===e.y||this.scaleSelf(e.x,e.y),i&&(i.x||i.y)&&this.translateSelf(i.x,i.y),this}},{key:"decompose",value:function(){var t=arguments.length>0&&void 0!==arguments[0]?arguments[0]:0,n=arguments.length>1&&void 0!==arguments[1]?arguments[1]:0,r=this.m,e=r[0]*r[0]+r[1]*r[1],i=[[r[0],r[1]],[r[2],r[3]]],u=R(e);if(0===u)return{origin:{x:g(r[4]),y:g(r[5])},translate:{x:g(t),y:g(n)},scale:{x:0,y:0},skew:{x:0,y:0},rotate:0};i[0][0]/=u,i[0][1]/=u;var o=r[0]*r[3]-r[1]*r[2]<0;o&&(u=-u);var a=i[0][0]*i[1][0]+i[0][1]*i[1][1];i[1][0]-=i[0][0]*a,i[1][1]-=i[0][1]*a;var l=R(i[1][0]*i[1][0]+i[1][1]*i[1][1]);if(0===l)return{origin:{x:g(r[4]),y:g(r[5])},translate:{x:g(t),y:g(n)},scale:{x:g(u),y:0},skew:{x:0,y:0},rotate:0};i[1][0]/=l,i[1][1]/=l,a/=l;var s=0;return i[1][1]<0?(s=M(i[1][1])*B,i[0][1]<0&&(s=360-s)):s=E(i[0][1])*B,o&&(s=-s),a=P(a,R(i[0][0]*i[0][0]+i[0][1]*i[0][1]))*B,o&&(a=-a),{origin:{x:g(r[4]),y:g(r[5])},translate:{x:g(t),y:g(n)},scale:{x:g(u),y:g(l)},skew:{x:g(a),y:0},rotate:g(s)}}},{key:"clone",value:function(){var t=this.m;return new this.constructor(t[0],t[1],t[2],t[3],t[4],t[5])}},{key:"toString",value:function(){var t=arguments.length>0&&void 0!==arguments[0]?arguments[0]:" ";if(null===this.s){var n=this.m.map((function(t){return g(t)}));1===n[0]&&0===n[1]&&0===n[2]&&1===n[3]?this.s="translate("+n[4]+t+n[5]+")":this.s="matrix("+n.join(t)+")"}return this.s}}],[{key:"create",value:function(t){return t?Array.isArray(t)?f(this,v(t)):t instanceof this?t.clone():(new this).recomposeSelf(t.origin,t.rotate,t.skew,t.scale,t.translate):new this}}]),t}();function N(t,n,r){return t>=.5?r:n}function C(t,n,r){return 0===t||n===r?n:t*(r-n)+n}function F(t,n,r){var e=C(t,n,r);return e<=0?0:e}function L(t,n,r){var e=C(t,n,r);return e<=0?0:e>=1?1:e}function q(t,n,r){return 0===t?n:1===t?r:{x:C(t,n.x,r.x),y:C(t,n.y,r.y)}}function V(t,n,r){return 0===t?n:1===t?r:{x:F(t,n.x,r.x),y:F(t,n.y,r.y)}}function D(t,n,r){var e=function(t,n,r){return Math.round(C(t,n,r))}(t,n,r);return e<=0?0:e>=255?255:e}function z(t,n,r){return 0===t?n:1===t?r:{r:D(t,n.r,r.r),g:D(t,n.g,r.g),b:D(t,n.b,r.b),a:C(t,null==n.a?1:n.a,null==r.a?1:r.a)}}function Y(t,n,r){var e=n.length;if(e!==r.length)return N(t,n,r);for(var i=new Array(e),u=0;u<e;u++)i[u]=C(t,n[u],r[u]);return i}function G(t,n){for(var r=[],e=0;e<t;e++)r.push(n);return r}function U(t,n){if(--n<=0)return t;var r=(t=Object.assign([],t)).length;do{for(var e=0;e<r;e++)t.push(t[e])}while(--n>0);return t}var $,W=function(){function t(n){e(this,t),this.list=n,this.length=n.length}return u(t,[{key:"setAttribute",value:function(t,n){for(var r=this.list,e=0;e<this.length;e++)r[e].setAttribute(t,n)}},{key:"removeAttribute",value:function(t){for(var n=this.list,r=0;r<this.length;r++)n[r].removeAttribute(t)}},{key:"style",value:function(t,n){for(var r=this.list,e=0;e<this.length;e++)r[e].style[t]=n}}]),t}(),H=/-./g,Q=function(t,n){return n.toUpperCase()};function X(t){return"function"==typeof t?t:N}function J(t){return t?"function"==typeof t?t:Array.isArray(t)?function(t){var n=arguments.length>1&&void 0!==arguments[1]?arguments[1]:b;if(!Array.isArray(t))return n;switch(t.length){case 1:return _(t[0])||n;case 2:return _(t[0],t[1])||n;case 4:return A(t[0],t[1],t[2],t[3])||n}return n}(t,null):function(t,n){var r=arguments.length>2&&void 0!==arguments[2]?arguments[2]:b;switch(t){case"linear":return b;case"steps":return _(n.steps||1,n.jump||0)||r;case"bezier":case"cubic-bezier":return A(n.x1||0,n.y1||0,n.x2||0,n.y2||0)||r}return r}(t.type,t.value,null):null}function Z(t,n,r){var e=arguments.length>3&&void 0!==arguments[3]&&arguments[3],i=n.length-1;if(t<=n[0].t)return e?[0,0,n[0].v]:n[0].v;if(t>=n[i].t)return e?[i,1,n[i].v]:n[i].v;var u,o=n[0],a=null;for(u=1;u<=i;u++){if(!(t>n[u].t)){a=n[u];break}o=n[u]}return null==a?e?[i,1,n[i].v]:n[i].v:o.t===a.t?e?[u,1,a.v]:a.v:(t=(t-o.t)/(a.t-o.t),o.e&&(t=o.e(t)),e?[u,t,r(t,o.v,a.v)]:r(t,o.v,a.v))}function K(t,n){var r=arguments.length>2&&void 0!==arguments[2]?arguments[2]:null;return t&&t.length?"function"!=typeof n?null:("function"!=typeof r&&(r=null),function(e){var i=Z(e,t,n);return null!=i&&r&&(i=r(i)),i}):null}function tt(t,n){return t.t-n.t}function nt(t,n,e,i,u){var o,a="@"===e[0],l="#"===e[0],s=$[e],f=N;switch(a?(o=e.substr(1),e=o.replace(H,Q)):l&&(e=e.substr(1)),r(s)){case"function":if(f=s(i,u,Z,J,e,a,n,t),l)return f;break;case"string":f=K(i,X(s));break;case"object":if((f=K(i,X(s.i),s.f))&&"function"==typeof s.u)return s.u(n,f,e,a,t)}return f?function(t,n,r){if(arguments.length>3&&void 0!==arguments[3]&&arguments[3])return t instanceof W?function(e){return t.style(n,r(e))}:function(e){return t.style[n]=r(e)};if(Array.isArray(n)){var e=n.length;return function(i){var u=r(i);if(null==u)for(var o=0;o<e;o++)t[o].removeAttribute(n);else for(var a=0;a<e;a++)t[a].setAttribute(n,u)}}return function(e){var i=r(e);null==i?t.removeAttribute(n):t.setAttribute(n,i)}}(n,e,f,a):null}function rt(t,n,e,i){if(!i||"object"!==r(i))return null;var u=null,o=null;return Array.isArray(i)?o=function(t){if(!t||!t.length)return null;for(var n=0;n<t.length;n++)t[n].e&&(t[n].e=J(t[n].e));return t.sort(tt)}(i):(o=i.keys,u=i.data||null),o?nt(t,n,e,o,u):null}function et(t,n,r){if(!r)return null;var e=[];for(var i in r)if(r.hasOwnProperty(i)){var u=rt(t,n,i,r[i]);u&&e.push(u)}return e.length?e:null}function it(t,n){if(!n.duration||n.duration<0)return null;var r=function(t,n){if(!n)return null;var r=[];if(Array.isArray(n))for(var e=n.length,i=0;i<e;i++){var u=n[i];if(2===u.length){var o=null;if("string"==typeof u[0])o=t.getElementById(u[0]);else if(Array.isArray(u[0])){o=[];for(var a=0;a<u[0].length;a++)if("string"==typeof u[0][a]){var l=t.getElementById(u[0][a]);l&&o.push(l)}o=o.length?1===o.length?o[0]:new W(o):null}if(o){var s=et(t,o,u[1]);s&&(r=r.concat(s))}}}else for(var f in n)if(n.hasOwnProperty(f)){var c=t.getElementById(f);if(c){var h=et(t,c,n[f]);h&&(r=r.concat(h))}}return r.length?r:null}(t,n.elements);return r?function(t,n){var r=arguments.length>2&&void 0!==arguments[2]?arguments[2]:1/0,e=arguments.length>3&&void 0!==arguments[3]?arguments[3]:1,i=arguments.length>4&&void 0!==arguments[4]&&arguments[4],u=arguments.length>5&&void 0!==arguments[5]?arguments[5]:1,o=t.length,a=e>0?n:0;i&&r%2==0&&(a=n-a);var l=null;return function(s,f){var c=s%n,h=1+(s-c)/n;f*=e,i&&h%2==0&&(f=-f);var v=!1;if(h>r)c=a,v=!0,-1===u&&(c=e>0?0:n);else if(f<0&&(c=n-c),c===l)return!1;l=c;for(var d=0;d<o;d++)t[d](c);return v}}(r,n.duration,n.iterations||1/0,n.direction||1,!!n.alternate,n.fill||1):null}function ut(t){return+("0x"+(t.replace(/[^0-9a-fA-F]+/g,"")||27))}function ot(t,n,r){return!t||!r||n>t.length?t:t.substring(0,n)+ot(t.substring(n+1),r,r)}function at(t){var n=arguments.length>1&&void 0!==arguments[1]?arguments[1]:27;return!t||t%n?t%n:at(t/n,n)}function lt(t,n,r){if(t&&t.length){var e=ut(r),i=ut(n),u=at(e)+5,o=ot(t,at(e,5),u);return o=o.replace(/\x7c$/g,"==").replace(/\x2f$/g,"="),o=function(t,n,r){var e=+("0x"+t.substring(0,4));t=t.substring(4);for(var i=n%e+r%27,u=[],o=0;o<t.length;o+=2)if("|"!==t[o]){var a=+("0x"+t[o]+t[o+1])-i;u.push(a)}else{var l=+("0x"+t.substring(o+1,o+1+4))-i;o+=3,u.push(l)}return String.fromCharCode.apply(String,u)}(o=(o=atob(o)).replace(/[\x41-\x5A]/g,""),i,e),o=JSON.parse(o)}}Number.isInteger||(Number.isInteger=function(t){return"number"==typeof t&&isFinite(t)&&Math.floor(t)===t}),Number.EPSILON||(Number.EPSILON=2220446049250313e-31);var st=function(){function t(n,r){var i=arguments.length>2&&void 0!==arguments[2]?arguments[2]:{};e(this,t),this._id=0,this._running=!1,this._rollingBack=!1,this._animations=n,this.duration=r.duration,this.alternate=r.alternate,this.fill=r.fill,this.iterations=r.iterations,this.direction=i.direction||1,this.speed=i.speed||1,this.fps=i.fps||100,this.offset=i.offset||0,this.rollbackStartOffset=0}return u(t,[{key:"_rollback",value:function(){var t=this,n=1/0,r=null;this.rollbackStartOffset=this.offset,this._rollingBack||(this._rollingBack=!0,this._running=!0);this._id=window.requestAnimationFrame((function e(i){if(t._rollingBack){null==r&&(r=i);var u=i-r,o=t.rollbackStartOffset-u,a=Math.round(o*t.speed);if(a>t.duration&&n!=1/0){var l=!!t.alternate&&a/t.duration%2>1,s=a%t.duration;a=(s+=l?t.duration:0)||t.duration}var f=t.fps?1e3/t.fps:0,c=Math.max(0,a);if(c<n-f){t.offset=c,n=c;for(var h=t._animations,v=h.length,d=0;d<v;d++)h[d](c,t.direction)}var y=!1;if(t.iterations>0&&-1===t.fill){var g=t.iterations*t.duration,p=g==a;a=p?0:a,t.offset=p?0:t.offset,y=a>g}a>0&&t.offset>=a&&!y?t._id=window.requestAnimationFrame(e):t.stop()}}))}},{key:"_start",value:function(){var t=this,n=arguments.length>0&&void 0!==arguments[0]?arguments[0]:0,r=-1/0,e=null,i={},u=function u(o){t._running=!0,null==e&&(e=o);var a=Math.round((o-e+n)*t.speed),l=t.fps?1e3/t.fps:0;if(a>r+l&&!t._rollingBack){t.offset=a,r=a;for(var s=t._animations,f=s.length,c=0,h=0;h<f;h++)i[h]?c++:(i[h]=s[h](a,t.direction),i[h]&&c++);if(c===f)return void t._stop()}t._id=window.requestAnimationFrame(u)};this._id=window.requestAnimationFrame(u)}},{key:"_stop",value:function(){this._id&&window.cancelAnimationFrame(this._id),this._running=!1,this._rollingBack=!1}},{key:"play",value:function(){!this._rollingBack&&this._running||(this._rollingBack=!1,this.rollbackStartOffset>this.duration&&(this.offset=this.rollbackStartOffset-(this.rollbackStartOffset-this.offset)%this.duration,this.rollbackStartOffset=0),this._start(this.offset))}},{key:"stop",value:function(){this._stop(),this.offset=0,this.rollbackStartOffset=0;var t=this.direction,n=this._animations;window.requestAnimationFrame((function(){for(var r=0;r<n.length;r++)n[r](0,t)}))}},{key:"reachedToEnd",value:function(){return this.iterations>0&&this.offset>=this.iterations*this.duration}},{key:"restart",value:function(){this._stop(),this.offset=0,this._start()}},{key:"pause",value:function(){this._stop()}},{key:"reverse",value:function(){this.direction=-this.direction}}],[{key:"build",value:function(r,e){return delete r.animationSettings,r.options=lt(r.options,r.root,"91c80d77"),r.animations.map((function(t){var e=lt(t.s,r.root,"91c80d77");for(var i in delete t.s,r.animationSettings||(r.animationSettings=n({},e)),e)e.hasOwnProperty(i)&&(t[i]=e[i])})),(r=function(t,n){if($=n,!t||!t.root||!Array.isArray(t.animations))return null;for(var r=document.getElementsByTagName("svg"),e=!1,i=0;i<r.length;i++)if(r[i].id===t.root&&!r[i].svgatorAnimation){(e=r[i]).svgatorAnimation=!0;break}if(!e)return null;var u=t.animations.map((function(t){return it(e,t)})).filter((function(t){return!!t}));return u.length?{element:e,animations:u,animationSettings:t.animationSettings,options:t.options||void 0}:null}(r,e))?{el:r.element,options:r.options||{},player:new t(r.animations,r.animationSettings,r.options)}:null}},{key:"push",value:function(t){return this.build(t)}},{key:"init",value:function(){var t=this,n=window.__SVGATOR_PLAYER__&&window.__SVGATOR_PLAYER__["91c80d77"];Array.isArray(n)&&n.splice(0).forEach((function(n){return t.build(n)}))}}]),t}();!function(){for(var t=0,n=["ms","moz","webkit","o"],r=0;r<n.length&&!window.requestAnimationFrame;++r)window.requestAnimationFrame=window[n[r]+"RequestAnimationFrame"],window.cancelAnimationFrame=window[n[r]+"CancelAnimationFrame"]||window[n[r]+"CancelRequestAnimationFrame"];window.requestAnimationFrame||(window.requestAnimationFrame=function(n){var r=Date.now(),e=Math.max(0,16-(r-t)),i=window.setTimeout((function(){n(r+e)}),e);return t=r+e,i},window.cancelAnimationFrame=window.clearTimeout)}();var ft=function(t,n){var r=!1,e=null;return function(i){r&&clearTimeout(r),r=setTimeout((function(){return function(){for(var i=0,u=window.innerHeight,o=0,a=window.innerWidth,l=t.parentNode;l instanceof Element;){var s=window.getComputedStyle(l);if("visible"!==s.overflowY||"visible"!==s.overflowX){var f=l.getBoundingClientRect();"visible"!==s.overflowY&&(i=Math.max(i,f.top),u=Math.min(u,f.bottom)),"visible"!==s.overflowX&&(o=Math.max(o,f.left),a=Math.min(a,f.right))}if(l===l.parentNode)break;l=l.parentNode}r=!1;var c=t.getBoundingClientRect(),h=Math.min(c.height,Math.max(0,i-c.top)),v=Math.min(c.height,Math.max(0,c.bottom-u)),d=Math.min(c.width,Math.max(0,o-c.left)),y=Math.min(c.width,Math.max(0,c.right-a)),g=(c.height-h-v)/c.height,p=(c.width-d-y)/c.width,m=Math.round(g*p*100);null!==e&&e===m||(e=m,n(m))}()}),100)}},ct=function(){function t(n,r,i){e(this,t),r=Math.max(1,r||1),r=Math.min(r,100),this.el=n,this.onTresholdChange=i&&i.call?i:function(){},this.tresholdPercent=r||1,this.currentVisibility=null,this.visibilityCalculator=ft(n,this.onVisibilityUpdate.bind(this)),this.bindScrollWatchers(),this.visibilityCalculator()}return u(t,[{key:"bindScrollWatchers",value:function(){for(var t=this.el.parentNode;t&&(t.addEventListener("scroll",this.visibilityCalculator),t!==t.parentNode&&t!==document);)t=t.parentNode}},{key:"onVisibilityUpdate",value:function(t){var n=this.currentVisibility>=this.tresholdPercent,r=t>=this.tresholdPercent;if(null===this.currentVisibility||n!==r)return this.currentVisibility=t,void this.onTresholdChange(r);this.currentVisibility=t}}]),t}();function ht(t){return g(t)+""}function vt(t){var n=arguments.length>1&&void 0!==arguments[1]?arguments[1]:" ";return t&&t.length?t.map(ht).join(n):""}function dt(t){return ht(t.x)+","+ht(t.y)}function yt(t){if(!t)return"transparent";if(null==t.a||t.a>=1){var n=function(t){return 1===(t=parseInt(t).toString(16)).length?"0"+t:t},r=function(t){return t.charAt(0)===t.charAt(1)},e=n(t.r),i=n(t.g),u=n(t.b);return r(e)&&r(i)&&r(u)&&(e=e.charAt(0),i=i.charAt(0),u=u.charAt(0)),"#"+e+i+u}return"rgba("+t.r+","+t.g+","+t.b+","+t.a+")"}function gt(t){return t?"url(#"+t+")":"none"}var pt={f:null,i:V,u:function(t,n){return function(r){var e=n(r);t.setAttribute("rx",ht(e.x)),t.setAttribute("ry",ht(e.y))}}},mt={f:null,i:function(t,n,r){return 0===t?n:1===t?r:{width:F(t,n.width,r.width),height:F(t,n.height,r.height)}},u:function(t,n){return function(r){var e=n(r);t.setAttribute("width",ht(e.width)),t.setAttribute("height",ht(e.height))}}};Object.freeze({M:2,L:2,Z:0,H:1,V:1,C:6,Q:4,T:2,S:4,A:7});var bt={},wt=null;function At(t){var n=function(){if(wt)return wt;if("object"!==("undefined"==typeof document?"undefined":r(document))||!document.createElementNS)return{};var t=document.createElementNS("http://www.w3.org/2000/svg","svg");return t&&t.style?(t.style.position="absolute",t.style.opacity="0.01",t.style.zIndex="-9999",t.style.left="-9999px",t.style.width="1px",t.style.height="1px",wt={svg:t}):{}}().svg;if(!n)return function(t){return null};var e=document.createElementNS(n.namespaceURI,"path");e.setAttributeNS(null,"d",t),e.setAttributeNS(null,"fill","none"),e.setAttributeNS(null,"stroke","none"),n.appendChild(e);var i=e.getTotalLength();return function(t){var n=e.getPointAtLength(i*t);return{x:n.x,y:n.y}}}function xt(t){return bt[t]?bt[t]:bt[t]=At(t)}function kt(t,n,r,e){if(!t||!e)return!1;var i=["M",t.x,t.y];if(n&&r&&(i.push("C"),i.push(n.x),i.push(n.y),i.push(r.x),i.push(r.y)),n?!r:r){var u=n||r;i.push("Q"),i.push(u.x),i.push(u.y)}return n||r||i.push("L"),i.push(e.x),i.push(e.y),i.join(" ")}function _t(t,n,r,e){var i=arguments.length>4&&void 0!==arguments[4]?arguments[4]:1,u=kt(t,n,r,e),o=xt(u);try{return o(i)}catch(t){return null}}function St(t,n,r){return t+(n-t)*r}function Ot(t,n,r){var e=arguments.length>3&&void 0!==arguments[3]&&arguments[3],i={x:St(t.x,n.x,r),y:St(t.y,n.y,r)};return e&&(i.a=Mt(t,n)),i}function Mt(t,n){return Math.atan2(n.y-t.y,n.x-t.x)}function Et(t,n,r,e){var i=1-e;return i*i*t+2*i*e*n+e*e*r}function jt(t,n,r,e){return 2*(1-e)*(n-t)+2*e*(r-n)}function Pt(t,n,r,e){var i=arguments.length>4&&void 0!==arguments[4]&&arguments[4],u=_t(t,n,null,r,e);return u||(u={x:Et(t.x,n.x,r.x,e),y:Et(t.y,n.y,r.y,e)}),i&&(u.a=It(t,n,r,e)),u}function It(t,n,r,e){return Math.atan2(jt(t.y,n.y,r.y,e),jt(t.x,n.x,r.x,e))}function Bt(t,n,r,e,i){var u=i*i;return i*u*(e-t+3*(n-r))+3*u*(t+r-2*n)+3*i*(n-t)+t}function Rt(t,n,r,e,i){var u=1-i;return 3*(u*u*(n-t)+2*u*i*(r-n)+i*i*(e-r))}function Tt(t,n,r,e,i){var u=arguments.length>5&&void 0!==arguments[5]&&arguments[5],o=_t(t,n,r,e,i);return o||(o={x:Bt(t.x,n.x,r.x,e.x,i),y:Bt(t.y,n.y,r.y,e.y,i)}),u&&(o.a=Nt(t,n,r,e,i)),o}function Nt(t,n,r,e,i){return Math.atan2(Rt(t.y,n.y,r.y,e.y,i),Rt(t.x,n.x,r.x,e.x,i))}function Ct(t,n,r){var e=arguments.length>3&&void 0!==arguments[3]&&arguments[3];if(Lt(n)){if(qt(r))return Pt(n,r.start,r,t,e)}else if(Lt(r)){if(n.end)return Pt(n,n.end,r,t,e)}else{if(n.end)return r.start?Tt(n,n.end,r.start,r,t,e):Pt(n,n.end,r,t,e);if(r.start)return Pt(n,r.start,r,t,e)}return Ot(n,r,t,e)}function Ft(t,n,r){var e=Ct(t,n,r,!0);return e.a=function(t){return arguments.length>1&&void 0!==arguments[1]&&arguments[1]?t+Math.PI:t}(e.a)/m,e}function Lt(t){return!t.type||"corner"===t.type}function qt(t){return null!=t.start&&!Lt(t)}var Vt=new T;var Dt={f:function(t){return t?t.join(" "):""},i:function(t,n,e){if(0===t)return n;if(1===t)return e;var i=n.length;if(i!==e.length)return N(t,n,e);for(var u,o=new Array(i),a=0;a<i;a++){if((u=r(n[a]))!==r(e[a]))return N(t,n,e);if("number"===u)o[a]=C(t,n[a],e[a]);else{if(n[a]!==e[a])return N(t,n,e);o[a]=n[a]}}return o}},zt={f:null,i:Y,u:function(t,n){return function(r){var e=n(r);t.setAttribute("x1",ht(e[0])),t.setAttribute("y1",ht(e[1])),t.setAttribute("x2",ht(e[2])),t.setAttribute("y2",ht(e[3]))}}},Yt={f:ht,i:C},Gt={f:ht,i:L},Ut={f:function(t){var n=arguments.length>1&&void 0!==arguments[1]?arguments[1]:" ";return t&&t.length>0&&(t=t.map((function(t){return g(t,4)}))),vt(t,n)},i:function(t,n,r){var e,i,u,o=n.length,a=r.length;if(o!==a)if(0===o)n=G(o=a,0);else if(0===a)a=o,r=G(o,0);else{var l=(u=(e=o)*(i=a)/function(t,n){for(var r;n;)r=n,n=t%n,t=r;return t||1}(e,i))<0?-u:u;n=U(n,Math.floor(l/o)),r=U(r,Math.floor(l/a)),o=a=l}for(var s=[],f=0;f<o;f++)s.push(g(F(t,n[f],r[f])));return s}};function $t(t,n,r){return t.map((function(t){return function(t,n,r){var e=t.v;if(!e||"g"!==e.t||e.s||!e.v||!e.r)return t;var i=r.getElementById(e.r),u=i&&i.querySelectorAll("stop")||[];return e.s=e.v.map((function(t,n){var r=u[n]&&u[n].getAttribute("offset");return{c:t,o:r=g(parseInt(r)/100)}})),delete e.v,t}(t,0,r)}))}var Wt={gt:"gradientTransform",c:{x:"cx",y:"cy"},rd:"r",f:{x:"x1",y:"y1"},to:{x:"x2",y:"y2"}};function Ht(t,n,e,i,u,o,a,l){return $t(t,0,l),n=function(t,n,r){for(var e,i,u,o=t.length-1,a={},l=0;l<=o;l++)(e=t[l]).e&&(e.e=n(e.e)),e.v&&"g"===(i=e.v).t&&i.r&&(u=r.getElementById(i.r))&&(a[i.r]={e:u,s:u.querySelectorAll("stop")});return a}(t,i,l),function(i){var u=e(i,t,Qt);if(!u)return"none";if("c"===u.t)return yt(u.v);if("g"===u.t){if(!n[u.r])return gt(u.r);var o=n[u.r];return function(t,n){for(var r=t.s,e=r.length;e<n.length;e++){var i=r[r.length-1].cloneNode();i.id=Zt(i.id),t.e.appendChild(i),r=t.s=t.e.querySelectorAll("stop")}for(var u=0,o=r.length,a=n.length-1;u<o;u++)r[u].setAttribute("stop-color",yt(n[Math.min(u,a)].c)),r[u].setAttribute("offset",n[Math.min(u,a)].o)}(o,u.s),Object.keys(Wt).forEach((function(t){if(void 0!==u[t])if("object"!==r(Wt[t])){var n,e="gt"===t?(n=u[t],Array.isArray(n)?"matrix("+n.join(" ")+")":""):u[t],i=Wt[t];o.e.setAttribute(i,e)}else Object.keys(Wt[t]).forEach((function(n){if(void 0!==u[t][n]){var r=u[t][n],e=Wt[t][n];o.e.setAttribute(e,r)}}))})),gt(u.r)}return"none"}}function Qt(t,r,e){if(0===t)return r;if(1===t)return e;if(r&&e){var i=r.t;if(i===e.t)switch(r.t){case"c":return{t:i,v:z(t,r.v,e.v)};case"g":if(r.r===e.r){var u={t:i,s:Xt(t,r.s,e.s),r:r.r};return r.gt&&e.gt&&(u.gt=Y(t,r.gt,e.gt)),r.c?(u.c=q(t,r.c,e.c),u.rd=F(t,r.rd,e.rd)):r.f&&(u.f=q(t,r.f,e.f),u.to=q(t,r.to,e.to)),u}}if("c"===r.t&&"g"===e.t||"c"===e.t&&"g"===r.t){var o="c"===r.t?r:e,a="g"===r.t?n({},r):n({},e),l=a.s.map((function(t){return{c:o.v,o:t.o}}));return a.s="c"===r.t?Xt(t,l,a.s):Xt(t,a.s,l),a}}return N(t,r,e)}function Xt(t,n,r){if(n.length===r.length)return n.map((function(n,e){return Jt(t,n,r[e])}));for(var e=Math.max(n.length,r.length),i=[],u=0;u<e;u++){var o=Jt(t,n[Math.min(u,n.length-1)],r[Math.min(u,r.length-1)]);i.push(o)}return i}function Jt(t,n,r){return{o:L(t,n.o,r.o||0),c:z(t,n.c,r.c||{})}}function Zt(t){return t.replace(/-fill-([0-9]+)$/,(function(t,n){return"-fill-"+(+n+1)}))}var Kt={blur:V,brightness:F,contrast:F,"drop-shadow":function(t,n,r){return 0===t?n:1===t?r:{blur:V(t,n.blur,r.blur),offset:q(t,n.offset,r.offset),color:z(t,n.color,r.color)}},grayscale:F,"hue-rotate":C,invert:F,opacity:F,saturate:F,sepia:F};function tn(t,n,r){if(0===t)return n;if(1===t)return r;var e=n.length;if(e!==r.length)return N(t,n,r);for(var i,u=[],o=0;o<e;o++){if(n[o].type!==r[o].type)return n;if(!(i=Kt[n[o].type]))return N(t,n,r);u.push({type:n.type,value:i(t,n[o].value,r[o].value)})}return u}var nn={blur:function(t){return t?function(n){t.setAttribute("stdDeviation",dt(n))}:null},brightness:function(t,n,r){return(t=en(r,n))?function(n){n=ht(n),t.map((function(t){return t.setAttribute("slope",n)}))}:null},contrast:function(t,n,r){return(t=en(r,n))?function(n){var r=ht((1-n)/2);n=ht(n),t.map((function(t){t.setAttribute("slope",n),t.setAttribute("intercept",r)}))}:null},"drop-shadow":function(t,n,r){var e=r.getElementById(n+"-blur");if(!e)return null;var i=r.getElementById(n+"-offset");if(!i)return null;var u=r.getElementById(n+"-flood");return u?function(t){e.setAttribute("stdDeviation",dt(t.blur)),i.setAttribute("dx",ht(t.offset.x)),i.setAttribute("dy",ht(t.offset.y)),u.setAttribute("flood-color",yt(t.color))}:null},grayscale:function(t){return t?function(n){t.setAttribute("values",vt(function(t){return[.2126+.7874*(t=1-t),.7152-.7152*t,.0722-.0722*t,0,0,.2126-.2126*t,.7152+.2848*t,.0722-.0722*t,0,0,.2126-.2126*t,.7152-.7152*t,.0722+.9278*t,0,0,0,0,0,1,0]}(n)))}:null},"hue-rotate":function(t){return t?function(n){return t.setAttribute("values",ht(n))}:null},invert:function(t,n,r){return(t=en(r,n))?function(n){n=ht(n)+" "+ht(1-n),t.map((function(t){return t.setAttribute("tableValues",n)}))}:null},opacity:function(t,n,r){return(t=r.getElementById(n+"-A"))?function(n){return t.setAttribute("tableValues","0 "+ht(n))}:null},saturate:function(t){return t?function(n){return t.setAttribute("values",ht(n))}:null},sepia:function(t){return t?function(n){return t.setAttribute("values",vt(function(t){return[.393+.607*(t=1-t),.769-.769*t,.189-.189*t,0,0,.349-.349*t,.686+.314*t,.168-.168*t,0,0,.272-.272*t,.534-.534*t,.131+.869*t,0,0,0,0,0,1,0]}(n)))}:null}};var rn=["R","G","B"];function en(t,n){var r=rn.map((function(r){return t.getElementById(n+"-"+r)||null}));return-1!==r.indexOf(null)?null:r}var un={fill:Ht,"fill-opacity":Gt,stroke:Ht,"stroke-opacity":Gt,"stroke-width":Yt,"stroke-dashoffset":{f:ht,i:C},"stroke-dasharray":Ut,opacity:Gt,transform:function(t,n,e,i){if(!(t=function(t,n){if(!t||"object"!==r(t))return null;var e=!1;for(var i in t)t.hasOwnProperty(i)&&(t[i]&&t[i].length?(t[i].forEach((function(t){t.e&&(t.e=n(t.e))})),e=!0):delete t[i]);return e?t:null}(t,i)))return null;var u=function(r,i,u){var o=arguments.length>3&&void 0!==arguments[3]?arguments[3]:null;return t[r]?e(i,t[r],u):n&&n[r]?n[r]:o};return n&&n.a&&t.o?function(n){var r=e(n,t.o,Ft);return Vt.recomposeSelf(r,u("r",n,C,0)+r.a,u("k",n,q),u("s",n,q),u("t",n,q)).toString()}:function(t){return Vt.recomposeSelf(u("o",t,Ct,null),u("r",t,C,0),u("k",t,q),u("s",t,q),u("t",t,q)).toString()}},"#filter":function(t,n,r,e,i,u,o,a){if(!n.items||!t||!t.length)return null;var l=function(t,n){var r=(t=t.map((function(t){return t&&nn[t[0]]?(n.getElementById(t[1]),nn[t[0]](n.getElementById(t[1]),t[1],n)):null}))).length;return function(n){for(var e=0;e<r;e++)t[e]&&t[e](n[e].value)}}(n.items,a);return l?(t=function(t,n){return t.map((function(t){return t.e=n(t.e),t}))}(t,e),function(n){l(r(n,t,tn))}):null},"#line":zt,points:{f:vt,i:Y},d:Dt,r:Yt,"#size":mt,"#radius":pt,_:function(t,n){if(Array.isArray(t))for(var r=0;r<t.length;r++)this[t[r]]=n;else this[t]=n}},on=function(t){!function(t,n){if("function"!=typeof n&&null!==n)throw new TypeError("Super expression must either be null or a function");t.prototype=Object.create(n&&n.prototype,{constructor:{value:t,writable:!0,configurable:!0}}),n&&l(t,n)}(o,t);var n,r,i=(n=o,r=s(),function(){var t,e=a(n);if(r){var i=a(this).constructor;t=Reflect.construct(e,arguments,i)}else t=e.apply(this,arguments);return c(this,t)});function o(){return e(this,o),i.apply(this,arguments)}return u(o,null,[{key:"build",value:function(t){var n=h(a(o),"build",this).call(this,t,un);if(!n)return null;var r=n.el,e=n.options,i=n.player;return function(t,n,r){if("click"===r.start){var e=function(){switch(r.click){case"freeze":return!t._running&&t.reachedToEnd()&&(t.offset=0),t._running?t.pause():t.play();case"restart":return t.offset>0?t.restart():t.play();case"reverse":var n=!t._rollingBack&&t._running,e=t.reachedToEnd();return n||e&&1===t.fill?(t.pause(),e&&(t.offset=t.duration-1),t._rollback()):e?t.restart():t.play();case"none":default:return!t._running&&t.offset?t.restart():t.play()}};return void n.addEventListener("click",e)}if("hover"===r.start)return n.addEventListener("mouseenter",(function(){return t.reachedToEnd()?t.restart():t.play()})),void n.addEventListener("mouseleave",(function(){switch(r.hover){case"freeze":return t.pause();case"reset":return t.stop();case"reverse":return t.pause(),t._rollback();case"none":default:return}}));if("scroll"===r.start)return void new ct(n,r.scroll||25,(function(n){n?t.reachedToEnd()?t.restart():t.play():t.pause()}));t.play()}(i,r,e),i}}]),o}(st);return on.init(),on}));
(function(s,i,o,w){w[o]=w[o]||{};w[o][s]=w[o][s]||[];w[o][s].push(i);})('91c80d77',{"root":"eSJQvY1eC091","animations":[{"elements":{"eSJQvY1eC0913":{"stroke-dashoffset":[{"t":0,"v":166.1,"e":[0.445,0.05,0.55,0.95]},{"t":2000,"v":0,"e":[0.445,0.05,0.55,0.95]},{"t":3000,"v":0,"e":[0.445,0.05,0.55,0.95]},{"t":5000,"v":166.1}]},"eSJQvY1eC0914":{"stroke-dashoffset":[{"t":0,"v":101.4,"e":[0.445,0.05,0.55,0.95]},{"t":2000,"v":0,"e":[0.445,0.05,0.55,0.95]},{"t":3000,"v":0,"e":[0.445,0.05,0.55,0.95]},{"t":5000,"v":101.4}]},"eSJQvY1eC0915":{"stroke-dashoffset":[{"t":0,"v":101.4,"e":[0.445,0.05,0.55,0.95]},{"t":2000,"v":0,"e":[0.445,0.05,0.55,0.95]},{"t":3000,"v":0,"e":[0.445,0.05,0.55,0.95]},{"t":5000,"v":101.4}]},"eSJQvY1eC0916":{"stroke-dashoffset":[{"t":0,"v":431.379524,"e":[0.445,0.05,0.55,0.95]},{"t":2000,"v":0,"e":[0.445,0.05,0.55,0.95]},{"t":3000,"v":0,"e":[0.445,0.05,0.55,0.95]},{"t":5000,"v":431.379524}]},"eSJQvY1eC0917":{"stroke-dashoffset":[{"t":0,"v":160.248507,"e":[0.445,0.05,0.55,0.95]},{"t":2000,"v":0,"e":[0.445,0.05,0.55,0.95]},{"t":3000,"v":0,"e":[0.445,0.05,0.55,0.95]},{"t":5000,"v":160.248507}]},"eSJQvY1eC0918":{"stroke-dashoffset":[{"t":0,"v":46.686401,"e":[0.445,0.05,0.55,0.95]},{"t":2000,"v":0,"e":[0.445,0.05,0.55,0.95]},{"t":3000,"v":0,"e":[0.445,0.05,0.55,0.95]},{"t":5000,"v":46.686401}]},"eSJQvY1eC0919":{"stroke-dashoffset":[{"t":0,"v":105.903999,"e":[0.445,0.05,0.55,0.95]},{"t":2000,"v":0,"e":[0.445,0.05,0.55,0.95]},{"t":3000,"v":0,"e":[0.445,0.05,0.55,0.95]},{"t":5000,"v":105.903999}]},"eSJQvY1eC0920":{"stroke-dashoffset":[{"t":0,"v":28.853076,"e":[0.445,0.05,0.55,0.95]},{"t":2000,"v":0,"e":[0.445,0.05,0.55,0.95]},{"t":3000,"v":0,"e":[0.445,0.05,0.55,0.95]},{"t":5000,"v":28.853076}]},"eSJQvY1eC0929":{"stroke-dashoffset":[{"t":0,"v":398.58402,"e":[0.445,0.05,0.55,0.95]},{"t":2000,"v":0,"e":[0.445,0.05,0.55,0.95]},{"t":3000,"v":0,"e":[0.445,0.05,0.55,0.95]},{"t":5000,"v":398.58402}]},"eSJQvY1eC0930":{"stroke-dashoffset":[{"t":0,"v":67.885934,"e":[0.445,0.05,0.55,0.95]},{"t":2000,"v":0,"e":[0.445,0.05,0.55,0.95]},{"t":3000,"v":0,"e":[0.445,0.05,0.55,0.95]},{"t":5000,"v":67.885934}]},"eSJQvY1eC0931":{"stroke-dashoffset":[{"t":0,"v":67.861992,"e":[0.445,0.05,0.55,0.95]},{"t":2000,"v":0,"e":[0.445,0.05,0.55,0.95]},{"t":3000,"v":0,"e":[0.445,0.05,0.55,0.95]},{"t":5000,"v":67.861992}]},"eSJQvY1eC0932":{"stroke-dashoffset":[{"t":0,"v":109.9,"e":[0.445,0.05,0.55,0.95]},{"t":2000,"v":0,"e":[0.445,0.05,0.55,0.95]},{"t":3000,"v":0,"e":[0.445,0.05,0.55,0.95]},{"t":5000,"v":109.9}]},"eSJQvY1eC0933":{"stroke-dashoffset":[{"t":0,"v":133.5,"e":[0.445,0.05,0.55,0.95]},{"t":2000,"v":0,"e":[0.445,0.05,0.55,0.95]},{"t":3000,"v":0,"e":[0.445,0.05,0.55,0.95]},{"t":5000,"v":133.5}]},"eSJQvY1eC0934":{"stroke-dashoffset":[{"t":0,"v":166.1,"e":[0.445,0.05,0.55,0.95]},{"t":2000,"v":0,"e":[0.445,0.05,0.55,0.95]},{"t":3000,"v":0,"e":[0.445,0.05,0.55,0.95]},{"t":5000,"v":166.1}]},"eSJQvY1eC0936":{"opacity":[{"t":0,"v":0},{"t":1500,"v":1},{"t":3500,"v":1},{"t":5000,"v":0}]},"eSJQvY1eC0937":{"opacity":[{"t":0,"v":0},{"t":1500,"v":1},{"t":3500,"v":1},{"t":5000,"v":0}]},"eSJQvY1eC0940":{"opacity":[{"t":0,"v":0},{"t":1500,"v":1},{"t":3500,"v":1},{"t":5000,"v":0}]},"eSJQvY1eC0943":{"opacity":[{"t":0,"v":0},{"t":1500,"v":1},{"t":3500,"v":1},{"t":5000,"v":0}]},"eSJQvY1eC0946":{"opacity":[{"t":0,"v":0},{"t":1500,"v":1},{"t":3500,"v":1},{"t":5000,"v":0}]},"eSJQvY1eC0949":{"stroke-dashoffset":[{"t":0,"v":218.6},{"t":5000,"v":0}]},"eSJQvY1eC0950":{"stroke-dashoffset":[{"t":0,"v":218.6},{"t":5000,"v":0}]}},"s":"MDHA1M2FiNTI5NDGE1R2EyOTFhQNDk5OWY5ZTUUyNmE2NTYwNjGA2MDVjNTI5NKEU5OWEyOTVVNOTNhNFQ5OTlImOWU1MjZhNjWE1YzUyOTlhNTDk1YTI5MWE0LOTk5ZjllYTMG1MjZhTjYwTzGVjSjUyOTY5OVTljOWM1MjZhGNjE1YzUyOTEJ5Y2E0OTVhMjDllOTFhNDk1NPTI2YTk2OTE5SY2EzOTU1YzUPyYTNhMFE5NTNk1OTQ1MlQ2YCTYxYWQ/"}],"options":"MDSAxMDgyMjk3YRTdiWDY4Nzk3EYjI5NDEyOTcQzNzY2ODZiMjSk4NA|"},'__SVGATOR_PLAYER__',window)]]></script></svg>