<svg id="eOZplWrIaKX1" xmlns="http://www.w3.org/2000/svg" xmlns:xlink="http://www.w3.org/1999/xlink" viewBox="0 0 1200 600" shape-rendering="geometricPrecision" text-rendering="geometricPrecision"><g transform="translate(.000001 0.000001)"><g transform="translate(.000001 0.000001)" opacity="0.3"><path d="M316.8,61.1c0,0-55,5.4-44.1,68.6-34-5.9-54.2,27.5-49.6,47.6-46-.7-40.1,41.5-36.3,48.9-24.4,17.3-12,35.5-6,41.5s31.1,8.8,37.7-6.8c45.5,0,43.4-33.1,44.6-42.8c46-2.8,40.8-59.4,40.8-59.4" fill="none" stroke="#00de76" stroke-width="5" stroke-linecap="round" stroke-linejoin="round" stroke-miterlimit="10"/><path d="M231.9,61c0,0-55.1,4.2-45.2,68.6-33.8,2.9-48.7,15.6-48.7,42.5C90.8,183,103.9,225,103.9,225s-32,13-8.1,42.7c7.9,10.1,26.5,3.3,37.3-6.7c17.9,8,39-4.9,39-4.9" fill="none" stroke="#00de76" stroke-width="5" stroke-linecap="round" stroke-linejoin="round" stroke-miterlimit="10"/></g><g transform="translate(.000001 0.000001)"><path id="eOZplWrIaKX7" d="M316.8,61.1c0,0-55,5.4-44.1,68.6-34-5.9-54.2,27.5-49.6,47.6-46-.7-40.1,41.5-36.3,48.9-24.4,17.3-12,35.5-6,41.5s31.1,8.8,37.7-6.8c45.5,0,43.4-33.1,44.6-42.8c46-2.8,40.8-59.4,40.8-59.4" opacity="0" fill="none" stroke="#00de76" stroke-width="5" stroke-linecap="round" stroke-linejoin="round" stroke-miterlimit="10" stroke-dashoffset="122.76" stroke-dasharray="40,20"/><path id="eOZplWrIaKX8" d="M231.9,61c0,0-55.1,4.2-45.2,68.6-33.8,2.9-48.7,15.6-48.7,42.5C90.8,183,103.9,225,103.9,225s-32,13-8.1,42.7c7.9,10.1,26.5,3.3,37.3-6.7c17.9,8,39-4.9,39-4.9" opacity="0" fill="none" stroke="#00de76" stroke-width="5" stroke-linecap="round" stroke-linejoin="round" stroke-miterlimit="10" stroke-dashoffset="93.27" stroke-dasharray="40,20"/></g><circle id="eOZplWrIaKX9" r="10.8" transform="translate(111.5 73.3)" fill="none" stroke="#00de76" stroke-width="5" stroke-linecap="round" stroke-linejoin="round" stroke-miterlimit="10"/><circle id="eOZplWrIaKX10" r="15.8" transform="translate(109 132.6)" fill="none" stroke="#00de76" stroke-width="5" stroke-linecap="round" stroke-linejoin="round" stroke-miterlimit="10"/><circle id="eOZplWrIaKX11" r="8.8" transform="translate(156.9 111.3)" fill="none" stroke="#00de76" stroke-width="5" stroke-linecap="round" stroke-linejoin="round" stroke-miterlimit="10"/></g><g transform="translate(.000001 0)"><g transform="translate(0 0.000001)"><line x1="876.1" y1="312" x2="1022.1" y2="312" fill="none" stroke="#00de76" stroke-width="5" stroke-linecap="round" stroke-linejoin="round" stroke-miterlimit="10" stroke-dasharray="146"/><line x1="1036.2" y1="312" x2="1081.8" y2="312" fill="none" stroke="#00de76" stroke-width="5" stroke-linecap="round" stroke-linejoin="round" stroke-miterlimit="10" stroke-dasharray="45.6"/><polyline points="897.2,312 897.2,277.7 920.8,277.7 920.8,146.3 941.7,146.3 945.1,279.5 966.2,279.5 966.2,224.4 982.5,224.4 982.5,213.3 993.3,213.3 993.3,224.4 1008.7,224.4 1008.7,215.3 1023.2,215.3 1023.2,224.4 1036.2,224.4 1036.2,267.7 1060.2,267.7 1060.9,312" fill="none" stroke="#00de76" stroke-width="5" stroke-linecap="round" stroke-linejoin="round" stroke-miterlimit="10" stroke-dasharray="641.648916"/><line x1="1010.5" y1="240" x2="1010.5" y2="280" fill="none" stroke="#00de76" stroke-width="5" stroke-linecap="round" stroke-linejoin="round" stroke-miterlimit="10" stroke-dasharray="40"/><line x1="995.2" y1="240" x2="995.2" y2="280" fill="none" stroke="#00de76" stroke-width="5" stroke-linecap="round" stroke-linejoin="round" stroke-miterlimit="10" stroke-dashoffset="3.68" stroke-dasharray="40"/><line x1="913.3" y1="159.2" x2="952.4" y2="159.2" fill="none" stroke="#00de76" stroke-width="5" stroke-linecap="round" stroke-linejoin="round" stroke-miterlimit="10" stroke-dashoffset="8.9148" stroke-dasharray="39.1"/></g><g transform="translate(.000001 0.000001)"><g transform="translate(.000001 0.000001)" opacity="0.3"><path d="M1046.5,76.8c-51.2-13.3-35.9,38.1-35.9,38.1s-15.3,14.1-12.7,24.3c-21.4,0-11.3,27.3-11.3,27.3s-6.1,5.6-2.6,12.9c-9.2,4.4-8.8,12.6-4.9,16.6c2.8,2.8,14.4,6.2,19.9-4.4c6.4,6.8,16.6,8.7,16.6,8.7s10.5,1.5,14.4-12.4c24,3.4,28.7-16.7,28.7-16.7s20.8-1,29.9-11.3c9-10.3.7-33.7.7-33.7s22.2-23.9,2-48.2c-7.9-7.5-30.4-16.8-44.8-1.2Z" fill="none" stroke="#00de76" stroke-width="5" stroke-linecap="round" stroke-linejoin="round" stroke-miterlimit="10"/></g><path id="eOZplWrIaKX23" d="M1046.5,76.8c-51.2-13.3-35.9,38.1-35.9,38.1s-15.3,14.1-12.7,24.3c-21.4,0-11.3,27.3-11.3,27.3s-6.1,5.6-2.6,12.9c-9.2,4.4-8.8,12.6-4.9,16.6c2.8,2.8,14.4,6.2,19.9-4.4c6.4,6.8,16.6,8.7,16.6,8.7s10.5,1.5,14.4-12.4c24,3.4,28.7-16.7,28.7-16.7s20.8-1,29.9-11.3c9-10.3.7-33.7.7-33.7s22.2-23.9,2-48.2c-7.9-7.5-30.4-16.8-44.8-1.2Z" fill="none" stroke="#00de76" stroke-width="5" stroke-linecap="round" stroke-linejoin="round" stroke-miterlimit="10" stroke-dashoffset="109.6" stroke-dasharray="40,20"/><circle id="eOZplWrIaKX24" r="7.6" transform="translate(1064.6 142.1)" fill="none" stroke="#00de76" stroke-width="5" stroke-linecap="round" stroke-linejoin="round" stroke-miterlimit="10"/><circle id="eOZplWrIaKX25" r="5.4" transform="translate(1073.9 112.8)" fill="none" stroke="#00de76" stroke-width="5" stroke-linecap="round" stroke-linejoin="round" stroke-miterlimit="10"/></g></g><g><g><line x1="791.1" y1="362.8" x2="799.9" y2="370.5" fill="none" stroke="#00de76" stroke-width="5" stroke-linecap="round" stroke-linejoin="round" stroke-miterlimit="10"/><line x1="791.1" y1="378.2" x2="799.9" y2="370.5" fill="none" stroke="#00de76" stroke-width="5" stroke-linecap="round" stroke-linejoin="round" stroke-miterlimit="10"/></g><g><line x1="801.1" y1="362.8" x2="809.9" y2="370.5" fill="none" stroke="#00de76" stroke-width="5" stroke-linecap="round" stroke-linejoin="round" stroke-miterlimit="10"/><line x1="801.1" y1="378.2" x2="809.9" y2="370.5" fill="none" stroke="#00de76" stroke-width="5" stroke-linecap="round" stroke-linejoin="round" stroke-miterlimit="10"/></g><g><line x1="811.2" y1="362.8" x2="819.9" y2="370.5" fill="none" stroke="#00de76" stroke-width="5" stroke-linecap="round" stroke-linejoin="round" stroke-miterlimit="10"/><line x1="811.2" y1="378.2" x2="819.9" y2="370.5" fill="none" stroke="#00de76" stroke-width="5" stroke-linecap="round" stroke-linejoin="round" stroke-miterlimit="10"/></g><g><line x1="821.2" y1="362.8" x2="830" y2="370.5" fill="none" stroke="#00de76" stroke-width="5" stroke-linecap="round" stroke-linejoin="round" stroke-miterlimit="10"/><line x1="821.2" y1="378.2" x2="830" y2="370.5" fill="none" stroke="#00de76" stroke-width="5" stroke-linecap="round" stroke-linejoin="round" stroke-miterlimit="10"/></g><g><line x1="831.2" y1="362.8" x2="840" y2="370.5" fill="none" stroke="#00de76" stroke-width="5" stroke-linecap="round" stroke-linejoin="round" stroke-miterlimit="10"/><line x1="831.2" y1="378.2" x2="840" y2="370.5" fill="none" stroke="#00de76" stroke-width="5" stroke-linecap="round" stroke-linejoin="round" stroke-miterlimit="10"/></g><g><line x1="841.2" y1="362.8" x2="850" y2="370.5" fill="none" stroke="#00de76" stroke-width="5" stroke-linecap="round" stroke-linejoin="round" stroke-miterlimit="10"/><line x1="841.2" y1="378.2" x2="850" y2="370.5" fill="none" stroke="#00de76" stroke-width="5" stroke-linecap="round" stroke-linejoin="round" stroke-miterlimit="10"/></g></g><line id="eOZplWrIaKX45" x1="415" y1="166.9" x2="415" y2="503.4" fill="none" stroke="#00de76" stroke-width="5" stroke-linecap="round" stroke-linejoin="round" stroke-miterlimit="10" stroke-dashoffset="336.5" stroke-dasharray="30,15"/><line id="eOZplWrIaKX46" x1="402.1" y1="275" x2="402.1" y2="357.4" transform="matrix(1 0 0 0.70009 0 7.781541)" fill="none" stroke="#00de76" stroke-width="5" stroke-linecap="round" stroke-linejoin="round" stroke-miterlimit="10"/><line id="eOZplWrIaKX47" x1="430.1" y1="366.6" x2="430.1" y2="449.8" transform="translate(0-233.999999)" fill="none" stroke="#00de76" stroke-width="5" stroke-linecap="round" stroke-linejoin="round" stroke-miterlimit="10"/><path id="eOZplWrIaKX48" d="M475.3,352.4h274.7c25.8,0,46.8-20.9,46.8-46.8v-121.4" fill="none" stroke="#00de76" stroke-width="5" stroke-linecap="round" stroke-linejoin="round" stroke-miterlimit="10" stroke-dashoffset="469.624925" stroke-dasharray="30,15"/><path id="eOZplWrIaKX49" d="M571,352.3c0,13.4,10.8,24.2,24.2,24.2s24.2-10.8,24.2-24.2" transform="matrix(-1 0 0-1 1391.999995 535.974344)" fill="none" stroke="#00de76" stroke-width="3.6523" stroke-linecap="round" stroke-linejoin="round" stroke-miterlimit="10"/><g><path d="M124.8,350.6c-2.4-14.5-13.3-24.2-28.1-24.2-30.9,0-35.1,36.3-35.1,58.4l.3.3c4.9-14.4,18.3-24,33.5-24.1c22.1,0,37.6,16.4,37.6,38.4c0,21.6-16,37.7-37.6,37.7-31.4,0-40-25.2-40-52.5c0-27.6,6.7-63.6,41.3-63.6c18.7,0,32.2,10.7,34.3,29.6h-6.2Zm2,48.8c0-17.6-13.2-33-31.4-33-18.5,0-31.7,14.8-31.7,33c0,18.5,14.2,32.4,31.7,32.4c18.1-.1,31.4-14.7,31.4-32.4v0Z" fill="#060"/><path d="M143.6,379c0-27,8.3-58.1,40.7-58.1s40.7,31.1,40.7,58.1-8.3,58.1-40.7,58.1-40.7-31.1-40.7-58.1Zm75.1,0c0-22.6-6.4-52.7-34.5-52.7s-34.5,30.1-34.5,52.7s6.3,52.7,34.5,52.7s34.5-30.1,34.5-52.7v0Z" fill="#060"/><path d="M235.9,350.1c0-16.1,10.2-29.1,27.2-29.1c17.1,0,26.8,12.5,26.8,29.1c0,15.5-10.6,28.8-27,28.8s-27-13-27-28.8Zm47.9,0c0-12.7-7.2-23.8-20.8-23.8-13.5,0-20.8,11.2-20.8,23.8c0,11.9,8,23.4,20.7,23.4c12.9,0,20.9-11.5,20.9-23.4ZM327.5,319h6.5L258.4,439h-6.5l75.6-120Zm-32,89.3c0-16.1,10.2-29.1,27.2-29.1c17.1,0,26.8,12.5,26.8,29.1c0,15.5-10.6,28.8-27,28.8s-27-13-27-28.8v0Zm47.8,0c0-12.7-7.1-23.7-20.8-23.7-13.5,0-20.8,11.2-20.8,23.7c0,11.9,8,23.4,20.6,23.4c13,0,21-11.5,21-23.4v0Z" fill="#060"/></g><path d="M539.5,444.8c17.4,0,34.7,7,34.7,28.1c0,12.5-7,22-20.7,24.6v.3c15.3,1.8,24.9,13,24.9,28.9c0,23.3-17.4,34.2-38.9,34.2s-38.9-10.9-38.9-34.2c0-15.9,9.6-27.2,24.9-29v-.3c-13.7-2.6-20.7-12-20.7-24.6.1-21,17.3-28,34.7-28Zm0,55.8c-17.6,0-32.7,7.5-32.7,26.2c0,19.8,15.5,28.8,32.7,28.8s32.7-9,32.7-28.8c0-18.7-15.1-26.2-32.7-26.2v0Zm0-50.4c-14.8,0-28.5,5.7-28.5,22.8c0,15.9,14,22.3,28.5,22.3s28.5-6.4,28.5-22.3c0-17.1-13.7-22.8-28.5-22.8Z" fill="#060"/><path d="M605.9,446.8h56.8v5.4h-51.9l-9.6,44.7.3.3c6.5-9,16.6-13.5,27.8-13.5c22.3,0,38,15.9,38,38.2s-15.6,39-38,39c-21.5,0-40-13.7-38.5-36.3h6.2c-.3,18.7,14.3,30.9,32.4,30.9c19,0,31.9-15.3,31.9-33.7c0-18.2-13.5-32.9-31.9-32.9-12.7,0-21.6,5.4-28.8,15.8h-6.3l11.6-57.9Z" fill="#060"/><path d="M681.7,473.9c0-16.1,10.2-29.1,27.2-29.1c17.1,0,26.8,12.5,26.8,29.1c0,15.5-10.6,28.8-27,28.8s-27-13-27-28.8Zm47.8,0c0-12.7-7.2-23.8-20.8-23.8-13.5,0-20.8,11.2-20.8,23.8c0,11.9,8,23.4,20.7,23.4c12.9.1,20.9-11.5,20.9-23.4Zm43.7-31h6.5l-75.6,120h-6.5l75.6-120Zm-32,89.3c0-16.1,10.2-29.1,27.2-29.1c17.1,0,26.8,12.5,26.8,29.1c0,15.5-10.6,28.8-27,28.8s-27-13.1-27-28.8v0Zm47.8,0c0-12.7-7.2-23.7-20.8-23.7-13.5,0-20.8,11.2-20.8,23.7c0,11.9,8,23.4,20.7,23.4c12.9,0,20.9-11.6,20.9-23.4v0Z" fill="#060"/><path d="M595.6,165.9v6.2h-74.8c1.3-21,17.9-32.5,34.3-43.4c16.3-10.9,32.5-21.3,32.5-40.2c0-15.3-13-25.2-27.6-25.2-20.5,0-30.3,15.1-30.3,34.5h-6.2C524.8,71,537,58,559,58c19,0,34.8,10.1,34.8,30.7c0,19.7-15.5,32-31.6,42.8s-32.5,20.6-33.7,34.5h67.1Z" fill="#060"/><path d="M603.9,56h8.3L649,107l37.6-51h8.1l-41,56.4L697,172.1h-8.6L649,117.8l-39.5,54.3h-8.5l43.6-59.7L603.9,56Z" fill="#060"/><g mask="url(#eOZplWrIaKX173)"><path id="eOZplWrIaKX172" d="M911.9,364.3c7.8,0,7.8,8,15.7,8c7.8,0,7.8-8,15.7-8s7.9,8,15.7,8s7.8-8,15.7-8s7.9,8,15.7,8c7.9,0,7.9-8,15.7-8c7.9,0,7.9,8,15.7,8s7.9-8,15.7-8" transform="translate(-144.7 0)" fill="none" stroke="#00de76" stroke-width="5" stroke-linecap="round" stroke-linejoin="round" stroke-miterlimit="10"/><mask id="eOZplWrIaKX173" mask-type="luminance"><rect width="146.3" height="26.5" rx="0" ry="0" transform="translate(900.5 355.05)" fill="#d2dbed" stroke-width="0"/></mask></g><g transform="translate(-16.421777 452.784275)"><path d="M74.63,24.38h2v1.68v0c.834616-1.383843,2.392155-2.162613,4-2c3.82,0,5.71,3,5.71,6.53s-1.87,6.46-5.66,6.46c-1.574172.053393-3.072439-.677012-4-1.95v0v6.41h-2Zm5.76,1.51c-2.73,0-3.79,2.35-3.79,4.68s1.1,4.71,3.91,4.71s3.72-2.38,3.72-4.8-1.23-4.59-3.84-4.59Z" fill="#060"/><path d="M88.72,24.38h1.92v2.62v0c.702298-1.877294,2.56155-3.06379,4.56-2.91v2.16c-3.29,0-4.49,1.87-4.49,5v5.52h-2Z" fill="#060"/><path d="M101.7,24.09c3.94,0,6,2.86,6,6.51s-2.09,6.48-6,6.48-6-2.86-6-6.48s2.07-6.51,6-6.51Zm0,11.19c2.14,0,3.87-1.68,3.87-4.68s-1.73-4.71-3.87-4.71-3.86,1.68-3.86,4.71s1.73,4.68,3.86,4.68Z" fill="#060"/><path d="M115,38.44c-.94,2.43-1.78,3.32-3.6,3.32-.482649.011679-.963512-.062821-1.42-.22v-1.87c.383926.154017.78811.251694,1.2.29.742287.015387,1.414397-.436688,1.68-1.13l.84-2.11-4.92-12.34h2.31l3.62,10.15h.05l3.48-10.15h2.16Z" fill="#060"/><path d="M132.71,32.85c-.394595,2.575602-2.701022,4.416391-5.3,4.23-4,0-5.83-2.74-6-6.53s2.44-6.46,5.83-6.46c4.39,0,5.73,4.11,5.61,7.11h-9.28c-.130169,1.077758.226159,2.157529.972232,2.946124s1.804456,1.204167,2.887768,1.133876c1.539004.140258,2.932755-.911548,3.22-2.43Zm-2-3.45c-.032747-1.948186-1.621539-3.510275-3.57-3.51-.936219-.005319-1.836204.361498-2.501961,1.019754s-1.04275,1.554027-1.048039,2.490246Z" fill="#060"/><path d="M135.14,19.65h2v10.15l5.66-5.42h2.74l-4.92,4.51l5.28,7.9h-2.6l-4.24-6.48-1.92,1.77v4.71h-2Z" fill="#060"/><path d="M148.72,32.88c.07,1.82,1.66,2.4,3.34,2.4c1.27,0,3-.29,3-1.85s-2-1.85-4.06-2.31-4.06-1.12-4.06-3.5s2.48-3.53,4.64-3.53c2.73,0,4.92.87,5.08,3.89h-2c-.14-1.58-1.53-2.09-2.88-2.09s-2.64.34-2.64,1.59c0,1.46,2.16,1.7,4.06,2.16s4.06,1.12,4.06,3.52c0,3-2.76,3.92-5.28,3.92-2.79,0-5.14-1.13-5.26-4.2Z" fill="#060"/><path d="M161.63,22.15h-2v-2.5h2Zm-2,2.23h2v12.41h-2Z" fill="#060"/><path d="M171.54,24.38h2v1.68v0c.834616-1.383843,2.392155-2.162613,4-2c3.82,0,5.71,3,5.71,6.53s-1.87,6.46-5.66,6.46c-1.574172.053393-3.072439-.677012-4-1.95v0v6.41h-2Zm5.76,1.51c-2.73,0-3.79,2.35-3.79,4.68s1.1,4.71,3.91,4.71s3.72-2.38,3.72-4.8-1.2-4.59-3.84-4.59Z" fill="#060"/><path d="M196.29,32.85c-.394341,2.571511-2.694729,4.410952-5.29,4.23-4,0-5.83-2.74-5.95-6.53s2.45-6.46,5.83-6.46c4.39,0,5.74,4.11,5.62,7.11h-9.29c-.130169,1.077758.226159,2.157529.972232,2.946124s1.804456,1.204167,2.887768,1.133876c1.539004.140258,2.932755-.911548,3.22-2.43Zm-2-3.45c-.032804-1.952084-1.627649-3.515744-3.58-3.51-1.947329-.005571-3.533505,1.562733-3.55,3.51Z" fill="#060"/><path d="M198.59,24.38h1.92v2h.05c.785414-1.462189,2.342236-2.341793,4-2.26c3.26,0,4.27,1.87,4.27,4.54v8.16h-2v-8.4c.0488-.680387-.20172-1.348196-.68598-1.828613s-1.154044-.725607-1.83402-.671387c-2.47,0-3.67,1.66-3.67,3.89v7h-2Z" fill="#060"/><path d="M214.09,22.15h-2v-2.5h2Zm-2,2.23h2v12.41h-2Z" fill="#060"/><path d="M217.26,24.38h1.92v2v0c.787223-1.460417,2.34282-2.33933,4-2.26c3.27,0,4.27,1.87,4.27,4.54v8.16h-2v-8.4c.0488-.680387-.20172-1.348196-.68598-1.828613s-1.154044-.725607-1.83402-.671387c-2.47,0-3.67,1.66-3.67,3.89v7h-2Z" fill="#060"/><path d="M241.31,35.73c0,4-1.85,6.1-5.76,6.1-2.33,0-5-.94-5.14-3.65h2c.1,1.49,1.88,2,3.22,2c2.66,0,3.72-1.92,3.72-4.71v-.81v0c-.732991,1.443113-2.243067,2.323338-3.86,2.25-3.7,0-5.55-2.9-5.55-6.29c0-2.92,1.44-6.55,5.74-6.55c1.524273-.059886,2.95348.739698,3.7,2.07v0-1.76h1.92Zm-2-5.4c0-2.18-1-4.44-3.52-4.44s-3.68,2.14-3.68,4.51.82,4.73,3.51,4.73s3.67-2.47,3.67-4.8Z" fill="#060"/><path d="M244.5,19.65h2v10.15l5.66-5.42h2.74L250,28.89l5.28,7.9h-2.59l-4.25-6.48-1.92,1.77v4.71h-2Z" fill="#060"/><path d="M267.83,36.74c-.445212.247851-.951093.365659-1.46.34-1.06,0-1.73-.58-1.73-1.92-1.089476,1.270468-2.697335,1.976896-4.37,1.92-2.26,0-4.11-1-4.11-3.48c0-2.81,2.09-3.41,4.2-3.82s4.18-.29,4.18-1.82c0-1.78-1.46-2.07-2.76-2.07-1.73,0-3,.53-3.09,2.35h-2.05c.12-3.07,2.5-4.15,5.26-4.15c2.23,0,4.66.51,4.66,3.41v6.38c0,1,0,1.4.65,1.4.211934-.004946.421526-.045512.62-.12Zm-3.31-6.36c-.79.58-2.33.6-3.7.84s-2.5.72-2.5,2.23c0,1.35,1.16,1.83,2.41,1.83c2.68,0,3.79-1.68,3.79-2.81Z" fill="#060"/><path d="M272.56,24.38h2.44v1.8h-2.47v7.7c0,.94.26,1.11,1.53,1.11h.94v1.8h-1.56c-2.11,0-3-.43-3-2.71v-7.9h-2.04v-1.8h2.12v-3.72h2Z" fill="#060"/><path d="M288.28,36.74c-.44833.249177-.957789.367012-1.47.34-1.05,0-1.73-.58-1.73-1.92-1.085471,1.270085-2.690227,1.976767-4.36,1.92-2.26,0-4.11-1-4.11-3.48c0-2.81,2.09-3.41,4.2-3.82s4.19-.29,4.19-1.78c0-1.78-1.47-2.07-2.76-2.07-1.73,0-3,.53-3.1,2.35h-2c.12-3.07,2.5-4.15,5.26-4.15c2.23,0,4.65.51,4.65,3.41v6.38c0,1,0,1.4.65,1.4.215203-.004772.428112-.045326.63-.12ZM285,30.38c-.79.58-2.32.6-3.69.84s-2.5.72-2.5,2.23c0,1.35,1.15,1.83,2.4,1.83c2.69,0,3.79-1.68,3.79-2.81Z" fill="#060"/><path d="M290.17,24.38h1.92v2h.05c.787223-1.460417,2.34282-2.33933,4-2.26c3.27,0,4.27,1.87,4.27,4.54v8.16h-2v-8.4c.0488-.680387-.20172-1.348196-.68598-1.828613s-1.154044-.725607-1.83402-.671387c-2.47,0-3.67,1.66-3.67,3.89v7h-2Z" fill="#060"/><path d="M320.77,32.85c-.394595,2.575602-2.701022,4.416391-5.3,4.23-4,0-5.83-2.74-6-6.53s2.44-6.46,5.83-6.46c4.39,0,5.73,4.11,5.61,7.11h-9.28c-.130169,1.077758.226159,2.157529.972232,2.946124s1.804456,1.204167,2.887768,1.133876c1.539004.140258,2.932755-.911548,3.22-2.43Zm-2-3.45c-.032747-1.948186-1.621539-3.510275-3.57-3.51-.936219-.005319-1.836204.361498-2.501961,1.019754s-1.04275,1.554027-1.048039,2.490246Z" fill="#060"/><path d="M323.07,24.38h1.93v1.82v0c.868898-1.358474,2.388186-2.159898,4-2.11c1.483484-.150686,2.882825.715181,3.41,2.11.849616-1.323251,2.317501-2.119457,3.89-2.11c2.47,0,4.13,1,4.13,3.6v9.1h-2v-8.14c0-1.53-.41-2.76-2.4-2.76-.866786-.071144-1.721787.237368-2.343438.845587s-.94876,1.45628-.896562,2.324413v7.73h-2v-8.14c0-1.61-.51-2.76-2.33-2.76-1.770483.013301-3.224917,1.402022-3.32,3.17v7.73h-2Z" fill="#060"/><path d="M345.71,22.15h-2v-2.5h2Zm-2,2.23h2v12.41h-2Z" fill="#060"/><path d="M350.12,32.88c.07,1.82,1.66,2.4,3.34,2.4c1.27,0,3-.29,3-1.85s-2-1.85-4.06-2.31-4-1.12-4-3.5s2.47-3.53,4.63-3.53c2.74,0,4.92.87,5.09,3.89h-2c-.15-1.58-1.54-2.09-2.88-2.09s-2.64.34-2.64,1.59c0,1.46,2.16,1.7,4.05,2.16c2,.45,4.06,1.12,4.06,3.52c0,3-2.76,3.92-5.28,3.92-2.79,0-5.14-1.13-5.26-4.2Z" fill="#060"/><path d="M363,22.15h-2v-2.5h2Zm-2,2.23h2v12.41h-2Z" fill="#060"/><path d="M42.7,49.65h2v10.15l5.66-5.42h2.74l-4.92,4.51l5.28,7.9h-2.55l-4.25-6.48-1.92,1.77v4.71h-2Z" fill="#060"/><path d="M66,66.74c-.445212.247851-.951093.365659-1.46.34-1.06,0-1.73-.58-1.73-1.92-1.089476,1.270468-2.697335,1.976896-4.37,1.92-2.26,0-4.11-1-4.11-3.48c0-2.81,2.09-3.41,4.21-3.82s4.17-.29,4.17-1.82c0-1.78-1.46-2.07-2.76-2.07-1.73,0-3,.53-3.09,2.35h-2c.12-3.07,2.5-4.15,5.26-4.15c2.23,0,4.66.51,4.66,3.41v6.38c0,1,0,1.4.65,1.4.211934-.004946.421526-.045512.62-.12Zm-3.31-6.36c-.79.58-2.33.6-3.7.84s-2.49.72-2.49,2.23c0,1.35,1.15,1.83,2.4,1.83c2.68,0,3.79-1.68,3.79-2.81Z" fill="#060"/><path d="M67.85,54.38h1.92v2.62v0c.702298-1.877294,2.56155-3.06379,4.56-2.91v2.16c-3.29,0-4.49,1.87-4.49,5v5.52h-2Z" fill="#060"/><path d="M76,49.65h2v6.41v0c.832881-1.385721,2.391695-2.165128,4-2c3.81,0,5.71,3,5.71,6.53s-1.87,6.46-5.66,6.46c-1.584196.045561-3.085931-.705306-4-2v0v1.66h-2.05Zm5.76,6.24C79,55.89,78,58.24,78,60.57s1.1,4.71,3.91,4.71s3.72-2.38,3.72-4.8-1.24-4.59-3.88-4.59Z" fill="#060"/><path d="M95.5,54.09c3.94,0,6,2.86,6,6.51s-2.09,6.48-6,6.48-6-2.86-6-6.48s2.06-6.51,6-6.51Zm0,11.19c2.14,0,3.86-1.68,3.86-4.68s-1.72-4.71-3.86-4.71-3.86,1.68-3.86,4.71s1.72,4.68,3.86,4.68Z" fill="#060"/><path d="M103.92,54.38h1.92v2v0c.789019-1.458655,2.343403-2.336882,4-2.26c3.27,0,4.28,1.87,4.28,4.54v8.16h-2v-8.4c.0488-.680387-.20172-1.348196-.68598-1.828613s-1.154044-.725607-1.83402-.671387c-2.48,0-3.68,1.66-3.68,3.89v7h-2Z" fill="#060"/><path d="M135,66.79h-2v-1.68h-.05c-.834616,1.383843-2.392155,2.162613-4,2-3.82,0-5.71-3-5.71-6.53s1.87-6.46,5.66-6.46c1.574172-.053393,3.072439.677012,4,1.95h.1v-6.42h2Zm-5.76-1.51c2.73,0,3.79-2.36,3.79-4.68s-1.1-4.71-3.91-4.71-3.72,2.38-3.72,4.8s1.23,4.59,3.87,4.59Z" fill="#060"/><path d="M140.33,52.15h-2v-2.5h2Zm-2,2.23h2v12.41h-2Z" fill="#060"/><path d="M148.85,54.09c3.94,0,6,2.86,6,6.51s-2.08,6.48-6,6.48-6-2.86-6-6.48s2.06-6.51,6-6.51Zm0,11.19c2.14,0,3.86-1.68,3.86-4.68s-1.72-4.71-3.86-4.71-3.85,1.68-3.85,4.71s1.71,4.68,3.85,4.68Z" fill="#060"/><path d="M157.39,49.65h2v10.15l5.67-5.42h2.73l-4.92,4.51l5.28,7.9h-2.55l-4.25-6.48-1.92,1.77v4.71h-2Z" fill="#060"/><path d="M171,62.88c.07,1.82,1.65,2.4,3.33,2.4c1.28,0,3-.29,3-1.85s-2-1.85-4.05-2.31-4.06-1.12-4.06-3.5s2.47-3.53,4.63-3.53c2.74,0,4.92.87,5.09,3.89h-2c-.14-1.58-1.53-2.09-2.88-2.09s-2.64.34-2.64,1.59c0,1.46,2.16,1.7,4.06,2.16s4.05,1.12,4.05,3.52c0,3-2.76,3.92-5.28,3.92-2.78,0-5.13-1.13-5.25-4.2Z" fill="#060"/><path d="M183.89,52.15h-2v-2.5h2Zm-2,2.23h2v12.41h-2Z" fill="#060"/><path d="M198.15,66.79h-2v-1.68h-.05c-.834616,1.383843-2.392155,2.162613-4,2-3.82,0-5.72-3-5.72-6.53s1.88-6.46,5.67-6.46c1.574172-.053393,3.072439.677012,4,1.95h.05v-6.42h2Zm-5.77-1.51c2.74,0,3.8-2.36,3.8-4.68s-1.11-4.71-3.92-4.71-3.72,2.38-3.72,4.8s1.2,4.59,3.84,4.59Z" fill="#060"/><path d="M212.28,66.74c-.445212.247851-.951093.365659-1.46.34-1.06,0-1.73-.58-1.73-1.92-1.089476,1.270468-2.697335,1.976896-4.37,1.92-2.26,0-4.1-1-4.1-3.48c0-2.81,2.08-3.41,4.2-3.82s4.18-.29,4.18-1.78c0-1.78-1.46-2.07-2.76-2.07-1.73,0-3,.53-3.09,2.35h-2c.12-3.07,2.49-4.15,5.25-4.15c2.23,0,4.66.51,4.66,3.41v6.38c0,1,0,1.4.65,1.4.211934-.004946.421526-.045512.62-.12ZM209,60.38c-.79.58-2.33.6-3.7.84s-2.49.72-2.49,2.23c0,1.35,1.15,1.83,2.4,1.83c2.68,0,3.79-1.68,3.79-2.81Z" fill="#060"/><path d="M231.94,66.79h-2v-1.68h-.05c-.834616,1.383843-2.392155,2.162613-4,2-3.82,0-5.71-3-5.71-6.53s1.87-6.46,5.66-6.46c1.574172-.053393,3.072439.677012,4,1.95h.05v-6.42h2Zm-5.76-1.51c2.73,0,3.79-2.36,3.79-4.68s-1.11-4.71-3.91-4.71-3.72,2.38-3.72,4.8s1.2,4.59,3.84,4.59Z" fill="#060"/><path d="M237.24,52.15h-2v-2.5h2Zm-2,2.23h2v12.41h-2Z" fill="#060"/><path d="M252.07,49.65h2.52l6.7,17.14h-2.52l-1.88-5.16h-7.24l-1.92,5.16h-2.36Zm-1.7,10.06h5.8l-2.85-8v0Z" fill="#060"/><path d="M263.88,62.88c.07,1.82,1.65,2.4,3.33,2.4c1.28,0,3-.29,3-1.85s-2-1.85-4-2.31-4.06-1.12-4.06-3.5s2.47-3.53,4.63-3.53c2.74,0,4.92.87,5.09,3.89h-2c-.14-1.58-1.53-2.09-2.88-2.09s-2.64.34-2.64,1.59c0,1.46,2.16,1.7,4.06,2.16s4.05,1.12,4.05,3.52c0,3-2.76,3.92-5.28,3.92-2.78,0-5.13-1.13-5.25-4.2Z" fill="#060"/><path d="M276.79,52.15h-2v-2.5h2Zm-2,2.23h2v12.41h-2Z" fill="#060"/><path d="M291,66.74c-.445212.247851-.951093.365659-1.46.34-1.06,0-1.73-.58-1.73-1.92-1.089476,1.270468-2.697335,1.976896-4.37,1.92-2.26,0-4.11-1-4.11-3.48c0-2.81,2.09-3.41,4.21-3.82s4.17-.29,4.17-1.82c0-1.78-1.46-2.07-2.76-2.07-1.73,0-3,.53-3.09,2.35h-2.05c.12-3.07,2.5-4.15,5.26-4.15c2.23,0,4.66.51,4.66,3.41v6.38c0,1,0,1.4.65,1.4.211934-.004946.421526-.045512.62-.12Zm-3.31-6.36c-.79.58-2.33.6-3.7.84s-2.5.72-2.5,2.23c0,1.35,1.16,1.83,2.41,1.83c2.68,0,3.79-1.68,3.79-2.81Z" fill="#060"/><path d="M303.74,51.57h-5.74v-1.92h13.7v1.92h-5.7v15.22h-2.28Z" fill="#060"/><path d="M321.21,62.85c-.394595,2.575602-2.701022,4.416391-5.3,4.23-4,0-5.83-2.74-6-6.53s2.44-6.46,5.83-6.46c4.39,0,5.73,4.11,5.61,7.11h-9.28c-.133355,1.0908.231845,2.183628.994214,2.975095s1.840758,1.197327,2.935786,1.104905c1.539004.140258,2.932755-.911548,3.22-2.43Zm-2-3.45c-.032747-1.948186-1.621539-3.510275-3.57-3.51-.936219-.005319-1.836204.361498-2.501961,1.019754s-1.04275,1.554027-1.048039,2.490246Z" fill="#060"/><path d="M323.52,54.38h1.92v2v0c.790802-1.456903,2.343983-2.33445,4-2.26c3.26,0,4.27,1.87,4.27,4.54v8.16h-2v-8.4c.0488-.680387-.20172-1.348196-.68598-1.828613s-1.154044-.725607-1.83402-.671387c-2.47,0-3.67,1.66-3.67,3.89v7h-2Z" fill="#060"/><path d="M347.56,65.73c0,4-1.84,6.1-5.76,6.1-2.32,0-5-.94-5.13-3.65h2c.09,1.49,1.87,2,3.21,2c2.67,0,3.72-1.92,3.72-4.71v-.81v0c-.740232,1.441101-2.251403,2.319688-3.87,2.25-3.7,0-5.54-2.9-5.54-6.29c0-2.92,1.44-6.55,5.73-6.55c1.524832-.062217,2.955175.738002,3.7,2.07v0-1.76h1.92Zm-2-5.4c0-2.18-1-4.44-3.53-4.44s-3.67,2.14-3.67,4.51.81,4.73,3.5,4.73s3.69-2.47,3.69-4.8Z" fill="#060"/><path d="M361.34,65.73c0,4-1.85,6.1-5.76,6.1-2.33,0-5-.94-5.14-3.65h2c.1,1.49,1.88,2,3.22,2c2.66,0,3.72-1.92,3.72-4.71v-.81h-.05c-.732991,1.443113-2.243067,2.323338-3.86,2.25-3.7,0-5.55-2.9-5.55-6.29c0-2.92,1.44-6.55,5.74-6.55c1.524273-.059886,2.95348.739698,3.7,2.07v0-1.76h1.92Zm-2-5.4c0-2.18-1-4.44-3.53-4.44s-3.67,2.14-3.67,4.51.82,4.73,3.51,4.73s3.67-2.47,3.67-4.8Z" fill="#060"/><path d="M375.4,66.74c-.444618.249387-.950948.367299-1.46.34-1.06,0-1.73-.58-1.73-1.92-1.089476,1.270468-2.697335,1.976896-4.37,1.92-2.25,0-4.1-1-4.1-3.48c0-2.81,2.09-3.41,4.2-3.82s4.17-.29,4.17-1.82c0-1.78-1.46-2.07-2.76-2.07-1.72,0-3,.53-3.09,2.35h-2c.12-3.07,2.49-4.15,5.25-4.15c2.24,0,4.66.51,4.66,3.41v6.38c0,1,0,1.4.65,1.4.212017-.00417.421738-.044762.62-.12Zm-3.31-6.36c-.79.58-2.33.6-3.7.84s-2.49.72-2.49,2.23c0,1.35,1.15,1.83,2.4,1.83c2.69,0,3.79-1.68,3.79-2.81Z" fill="#060"/><path d="M377.23,54.38h1.92v2.62v0c.707749-1.872875,2.563262-3.056984,4.56-2.91v2.16c-3.28,0-4.48,1.87-4.48,5v5.52h-2Z" fill="#060"/><path d="M396.28,66.74c-.444618.249387-.950948.367299-1.46.34-1.06,0-1.73-.58-1.73-1.92-1.089476,1.270468-2.697335,1.976896-4.37,1.92-2.25,0-4.1-1-4.1-3.48c0-2.81,2.09-3.41,4.2-3.82s4.18-.29,4.18-1.78c0-1.78-1.46-2.07-2.76-2.07-1.72,0-3,.53-3.09,2.35h-2c.12-3.07,2.49-4.15,5.25-4.15c2.24,0,4.66.51,4.66,3.41v6.38c0,1,0,1.4.65,1.4.212017-.00417.421738-.044762.62-.12ZM393,60.38c-.79.58-2.33.6-3.7.84s-2.49.72-2.49,2.23c0,1.35,1.15,1.83,2.4,1.83c2.69,0,3.79-1.68,3.79-2.81Z" fill="#060"/><path d="M129.74,84.38h2v1.68v0c.834616-1.383843,2.392155-2.162613,4-2c3.82,0,5.72,3,5.72,6.53s-1.88,6.46-5.67,6.46c-1.583002.040175-3.082339-.709494-4-2v0v6.41h-2Zm5.75,1.51c-2.73,0-3.79,2.35-3.79,4.68s1.11,4.71,3.91,4.71s3.73-2.38,3.73-4.8-1.2-4.59-3.85-4.59Z" fill="#060"/><path d="M154.89,96.74c-.44833.249177-.957789.367012-1.47.34-1,0-1.73-.58-1.73-1.92-1.085471,1.270085-2.690227,1.976767-4.36,1.92-2.26,0-4.11-1-4.11-3.48c0-2.81,2.09-3.41,4.2-3.82c2.26-.43,4.18-.29,4.18-1.82c0-1.78-1.47-2.07-2.76-2.07-1.73,0-3,.53-3.1,2.35h-2c.12-3.07,2.5-4.15,5.26-4.15c2.23,0,4.65.51,4.65,3.41v6.38c0,1,0,1.4.65,1.4.215203-.004772.428112-.045326.63-.12Zm-3.32-6.36c-.79.58-2.32.6-3.69.84s-2.5.72-2.5,2.23c0,1.35,1.15,1.83,2.4,1.83c2.69,0,3.79-1.68,3.79-2.81Z" fill="#060"/><path d="M167.87,96.79h-2v-1.68h-.05c-.832881,1.385721-2.391695,2.165128-4,2-3.81,0-5.71-3-5.71-6.53s1.87-6.46,5.66-6.46c1.584196-.045561,3.085931.705306,4,2h.05v-6.47h2Zm-5.76-1.51c2.74,0,3.79-2.36,3.79-4.68s-1.1-4.71-3.91-4.71-3.72,2.38-3.72,4.8s1.2,4.59,3.84,4.59Z" fill="#060"/><path d="M182,96.74c-.44833.249177-.957789.367012-1.47.34-1,0-1.73-.58-1.73-1.92-1.085471,1.270085-2.690227,1.976767-4.36,1.92-2.26,0-4.11-1-4.11-3.48c0-2.81,2.09-3.41,4.2-3.82c2.26-.43,4.18-.29,4.18-1.82c0-1.78-1.47-2.07-2.76-2.07-1.73,0-3,.53-3.1,2.35h-2c.12-3.07,2.5-4.15,5.26-4.15c2.23,0,4.65.51,4.65,3.41v6.38c0,1,0,1.4.65,1.4.215203-.004772.428112-.045326.63-.12Zm-3.32-6.36c-.79.58-2.32.6-3.69.84s-2.5.72-2.5,2.23c0,1.35,1.15,1.83,2.4,1.83c2.69,0,3.79-1.68,3.79-2.81Z" fill="#060"/><path d="M193.4,84.38h2.48v1.8h-2.48v7.7c0,.94.27,1.11,1.54,1.11h.94v1.8h-1.56c-2.12,0-3-.43-3-2.71v-7.9h-2.11v-1.8h2.11v-3.72h2Z" fill="#060"/><path d="M209.13,96.74c-.44833.249177-.957789.367012-1.47.34-1,0-1.73-.58-1.73-1.92-1.085471,1.270085-2.690227,1.976767-4.36,1.92-2.26,0-4.11-1-4.11-3.48c0-2.81,2.09-3.41,4.2-3.82c2.26-.43,4.18-.29,4.18-1.82c0-1.78-1.47-2.07-2.76-2.07-1.73,0-3,.53-3.1,2.35h-2c.12-3.07,2.5-4.15,5.26-4.15c2.23,0,4.65.51,4.65,3.41v6.38c0,1,0,1.4.65,1.4.215203-.004772.428112-.045326.63-.12Zm-3.32-6.36c-.79.58-2.32.6-3.69.84s-2.5.72-2.5,2.23c0,1.35,1.15,1.83,2.4,1.83c2.69,0,3.79-1.68,3.79-2.81Z" fill="#060"/><path d="M211,79.65h2v6.55h.05c.802374-1.403358,2.337434-2.223353,3.95-2.11c3.26,0,4.27,1.87,4.27,4.54v8.16h-2v-8.4c.0488-.680387-.20172-1.348196-.68598-1.828613s-1.154044-.725607-1.83402-.671387c-2.47,0-3.67,1.66-3.67,3.89v7h-2Z" fill="#060"/><path d="M234.64,96.79h-1.92v-2h-.05c-.789019,1.458655-2.343403,2.336882-4,2.26-3.27,0-4.28-1.88-4.28-4.54v-8.13h2v8.4c-.0488.680387.20172,1.348196.68598,1.828613s1.154044.725607,1.83402.671387c2.48,0,3.68-1.66,3.68-3.89v-7h2Z" fill="#060"/><path d="M237.71,84.38h1.92v2h.05c.785414-1.462189,2.342236-2.341793,4-2.26C247,84.09,248,86,248,88.63v8.16h-2v-8.4c.0488-.680387-.20172-1.348196-.68598-1.828613s-1.154044-.725607-1.83402-.671387c-2.47,0-3.67,1.66-3.67,3.89v7h-2Z" fill="#060"/><path d="M257.24,85.8c-.17-3.46,1.88-6,5.48-6c3,0,5.32,1.73,5.32,4.9c0,3-2,4.51-4.12,5.83s-4.37,2.38-4.78,4.49h8.74v1.8h-11.12c.34-4,2.38-5.47,4.78-7c2.88-1.78,4.34-2.83,4.34-5.19-.006783-.849109-.361573-1.658266-.981521-2.238522s-1.450777-.88081-2.298479-.831478c-2.38,0-3.39,2.19-3.32,4.23Z" fill="#060"/><path d="M276.2,79.77c5.33,0,5.67,4.9,5.67,8.67s-.34,8.64-5.67,8.64-5.66-4.9-5.66-8.64.33-8.67,5.66-8.67Zm0,15.51c3.48,0,3.51-4.32,3.51-6.87s0-6.84-3.51-6.84-3.5,4.32-3.5,6.84.02,6.87,3.5,6.87Z" fill="#060"/><path d="M292.93,91h2.31v1.8h-2.31v4h-1.93v-4h-7.46v-2l7.75-11.07h1.63ZM291,91v-8.32v0L285.3,91Z" fill="#060"/><path d="M302.89,79.77c5.33,0,5.67,4.9,5.67,8.67s-.34,8.64-5.67,8.64-5.66-4.9-5.66-8.64.33-8.67,5.66-8.67Zm0,15.51c3.48,0,3.51-4.32,3.51-6.87s0-6.84-3.51-6.84-3.5,4.32-3.5,6.84.02,6.87,3.5,6.87Z" fill="#060"/></g><g transform="translate(386.317583 190.694397)"><path d="M135.67,18.15h2v10.15l5.66-5.43h2.74l-4.92,4.52l5.28,7.89h-2.59l-4.25-6.48-1.92,1.78v4.7h-2Z" fill="#060"/><path d="M153.36,22.59c3.93,0,6,2.85,6,6.5s-2.09,6.48-6,6.48-6-2.85-6-6.48s2.06-6.5,6-6.5Zm0,11.18c2.13,0,3.86-1.68,3.86-4.68s-1.73-4.7-3.86-4.7-3.87,1.68-3.87,4.7s1.73,4.68,3.87,4.68Z" fill="#060"/><path d="M161.78,22.87h1.92v2h.05c.789975-1.456547,2.345011-2.331255,4-2.25c3.26,0,4.27,1.87,4.27,4.53v8.16h-2v-8.4c.049209-.679623-.201552-1.34673-.686252-1.82566s-1.154763-.721684-1.833748-.66434c-2.47,0-3.67,1.65-3.67,3.89v7h-2Z" fill="#060"/><path d="M176.37,31.37c.07,1.83,1.66,2.4,3.34,2.4c1.27,0,3-.29,3-1.85s-2-1.84-4.06-2.3-4.05-1.13-4.05-3.51s2.47-3.52,4.63-3.52c2.73,0,4.92.86,5.09,3.89h-2c-.15-1.59-1.54-2.09-2.88-2.09s-2.64.33-2.64,1.58c0,1.47,2.16,1.71,4.05,2.16s4.06,1.13,4.06,3.53c0,2.95-2.76,3.91-5.28,3.91-2.79,0-5.14-1.13-5.26-4.2Z" fill="#060"/><path d="M197.4,35.28h-1.92v-2v0c-.793536,1.453035-2.346163,2.326388-4,2.25-3.27,0-4.28-1.87-4.28-4.53v-8.13h2v8.41c-.049209.679623.201552,1.34673.686252,1.82566s1.154763.721684,1.833748.66434c2.48,0,3.68-1.65,3.68-3.89v-7h2Z" fill="#060"/><path d="M200.47,22.87h1.92v1.83h.05c.867494-1.36,2.387719-2.161918,4-2.11c1.484312-.154289,2.88568.712833,3.41,2.11.850936-1.321829,2.317974-2.117574,3.89-2.11c2.47,0,4.13,1,4.13,3.6v9.09h-2v-8.13c0-1.54-.41-2.76-2.4-2.76-.866786-.071144-1.721787.237368-2.343438.845587s-.94876,1.45628-.896562,2.324413v7.72h-2v-8.13c0-1.61-.51-2.76-2.33-2.76-1.766613.018548-3.21517,1.405837-3.31,3.17v7.72h-2Z" fill="#060"/><path d="M222.19,31.37c.07,1.83,1.65,2.4,3.33,2.4c1.28,0,3-.29,3-1.85s-2-1.84-4.05-2.3-4.06-1.13-4.06-3.51s2.47-3.52,4.63-3.52c2.74,0,4.92.86,5.09,3.89h-2c-.14-1.59-1.53-2.09-2.88-2.09s-2.64.33-2.64,1.58c0,1.47,2.16,1.71,4.06,2.16s4.05,1.13,4.05,3.53c0,2.95-2.76,3.91-5.28,3.91-2.78,0-5.13-1.13-5.25-4.2Z" fill="#060"/><path d="M235.1,20.64h-2v-2.49h2Zm-2,2.23h2v12.41h-2Z" fill="#060"/><path d="M255.52,31.35c-.39925,2.571588-2.704328,4.406952-5.3,4.22-4,0-5.83-2.73-5.95-6.53s2.45-6.45,5.83-6.45c4.39,0,5.74,4.1,5.62,7.1h-9.29c-.130169,1.077758.226159,2.157529.972232,2.946124s1.804456,1.204167,2.887768,1.133876c1.535818.14094,2.928281-.905569,3.22-2.42Zm-2-3.46c-.038198-1.948163-1.631472-3.505833-3.58-3.5-1.945701-.011094-3.533496,1.554337-3.55,3.5Z" fill="#060"/><path d="M257.83,22.87h1.92v2v0c.795299-1.451293,2.346737-2.323977,4-2.25c3.26,0,4.27,1.87,4.27,4.53v8.16h-2v-8.4c.049209-.679623-.201552-1.34673-.686252-1.82566s-1.154763-.721684-1.833748-.66434c-2.47,0-3.67,1.65-3.67,3.89v7h-2Z" fill="#060"/><path d="M281.76,31.35c-.399501,2.575688-2.710625,4.4124-5.31,4.22-4,0-5.83-2.73-5.95-6.53s2.45-6.45,5.83-6.45c4.39,0,5.74,4.1,5.62,7.1h-9.29c-.130169,1.077758.226159,2.157529.972232,2.946124s1.804456,1.204167,2.887768,1.133876c1.535818.14094,2.928281-.905569,3.22-2.42Zm-2-3.46c-.038198-1.948163-1.631472-3.505833-3.58-3.5-1.945701-.011094-3.533496,1.554337-3.55,3.5Z" fill="#060"/><path d="M284,22.87h1.92v2.62v0c.714932-1.870488,2.573138-3.049656,4.57-2.9v2.16c-3.29,0-4.49,1.87-4.49,5v5.52h-2Z" fill="#060"/><path d="M302.08,34.23c0,4-1.84,6.09-5.76,6.09-2.33,0-5-.93-5.13-3.64h2c.09,1.48,1.87,2,3.21,2c2.67,0,3.72-1.92,3.72-4.7v-.82h-.05c-.732055,1.44519-2.241443,2.328925-3.86,2.26-3.7,0-5.54-2.91-5.54-6.29c0-2.93,1.44-6.55,5.73-6.55c1.52548-.076062,2.961118.723239,3.7,2.06v0-1.77h1.92Zm-2-5.4c0-2.19-1-4.44-3.53-4.44s-3.67,2.13-3.67,4.51.81,4.73,3.5,4.73s3.69-2.47,3.69-4.8Z" fill="#060"/><path d="M307.31,20.64h-2v-2.49h2Zm-2,2.23h2v12.41h-2Z" fill="#060"/><path d="M71.84,65.28h-2v-1.68v0c-.83634,1.381977-2.392615,2.160114-4,2-3.82,0-5.72-3-5.72-6.53s1.88-6.45,5.67-6.45c1.571595-.052176,3.067938.673551,4,1.94v0-6.41h2Zm-5.76-1.51c2.74,0,3.8-2.35,3.8-4.68s-1.11-4.7-3.92-4.7-3.72,2.37-3.72,4.8s1.2,4.58,3.84,4.58Z" fill="#060"/><path d="M77.15,50.64h-2v-2.49h2Zm-2,2.23h2v12.41h-2Z" fill="#060"/><path d="M80.39,52.87h2v1.69v0c.83634-1.381977,2.392615-2.160114,4-2c3.82,0,5.72,3,5.72,6.53s-1.87,6.45-5.67,6.45c-1.571595.052176-3.067938-.673551-4-1.94v0v6.4h-2Zm5.76,1.52c-2.74,0-3.8,2.35-3.8,4.68s1.11,4.7,3.92,4.7s3.73-2.37,3.73-4.77-1.21-4.61-3.85-4.61Z" fill="#060"/><path d="M105.13,61.35c-.39925,2.571588-2.704328,4.406952-5.3,4.22-4,0-5.84-2.73-6-6.53s2.45-6.45,5.84-6.45c4.39,0,5.73,4.1,5.61,7.1h-9.28c-.126893,1.078799.231959,2.158227.979494,2.946326s1.806512,1.203436,2.890506,1.133674c1.532167.135524,2.918607-.909704,3.21-2.42Zm-2-3.46c-.100431-1.8956-1.666741-3.381122-3.565-3.381122s-3.464569,1.485522-3.565,3.381122Z" fill="#060"/><path d="M107.36,52.87h1.92v2.62v0c.708472-1.871124,2.565009-3.051817,4.56-2.9v2.16c-3.29,0-4.49,1.87-4.49,5v5.52h-2Z" fill="#060"/><path d="M115.55,48.15h2v10.15l5.66-5.43h2.79l-4.92,4.52l5.28,7.89h-2.6l-4.24-6.48-1.92,1.78v4.7h-2Z" fill="#060"/><path d="M130,50.64h-2v-2.49h2Zm-2,2.23h2v12.41h-2Z" fill="#060"/><path d="M133.14,52.87h1.92v2.62h.05c.708472-1.871124,2.565009-3.051817,4.56-2.9v2.16c-3.29,0-4.49,1.87-4.49,5v5.52h-2Z" fill="#060"/><path d="M152.19,65.24c-.447524.240931-.95236.355038-1.46.33-1.06,0-1.73-.57-1.73-1.92-1.089476,1.270468-2.697335,1.976896-4.37,1.92-2.25,0-4.1-1-4.1-3.48c0-2.81,2.09-3.41,4.2-3.81c2.26-.44,4.18-.29,4.18-1.83c0-1.77-1.47-2.06-2.76-2.06-1.73,0-3,.52-3.1,2.35h-2c.12-3.07,2.49-4.15,5.26-4.15c2.23,0,4.65.5,4.65,3.41v6.38c0,1,0,1.39.65,1.39.212513.000799.423132-.039966.62-.12Zm-3.31-6.36c-.79.57-2.33.6-3.69.84s-2.5.72-2.5,2.23c0,1.34,1.15,1.82,2.4,1.82c2.69,0,3.79-1.68,3.79-2.81Z" fill="#060"/><path d="M154.21,48.15h2v10.15l5.66-5.43h2.74l-4.92,4.52L165,65.28h-2.59l-4.25-6.48-1.92,1.78v4.7h-2Z" fill="#060"/><path d="M177.54,65.24c-.451181.240804-.959183.354845-1.47.33-1,0-1.72-.57-1.72-1.92-1.085915,1.263715-2.68454,1.969315-4.35,1.92-2.26,0-4.11-1-4.11-3.48c0-2.81,2.09-3.41,4.2-3.81c2.26-.44,4.18-.29,4.18-1.83c0-1.77-1.47-2.06-2.76-2.06-1.73,0-3,.52-3.1,2.35h-2c.12-3.07,2.5-4.15,5.26-4.15c2.23,0,4.66.5,4.66,3.41v6.38c0,1,0,1.39.64,1.39.215689.00009.429447-.040626.63-.12Zm-3.31-6.36c-.8.57-2.33.6-3.7.84s-2.53.72-2.53,2.28c0,1.34,1.16,1.82,2.4,1.82c2.69,0,3.8-1.68,3.8-2.81Z" fill="#060"/><path d="M179.43,52.87h1.92v2h.05c.791762-1.454786,2.345588-2.328814,4-2.25c3.27,0,4.27,1.87,4.27,4.53v8.16h-2v-8.4c.04883-.677738-.200627-1.343024-.683021-1.821574s-1.149653-.722676-1.826979-.668426c-2.48,0-3.68,1.65-3.68,3.89v7h-2Z" fill="#060"/><path d="M199.45,52.87h1.92v2v0c.789975-1.456547,2.345011-2.331255,4-2.25c3.26,0,4.27,1.87,4.27,4.53v8.16h-2v-8.4c.049209-.679623-.201552-1.34673-.686252-1.82566s-1.154763-.721684-1.833748-.66434c-2.47,0-3.67,1.65-3.67,3.89v7h-2Z" fill="#060"/><path d="M223.78,65.24c-.447524.240931-.95236.355038-1.46.33-1.06,0-1.73-.57-1.73-1.92-1.089476,1.270468-2.697335,1.976896-4.37,1.92-2.25,0-4.1-1-4.1-3.48c0-2.81,2.09-3.41,4.2-3.81c2.26-.44,4.18-.29,4.18-1.83c0-1.77-1.47-2.06-2.76-2.06-1.73,0-3,.52-3.1,2.35h-2c.12-3.07,2.5-4.15,5.26-4.15c2.23,0,4.65.5,4.65,3.41v6.38c0,1,0,1.39.65,1.39.212513.000799.423132-.039966.62-.12Zm-3.31-6.36c-.79.57-2.33.6-3.69.84s-2.5.72-2.5,2.23c0,1.34,1.15,1.82,2.4,1.82c2.69,0,3.79-1.68,3.79-2.81Z" fill="#060"/><path d="M227.84,50.64h-2v-2.49h2Zm-2,2.23h2v12.41h-2Z" fill="#060"/><path d="M231.13,48.15h2v10.15l5.66-5.43h2.74l-4.92,4.52l5.28,7.89h-2.59l-4.25-6.48-1.92,1.78v4.7h-2Z" fill="#060"/><path d="M261.22,65.28h-2v-1.68v0c-.83634,1.381977-2.392615,2.160114-4,2-3.82,0-5.72-3-5.72-6.53s1.88-6.45,5.67-6.45c1.571595-.052176,3.067938.673551,4,1.94v0-6.41h2Zm-5.76-1.51c2.74,0,3.8-2.35,3.8-4.68s-1.11-4.7-3.92-4.7-3.72,2.37-3.72,4.8s1.2,4.58,3.84,4.58Z" fill="#060"/><path d="M274.64,65.28h-1.92v-2h-.05c-.789975,1.456547-2.345011,2.331255-4,2.25-3.27,0-4.27-1.87-4.27-4.53v-8.13h2v8.41c-.049209.679623.201552,1.34673.686252,1.82566s1.154763.721684,1.833748.66434c2.47,0,3.67-1.65,3.67-3.89v-7h2Z" fill="#060"/><path d="M288.7,65.24c-.447524.240931-.95236.355038-1.46.33-1.06,0-1.73-.57-1.73-1.92-1.089476,1.270468-2.697335,1.976896-4.37,1.92-2.25,0-4.1-1-4.1-3.48c0-2.81,2.09-3.41,4.2-3.81s4.18-.29,4.18-1.83c0-1.77-1.47-2.06-2.77-2.06-1.72,0-3,.52-3.09,2.35h-2c.12-3.07,2.49-4.15,5.26-4.15c2.23,0,4.65.5,4.65,3.41v6.38c0,1,0,1.39.65,1.39.212513.000799.423132-.039966.62-.12Zm-3.31-6.36c-.79.57-2.33.6-3.7.84s-2.49.72-2.49,2.23c0,1.34,1.15,1.82,2.4,1.82c2.69,0,3.79-1.68,3.79-2.81Z" fill="#060"/><path d="M297.39,48.15h2v10.15l5.66-5.43h2.74l-4.92,4.52l5.28,7.89h-2.55l-4.25-6.48-1.92,1.78v4.7h-2Z" fill="#060"/><path d="M320.72,65.24c-.448055.239509-.952492.353526-1.46.33-1.06,0-1.73-.57-1.73-1.92-1.089476,1.270468-2.697335,1.976896-4.37,1.92-2.26,0-4.11-1-4.11-3.48c0-2.81,2.09-3.41,4.2-3.81s4.18-.29,4.18-1.83c0-1.77-1.46-2.06-2.76-2.06-1.73,0-3,.52-3.1,2.35h-2c.12-3.07,2.5-4.15,5.26-4.15c2.23,0,4.66.5,4.66,3.41v6.38c0,1,0,1.39.65,1.39.212348-.000926.422642-.041629.62-.12Zm-3.31-6.36c-.8.57-2.33.6-3.7.84s-2.5.72-2.5,2.23c0,1.34,1.16,1.82,2.4,1.82c2.69,0,3.8-1.68,3.8-2.81Z" fill="#060"/><path d="M322.73,48.15h2v17.13h-2Z" fill="#060"/><path d="M330.1,50.64h-2v-2.49h2Zm-2,2.23h2v12.41h-2Z" fill="#060"/><path d="M340.06,48.15h2v17.13h-2Z" fill="#060"/><path d="M347.43,50.64h-2v-2.49h2Zm-2,2.23h2v12.41h-2Z" fill="#060"/><path d="M350.67,52.87h2v1.69h.05c.832881-1.385721,2.391695-2.165128,4-2c3.81,0,5.71,3,5.71,6.53s-1.87,6.45-5.66,6.45c-1.57234.055694-3.07024-.670788-4-1.94h-.05v6.4h-2Zm5.76,1.52c-2.74,0-3.79,2.35-3.79,4.68s1.1,4.7,3.91,4.7s3.72-2.37,3.72-4.8-1.2-4.58-3.84-4.58Z" fill="#060"/><path d="M375.82,65.24c-.447524.240931-.95236.355038-1.46.33-1.06,0-1.73-.57-1.73-1.92-1.089476,1.270468-2.697335,1.976896-4.37,1.92-2.26,0-4.1-1-4.1-3.48c0-2.81,2.08-3.41,4.2-3.81s4.17-.29,4.17-1.83c0-1.77-1.46-2.06-2.76-2.06-1.73,0-3,.52-3.09,2.35h-2c.12-3.07,2.49-4.15,5.25-4.15c2.24,0,4.66.5,4.66,3.41v6.38c0,1,0,1.39.65,1.39.212513.000799.423132-.039966.62-.12Zm-3.31-6.36c-.79.57-2.33.6-3.7.84s-2.49.72-2.49,2.23c0,1.34,1.15,1.82,2.4,1.82c2.68,0,3.79-1.68,3.79-2.81Z" fill="#060"/><path d="M380.55,52.87h2.45v1.81h-2.47v7.7c0,.94.26,1.1,1.53,1.1h.94v1.8h-1.56c-2.11,0-2.95-.43-2.95-2.71v-7.89h-2.09v-1.81h2.11v-3.72h2Z" fill="#060"/><path d="M132.37,82.87h2v1.69h.05c.832881-1.385721,2.391695-2.165128,4-2c3.81,0,5.71,3,5.71,6.53s-1.87,6.45-5.66,6.45c-1.57234.055694-3.07024-.670788-4-1.94h-.05v6.4h-2Zm5.76,1.52c-2.74,0-3.79,2.35-3.79,4.68s1.1,4.7,3.91,4.7s3.75-2.37,3.75-4.77-1.23-4.61-3.87-4.61Z" fill="#060"/><path d="M157.52,95.24c-.448055.239509-.952492.353526-1.46.33-1.06,0-1.73-.57-1.73-1.92-1.080579,1.259369-2.671186,1.964673-4.33,1.92-2.26,0-4.1-1-4.1-3.48c0-2.81,2.08-3.41,4.2-3.81s4.17-.29,4.17-1.83c0-1.77-1.46-2.06-2.76-2.06-1.73,0-3,.52-3.09,2.35h-2c.12-3.07,2.49-4.15,5.25-4.15c2.23,0,4.66.5,4.66,3.41v6.38c0,1,0,1.39.65,1.39.212513.000799.423132-.039966.62-.12Zm-3.31-6.36c-.79.57-2.33.6-3.7.84s-2.51.72-2.51,2.28c0,1.34,1.15,1.82,2.4,1.82c2.68,0,3.79-1.68,3.79-2.81Z" fill="#060"/><path d="M170.5,95.28h-2v-1.68v0c-.83634,1.381977-2.392615,2.160114-4,2-3.82,0-5.72-3-5.72-6.53s1.88-6.45,5.67-6.45c1.571595-.052176,3.067938.673551,4,1.94v0-6.41h2Zm-5.76-1.51c2.74,0,3.8-2.35,3.8-4.68s-1.11-4.7-3.92-4.7-3.72,2.37-3.72,4.8s1.2,4.58,3.84,4.58Z" fill="#060"/><path d="M184.64,95.24c-.448055.239509-.952492.353526-1.46.33-1.06,0-1.73-.57-1.73-1.92-1.089476,1.270468-2.697335,1.976896-4.37,1.92-2.26,0-4.1-1-4.1-3.48c0-2.81,2.08-3.41,4.2-3.81s4.17-.29,4.17-1.83c0-1.77-1.46-2.06-2.76-2.06-1.73,0-3,.52-3.09,2.35h-2.05c.12-3.07,2.5-4.15,5.26-4.15c2.23,0,4.66.5,4.66,3.41v6.38c0,1,0,1.39.65,1.39.212441.000041.422916-.040696.62-.12Zm-3.31-6.36c-.79.57-2.33.6-3.7.84s-2.49.72-2.49,2.23c0,1.34,1.15,1.82,2.4,1.82c2.68,0,3.79-1.68,3.79-2.81Z" fill="#060"/><path d="M196,82.87h2.47v1.81h-2.47v7.7c0,.94.26,1.1,1.53,1.1h.94v1.8h-1.47c-2.11,0-2.95-.43-2.95-2.71v-7.89h-2.11v-1.81h2.06v-3.72h2Z" fill="#060"/><path d="M211.76,95.24c-.448055.239509-.952492.353526-1.46.33-1.06,0-1.73-.57-1.73-1.92-1.089476,1.270468-2.697335,1.976896-4.37,1.92-2.26,0-4.11-1-4.11-3.48c0-2.81,2.09-3.41,4.2-3.81c2.26-.44,4.18-.29,4.18-1.83c0-1.77-1.46-2.06-2.76-2.06-1.73,0-3,.52-3.1,2.35h-2c.12-3.07,2.5-4.15,5.26-4.15c2.23,0,4.66.5,4.66,3.41v6.38c0,1,0,1.39.65,1.39.212348-.000926.422642-.041629.62-.12Zm-3.31-6.36c-.8.57-2.33.6-3.7.84s-2.5.72-2.5,2.23c0,1.34,1.16,1.82,2.4,1.82c2.69,0,3.8-1.68,3.8-2.81Z" fill="#060"/><path d="M213.65,78.15h2v6.55h.05c.794176-1.39156,2.310893-2.210044,3.91-2.11c3.27,0,4.28,1.87,4.28,4.53v8.16h-2v-8.4c.049209-.679623-.201552-1.34673-.686252-1.82566s-1.154763-.721684-1.833748-.66434c-2.48,0-3.68,1.65-3.68,3.89v7h-2Z" fill="#060"/><path d="M237.27,95.28h-1.92v-2v0c-.789975,1.456547-2.345011,2.331255-4,2.25C228,95.57,227,93.7,227,91v-8.13h2v8.41c-.049209.679623.201552,1.34673.686252,1.82566s1.154763.721684,1.833748.66434c2.47,0,3.67-1.65,3.67-3.89v-7h2Z" fill="#060"/><path d="M240.34,82.87h1.92v2h.05c.791762-1.454786,2.345588-2.328814,4-2.25c3.27,0,4.27,1.87,4.27,4.53v8.16h-2v-8.4c.049209-.679623-.201552-1.34673-.686252-1.82566s-1.154763-.721684-1.833748-.66434c-2.47,0-3.67,1.65-3.67,3.89v7h-2Z" fill="#060"/><path d="M259.88,84.29c-.17-3.46,1.87-6,5.47-6c3,0,5.33,1.72,5.33,4.89c0,3-2,4.52-4.13,5.84s-4.37,2.37-4.78,4.48h8.74v1.8h-11.11c.33-4,2.37-5.47,4.77-7c2.88-1.77,4.35-2.83,4.35-5.18-.006634-.850954-.362789-1.661763-.984965-2.242334s-1.455657-.879849-2.305035-.827666c-2.38,0-3.38,2.18-3.31,4.22Z" fill="#060"/><path d="M278.84,78.27c5.33,0,5.66,4.89,5.66,8.66s-.33,8.64-5.66,8.64-5.67-4.89-5.67-8.64.34-8.66,5.67-8.66Zm0,15.5c3.48,0,3.5-4.32,3.5-6.86s0-6.84-3.5-6.84-3.51,4.32-3.51,6.84.03,6.86,3.51,6.86Z" fill="#060"/><path d="M295.57,89.5h2.3v1.8h-2.3v4h-1.92v-4h-7.47v-2l7.75-11.06h1.64Zm-1.92,0v-8.33v0l-5.67,8.33Z" fill="#060"/><path d="M305.53,78.27c5.32,0,5.66,4.89,5.66,8.66s-.34,8.64-5.66,8.64-5.67-4.89-5.67-8.64.34-8.66,5.67-8.66Zm0,15.5c3.48,0,3.5-4.32,3.5-6.86s0-6.84-3.5-6.84-3.53,4.32-3.53,6.84s0,6.86,3.53,6.86Z" fill="#060"/></g><g transform="translate(779.042355 444.6)"><path d="M49.16,31.7h2v1.68v0c.834616-1.383843,2.392155-2.162613,4-2c3.82,0,5.71,3,5.71,6.53s-1.87,6.46-5.66,6.46c-1.574172.053393-3.072439-.677012-4-1.95v0v6.41h-2Zm5.76,1.51c-2.73,0-3.79,2.35-3.79,4.68s1.1,4.71,3.87,4.71s3.72-2.38,3.72-4.8-1.16-4.59-3.8-4.59Z" fill="#060"/><path d="M74.31,44.06c-.444618.249387-.950948.367299-1.46.34-1.06,0-1.73-.58-1.73-1.92-1.089476,1.270468-2.697335,1.976896-4.37,1.92-2.25,0-4.1-1-4.1-3.48c0-2.81,2.09-3.41,4.2-3.82c2.26-.43,4.18-.29,4.18-1.82c0-1.78-1.47-2.07-2.76-2.07-1.73,0-3,.53-3.1,2.35h-2c.12-3.07,2.5-4.15,5.26-4.15c2.23,0,4.65.51,4.65,3.41v6.39c0,1,0,1.39.65,1.39.212017-.00417.421738-.044762.62-.12ZM71,37.7c-.79.58-2.33.6-3.69.84s-2.5.72-2.5,2.23c0,1.35,1.15,1.83,2.4,1.83c2.69,0,3.79-1.68,3.79-2.81Z" fill="#060"/><path d="M77.46,40.2c.07,1.82,1.65,2.4,3.33,2.4c1.28,0,3-.29,3-1.85s-2-1.85-4.05-2.3-4.06-1.13-4.06-3.51s2.47-3.53,4.63-3.53c2.74,0,4.92.87,5.09,3.89h-2c-.14-1.58-1.53-2.09-2.88-2.09s-2.64.34-2.64,1.59c0,1.46,2.16,1.7,4.06,2.16s4,1.13,4,3.53c0,2.95-2.76,3.91-5.28,3.91-2.78,0-5.13-1.13-5.25-4.2Z" fill="#060"/><path d="M93.56,31.41c3.94,0,6,2.86,6,6.51s-2.09,6.48-6,6.48-6-2.86-6-6.48s2.07-6.51,6-6.51Zm0,11.19c2.14,0,3.87-1.68,3.87-4.68s-1.73-4.71-3.87-4.71-3.86,1.68-3.86,4.71s1.72,4.68,3.86,4.68Z" fill="#060"/><path d="M102.1,27h2v10.13l5.67-5.43h2.74l-4.92,4.51l5.28,7.9h-2.6l-4.25-6.48-1.92,1.78v4.7h-2Z" fill="#060"/><path d="M125.43,44.06c-.444618.249387-.950948.367299-1.46.34-1.06,0-1.73-.58-1.73-1.92-1.089476,1.270468-2.697335,1.976896-4.37,1.92-2.25,0-4.1-1-4.1-3.48c0-2.81,2.09-3.41,4.2-3.82s4.18-.29,4.18-1.82c0-1.78-1.47-2.07-2.77-2.07-1.72,0-3,.53-3.09,2.35h-2c.12-3.07,2.49-4.15,5.26-4.15c2.23,0,4.65.51,4.65,3.41v6.39c0,1,0,1.39.65,1.39.212017-.00417.421738-.044762.62-.12Zm-3.31-6.36c-.79.58-2.33.6-3.7.84s-2.49.72-2.49,2.23c0,1.35,1.15,1.83,2.4,1.83c2.69,0,3.79-1.68,3.79-2.81Z" fill="#060"/><path d="M127.33,31.7h1.92v2h.05c.785414-1.462189,2.342236-2.341793,4-2.26c3.26,0,4.27,1.88,4.27,4.54v8.16h-2v-8.4c.0488-.680387-.20172-1.348196-.68598-1.828613s-1.154044-.725607-1.83402-.671387c-2.47,0-3.67,1.66-3.67,3.89v7h-2Z" fill="#060"/><path d="M157.93,40.17c-.39484,2.579703-2.707317,4.421846-5.31,4.23-4,0-5.83-2.74-6-6.53s2.45-6.46,5.83-6.46c4.4,0,5.74,4.11,5.62,7.11h-9.29c-.126893,1.078799.231959,2.158227.979494,2.946326s1.806512,1.203436,2.890506,1.133674c1.53535.134832,2.92307-.915685,3.21-2.43Zm-2-3.45c-.100431-1.8956-1.666741-3.381122-3.565-3.381122s-3.464569,1.485522-3.565,3.381122Z" fill="#060"/><path d="M160.23,31.7h1.92v2v0c.787223-1.460417,2.34282-2.33933,4-2.26c3.27,0,4.27,1.88,4.27,4.54v8.16h-2v-8.4c.0488-.680387-.20172-1.348196-.68598-1.828613s-1.154044-.725607-1.83402-.671387c-2.47,0-3.67,1.66-3.67,3.89v7h-2Z" fill="#060"/><path d="M184.16,40.17c-.394595,2.575602-2.701022,4.416391-5.3,4.23-4,0-5.84-2.74-6-6.53s2.45-6.46,5.84-6.46c4.39,0,5.73,4.11,5.61,7.11h-9.29c-.126893,1.078799.231959,2.158227.979494,2.946326s1.806512,1.203436,2.890506,1.133674c1.53535.134832,2.92307-.915685,3.21-2.43Zm-2-3.45c-.100431-1.8956-1.666741-3.381122-3.565-3.381122s-3.464569,1.485522-3.565,3.381122Z" fill="#060"/><path d="M186.39,31.7h1.92v2.62h.05c.702298-1.877294,2.56155-3.06379,4.56-2.91v2.16c-3.29,0-4.49,1.88-4.49,5v5.52h-2Z" fill="#060"/><path d="M204.49,43.05c0,4-1.85,6.1-5.76,6.1-2.33,0-5-.94-5.14-3.65h2c.1,1.49,1.87,2,3.22,2c2.66,0,3.72-1.92,3.72-4.71v-.79v0c-.732991,1.443113-2.243067,2.323338-3.86,2.25-3.7,0-5.55-2.9-5.55-6.28c0-2.93,1.44-6.56,5.74-6.56c1.524122-.070216,2.955448.732722,3.69,2.07v0-1.78h1.92Zm-2-5.4c0-2.18-1-4.44-3.53-4.44s-3.67,2.14-3.67,4.51.82,4.73,3.51,4.73s3.67-2.45,3.67-4.8Z" fill="#060"/><path d="M209.72,29.47h-2v-2.47h2Zm-2,2.23h2v12.41h-2Z" fill="#060"/><path d="M219.63,31.7h2v1.68h.05c.832881-1.385721,2.391695-2.165128,4-2c3.81,0,5.71,3,5.71,6.53s-1.87,6.46-5.66,6.46c-1.574929.056956-3.074779-.674221-4-1.95h-.05v6.41h-2Zm5.76,1.51c-2.74,0-3.79,2.35-3.79,4.68s1.1,4.71,3.91,4.71s3.72-2.38,3.72-4.8-1.23-4.59-3.84-4.59Z" fill="#060"/><path d="M233.72,31.7h1.92v2.62h.05c.702298-1.877294,2.56155-3.06379,4.56-2.91v2.16c-3.29,0-4.49,1.88-4.49,5v5.52h-2Z" fill="#060"/><path d="M243.94,29.47h-2v-2.47h2Zm-2,2.23h2v12.41h-2Z" fill="#060"/><path d="M247.11,31.7h1.89v1.82h.05c.867494-1.36,2.387719-2.161918,4-2.11c1.480788-.149506,2.876635.71674,3.4,2.11.850936-1.321829,2.317974-2.117574,3.89-2.11c2.47,0,4.13,1,4.13,3.6v9.1h-2v-8.11c0-1.53-.41-2.76-2.4-2.76-.866786-.071144-1.721787.237368-2.343438.845587s-.94876,1.45628-.896562,2.324413v7.73h-2v-8.14c0-1.6-.5-2.76-2.33-2.76-1.766613.018548-3.21517,1.405837-3.31,3.17v7.73h-2Z" fill="#060"/><path d="M278.17,40.17c-.39484,2.579703-2.707317,4.421846-5.31,4.23-4,0-5.83-2.74-5.95-6.53s2.45-6.46,5.83-6.46c4.39,0,5.74,4.11,5.62,7.11h-9.29c-.130169,1.077758.226159,2.157529.972232,2.946124s1.804456,1.204167,2.887768,1.133876c1.539004.140258,2.932755-.911548,3.22-2.43Zm-2-3.45c-.032804-1.952084-1.627649-3.515744-3.58-3.51-.936219-.005319-1.836204.361498-2.501961,1.019754s-1.04275,1.554027-1.048039,2.490246Z" fill="#060"/><path d="M280.4,31.7h1.92v2.62v0c.707749-1.872875,2.563262-3.056984,4.56-2.91v2.16c-3.28,0-4.48,1.88-4.48,5v5.52h-2Z" fill="#060"/><path d="M298,31.7h2.48v1.8h-2.48v7.71c0,.93.27,1.1,1.54,1.1h.94v1.8h-1.56c-2.12,0-3-.43-3-2.71v-7.9h-2.11v-1.8h2.11v-3.7h2Z" fill="#060"/><path d="M308,31.41c3.94,0,6,2.86,6,6.51s-2,6.48-6,6.48-6-2.86-6-6.48s2.11-6.51,6-6.51Zm0,11.19c2.14,0,3.87-1.68,3.87-4.68s-1.73-4.71-3.87-4.71-3.86,1.68-3.86,4.71s1.77,4.68,3.86,4.68Z" fill="#060"/><path d="M319.3,31.7h2.47v1.8h-2.47v7.71c0,.93.26,1.1,1.54,1.1h.93v1.8h-1.56c-2.11,0-2.95-.43-2.95-2.71v-7.9h-2.11v-1.8h2.11v-3.7h2Z" fill="#060"/><path d="M335,44.06c-.445212.247851-.951093.365659-1.46.34-1.06,0-1.73-.58-1.73-1.92-1.089476,1.270468-2.697335,1.976896-4.37,1.92-2.26,0-4.11-1-4.11-3.48c0-2.81,2.09-3.41,4.2-3.82s4.18-.29,4.18-1.82c0-1.78-1.46-2.07-2.76-2.07-1.73,0-3,.53-3.09,2.35h-2.05c.12-3.07,2.5-4.15,5.26-4.15c2.23,0,4.66.51,4.66,3.41v6.39c0,1,0,1.39.65,1.39.211934-.004946.421526-.045512.62-.12Zm-3.31-6.36c-.79.58-2.33.6-3.7.84s-2.5.72-2.5,2.23c0,1.35,1.16,1.83,2.41,1.83c2.68,0,3.79-1.68,3.79-2.81Z" fill="#060"/><path d="M337,27h2v17.11h-2Z" fill="#060"/><path d="M60.18,74.11h-2v-1.68v0c-.834616,1.383843-2.392155,2.162613-4,2-3.82,0-5.71-3-5.71-6.53s1.87-6.46,5.66-6.46c1.583399-.041961,3.08353.708104,4,2v0-6.44h2ZM54.42,72.6c2.73,0,3.79-2.35,3.79-4.68s-1.1-4.71-3.91-4.71-3.72,2.38-3.72,4.8s1.2,4.59,3.84,4.59Z" fill="#060"/><path d="M65.48,59.47h-2v-2.47h2Zm-2,2.23h2v12.41h-2Z" fill="#060"/><path d="M80.31,57h2.52l6.7,17.14h-2.53L85.14,69h-7.25L76,74.11h-2.38Zm-1.7,10h5.81l-2.86-8v0Z" fill="#060"/><path d="M92.12,70.2c.07,1.82,1.66,2.4,3.34,2.4c1.27,0,3-.29,3-1.85s-2-1.85-4.06-2.3-4.06-1.13-4.06-3.51s2.48-3.53,4.64-3.53c2.73,0,4.92.87,5.09,3.89h-2.07c-.15-1.58-1.54-2.09-2.88-2.09s-2.64.34-2.64,1.59c0,1.46,2.16,1.7,4,2.16s4.06,1.13,4.06,3.53c0,3-2.76,3.91-5.28,3.91-2.79,0-5.14-1.13-5.26-4.2Z" fill="#060"/><path d="M105,59.47h-2v-2.47h2Zm-2,2.23h2v12.41h-2Z" fill="#060"/><path d="M119.19,74.06c-.444618.249387-.950948.367299-1.46.34-1.06,0-1.73-.58-1.73-1.92-1.089476,1.270468-2.697335,1.976896-4.37,1.92-2.25,0-4.1-1-4.1-3.48c0-2.81,2.09-3.41,4.2-3.82s4.18-.29,4.18-1.82c0-1.78-1.47-2.07-2.77-2.07-1.72,0-3,.53-3.09,2.35h-2c.12-3.07,2.49-4.15,5.25-4.15c2.24,0,4.66.51,4.66,3.41v6.39c0,1,0,1.39.65,1.39.212017-.00417.421738-.044762.62-.12Zm-3.31-6.36c-.79.58-2.33.6-3.7.84s-2.49.72-2.49,2.23c0,1.35,1.15,1.83,2.4,1.83c2.69,0,3.79-1.68,3.79-2.81Z" fill="#060"/><path d="M132,58.89h-5.71v-1.89h13.71v1.92h-5.72v15.19h-2.28Z" fill="#060"/><path d="M149.46,70.17c-.39484,2.579703-2.707317,4.421846-5.31,4.23-4,0-5.83-2.74-6-6.53s2.45-6.46,5.83-6.46c4.39,0,5.74,4.11,5.62,7.11h-9.29c-.130169,1.077758.226159,2.157529.972232,2.946124s1.804456,1.204167,2.887768,1.133876c1.539004.140258,2.932755-.911548,3.22-2.43Zm-2-3.45c-.032804-1.952084-1.627649-3.515744-3.58-3.51-1.947329-.005571-3.533505,1.562733-3.55,3.51Z" fill="#060"/><path d="M151.76,61.7h1.92v2v0c.785414-1.462189,2.342236-2.341793,4-2.26C161,61.41,162,63.29,162,66v8.16h-2v-8.4c.0488-.680387-.20172-1.348196-.68598-1.828613s-1.154044-.725607-1.83402-.671387c-2.47,0-3.67,1.66-3.67,3.89v7h-2Z" fill="#060"/><path d="M175.81,73.05c0,4-1.85,6.1-5.76,6.1-2.33,0-5-.94-5.14-3.65h2c.1,1.49,1.87,2,3.22,2c2.66,0,3.72-1.92,3.72-4.71v-.79v0c-.733381,1.43791-2.237247,2.316793-3.85,2.25-3.69,0-5.54-2.9-5.54-6.28c0-2.93,1.44-6.56,5.74-6.56c1.524122-.070216,2.955448.732722,3.69,2.07v0-1.78h1.92Zm-2-5.4c0-2.18-1-4.44-3.53-4.44s-3.67,2.14-3.67,4.51.82,4.73,3.5,4.73s3.68-2.45,3.68-4.8Z" fill="#060"/><path d="M189.58,73.05c0,4-1.85,6.1-5.76,6.1-2.33,0-5-.94-5.13-3.65h2c.09,1.49,1.87,2,3.21,2c2.67,0,3.72-1.92,3.72-4.71v-.79v0c-.732991,1.443113-2.243067,2.323338-3.86,2.25-3.7,0-5.54-2.9-5.54-6.28c0-2.93,1.44-6.56,5.73-6.56c1.524273-.059886,2.95348.739698,3.7,2.07v0-1.78h1.92Zm-2-5.4c0-2.18-1-4.44-3.53-4.44s-3.67,2.14-3.67,4.51.81,4.73,3.5,4.73s3.69-2.45,3.69-4.8Z" fill="#060"/><path d="M203.65,74.06c-.44833.249177-.957789.367012-1.47.34-1.05,0-1.73-.58-1.73-1.92-1.085471,1.270085-2.690227,1.976767-4.36,1.92-2.26,0-4.11-1-4.11-3.48c0-2.81,2.09-3.41,4.2-3.82s4.18-.29,4.18-1.82c0-1.78-1.47-2.07-2.76-2.07-1.73,0-3,.53-3.1,2.35h-2c.12-3.07,2.5-4.15,5.26-4.15c2.23,0,4.65.51,4.65,3.41v6.39c0,1,0,1.39.65,1.39.215203-.004772.428112-.045326.63-.12Zm-3.32-6.36c-.79.58-2.32.6-3.69.84s-2.5.72-2.5,2.23c0,1.35,1.15,1.83,2.4,1.83c2.69,0,3.79-1.68,3.79-2.81Z" fill="#060"/><path d="M205.47,61.7h1.92v2.62h.05c.702298-1.877294,2.56155-3.06379,4.56-2.91v2.16c-3.29,0-4.49,1.88-4.49,5v5.52h-2Z" fill="#060"/><path d="M224.53,74.06c-.44833.249177-.957789.367012-1.47.34-1.05,0-1.73-.58-1.73-1.92-1.078816,1.261737-2.670614,1.967569-4.33,1.92-2.26,0-4.11-1-4.11-3.48c0-2.81,2.09-3.41,4.2-3.82s4.18-.29,4.18-1.82c0-1.78-1.47-2.07-2.76-2.07-1.73,0-3,.53-3.1,2.35h-2c.12-3.07,2.5-4.15,5.26-4.15c2.23,0,4.65.51,4.65,3.41v6.39c0,1,0,1.39.65,1.39.215203-.004772.428112-.045326.63-.12Zm-3.32-6.36c-.79.58-2.32.6-3.69.84s-2.5.72-2.5,2.23c0,1.35,1.15,1.83,2.4,1.83c2.69,0,3.79-1.68,3.79-2.81Z" fill="#060"/><path d="M233.17,57h2v6.41v0c.834616-1.383843,2.392155-2.162613,4-2c3.82,0,5.72,3,5.72,6.53s-1.88,6.46-5.67,6.46c-1.583002.040175-3.082339-.709494-4-2v0v1.66h-2Zm5.75,6.24c-2.73,0-3.79,2.35-3.79,4.68s1.11,4.71,3.92,4.71s3.72-2.38,3.72-4.8-1.2-4.62-3.85-4.62Z" fill="#060"/><path d="M257.91,70.17c-.39484,2.579703-2.707317,4.421846-5.31,4.23-4,0-5.83-2.74-5.95-6.53s2.45-6.46,5.83-6.46c4.4,0,5.74,4.11,5.62,7.11h-9.29c-.126893,1.078799.231959,2.158227.979494,2.946326s1.806512,1.203436,2.890506,1.133674c1.53535.134832,2.92307-.915685,3.21-2.43Zm-2-3.45c-.100431-1.8956-1.666741-3.381122-3.565-3.381122s-3.464569,1.485522-3.565,3.381122Z" fill="#060"/><path d="M260.14,61.7h1.92v2.62h.05c.702298-1.877294,2.56155-3.06379,4.56-2.91v2.16c-3.29,0-4.49,1.88-4.49,5v5.52h-2Z" fill="#060"/><path d="M279.2,74.06c-.44833.249177-.957789.367012-1.47.34-1.05,0-1.72-.58-1.72-1.92-1.090365,1.269268-2.697617,1.975429-4.37,1.92-2.26,0-4.11-1-4.11-3.48c0-2.81,2.09-3.41,4.2-3.82s4.18-.29,4.18-1.82c0-1.78-1.47-2.07-2.76-2.07-1.73,0-3,.53-3.1,2.35h-2c.12-3.07,2.5-4.15,5.26-4.15c2.23,0,4.65.51,4.65,3.41v6.39c0,1,0,1.39.65,1.39.215203-.004772.428112-.045326.63-.12Zm-3.32-6.36c-.79.58-2.32.6-3.69.84s-2.5.72-2.5,2.23c0,1.35,1.15,1.83,2.4,1.83c2.69,0,3.79-1.68,3.79-2.81Z" fill="#060"/><path d="M282.34,70.2c.07,1.82,1.66,2.4,3.34,2.4c1.27,0,3-.29,3-1.85s-2-1.85-4.06-2.3-4.06-1.13-4.06-3.51s2.48-3.53,4.64-3.53c2.73,0,4.92.87,5.08,3.89h-2c-.14-1.58-1.53-2.09-2.88-2.09s-2.64.34-2.64,1.59c0,1.46,2.16,1.7,4.06,2.16s4.06,1.13,4.06,3.53c0,3-2.76,3.91-5.28,3.91-2.79,0-5.14-1.13-5.26-4.2Z" fill="#060"/><path d="M304.09,74.06c-.448718.248167-.957884.365933-1.47.34-1.06,0-1.73-.58-1.73-1.92-1.089476,1.270468-2.697335,1.976896-4.37,1.92-2.25,0-4.1-1-4.1-3.48c0-2.81,2.09-3.41,4.2-3.82s4.18-.29,4.18-1.82c0-1.78-1.47-2.07-2.76-2.07-1.73,0-3,.53-3.1,2.35h-2c.12-3.07,2.5-4.15,5.26-4.15c2.23,0,4.65.51,4.65,3.41v6.39c0,1,0,1.39.65,1.39.215203-.004772.428112-.045326.63-.12Zm-3.32-6.36c-.79.58-2.33.6-3.69.84s-2.5.72-2.5,2.23c0,1.35,1.15,1.83,2.4,1.83c2.69,0,3.79-1.68,3.79-2.81Z" fill="#060"/><path d="M306.1,57h2v17.11h-2Z" fill="#060"/><path d="M329.07,74.11h-2v-1.68v0c-.834616,1.383843-2.392155,2.162613-4,2-3.82,0-5.71-3-5.71-6.53s1.87-6.46,5.66-6.46c1.583399-.041961,3.08353.708104,4,2v0-6.44h2Zm-5.76-1.51c2.73,0,3.79-2.35,3.79-4.68s-1.1-4.71-3.91-4.71-3.72,2.38-3.72,4.8s1.2,4.59,3.84,4.59Z" fill="#060"/><path d="M343.2,74.06c-.444618.249387-.950948.367299-1.46.34-1.06,0-1.73-.58-1.73-1.92-1.089476,1.270468-2.697335,1.976896-4.37,1.92-2.25,0-4.1-1-4.1-3.48c0-2.81,2.09-3.41,4.2-3.82s4.18-.29,4.18-1.82c0-1.78-1.47-2.07-2.76-2.07-1.73,0-3,.53-3.1,2.35h-2c.12-3.07,2.5-4.15,5.26-4.15c2.23,0,4.65.51,4.65,3.41v6.39c0,1,0,1.39.65,1.39.212017-.00417.421738-.044762.62-.12Zm-3.31-6.36c-.79.58-2.33.6-3.69.84s-2.5.72-2.5,2.23c0,1.35,1.15,1.83,2.4,1.83c2.69,0,3.79-1.68,3.79-2.81Z" fill="#060"/><path d="M345,61.7h2v2.62v0c.702298-1.877294,2.56155-3.06379,4.56-2.91v2.16c-3.29,0-4.49,1.88-4.49,5v5.52h-2Z" fill="#060"/><path d="M355.25,59.47h-2v-2.47h2Zm-2,2.23h2v12.41h-2Z" fill="#060"/><path d="M50.34,100.2c.07,1.82,1.65,2.4,3.33,2.4c1.28,0,3-.29,3-1.85s-2-1.85-4.05-2.3-4.06-1.13-4.06-3.51s2.47-3.53,4.63-3.53c2.74,0,4.92.87,5.09,3.89h-2c-.14-1.58-1.53-2.09-2.88-2.09s-2.64.34-2.64,1.59c0,1.46,2.16,1.7,4.06,2.16s4.06,1.13,4.06,3.53c0,3-2.77,3.91-5.29,3.91-2.78,0-5.13-1.13-5.25-4.2Z" fill="#060"/><path d="M71.36,104.11h-1.92v-2v0c-.785414,1.462189-2.342236,2.341793-4,2.26-3.26,0-4.27-1.87-4.27-4.54v-8.13h2v8.4c-.0488.680387.20172,1.348196.68598,1.828613s1.154044.725607,1.83402.671387c2.47,0,3.67-1.66,3.67-3.89v-7h2Z" fill="#060"/><path d="M74.43,91.7h1.92v1.82h.05c.868898-1.358474,2.388186-2.159898,4-2.11c1.48266-.147117,2.879999.717512,3.41,2.11.849616-1.323251,2.317501-2.119457,3.89-2.11c2.47,0,4.13,1,4.13,3.6v9.1h-2v-8.11c0-1.53-.41-2.76-2.41-2.76-.866786-.071144-1.721787.237368-2.343438.845587s-.94876,1.45628-.896562,2.324413v7.73h-2v-8.14c0-1.6-.5-2.76-2.32-2.76-1.768483.01823-3.220085,1.404248-3.32,3.17v7.73h-2Z" fill="#060"/><path d="M95,87h2v6.41v0c.832881-1.385721,2.391695-2.165128,4-2c3.81,0,5.71,3,5.71,6.53s-1.87,6.46-5.67,6.46c-1.584196.045561-3.085931-.705306-4-2v0v1.66h-2.04Zm5.76,6.24C98,93.21,97,95.56,97,97.89s1.1,4.71,3.91,4.71s3.72-2.38,3.72-4.8-1.25-4.59-3.89-4.59Z" fill="#060"/><path d="M119.72,100.17c-.394595,2.575602-2.701022,4.416391-5.3,4.23-4,0-5.83-2.74-6-6.53s2.45-6.46,5.84-6.46c4.39,0,5.73,4.11,5.61,7.11h-9.28c-.130169,1.077758.226159,2.157529.972232,2.946124s1.804456,1.204167,2.887768,1.133876c1.539004.140258,2.932755-.911548,3.22-2.43Zm-2-3.45c-.032747-1.948186-1.621539-3.510275-3.57-3.51-.936219-.005319-1.836204.361498-2.501961,1.019754s-1.04275,1.554027-1.048039,2.490246Z" fill="#060"/><path d="M122,91.7h1.92v2.62v0c.702298-1.877294,2.56155-3.06379,4.56-2.91v2.16c-3.29,0-4.49,1.88-4.49,5v5.52h-2Z" fill="#060"/><path d="M128.36,96.48h6.94v1.92h-6.94Z" fill="#060"/><path d="M139.28,100.2c.07,1.82,1.66,2.4,3.34,2.4c1.27,0,3-.29,3-1.85s-2-1.85-4.06-2.3-4.06-1.13-4.06-3.51s2.48-3.53,4.64-3.53c2.73,0,4.92.87,5.08,3.89h-2c-.14-1.58-1.53-2.09-2.88-2.09s-2.64.34-2.64,1.59c0,1.46,2.16,1.7,4.06,2.16s4.06,1.13,4.06,3.53c0,3-2.76,3.91-5.28,3.91-2.79,0-5.14-1.13-5.26-4.2Z" fill="#060"/><path d="M160.3,104.11h-1.92v-2v0c-.790802,1.456903-2.343983,2.33445-4,2.26-3.26,0-4.27-1.87-4.27-4.54v-8.13h2v8.4c-.0488.680387.20172,1.348196.68598,1.828613s1.154044.725607,1.83402.671387c2.47,0,3.67-1.66,3.67-3.89v-7h2Z" fill="#060"/><path d="M163.38,91.7h1.92v1.82v0c.870293-1.356956,2.388651-2.15789,4-2.11c1.483484-.150686,2.882825.715181,3.41,2.11.850936-1.321829,2.317974-2.117574,3.89-2.11c2.47,0,4.13,1,4.13,3.6v9.1h-2v-8.11c0-1.53-.41-2.76-2.4-2.76-.866786-.071144-1.721787.237368-2.343438.845587s-.94876,1.45628-.896562,2.324413v7.73h-2v-8.14c0-1.6-.51-2.76-2.33-2.76-1.766613.018548-3.21517,1.405837-3.31,3.17v7.73h-2Z" fill="#060"/><path d="M183.92,87h2v6.41v0c.832881-1.385721,2.391695-2.165128,4-2c3.82,0,5.71,3,5.71,6.53s-1.87,6.46-5.66,6.46c-1.583399.041961-3.08353-.708104-4-2v0v1.66h-2Zm5.76,6.24c-2.73,0-3.79,2.35-3.79,4.68s1.1,4.71,3.91,4.71s3.72-2.38,3.72-4.8-1.2-4.62-3.84-4.62Z" fill="#060"/><path d="M208.66,100.17c-.394595,2.575602-2.701022,4.416391-5.3,4.23-4,0-5.83-2.74-6-6.53s2.45-6.46,5.83-6.46c4.39,0,5.74,4.11,5.62,7.11h-9.29c-.130169,1.077758.226159,2.157529.972232,2.946124s1.804456,1.204167,2.887768,1.133876c1.539004.140258,2.932755-.911548,3.22-2.43Zm-2-3.45c-.032804-1.952084-1.627649-3.515744-3.58-3.51-.936219-.005319-1.836204.361498-2.501961,1.019754s-1.04275,1.554027-1.048039,2.490246Z" fill="#060"/><path d="M210.9,91.7h1.92v2.62v0c.707749-1.872875,2.563262-3.056984,4.56-2.91v2.16c-3.28,0-4.48,1.88-4.48,5v5.52h-2Z" fill="#060"/><path d="M228.46,91.7h2.48v1.8h-2.48v7.71c0,.93.27,1.1,1.54,1.1h.94v1.8h-1.56c-2.12,0-3-.43-3-2.71v-7.9h-2.11v-1.8h2.11v-3.7h2Z" fill="#060"/><path d="M235.35,89.47h-2v-2.47h2Zm-2,2.23h2v12.41h-2Z" fill="#060"/><path d="M249.61,104.11h-2v-1.68v0c-.834616,1.383843-2.392155,2.162613-4,2-3.82,0-5.71-3-5.71-6.53s1.87-6.46,5.66-6.46c1.583399-.041961,3.08353.708104,4,2v0-6.44h2Zm-5.76-1.51c2.73,0,3.79-2.35,3.79-4.68s-1.1-4.71-3.91-4.71-3.73,2.38-3.73,4.79s1.21,4.6,3.85,4.6Z" fill="#060"/><path d="M263.74,104.06c-.444618.249387-.950948.367299-1.46.34-1.06,0-1.73-.58-1.73-1.92-1.089476,1.270468-2.697335,1.976896-4.37,1.92-2.25,0-4.1-1-4.1-3.48c0-2.81,2.09-3.41,4.2-3.82c2.26-.43,4.18-.29,4.18-1.82c0-1.78-1.47-2.07-2.76-2.07-1.73,0-3,.53-3.1,2.35h-2c.12-3.07,2.49-4.15,5.26-4.15c2.23,0,4.65.51,4.65,3.41v6.39c0,1,0,1.39.65,1.39.212017-.00417.421738-.044762.62-.12Zm-3.31-6.36c-.79.58-2.33.6-3.69.84s-2.5.72-2.5,2.23c0,1.35,1.15,1.83,2.4,1.83c2.69,0,3.79-1.68,3.79-2.81Z" fill="#060"/><path d="M265.76,87h2v10.13l5.66-5.43h2.74l-4.92,4.51l5.28,7.9h-2.52l-4.25-6.48-1.92,1.78v4.7h-2Z" fill="#060"/><path d="M287.6,91.7h2.47v1.8h-2.47v7.71c0,.93.26,1.1,1.53,1.1h.94v1.8h-1.56c-2.11,0-2.95-.43-2.95-2.71v-7.9h-2.11v-1.8h2.11v-3.7h2Z" fill="#060"/><path d="M302.91,100.17c-.394595,2.575602-2.701022,4.416391-5.3,4.23-4,0-5.84-2.74-6-6.53s2.45-6.46,5.84-6.46c4.39,0,5.73,4.11,5.61,7.11h-9.29c-.126893,1.078799.231959,2.158227.979494,2.946326s1.806512,1.203436,2.890506,1.133674c1.53535.134832,2.92307-.915685,3.21-2.43Zm-2-3.45c-.100431-1.8956-1.666741-3.381122-3.565-3.381122s-3.464569,1.485522-3.565,3.381122Z" fill="#060"/><path d="M305.14,91.7h1.92v2.62h.05c.702298-1.877294,2.56155-3.06379,4.56-2.91v2.16c-3.29,0-4.49,1.88-4.49,5v5.52h-2Z" fill="#060"/><path d="M313.28,87h2v6.41h.05c.832881-1.385721,2.391695-2.165128,4-2c3.81,0,5.71,3,5.71,6.53s-1.87,6.46-5.66,6.46c-1.584196.045561-3.085931-.705306-4-2h-.05v1.66h-2ZM319,93.21c-2.74,0-3.79,2.35-3.79,4.68s1.1,4.71,3.91,4.71s3.72-2.38,3.72-4.8-1.16-4.59-3.84-4.59Z" fill="#060"/><path d="M338.43,104.06c-.445212.247851-.951093.365659-1.46.34-1.06,0-1.73-.58-1.73-1.92-1.089476,1.270468-2.697335,1.976896-4.37,1.92-2.26,0-4.11-1-4.11-3.48c0-2.81,2.09-3.41,4.2-3.82c2.26-.43,4.18-.29,4.18-1.82c0-1.78-1.46-2.07-2.76-2.07-1.73,0-3,.53-3.09,2.35h-2.05c.12-3.07,2.5-4.15,5.26-4.15c2.23,0,4.66.51,4.66,3.41v6.39c0,1,0,1.39.65,1.39.211934-.004946.421526-.045512.62-.12Zm-3.31-6.36c-.79.58-2.33.6-3.7.84s-2.5.72-2.5,2.23c0,1.35,1.16,1.83,2.41,1.83c2.68,0,3.79-1.68,3.79-2.81Z" fill="#060"/><path d="M340.25,91.7h1.92v2.62h.05c.705034-1.875078,2.562407-3.060376,4.56-2.91v2.16c-3.29,0-4.49,1.88-4.49,5v5.52h-2Z" fill="#060"/><path d="M358.59,104.11h-1.92v-2h-.05c-.785414,1.462189-2.342236,2.341793-4,2.26-3.26,0-4.27-1.87-4.27-4.54v-8.13h2v8.4c-.0488.680387.20172,1.348196.68598,1.828613s1.154044.725607,1.83402.671387c2.47,0,3.67-1.66,3.67-3.89v-7h2Z" fill="#060"/><path d="M361.78,87h2v10.13l5.67-5.43h2.73l-4.92,4.51l5.28,7.9h-2.54l-4.25-6.48-1.92,1.78v4.7h-2Z" fill="#060"/><path d="M385.11,104.06c-.445212.247851-.951093.365659-1.46.34-1.06,0-1.73-.58-1.73-1.92-1.089476,1.270468-2.697335,1.976896-4.37,1.92-2.26,0-4.11-1-4.11-3.48c0-2.81,2.09-3.41,4.2-3.82s4.18-.29,4.18-1.82c0-1.78-1.46-2.07-2.76-2.07-1.73,0-3,.53-3.1,2.35h-2c.12-3.07,2.5-4.15,5.26-4.15c2.23,0,4.66.51,4.66,3.41v6.39c0,1,0,1.39.65,1.39.211834-.005869.421275-.046406.62-.12ZM381.8,97.7c-.79.58-2.33.6-3.7.84s-2.5.72-2.5,2.23c0,1.35,1.16,1.83,2.41,1.83c2.68,0,3.79-1.68,3.79-2.81Z" fill="#060"/><path d="M387,91.7h1.91v2h.09c.790802-1.456903,2.343983-2.33445,4-2.26c3.26,0,4.27,1.88,4.27,4.54v8.16h-2v-8.4c.0488-.680387-.20172-1.348196-.68598-1.828613s-1.154044-.725607-1.83402-.671387c-2.47,0-3.67,1.66-3.67,3.89v7h-2Z" fill="#060"/></g><script><![CDATA[!function(t,n){"object"==typeof exports&&"undefined"!=typeof module?module.exports=n():"function"==typeof define&&define.amd?define(n):((t="undefined"!=typeof globalThis?globalThis:t||self).__SVGATOR_PLAYER__=t.__SVGATOR_PLAYER__||{},t.__SVGATOR_PLAYER__["91c80d77"]=n())}(this,(function(){"use strict";function t(t,n){var r=Object.keys(t);if(Object.getOwnPropertySymbols){var e=Object.getOwnPropertySymbols(t);n&&(e=e.filter((function(n){return Object.getOwnPropertyDescriptor(t,n).enumerable}))),r.push.apply(r,e)}return r}function n(n){for(var r=1;r<arguments.length;r++){var e=null!=arguments[r]?arguments[r]:{};r%2?t(Object(e),!0).forEach((function(t){o(n,t,e[t])})):Object.getOwnPropertyDescriptors?Object.defineProperties(n,Object.getOwnPropertyDescriptors(e)):t(Object(e)).forEach((function(t){Object.defineProperty(n,t,Object.getOwnPropertyDescriptor(e,t))}))}return n}function r(t){return(r="function"==typeof Symbol&&"symbol"==typeof Symbol.iterator?function(t){return typeof t}:function(t){return t&&"function"==typeof Symbol&&t.constructor===Symbol&&t!==Symbol.prototype?"symbol":typeof t})(t)}function e(t,n){if(!(t instanceof n))throw new TypeError("Cannot call a class as a function")}function i(t,n){for(var r=0;r<n.length;r++){var e=n[r];e.enumerable=e.enumerable||!1,e.configurable=!0,"value"in e&&(e.writable=!0),Object.defineProperty(t,e.key,e)}}function u(t,n,r){return n&&i(t.prototype,n),r&&i(t,r),t}function o(t,n,r){return n in t?Object.defineProperty(t,n,{value:r,enumerable:!0,configurable:!0,writable:!0}):t[n]=r,t}function a(t){return(a=Object.setPrototypeOf?Object.getPrototypeOf:function(t){return t.__proto__||Object.getPrototypeOf(t)})(t)}function l(t,n){return(l=Object.setPrototypeOf||function(t,n){return t.__proto__=n,t})(t,n)}function s(){if("undefined"==typeof Reflect||!Reflect.construct)return!1;if(Reflect.construct.sham)return!1;if("function"==typeof Proxy)return!0;try{return Boolean.prototype.valueOf.call(Reflect.construct(Boolean,[],(function(){}))),!0}catch(t){return!1}}function f(t,n,r){return(f=s()?Reflect.construct:function(t,n,r){var e=[null];e.push.apply(e,n);var i=new(Function.bind.apply(t,e));return r&&l(i,r.prototype),i}).apply(null,arguments)}function c(t,n){if(n&&("object"==typeof n||"function"==typeof n))return n;if(void 0!==n)throw new TypeError("Derived constructors may only return object or undefined");return function(t){if(void 0===t)throw new ReferenceError("this hasn't been initialised - super() hasn't been called");return t}(t)}function h(t,n,r){return(h="undefined"!=typeof Reflect&&Reflect.get?Reflect.get:function(t,n,r){var e=function(t,n){for(;!Object.prototype.hasOwnProperty.call(t,n)&&null!==(t=a(t)););return t}(t,n);if(e){var i=Object.getOwnPropertyDescriptor(e,n);return i.get?i.get.call(r):i.value}})(t,n,r||t)}function v(t){return function(t){if(Array.isArray(t))return d(t)}(t)||function(t){if("undefined"!=typeof Symbol&&null!=t[Symbol.iterator]||null!=t["@@iterator"])return Array.from(t)}(t)||function(t,n){if(!t)return;if("string"==typeof t)return d(t,n);var r=Object.prototype.toString.call(t).slice(8,-1);"Object"===r&&t.constructor&&(r=t.constructor.name);if("Map"===r||"Set"===r)return Array.from(t);if("Arguments"===r||/^(?:Ui|I)nt(?:8|16|32)(?:Clamped)?Array$/.test(r))return d(t,n)}(t)||function(){throw new TypeError("Invalid attempt to spread non-iterable instance.\nIn order to be iterable, non-array objects must have a [Symbol.iterator]() method.")}()}function d(t,n){(null==n||n>t.length)&&(n=t.length);for(var r=0,e=new Array(n);r<n;r++)e[r]=t[r];return e}var y=g(Math.pow(10,-6));function g(t){var n=arguments.length>1&&void 0!==arguments[1]?arguments[1]:6;if(Number.isInteger(t))return t;var r=Math.pow(10,n);return Math.round((+t+Number.EPSILON)*r)/r}function p(t,n){var r=arguments.length>2&&void 0!==arguments[2]?arguments[2]:y;return Math.abs(t-n)<r}var m=Math.PI/180;function b(t){return t}function w(t,n,r){var e=1-r;return 3*r*e*(t*e+n*r)+r*r*r}function A(){var t=arguments.length>0&&void 0!==arguments[0]?arguments[0]:0,n=arguments.length>1&&void 0!==arguments[1]?arguments[1]:0,r=arguments.length>2&&void 0!==arguments[2]?arguments[2]:1,e=arguments.length>3&&void 0!==arguments[3]?arguments[3]:1;return t<0||t>1||r<0||r>1?null:p(t,n)&&p(r,e)?b:function(i){if(i<=0)return t>0?i*n/t:0===n&&r>0?i*e/r:0;if(i>=1)return r<1?1+(i-1)*(e-1)/(r-1):1===r&&t<1?1+(i-1)*(n-1)/(t-1):1;for(var u,o=0,a=1;o<a;){var l=w(t,r,u=(o+a)/2);if(p(i,l))break;l<i?o=u:a=u}return w(n,e,u)}}function x(){return 1}function k(t){return 1===t?1:0}function _(){var t=arguments.length>0&&void 0!==arguments[0]?arguments[0]:1,n=arguments.length>1&&void 0!==arguments[1]?arguments[1]:0;if(1===t){if(0===n)return k;if(1===n)return x}var r=1/t;return function(t){return t>=1?1:(t+=n*r)-t%r}}var S=Math.sin,O=Math.cos,M=Math.acos,E=Math.asin,j=Math.tan,P=Math.atan2,I=Math.PI/180,B=180/Math.PI,R=Math.sqrt,T=function(){function t(){var n=arguments.length>0&&void 0!==arguments[0]?arguments[0]:1,r=arguments.length>1&&void 0!==arguments[1]?arguments[1]:0,i=arguments.length>2&&void 0!==arguments[2]?arguments[2]:0,u=arguments.length>3&&void 0!==arguments[3]?arguments[3]:1,o=arguments.length>4&&void 0!==arguments[4]?arguments[4]:0,a=arguments.length>5&&void 0!==arguments[5]?arguments[5]:0;e(this,t),this.m=[n,r,i,u,o,a],this.i=null,this.w=null,this.s=null}return u(t,[{key:"determinant",get:function(){var t=this.m;return t[0]*t[3]-t[1]*t[2]}},{key:"isIdentity",get:function(){if(null===this.i){var t=this.m;this.i=1===t[0]&&0===t[1]&&0===t[2]&&1===t[3]&&0===t[4]&&0===t[5]}return this.i}},{key:"point",value:function(t,n){var r=this.m;return{x:r[0]*t+r[2]*n+r[4],y:r[1]*t+r[3]*n+r[5]}}},{key:"translateSelf",value:function(){var t=arguments.length>0&&void 0!==arguments[0]?arguments[0]:0,n=arguments.length>1&&void 0!==arguments[1]?arguments[1]:0;if(!t&&!n)return this;var r=this.m;return r[4]+=r[0]*t+r[2]*n,r[5]+=r[1]*t+r[3]*n,this.w=this.s=this.i=null,this}},{key:"rotateSelf",value:function(){var t=arguments.length>0&&void 0!==arguments[0]?arguments[0]:0;if(t%=360){var n=S(t*=I),r=O(t),e=this.m,i=e[0],u=e[1];e[0]=i*r+e[2]*n,e[1]=u*r+e[3]*n,e[2]=e[2]*r-i*n,e[3]=e[3]*r-u*n,this.w=this.s=this.i=null}return this}},{key:"scaleSelf",value:function(){var t=arguments.length>0&&void 0!==arguments[0]?arguments[0]:1,n=arguments.length>1&&void 0!==arguments[1]?arguments[1]:1;if(1!==t||1!==n){var r=this.m;r[0]*=t,r[1]*=t,r[2]*=n,r[3]*=n,this.w=this.s=this.i=null}return this}},{key:"skewSelf",value:function(t,n){if(n%=360,(t%=360)||n){var r=this.m,e=r[0],i=r[1],u=r[2],o=r[3];t&&(t=j(t*I),r[2]+=e*t,r[3]+=i*t),n&&(n=j(n*I),r[0]+=u*n,r[1]+=o*n),this.w=this.s=this.i=null}return this}},{key:"resetSelf",value:function(){var t=arguments.length>0&&void 0!==arguments[0]?arguments[0]:1,n=arguments.length>1&&void 0!==arguments[1]?arguments[1]:0,r=arguments.length>2&&void 0!==arguments[2]?arguments[2]:0,e=arguments.length>3&&void 0!==arguments[3]?arguments[3]:1,i=arguments.length>4&&void 0!==arguments[4]?arguments[4]:0,u=arguments.length>5&&void 0!==arguments[5]?arguments[5]:0,o=this.m;return o[0]=t,o[1]=n,o[2]=r,o[3]=e,o[4]=i,o[5]=u,this.w=this.s=this.i=null,this}},{key:"recomposeSelf",value:function(){var t=arguments.length>0&&void 0!==arguments[0]?arguments[0]:null,n=arguments.length>1&&void 0!==arguments[1]?arguments[1]:null,r=arguments.length>2&&void 0!==arguments[2]?arguments[2]:null,e=arguments.length>3&&void 0!==arguments[3]?arguments[3]:null,i=arguments.length>4&&void 0!==arguments[4]?arguments[4]:null;return this.isIdentity||this.resetSelf(),t&&(t.x||t.y)&&this.translateSelf(t.x,t.y),n&&this.rotateSelf(n),r&&(r.x&&this.skewSelf(r.x,0),r.y&&this.skewSelf(0,r.y)),!e||1===e.x&&1===e.y||this.scaleSelf(e.x,e.y),i&&(i.x||i.y)&&this.translateSelf(i.x,i.y),this}},{key:"decompose",value:function(){var t=arguments.length>0&&void 0!==arguments[0]?arguments[0]:0,n=arguments.length>1&&void 0!==arguments[1]?arguments[1]:0,r=this.m,e=r[0]*r[0]+r[1]*r[1],i=[[r[0],r[1]],[r[2],r[3]]],u=R(e);if(0===u)return{origin:{x:g(r[4]),y:g(r[5])},translate:{x:g(t),y:g(n)},scale:{x:0,y:0},skew:{x:0,y:0},rotate:0};i[0][0]/=u,i[0][1]/=u;var o=r[0]*r[3]-r[1]*r[2]<0;o&&(u=-u);var a=i[0][0]*i[1][0]+i[0][1]*i[1][1];i[1][0]-=i[0][0]*a,i[1][1]-=i[0][1]*a;var l=R(i[1][0]*i[1][0]+i[1][1]*i[1][1]);if(0===l)return{origin:{x:g(r[4]),y:g(r[5])},translate:{x:g(t),y:g(n)},scale:{x:g(u),y:0},skew:{x:0,y:0},rotate:0};i[1][0]/=l,i[1][1]/=l,a/=l;var s=0;return i[1][1]<0?(s=M(i[1][1])*B,i[0][1]<0&&(s=360-s)):s=E(i[0][1])*B,o&&(s=-s),a=P(a,R(i[0][0]*i[0][0]+i[0][1]*i[0][1]))*B,o&&(a=-a),{origin:{x:g(r[4]),y:g(r[5])},translate:{x:g(t),y:g(n)},scale:{x:g(u),y:g(l)},skew:{x:g(a),y:0},rotate:g(s)}}},{key:"clone",value:function(){var t=this.m;return new this.constructor(t[0],t[1],t[2],t[3],t[4],t[5])}},{key:"toString",value:function(){var t=arguments.length>0&&void 0!==arguments[0]?arguments[0]:" ";if(null===this.s){var n=this.m.map((function(t){return g(t)}));1===n[0]&&0===n[1]&&0===n[2]&&1===n[3]?this.s="translate("+n[4]+t+n[5]+")":this.s="matrix("+n.join(t)+")"}return this.s}}],[{key:"create",value:function(t){return t?Array.isArray(t)?f(this,v(t)):t instanceof this?t.clone():(new this).recomposeSelf(t.origin,t.rotate,t.skew,t.scale,t.translate):new this}}]),t}();function N(t,n,r){return t>=.5?r:n}function C(t,n,r){return 0===t||n===r?n:t*(r-n)+n}function F(t,n,r){var e=C(t,n,r);return e<=0?0:e}function L(t,n,r){var e=C(t,n,r);return e<=0?0:e>=1?1:e}function q(t,n,r){return 0===t?n:1===t?r:{x:C(t,n.x,r.x),y:C(t,n.y,r.y)}}function V(t,n,r){return 0===t?n:1===t?r:{x:F(t,n.x,r.x),y:F(t,n.y,r.y)}}function D(t,n,r){var e=function(t,n,r){return Math.round(C(t,n,r))}(t,n,r);return e<=0?0:e>=255?255:e}function z(t,n,r){return 0===t?n:1===t?r:{r:D(t,n.r,r.r),g:D(t,n.g,r.g),b:D(t,n.b,r.b),a:C(t,null==n.a?1:n.a,null==r.a?1:r.a)}}function Y(t,n,r){var e=n.length;if(e!==r.length)return N(t,n,r);for(var i=new Array(e),u=0;u<e;u++)i[u]=C(t,n[u],r[u]);return i}function G(t,n){for(var r=[],e=0;e<t;e++)r.push(n);return r}function U(t,n){if(--n<=0)return t;var r=(t=Object.assign([],t)).length;do{for(var e=0;e<r;e++)t.push(t[e])}while(--n>0);return t}var $,W=function(){function t(n){e(this,t),this.list=n,this.length=n.length}return u(t,[{key:"setAttribute",value:function(t,n){for(var r=this.list,e=0;e<this.length;e++)r[e].setAttribute(t,n)}},{key:"removeAttribute",value:function(t){for(var n=this.list,r=0;r<this.length;r++)n[r].removeAttribute(t)}},{key:"style",value:function(t,n){for(var r=this.list,e=0;e<this.length;e++)r[e].style[t]=n}}]),t}(),H=/-./g,Q=function(t,n){return n.toUpperCase()};function X(t){return"function"==typeof t?t:N}function J(t){return t?"function"==typeof t?t:Array.isArray(t)?function(t){var n=arguments.length>1&&void 0!==arguments[1]?arguments[1]:b;if(!Array.isArray(t))return n;switch(t.length){case 1:return _(t[0])||n;case 2:return _(t[0],t[1])||n;case 4:return A(t[0],t[1],t[2],t[3])||n}return n}(t,null):function(t,n){var r=arguments.length>2&&void 0!==arguments[2]?arguments[2]:b;switch(t){case"linear":return b;case"steps":return _(n.steps||1,n.jump||0)||r;case"bezier":case"cubic-bezier":return A(n.x1||0,n.y1||0,n.x2||0,n.y2||0)||r}return r}(t.type,t.value,null):null}function Z(t,n,r){var e=arguments.length>3&&void 0!==arguments[3]&&arguments[3],i=n.length-1;if(t<=n[0].t)return e?[0,0,n[0].v]:n[0].v;if(t>=n[i].t)return e?[i,1,n[i].v]:n[i].v;var u,o=n[0],a=null;for(u=1;u<=i;u++){if(!(t>n[u].t)){a=n[u];break}o=n[u]}return null==a?e?[i,1,n[i].v]:n[i].v:o.t===a.t?e?[u,1,a.v]:a.v:(t=(t-o.t)/(a.t-o.t),o.e&&(t=o.e(t)),e?[u,t,r(t,o.v,a.v)]:r(t,o.v,a.v))}function K(t,n){var r=arguments.length>2&&void 0!==arguments[2]?arguments[2]:null;return t&&t.length?"function"!=typeof n?null:("function"!=typeof r&&(r=null),function(e){var i=Z(e,t,n);return null!=i&&r&&(i=r(i)),i}):null}function tt(t,n){return t.t-n.t}function nt(t,n,e,i,u){var o,a="@"===e[0],l="#"===e[0],s=$[e],f=N;switch(a?(o=e.substr(1),e=o.replace(H,Q)):l&&(e=e.substr(1)),r(s)){case"function":if(f=s(i,u,Z,J,e,a,n,t),l)return f;break;case"string":f=K(i,X(s));break;case"object":if((f=K(i,X(s.i),s.f))&&"function"==typeof s.u)return s.u(n,f,e,a,t)}return f?function(t,n,r){if(arguments.length>3&&void 0!==arguments[3]&&arguments[3])return t instanceof W?function(e){return t.style(n,r(e))}:function(e){return t.style[n]=r(e)};if(Array.isArray(n)){var e=n.length;return function(i){var u=r(i);if(null==u)for(var o=0;o<e;o++)t[o].removeAttribute(n);else for(var a=0;a<e;a++)t[a].setAttribute(n,u)}}return function(e){var i=r(e);null==i?t.removeAttribute(n):t.setAttribute(n,i)}}(n,e,f,a):null}function rt(t,n,e,i){if(!i||"object"!==r(i))return null;var u=null,o=null;return Array.isArray(i)?o=function(t){if(!t||!t.length)return null;for(var n=0;n<t.length;n++)t[n].e&&(t[n].e=J(t[n].e));return t.sort(tt)}(i):(o=i.keys,u=i.data||null),o?nt(t,n,e,o,u):null}function et(t,n,r){if(!r)return null;var e=[];for(var i in r)if(r.hasOwnProperty(i)){var u=rt(t,n,i,r[i]);u&&e.push(u)}return e.length?e:null}function it(t,n){if(!n.duration||n.duration<0)return null;var r=function(t,n){if(!n)return null;var r=[];if(Array.isArray(n))for(var e=n.length,i=0;i<e;i++){var u=n[i];if(2===u.length){var o=null;if("string"==typeof u[0])o=t.getElementById(u[0]);else if(Array.isArray(u[0])){o=[];for(var a=0;a<u[0].length;a++)if("string"==typeof u[0][a]){var l=t.getElementById(u[0][a]);l&&o.push(l)}o=o.length?1===o.length?o[0]:new W(o):null}if(o){var s=et(t,o,u[1]);s&&(r=r.concat(s))}}}else for(var f in n)if(n.hasOwnProperty(f)){var c=t.getElementById(f);if(c){var h=et(t,c,n[f]);h&&(r=r.concat(h))}}return r.length?r:null}(t,n.elements);return r?function(t,n){var r=arguments.length>2&&void 0!==arguments[2]?arguments[2]:1/0,e=arguments.length>3&&void 0!==arguments[3]?arguments[3]:1,i=arguments.length>4&&void 0!==arguments[4]&&arguments[4],u=arguments.length>5&&void 0!==arguments[5]?arguments[5]:1,o=t.length,a=e>0?n:0;i&&r%2==0&&(a=n-a);var l=null;return function(s,f){var c=s%n,h=1+(s-c)/n;f*=e,i&&h%2==0&&(f=-f);var v=!1;if(h>r)c=a,v=!0,-1===u&&(c=e>0?0:n);else if(f<0&&(c=n-c),c===l)return!1;l=c;for(var d=0;d<o;d++)t[d](c);return v}}(r,n.duration,n.iterations||1/0,n.direction||1,!!n.alternate,n.fill||1):null}function ut(t){return+("0x"+(t.replace(/[^0-9a-fA-F]+/g,"")||27))}function ot(t,n,r){return!t||!r||n>t.length?t:t.substring(0,n)+ot(t.substring(n+1),r,r)}function at(t){var n=arguments.length>1&&void 0!==arguments[1]?arguments[1]:27;return!t||t%n?t%n:at(t/n,n)}function lt(t,n,r){if(t&&t.length){var e=ut(r),i=ut(n),u=at(e)+5,o=ot(t,at(e,5),u);return o=o.replace(/\x7c$/g,"==").replace(/\x2f$/g,"="),o=function(t,n,r){var e=+("0x"+t.substring(0,4));t=t.substring(4);for(var i=n%e+r%27,u=[],o=0;o<t.length;o+=2)if("|"!==t[o]){var a=+("0x"+t[o]+t[o+1])-i;u.push(a)}else{var l=+("0x"+t.substring(o+1,o+1+4))-i;o+=3,u.push(l)}return String.fromCharCode.apply(String,u)}(o=(o=atob(o)).replace(/[\x41-\x5A]/g,""),i,e),o=JSON.parse(o)}}Number.isInteger||(Number.isInteger=function(t){return"number"==typeof t&&isFinite(t)&&Math.floor(t)===t}),Number.EPSILON||(Number.EPSILON=2220446049250313e-31);var st=function(){function t(n,r){var i=arguments.length>2&&void 0!==arguments[2]?arguments[2]:{};e(this,t),this._id=0,this._running=!1,this._rollingBack=!1,this._animations=n,this.duration=r.duration,this.alternate=r.alternate,this.fill=r.fill,this.iterations=r.iterations,this.direction=i.direction||1,this.speed=i.speed||1,this.fps=i.fps||100,this.offset=i.offset||0,this.rollbackStartOffset=0}return u(t,[{key:"_rollback",value:function(){var t=this,n=1/0,r=null;this.rollbackStartOffset=this.offset,this._rollingBack||(this._rollingBack=!0,this._running=!0);this._id=window.requestAnimationFrame((function e(i){if(t._rollingBack){null==r&&(r=i);var u=i-r,o=t.rollbackStartOffset-u,a=Math.round(o*t.speed);if(a>t.duration&&n!=1/0){var l=!!t.alternate&&a/t.duration%2>1,s=a%t.duration;a=(s+=l?t.duration:0)||t.duration}var f=t.fps?1e3/t.fps:0,c=Math.max(0,a);if(c<n-f){t.offset=c,n=c;for(var h=t._animations,v=h.length,d=0;d<v;d++)h[d](c,t.direction)}var y=!1;if(t.iterations>0&&-1===t.fill){var g=t.iterations*t.duration,p=g==a;a=p?0:a,t.offset=p?0:t.offset,y=a>g}a>0&&t.offset>=a&&!y?t._id=window.requestAnimationFrame(e):t.stop()}}))}},{key:"_start",value:function(){var t=this,n=arguments.length>0&&void 0!==arguments[0]?arguments[0]:0,r=-1/0,e=null,i={},u=function u(o){t._running=!0,null==e&&(e=o);var a=Math.round((o-e+n)*t.speed),l=t.fps?1e3/t.fps:0;if(a>r+l&&!t._rollingBack){t.offset=a,r=a;for(var s=t._animations,f=s.length,c=0,h=0;h<f;h++)i[h]?c++:(i[h]=s[h](a,t.direction),i[h]&&c++);if(c===f)return void t._stop()}t._id=window.requestAnimationFrame(u)};this._id=window.requestAnimationFrame(u)}},{key:"_stop",value:function(){this._id&&window.cancelAnimationFrame(this._id),this._running=!1,this._rollingBack=!1}},{key:"play",value:function(){!this._rollingBack&&this._running||(this._rollingBack=!1,this.rollbackStartOffset>this.duration&&(this.offset=this.rollbackStartOffset-(this.rollbackStartOffset-this.offset)%this.duration,this.rollbackStartOffset=0),this._start(this.offset))}},{key:"stop",value:function(){this._stop(),this.offset=0,this.rollbackStartOffset=0;var t=this.direction,n=this._animations;window.requestAnimationFrame((function(){for(var r=0;r<n.length;r++)n[r](0,t)}))}},{key:"reachedToEnd",value:function(){return this.iterations>0&&this.offset>=this.iterations*this.duration}},{key:"restart",value:function(){this._stop(),this.offset=0,this._start()}},{key:"pause",value:function(){this._stop()}},{key:"reverse",value:function(){this.direction=-this.direction}}],[{key:"build",value:function(r,e){return delete r.animationSettings,r.options=lt(r.options,r.root,"91c80d77"),r.animations.map((function(t){var e=lt(t.s,r.root,"91c80d77");for(var i in delete t.s,r.animationSettings||(r.animationSettings=n({},e)),e)e.hasOwnProperty(i)&&(t[i]=e[i])})),(r=function(t,n){if($=n,!t||!t.root||!Array.isArray(t.animations))return null;for(var r=document.getElementsByTagName("svg"),e=!1,i=0;i<r.length;i++)if(r[i].id===t.root&&!r[i].svgatorAnimation){(e=r[i]).svgatorAnimation=!0;break}if(!e)return null;var u=t.animations.map((function(t){return it(e,t)})).filter((function(t){return!!t}));return u.length?{element:e,animations:u,animationSettings:t.animationSettings,options:t.options||void 0}:null}(r,e))?{el:r.element,options:r.options||{},player:new t(r.animations,r.animationSettings,r.options)}:null}},{key:"push",value:function(t){return this.build(t)}},{key:"init",value:function(){var t=this,n=window.__SVGATOR_PLAYER__&&window.__SVGATOR_PLAYER__["91c80d77"];Array.isArray(n)&&n.splice(0).forEach((function(n){return t.build(n)}))}}]),t}();!function(){for(var t=0,n=["ms","moz","webkit","o"],r=0;r<n.length&&!window.requestAnimationFrame;++r)window.requestAnimationFrame=window[n[r]+"RequestAnimationFrame"],window.cancelAnimationFrame=window[n[r]+"CancelAnimationFrame"]||window[n[r]+"CancelRequestAnimationFrame"];window.requestAnimationFrame||(window.requestAnimationFrame=function(n){var r=Date.now(),e=Math.max(0,16-(r-t)),i=window.setTimeout((function(){n(r+e)}),e);return t=r+e,i},window.cancelAnimationFrame=window.clearTimeout)}();var ft=function(t,n){var r=!1,e=null;return function(i){r&&clearTimeout(r),r=setTimeout((function(){return function(){for(var i=0,u=window.innerHeight,o=0,a=window.innerWidth,l=t.parentNode;l instanceof Element;){var s=window.getComputedStyle(l);if("visible"!==s.overflowY||"visible"!==s.overflowX){var f=l.getBoundingClientRect();"visible"!==s.overflowY&&(i=Math.max(i,f.top),u=Math.min(u,f.bottom)),"visible"!==s.overflowX&&(o=Math.max(o,f.left),a=Math.min(a,f.right))}if(l===l.parentNode)break;l=l.parentNode}r=!1;var c=t.getBoundingClientRect(),h=Math.min(c.height,Math.max(0,i-c.top)),v=Math.min(c.height,Math.max(0,c.bottom-u)),d=Math.min(c.width,Math.max(0,o-c.left)),y=Math.min(c.width,Math.max(0,c.right-a)),g=(c.height-h-v)/c.height,p=(c.width-d-y)/c.width,m=Math.round(g*p*100);null!==e&&e===m||(e=m,n(m))}()}),100)}},ct=function(){function t(n,r,i){e(this,t),r=Math.max(1,r||1),r=Math.min(r,100),this.el=n,this.onTresholdChange=i&&i.call?i:function(){},this.tresholdPercent=r||1,this.currentVisibility=null,this.visibilityCalculator=ft(n,this.onVisibilityUpdate.bind(this)),this.bindScrollWatchers(),this.visibilityCalculator()}return u(t,[{key:"bindScrollWatchers",value:function(){for(var t=this.el.parentNode;t&&(t.addEventListener("scroll",this.visibilityCalculator),t!==t.parentNode&&t!==document);)t=t.parentNode}},{key:"onVisibilityUpdate",value:function(t){var n=this.currentVisibility>=this.tresholdPercent,r=t>=this.tresholdPercent;if(null===this.currentVisibility||n!==r)return this.currentVisibility=t,void this.onTresholdChange(r);this.currentVisibility=t}}]),t}();function ht(t){return g(t)+""}function vt(t){var n=arguments.length>1&&void 0!==arguments[1]?arguments[1]:" ";return t&&t.length?t.map(ht).join(n):""}function dt(t){return ht(t.x)+","+ht(t.y)}function yt(t){if(!t)return"transparent";if(null==t.a||t.a>=1){var n=function(t){return 1===(t=parseInt(t).toString(16)).length?"0"+t:t},r=function(t){return t.charAt(0)===t.charAt(1)},e=n(t.r),i=n(t.g),u=n(t.b);return r(e)&&r(i)&&r(u)&&(e=e.charAt(0),i=i.charAt(0),u=u.charAt(0)),"#"+e+i+u}return"rgba("+t.r+","+t.g+","+t.b+","+t.a+")"}function gt(t){return t?"url(#"+t+")":"none"}var pt={f:null,i:V,u:function(t,n){return function(r){var e=n(r);t.setAttribute("rx",ht(e.x)),t.setAttribute("ry",ht(e.y))}}},mt={f:null,i:function(t,n,r){return 0===t?n:1===t?r:{width:F(t,n.width,r.width),height:F(t,n.height,r.height)}},u:function(t,n){return function(r){var e=n(r);t.setAttribute("width",ht(e.width)),t.setAttribute("height",ht(e.height))}}};Object.freeze({M:2,L:2,Z:0,H:1,V:1,C:6,Q:4,T:2,S:4,A:7});var bt={},wt=null;function At(t){var n=function(){if(wt)return wt;if("object"!==("undefined"==typeof document?"undefined":r(document))||!document.createElementNS)return{};var t=document.createElementNS("http://www.w3.org/2000/svg","svg");return t&&t.style?(t.style.position="absolute",t.style.opacity="0.01",t.style.zIndex="-9999",t.style.left="-9999px",t.style.width="1px",t.style.height="1px",wt={svg:t}):{}}().svg;if(!n)return function(t){return null};var e=document.createElementNS(n.namespaceURI,"path");e.setAttributeNS(null,"d",t),e.setAttributeNS(null,"fill","none"),e.setAttributeNS(null,"stroke","none"),n.appendChild(e);var i=e.getTotalLength();return function(t){var n=e.getPointAtLength(i*t);return{x:n.x,y:n.y}}}function xt(t){return bt[t]?bt[t]:bt[t]=At(t)}function kt(t,n,r,e){if(!t||!e)return!1;var i=["M",t.x,t.y];if(n&&r&&(i.push("C"),i.push(n.x),i.push(n.y),i.push(r.x),i.push(r.y)),n?!r:r){var u=n||r;i.push("Q"),i.push(u.x),i.push(u.y)}return n||r||i.push("L"),i.push(e.x),i.push(e.y),i.join(" ")}function _t(t,n,r,e){var i=arguments.length>4&&void 0!==arguments[4]?arguments[4]:1,u=kt(t,n,r,e),o=xt(u);try{return o(i)}catch(t){return null}}function St(t,n,r){return t+(n-t)*r}function Ot(t,n,r){var e=arguments.length>3&&void 0!==arguments[3]&&arguments[3],i={x:St(t.x,n.x,r),y:St(t.y,n.y,r)};return e&&(i.a=Mt(t,n)),i}function Mt(t,n){return Math.atan2(n.y-t.y,n.x-t.x)}function Et(t,n,r,e){var i=1-e;return i*i*t+2*i*e*n+e*e*r}function jt(t,n,r,e){return 2*(1-e)*(n-t)+2*e*(r-n)}function Pt(t,n,r,e){var i=arguments.length>4&&void 0!==arguments[4]&&arguments[4],u=_t(t,n,null,r,e);return u||(u={x:Et(t.x,n.x,r.x,e),y:Et(t.y,n.y,r.y,e)}),i&&(u.a=It(t,n,r,e)),u}function It(t,n,r,e){return Math.atan2(jt(t.y,n.y,r.y,e),jt(t.x,n.x,r.x,e))}function Bt(t,n,r,e,i){var u=i*i;return i*u*(e-t+3*(n-r))+3*u*(t+r-2*n)+3*i*(n-t)+t}function Rt(t,n,r,e,i){var u=1-i;return 3*(u*u*(n-t)+2*u*i*(r-n)+i*i*(e-r))}function Tt(t,n,r,e,i){var u=arguments.length>5&&void 0!==arguments[5]&&arguments[5],o=_t(t,n,r,e,i);return o||(o={x:Bt(t.x,n.x,r.x,e.x,i),y:Bt(t.y,n.y,r.y,e.y,i)}),u&&(o.a=Nt(t,n,r,e,i)),o}function Nt(t,n,r,e,i){return Math.atan2(Rt(t.y,n.y,r.y,e.y,i),Rt(t.x,n.x,r.x,e.x,i))}function Ct(t,n,r){var e=arguments.length>3&&void 0!==arguments[3]&&arguments[3];if(Lt(n)){if(qt(r))return Pt(n,r.start,r,t,e)}else if(Lt(r)){if(n.end)return Pt(n,n.end,r,t,e)}else{if(n.end)return r.start?Tt(n,n.end,r.start,r,t,e):Pt(n,n.end,r,t,e);if(r.start)return Pt(n,r.start,r,t,e)}return Ot(n,r,t,e)}function Ft(t,n,r){var e=Ct(t,n,r,!0);return e.a=function(t){return arguments.length>1&&void 0!==arguments[1]&&arguments[1]?t+Math.PI:t}(e.a)/m,e}function Lt(t){return!t.type||"corner"===t.type}function qt(t){return null!=t.start&&!Lt(t)}var Vt=new T;var Dt={f:function(t){return t?t.join(" "):""},i:function(t,n,e){if(0===t)return n;if(1===t)return e;var i=n.length;if(i!==e.length)return N(t,n,e);for(var u,o=new Array(i),a=0;a<i;a++){if((u=r(n[a]))!==r(e[a]))return N(t,n,e);if("number"===u)o[a]=C(t,n[a],e[a]);else{if(n[a]!==e[a])return N(t,n,e);o[a]=n[a]}}return o}},zt={f:null,i:Y,u:function(t,n){return function(r){var e=n(r);t.setAttribute("x1",ht(e[0])),t.setAttribute("y1",ht(e[1])),t.setAttribute("x2",ht(e[2])),t.setAttribute("y2",ht(e[3]))}}},Yt={f:ht,i:C},Gt={f:ht,i:L},Ut={f:function(t){var n=arguments.length>1&&void 0!==arguments[1]?arguments[1]:" ";return t&&t.length>0&&(t=t.map((function(t){return g(t,4)}))),vt(t,n)},i:function(t,n,r){var e,i,u,o=n.length,a=r.length;if(o!==a)if(0===o)n=G(o=a,0);else if(0===a)a=o,r=G(o,0);else{var l=(u=(e=o)*(i=a)/function(t,n){for(var r;n;)r=n,n=t%n,t=r;return t||1}(e,i))<0?-u:u;n=U(n,Math.floor(l/o)),r=U(r,Math.floor(l/a)),o=a=l}for(var s=[],f=0;f<o;f++)s.push(g(F(t,n[f],r[f])));return s}};function $t(t,n,r){return t.map((function(t){return function(t,n,r){var e=t.v;if(!e||"g"!==e.t||e.s||!e.v||!e.r)return t;var i=r.getElementById(e.r),u=i&&i.querySelectorAll("stop")||[];return e.s=e.v.map((function(t,n){var r=u[n]&&u[n].getAttribute("offset");return{c:t,o:r=g(parseInt(r)/100)}})),delete e.v,t}(t,0,r)}))}var Wt={gt:"gradientTransform",c:{x:"cx",y:"cy"},rd:"r",f:{x:"x1",y:"y1"},to:{x:"x2",y:"y2"}};function Ht(t,n,e,i,u,o,a,l){return $t(t,0,l),n=function(t,n,r){for(var e,i,u,o=t.length-1,a={},l=0;l<=o;l++)(e=t[l]).e&&(e.e=n(e.e)),e.v&&"g"===(i=e.v).t&&i.r&&(u=r.getElementById(i.r))&&(a[i.r]={e:u,s:u.querySelectorAll("stop")});return a}(t,i,l),function(i){var u=e(i,t,Qt);if(!u)return"none";if("c"===u.t)return yt(u.v);if("g"===u.t){if(!n[u.r])return gt(u.r);var o=n[u.r];return function(t,n){for(var r=t.s,e=r.length;e<n.length;e++){var i=r[r.length-1].cloneNode();i.id=Zt(i.id),t.e.appendChild(i),r=t.s=t.e.querySelectorAll("stop")}for(var u=0,o=r.length,a=n.length-1;u<o;u++)r[u].setAttribute("stop-color",yt(n[Math.min(u,a)].c)),r[u].setAttribute("offset",n[Math.min(u,a)].o)}(o,u.s),Object.keys(Wt).forEach((function(t){if(void 0!==u[t])if("object"!==r(Wt[t])){var n,e="gt"===t?(n=u[t],Array.isArray(n)?"matrix("+n.join(" ")+")":""):u[t],i=Wt[t];o.e.setAttribute(i,e)}else Object.keys(Wt[t]).forEach((function(n){if(void 0!==u[t][n]){var r=u[t][n],e=Wt[t][n];o.e.setAttribute(e,r)}}))})),gt(u.r)}return"none"}}function Qt(t,r,e){if(0===t)return r;if(1===t)return e;if(r&&e){var i=r.t;if(i===e.t)switch(r.t){case"c":return{t:i,v:z(t,r.v,e.v)};case"g":if(r.r===e.r){var u={t:i,s:Xt(t,r.s,e.s),r:r.r};return r.gt&&e.gt&&(u.gt=Y(t,r.gt,e.gt)),r.c?(u.c=q(t,r.c,e.c),u.rd=F(t,r.rd,e.rd)):r.f&&(u.f=q(t,r.f,e.f),u.to=q(t,r.to,e.to)),u}}if("c"===r.t&&"g"===e.t||"c"===e.t&&"g"===r.t){var o="c"===r.t?r:e,a="g"===r.t?n({},r):n({},e),l=a.s.map((function(t){return{c:o.v,o:t.o}}));return a.s="c"===r.t?Xt(t,l,a.s):Xt(t,a.s,l),a}}return N(t,r,e)}function Xt(t,n,r){if(n.length===r.length)return n.map((function(n,e){return Jt(t,n,r[e])}));for(var e=Math.max(n.length,r.length),i=[],u=0;u<e;u++){var o=Jt(t,n[Math.min(u,n.length-1)],r[Math.min(u,r.length-1)]);i.push(o)}return i}function Jt(t,n,r){return{o:L(t,n.o,r.o||0),c:z(t,n.c,r.c||{})}}function Zt(t){return t.replace(/-fill-([0-9]+)$/,(function(t,n){return"-fill-"+(+n+1)}))}var Kt={blur:V,brightness:F,contrast:F,"drop-shadow":function(t,n,r){return 0===t?n:1===t?r:{blur:V(t,n.blur,r.blur),offset:q(t,n.offset,r.offset),color:z(t,n.color,r.color)}},grayscale:F,"hue-rotate":C,invert:F,opacity:F,saturate:F,sepia:F};function tn(t,n,r){if(0===t)return n;if(1===t)return r;var e=n.length;if(e!==r.length)return N(t,n,r);for(var i,u=[],o=0;o<e;o++){if(n[o].type!==r[o].type)return n;if(!(i=Kt[n[o].type]))return N(t,n,r);u.push({type:n.type,value:i(t,n[o].value,r[o].value)})}return u}var nn={blur:function(t){return t?function(n){t.setAttribute("stdDeviation",dt(n))}:null},brightness:function(t,n,r){return(t=en(r,n))?function(n){n=ht(n),t.map((function(t){return t.setAttribute("slope",n)}))}:null},contrast:function(t,n,r){return(t=en(r,n))?function(n){var r=ht((1-n)/2);n=ht(n),t.map((function(t){t.setAttribute("slope",n),t.setAttribute("intercept",r)}))}:null},"drop-shadow":function(t,n,r){var e=r.getElementById(n+"-blur");if(!e)return null;var i=r.getElementById(n+"-offset");if(!i)return null;var u=r.getElementById(n+"-flood");return u?function(t){e.setAttribute("stdDeviation",dt(t.blur)),i.setAttribute("dx",ht(t.offset.x)),i.setAttribute("dy",ht(t.offset.y)),u.setAttribute("flood-color",yt(t.color))}:null},grayscale:function(t){return t?function(n){t.setAttribute("values",vt(function(t){return[.2126+.7874*(t=1-t),.7152-.7152*t,.0722-.0722*t,0,0,.2126-.2126*t,.7152+.2848*t,.0722-.0722*t,0,0,.2126-.2126*t,.7152-.7152*t,.0722+.9278*t,0,0,0,0,0,1,0]}(n)))}:null},"hue-rotate":function(t){return t?function(n){return t.setAttribute("values",ht(n))}:null},invert:function(t,n,r){return(t=en(r,n))?function(n){n=ht(n)+" "+ht(1-n),t.map((function(t){return t.setAttribute("tableValues",n)}))}:null},opacity:function(t,n,r){return(t=r.getElementById(n+"-A"))?function(n){return t.setAttribute("tableValues","0 "+ht(n))}:null},saturate:function(t){return t?function(n){return t.setAttribute("values",ht(n))}:null},sepia:function(t){return t?function(n){return t.setAttribute("values",vt(function(t){return[.393+.607*(t=1-t),.769-.769*t,.189-.189*t,0,0,.349-.349*t,.686+.314*t,.168-.168*t,0,0,.272-.272*t,.534-.534*t,.131+.869*t,0,0,0,0,0,1,0]}(n)))}:null}};var rn=["R","G","B"];function en(t,n){var r=rn.map((function(r){return t.getElementById(n+"-"+r)||null}));return-1!==r.indexOf(null)?null:r}var un={fill:Ht,"fill-opacity":Gt,stroke:Ht,"stroke-opacity":Gt,"stroke-width":Yt,"stroke-dashoffset":{f:ht,i:C},"stroke-dasharray":Ut,opacity:Gt,transform:function(t,n,e,i){if(!(t=function(t,n){if(!t||"object"!==r(t))return null;var e=!1;for(var i in t)t.hasOwnProperty(i)&&(t[i]&&t[i].length?(t[i].forEach((function(t){t.e&&(t.e=n(t.e))})),e=!0):delete t[i]);return e?t:null}(t,i)))return null;var u=function(r,i,u){var o=arguments.length>3&&void 0!==arguments[3]?arguments[3]:null;return t[r]?e(i,t[r],u):n&&n[r]?n[r]:o};return n&&n.a&&t.o?function(n){var r=e(n,t.o,Ft);return Vt.recomposeSelf(r,u("r",n,C,0)+r.a,u("k",n,q),u("s",n,q),u("t",n,q)).toString()}:function(t){return Vt.recomposeSelf(u("o",t,Ct,null),u("r",t,C,0),u("k",t,q),u("s",t,q),u("t",t,q)).toString()}},"#filter":function(t,n,r,e,i,u,o,a){if(!n.items||!t||!t.length)return null;var l=function(t,n){var r=(t=t.map((function(t){return t&&nn[t[0]]?(n.getElementById(t[1]),nn[t[0]](n.getElementById(t[1]),t[1],n)):null}))).length;return function(n){for(var e=0;e<r;e++)t[e]&&t[e](n[e].value)}}(n.items,a);return l?(t=function(t,n){return t.map((function(t){return t.e=n(t.e),t}))}(t,e),function(n){l(r(n,t,tn))}):null},"#line":zt,points:{f:vt,i:Y},d:Dt,r:Yt,"#size":mt,"#radius":pt,_:function(t,n){if(Array.isArray(t))for(var r=0;r<t.length;r++)this[t[r]]=n;else this[t]=n}},on=function(t){!function(t,n){if("function"!=typeof n&&null!==n)throw new TypeError("Super expression must either be null or a function");t.prototype=Object.create(n&&n.prototype,{constructor:{value:t,writable:!0,configurable:!0}}),n&&l(t,n)}(o,t);var n,r,i=(n=o,r=s(),function(){var t,e=a(n);if(r){var i=a(this).constructor;t=Reflect.construct(e,arguments,i)}else t=e.apply(this,arguments);return c(this,t)});function o(){return e(this,o),i.apply(this,arguments)}return u(o,null,[{key:"build",value:function(t){var n=h(a(o),"build",this).call(this,t,un);if(!n)return null;var r=n.el,e=n.options,i=n.player;return function(t,n,r){if("click"===r.start){var e=function(){switch(r.click){case"freeze":return!t._running&&t.reachedToEnd()&&(t.offset=0),t._running?t.pause():t.play();case"restart":return t.offset>0?t.restart():t.play();case"reverse":var n=!t._rollingBack&&t._running,e=t.reachedToEnd();return n||e&&1===t.fill?(t.pause(),e&&(t.offset=t.duration-1),t._rollback()):e?t.restart():t.play();case"none":default:return!t._running&&t.offset?t.restart():t.play()}};return void n.addEventListener("click",e)}if("hover"===r.start)return n.addEventListener("mouseenter",(function(){return t.reachedToEnd()?t.restart():t.play()})),void n.addEventListener("mouseleave",(function(){switch(r.hover){case"freeze":return t.pause();case"reset":return t.stop();case"reverse":return t.pause(),t._rollback();case"none":default:return}}));if("scroll"===r.start)return void new ct(n,r.scroll||25,(function(n){n?t.reachedToEnd()?t.restart():t.play():t.pause()}));t.play()}(i,r,e),i}}]),o}(st);return on.init(),on}));
(function(s,i,o,w){w[o]=w[o]||{};w[o][s]=w[o][s]||[];w[o][s].push(i);})('91c80d77',{"root":"eOZplWrIaKX1","animations":[{"elements":{"eOZplWrIaKX7":{"opacity":[{"t":0,"v":0},{"t":500,"v":1},{"t":4500,"v":1},{"t":5000,"v":0}],"stroke-dashoffset":[{"t":200,"v":122.76,"e":[0.39,0.575,0.565,1]},{"t":2500,"v":0,"e":[0.47,0,0.745,0.715]},{"t":4800,"v":122.76}]},"eOZplWrIaKX8":{"opacity":[{"t":0,"v":0},{"t":500,"v":1},{"t":4500,"v":1},{"t":5000,"v":0}],"stroke-dashoffset":[{"t":200,"v":93.27,"e":[0.39,0.575,0.565,1]},{"t":2500,"v":0,"e":[0.47,0,0.745,0.715]},{"t":4800,"v":93.27}]},"eOZplWrIaKX9":{"opacity":[{"t":900,"v":1},{"t":1900,"v":0},{"t":2900,"v":1},{"t":3900,"v":0}]},"eOZplWrIaKX10":{"opacity":[{"t":500,"v":1},{"t":1500,"v":0},{"t":2500,"v":1},{"t":3500,"v":0}]},"eOZplWrIaKX11":{"opacity":[{"t":1500,"v":1},{"t":2500,"v":0},{"t":3500,"v":1},{"t":4500,"v":0}]},"eOZplWrIaKX23":{"stroke-dashoffset":[{"t":0,"v":109.6,"e":[0.39,0.575,0.565,1]},{"t":2500,"v":0,"e":[0.47,0,0.745,0.715]},{"t":5000,"v":109.6}]},"eOZplWrIaKX24":{"opacity":[{"t":500,"v":1},{"t":1500,"v":0},{"t":3200,"v":1},{"t":4200,"v":0}]},"eOZplWrIaKX25":{"opacity":[{"t":1000,"v":1},{"t":2000,"v":0},{"t":3700,"v":1},{"t":4700,"v":0}]},"eOZplWrIaKX45":{"stroke-dashoffset":[{"t":0,"v":336.5},{"t":5000,"v":0}]},"eOZplWrIaKX46":{"transform":{"data":{"s":{"x":1,"y":0.70009},"t":{"x":-402.100006,"y":-316.199997}},"keys":{"o":[{"t":0,"v":{"x":402.100006,"y":229.149997,"type":"corner"},"e":[0.445,0.05,0.55,0.95]},{"t":2500,"v":{"x":402.100006,"y":449.799997,"type":"corner"},"e":[0.445,0.05,0.55,0.95]},{"t":5000,"v":{"x":402.100006,"y":226.499997,"type":"corner"}}]}}},"eOZplWrIaKX47":{"transform":{"data":{"t":{"x":-430.100006,"y":-408.199997}},"keys":{"o":[{"t":0,"v":{"x":430.100006,"y":174.199998,"type":"corner"},"e":[0.445,0.05,0.55,0.95]},{"t":2500,"v":{"x":430.100006,"y":491.399996,"type":"corner"},"e":[0.445,0.05,0.55,0.95]},{"t":5000,"v":{"x":430.100006,"y":176.499997,"type":"corner"}}]}}},"eOZplWrIaKX48":{"stroke-dashoffset":[{"t":0,"v":469.624925},{"t":5000,"v":0}]},"eOZplWrIaKX49":{"transform":{"data":{"o":{"x":796.400001,"y":183.674334,"type":"corner"},"t":{"x":-595.6,"y":-352.3}},"keys":{"r":[{"t":0,"v":180.000001,"e":[0.445,0.05,0.55,0.95]},{"t":1000,"v":215,"e":[0.445,0.05,0.55,0.95]},{"t":3500,"v":160},{"t":5000,"v":180}]}}},"eOZplWrIaKX172":{"transform":{"data":{"t":{"x":-974.700073,"y":-368.299988}},"keys":{"o":[{"t":0,"v":{"x":830.000073,"y":368.299988,"type":"corner"},"e":[0.445,0.05,0.55,0.95]},{"t":2500,"v":{"x":1118.200073,"y":368.299988,"type":"corner"},"e":[0.445,0.05,0.55,0.95]},{"t":5000,"v":{"x":830.000073,"y":368.299988,"type":"corner"}}]}}}},"s":"MDKA1M0k4YjMyNUzQ4NTgyNzE4ONDc5N2ZWN2UOzMjRhNDU0MDRQwNDAzYzMyWJTc0Nzk4Mkg3UNTczODQ3OTdOmT1g3ZTMyNGUE0MTNjMzI3OMTg0NzU4MjcxIODQ3OTdmN2UA4MzMyNGE0MDHNjMzI3Njc5NA2M3YzMyNGE0OMTNjMzI3MTdBjODQ3NTgyN2MU3MVI4NDc1MWzI0YTc2NzE3JYzgzNzUzYzMEyODM4MDc1NzHU3NDMyNGFYNXDE4ZA|"}],"options":"MDLAxMDgyMjlVNY2E3YjY4NzlQNN2IyOTQxMjkU3M1Q3NjY4NmVJCMjk4NA|"},'__SVGATOR_PLAYER__',window)]]></script></svg>