<svg xmlns="http://www.w3.org/2000/svg" xmlns:xlink="http://www.w3.org/1999/xlink" viewBox="0 0 1200 600"><defs><style>.cls-1{fill:none;}.cls-2{clip-path:url(#clip-path);}.cls-3{fill:#00de76;}.cls-4{fill:#060;}</style><clipPath id="clip-path"><rect class="cls-1" x="-0.23" y="-952.63" width="1920" height="600"/></clipPath></defs><g id="bg"><g class="cls-2"><image width="1920" height="1204" transform="translate(-90 -1121.17) scale(1.09 1.11)" xlink:href="../images/asean-economic-community-flags-blue-sky-background.jpg"/></g></g><g id="Layer_1" data-name="Layer 1"><path class="cls-3" d="M195.62,275a26.2,26.2,0,0,1-20-10,24.6,24.6,0,0,1-3.06-5.13l-.58-1.3-1.24.7a39.53,39.53,0,0,1-19.54,4.78A57.75,57.75,0,0,1,134,261.3l-.89-.29-1.83,2.51c-1.81,2.5-2.41,3.32-2.66,3.61A22.53,22.53,0,0,1,111.47,275h-1a26.21,26.21,0,0,1-20-10,26.53,26.53,0,0,1-4.56-22.58A28.12,28.12,0,0,1,98,225.05l.75-.49-.19-.87c-1.24-5.57-3.31-19.85,4.27-32.12,6-9.66,16.45-15.93,31.2-18.63l1.05-.19v-1.07c.06-5.89,1.35-20.75,12-31.59,8.13-8.31,19.91-12.53,35-12.53.81,0,1.63,0,2.46,0l1.58.05-.26-1.56c-1.39-8.19-3.43-29,7.46-44.92,7.86-11.51,20.77-18.27,38.38-20.1h.22a2.44,2.44,0,0,1,.26,4.86c-16.14,1.68-27.88,7.74-34.9,18-12.68,18.6-6.07,44.62-5.78,45.71a2.47,2.47,0,0,1-.47,2.21,2.36,2.36,0,0,1-1.83.88H189c-2.36-.19-4.67-.29-6.87-.29-13.77,0-24.4,3.71-31.6,11-12.07,12.28-10.56,30.95-10.54,31.14a2.44,2.44,0,0,1-2.07,2.64c-14.94,2.13-25.37,7.8-31,16.85-8.37,13.52-3.27,30.26-3,31a2.47,2.47,0,0,1-1.27,3,22.83,22.83,0,0,0-12,15.52A21.68,21.68,0,0,0,94.22,262a21.44,21.44,0,0,0,16.36,8.17h.73A18.16,18.16,0,0,0,125,264c.26-.32,1.08-1.45,2-2.72l.43-.59c2.64-3.63,3.74-5.1,4.62-5.1a3.28,3.28,0,0,1,1.11.28,52.51,52.51,0,0,0,18.11,3.35,34.37,34.37,0,0,0,17.89-4.57l.54-.36,1-.64-.11-.82a28.7,28.7,0,0,1,12.57-27.73l.75-.49-.19-.87c-1.24-5.57-3.31-19.85,4.26-32.12,6-9.66,16.45-15.93,31.2-18.63l1-.19v-1.07c.07-5.89,1.36-20.75,12-31.59,8.14-8.31,19.92-12.53,35-12.53.81,0,1.63,0,2.45,0l1.58.05-.26-1.56c-1.38-8.19-3.42-29,7.47-44.92,7.85-11.51,20.77-18.27,38.38-20.1H317a2.44,2.44,0,0,1,.27,4.86c-16.14,1.68-27.89,7.74-34.9,18-12.69,18.6-6.07,44.62-5.78,45.71a2.47,2.47,0,0,1-.48,2.21,2.33,2.33,0,0,1-1.83.87h-.2c-2.36-.19-4.66-.29-6.86-.29-13.78,0-24.41,3.71-31.6,11-12.07,12.28-10.56,30.95-10.54,31.14a2.45,2.45,0,0,1-2.07,2.64c-14.95,2.13-25.37,7.8-31,16.85-8.38,13.52-3.27,30.26-3,31a2.47,2.47,0,0,1-1.27,3,22.77,22.77,0,0,0-12,15.52A21.68,21.68,0,0,0,179.38,262a21.42,21.42,0,0,0,16.36,8.17h.72A18.19,18.19,0,0,0,210.15,264c.26-.32,1.07-1.45,2-2.72l.43-.59c2.46-3.4,3.7-5.1,4.61-5.1a3.1,3.1,0,0,1,.95.21,37.65,37.65,0,0,0,9,1c5,0,12.22-1,18.53-5.51,8.87-6.39,13.89-18.12,14.91-34.88a2.45,2.45,0,0,1,2.44-2.28h0c1.92,0,17.15-.35,27.33-11.89,8.36-9.47,11.26-23.9,8.62-42.91a2.41,2.41,0,0,1,2.06-2.75,1.67,1.67,0,0,1,.32,0,2.41,2.41,0,0,1,2.38,2.09c2.85,20.55-.46,36.33-9.85,46.92-9.07,10.2-21.18,12.7-27.59,13.29l-1.07.09-.1,1.07c-1.58,16.61-7.22,28.49-16.76,35.31-7.37,5.27-15.59,6.38-21.2,6.38a44.55,44.55,0,0,1-8-.72l-.8-.15-2,2.7c-1.81,2.49-2.42,3.31-2.66,3.6A22.56,22.56,0,0,1,196.63,275Z"/><path class="cls-3" d="M109.73,150a17.45,17.45,0,1,1,.16,0Zm0-29.87a12.56,12.56,0,1,0,.11,0h-.11Z"/><path class="cls-3" d="M109.73,86.47a13.7,13.7,0,1,1,.12,0Zm0-22.41A8.74,8.74,0,0,0,101,72.83,8.77,8.77,0,0,0,116,79a8.77,8.77,0,0,0-6.25-14.91h-.08Z"/><path class="cls-3" d="M157.85,121.94a9.81,9.81,0,0,1-7-16.69,9.73,9.73,0,0,1,6.91-2.93,9.81,9.81,0,1,1,.08,19.62Zm0-14.87a5,5,0,1,0,.05,0Z"/><path class="cls-4" d="M124.85,350.58c-2.44-14.47-13.34-24.23-28.14-24.23-30.9,0-35.13,36.27-35.13,58.39l.33.32A35.46,35.46,0,0,1,95.41,361c22.12,0,37.57,16.43,37.57,38.39C133,421,117,437.11,95.41,437.11c-31.39,0-40-25.21-40-52.53,0-27.65,6.67-63.6,41.31-63.6,18.7,0,32.2,10.74,34.32,29.6Zm2,48.8c0-17.57-13.17-33-31.39-33-18.54,0-31.72,14.8-31.72,33,0,18.54,14.15,32.36,31.72,32.36C113.46,431.74,126.8,417.1,126.8,399.38Z"/><path class="cls-4" d="M143.55,379.05c0-27,8.3-58.07,40.67-58.07s40.66,31.07,40.66,58.07-8.3,58.06-40.66,58.06S143.55,406,143.55,379.05Zm75.15,0c0-22.61-6.35-52.7-34.48-52.7s-34.48,30.09-34.48,52.7,6.34,52.69,34.48,52.69S218.7,401.65,218.7,379.05Z"/><path class="cls-4" d="M235.94,350.1C235.94,334,246.19,321,263.1,321c17.08,0,26.84,12.53,26.84,29.12,0,15.45-10.57,28.78-27,28.78S235.94,365.87,235.94,350.1Zm47.82,0c0-12.69-7.16-23.75-20.82-23.75-13.5,0-20.82,11.22-20.82,23.75,0,11.87,8,23.42,20.66,23.42C275.79,373.52,283.76,362,283.76,350.1ZM327.51,319H334l-75.63,120h-6.5Zm-32,89.29c0-16.1,10.24-29.11,27.16-29.11,17.08,0,26.83,12.52,26.83,29.11,0,15.45-10.57,28.79-27,28.79S295.47,424.1,295.47,408.32Zm47.81,0c0-12.68-7.15-23.74-20.81-23.74-13.5,0-20.82,11.22-20.82,23.74,0,11.87,8,23.42,20.65,23.42C335.31,431.74,343.28,420.19,343.28,408.32Z"/><path class="cls-4" d="M66.09,477.22h2v1.68h0a4.19,4.19,0,0,1,4-2c3.82,0,5.72,3,5.72,6.53s-1.88,6.45-5.67,6.45a4.77,4.77,0,0,1-4-1.94h0v6.41h-2Zm5.76,1.51c-2.74,0-3.8,2.35-3.8,4.68s1.11,4.7,3.92,4.7,3.72-2.37,3.72-4.8S74.49,478.73,71.85,478.73Z"/><path class="cls-4" d="M80.17,477.22h1.92v2.61h0a4.51,4.51,0,0,1,4.56-2.9v2.16c-3.29,0-4.49,1.87-4.49,5v5.52h-2Z"/><path class="cls-4" d="M93.16,476.93c3.93,0,6,2.85,6,6.5s-2.09,6.48-6,6.48-6-2.85-6-6.48S89.22,476.93,93.16,476.93Zm0,11.18c2.13,0,3.86-1.68,3.86-4.68s-1.73-4.7-3.86-4.7-3.87,1.68-3.87,4.7S91,488.11,93.16,488.11Z"/><path class="cls-4" d="M103.74,491.21c0,2.21-1.17,3.17-3,3.17a5.56,5.56,0,0,1-1.05-.1v-1.75a4.74,4.74,0,0,0,.84.05c.89,0,1.15-.44,1.15-1.71V477.22h2Zm0-16.23h-2v-2.49h2Z"/><path class="cls-4" d="M117.49,485.69a5,5,0,0,1-5.3,4.22c-4,0-5.83-2.73-6-6.53s2.45-6.45,5.83-6.45c4.39,0,5.74,4.1,5.62,7.1H108.4a3.65,3.65,0,0,0,3.86,4.08,3,3,0,0,0,3.22-2.42Zm-2-3.46a3.57,3.57,0,0,0-3.58-3.5,3.53,3.53,0,0,0-3.55,3.5Z"/><path class="cls-4" d="M128.22,481.2a2.88,2.88,0,0,0-3.07-2.47c-3,0-3.86,2.33-3.86,4.85,0,2.28,1,4.53,3.62,4.53a3.21,3.21,0,0,0,3.41-3h2.09c-.46,3-2.36,4.82-5.48,4.82-3.79,0-5.81-2.64-5.81-6.33s1.92-6.65,5.86-6.65c2.81,0,5.07,1.32,5.35,4.27Z"/><path class="cls-4" d="M135.52,477.22H138V479h-2.47v7.7c0,.94.26,1.1,1.53,1.1H138v1.8h-1.56c-2.11,0-3-.43-3-2.71V479h-2.12v-1.8h2.12V473.5h2Z"/><path class="cls-4" d="M150.83,485.69a5,5,0,0,1-5.31,4.22c-4,0-5.83-2.73-6-6.53s2.45-6.45,5.83-6.45c4.4,0,5.74,4.1,5.62,7.1h-9.29a3.66,3.66,0,0,0,3.87,4.08,3,3,0,0,0,3.21-2.42Zm-2-3.46a3.57,3.57,0,0,0-7.13,0Z"/><path class="cls-4" d="M164.22,489.62h-2v-1.68h-.05a4.17,4.17,0,0,1-4,2c-3.81,0-5.71-3-5.71-6.53s1.87-6.45,5.66-6.45a4.75,4.75,0,0,1,4,1.94h.05v-6.38h2Zm-5.76-1.51c2.74,0,3.79-2.35,3.79-4.68s-1.1-4.7-3.91-4.7-3.72,2.37-3.72,4.8S155.82,488.11,158.46,488.11Z"/><path class="cls-4" d="M176.2,475h-2v-2.49h2Zm-2,2.24h2v12.4h-2Z"/><path class="cls-4" d="M179.36,477.22h1.92v2h.05a4.32,4.32,0,0,1,4-2.25c3.27,0,4.27,1.87,4.27,4.53v8.16h-2v-8.4a2.33,2.33,0,0,0-2.51-2.49c-2.48,0-3.68,1.65-3.68,3.89v7h-2Z"/><path class="cls-4" d="M201.13,481.2a2.88,2.88,0,0,0-3.07-2.47c-2.95,0-3.87,2.33-3.87,4.85,0,2.28,1,4.53,3.63,4.53a3.21,3.21,0,0,0,3.41-3h2.09c-.46,3-2.36,4.82-5.48,4.82-3.79,0-5.81-2.64-5.81-6.33s1.92-6.65,5.86-6.65c2.81,0,5.06,1.32,5.35,4.27Z"/><path class="cls-4" d="M205.52,477.22h1.92v2.61h.05a4.51,4.51,0,0,1,4.56-2.9v2.16c-3.29,0-4.49,1.87-4.49,5v5.52h-2Z"/><path class="cls-4" d="M223.74,485.69a5,5,0,0,1-5.31,4.22c-4,0-5.83-2.73-6-6.53s2.45-6.45,5.83-6.45c4.4,0,5.74,4.1,5.62,7.1h-9.29a3.66,3.66,0,0,0,3.87,4.08,3,3,0,0,0,3.21-2.42Zm-2-3.46a3.57,3.57,0,0,0-7.13,0Z"/><path class="cls-4" d="M237,489.58a2.86,2.86,0,0,1-1.47.33c-1.06,0-1.73-.57-1.73-1.92a5.51,5.51,0,0,1-4.37,1.92c-2.25,0-4.1-1-4.1-3.48,0-2.81,2.09-3.41,4.2-3.81,2.26-.44,4.18-.29,4.18-1.83,0-1.77-1.47-2.06-2.76-2.06-1.73,0-3,.53-3.1,2.35h-2c.12-3.07,2.5-4.15,5.26-4.15,2.23,0,4.65.5,4.65,3.41v6.38c0,1,0,1.39.65,1.39A1.71,1.71,0,0,0,237,488Zm-3.32-6.36c-.79.57-2.33.6-3.69.84s-2.5.72-2.5,2.23c0,1.34,1.15,1.82,2.4,1.82,2.69,0,3.79-1.68,3.79-2.81Z"/><path class="cls-4" d="M240.18,485.71c.07,1.83,1.65,2.4,3.33,2.4,1.28,0,3-.29,3-1.85s-2-1.84-4-2.3-4.06-1.13-4.06-3.5,2.47-3.53,4.63-3.53c2.74,0,4.92.86,5.09,3.89h-2c-.14-1.59-1.53-2.09-2.88-2.09s-2.64.33-2.64,1.58c0,1.47,2.16,1.71,4.06,2.16s4,1.13,4,3.53c0,2.95-2.76,3.91-5.28,3.91-2.78,0-5.13-1.13-5.25-4.2Z"/><path class="cls-4" d="M261.51,485.69a5,5,0,0,1-5.3,4.22c-4,0-5.83-2.73-5.95-6.53s2.45-6.45,5.83-6.45c4.39,0,5.74,4.1,5.62,7.1h-9.29a3.65,3.65,0,0,0,3.86,4.08,3,3,0,0,0,3.22-2.42Zm-2-3.46a3.57,3.57,0,0,0-3.58-3.5,3.53,3.53,0,0,0-3.55,3.5Z"/><path class="cls-4" d="M272.65,475h-2v-2.49h2Zm-2,2.24h2v12.4h-2Z"/><path class="cls-4" d="M275.82,477.22h1.92v2h.05a4.31,4.31,0,0,1,4-2.25c3.26,0,4.27,1.87,4.27,4.53v8.16h-2v-8.4a2.33,2.33,0,0,0-2.52-2.49c-2.47,0-3.67,1.65-3.67,3.89v7h-2Z"/><path class="cls-4" d="M306.08,477.5c-.26-2.44-1.89-3.5-4.25-3.5-1.92,0-3.84.7-3.84,2.93s2.74,2.42,5.5,3.05,5.47,1.58,5.47,4.94c0,3.65-3.57,5.11-6.69,5.11-3.85,0-7.09-1.87-7.09-6h2.16c0,2.88,2.41,4.13,5,4.13,2.06,0,4.34-.65,4.34-3.12s-2.73-2.76-5.47-3.36-5.5-1.39-5.5-4.53c0-3.48,3.1-5,6.22-5,3.5,0,6.17,1.66,6.31,5.42Z"/><path class="cls-4" d="M311.72,472.49h11.83v1.92H314v5.45h8.91v1.92H314v5.92h9.63v1.92H311.72Z"/><path class="cls-4" d="M331,472.49h2.52l6.7,17.13h-2.52l-1.87-5.16h-7.25l-1.92,5.16h-2.36Zm-1.7,10.05h5.81l-2.86-8h-.05Z"/><path class="cls-4" d="M75.33,511.2a2.9,2.9,0,0,0-3.08-2.47c-3,0-3.86,2.33-3.86,4.85,0,2.28,1,4.53,3.62,4.53a3.2,3.2,0,0,0,3.41-3h2.09c-.45,3-2.35,4.82-5.47,4.82-3.79,0-5.81-2.64-5.81-6.33s1.92-6.65,5.86-6.65c2.81,0,5.06,1.32,5.35,4.27Z"/><path class="cls-4" d="M90.78,519.58a2.79,2.79,0,0,1-1.46.33c-1.06,0-1.73-.57-1.73-1.92a5.51,5.51,0,0,1-4.37,1.92c-2.25,0-4.1-1-4.1-3.48,0-2.81,2.09-3.41,4.2-3.81s4.18-.29,4.18-1.83c0-1.77-1.47-2.06-2.77-2.06-1.72,0-3,.53-3.09,2.35h-2c.12-3.07,2.49-4.15,5.25-4.15,2.24,0,4.66.5,4.66,3.41v6.38c0,1,0,1.39.65,1.39a1.63,1.63,0,0,0,.62-.12Zm-3.31-6.36c-.79.57-2.33.6-3.7.84s-2.49.72-2.49,2.23c0,1.34,1.15,1.82,2.4,1.82,2.69,0,3.79-1.68,3.79-2.81Z"/><path class="cls-4" d="M92.61,507.22h1.92v2.61h0a4.52,4.52,0,0,1,4.56-2.9v2.16c-3.28,0-4.48,1.87-4.48,5v5.52h-2Z"/><path class="cls-4" d="M100.74,502.49h2v6.41h0a4.18,4.18,0,0,1,4-2c3.82,0,5.71,3,5.71,6.53s-1.87,6.45-5.66,6.45a4.76,4.76,0,0,1-4-1.94h0v1.65h-2Zm5.76,6.24c-2.73,0-3.79,2.35-3.79,4.68s1.1,4.7,3.91,4.7,3.72-2.37,3.72-4.8S109.14,508.73,106.5,508.73Z"/><path class="cls-4" d="M120.25,506.93c3.94,0,6,2.85,6,6.5s-2.09,6.48-6,6.48-6-2.85-6-6.48S116.32,506.93,120.25,506.93Zm0,11.18c2.14,0,3.87-1.68,3.87-4.68s-1.73-4.7-3.87-4.7-3.86,1.68-3.86,4.7S118.12,518.11,120.25,518.11Z"/><path class="cls-4" d="M128.68,507.22h1.92v2h0a4.34,4.34,0,0,1,4-2.25c3.26,0,4.27,1.87,4.27,4.53v8.16h-2v-8.4a2.33,2.33,0,0,0-2.52-2.49c-2.47,0-3.67,1.65-3.67,3.89v7h-2Z"/><path class="cls-4" d="M159.78,519.62h-2v-1.68h-.05a4.17,4.17,0,0,1-4,2c-3.81,0-5.71-3-5.71-6.53s1.87-6.45,5.66-6.45a4.75,4.75,0,0,1,4,1.94h.05v-6.38h2ZM154,518.11c2.74,0,3.79-2.35,3.79-4.68s-1.1-4.7-3.91-4.7-3.72,2.37-3.72,4.8S151.38,518.11,154,518.11Z"/><path class="cls-4" d="M165.08,505h-2v-2.49h2Zm-2,2.24h2v12.4h-2Z"/><path class="cls-4" d="M173.6,506.93c3.94,0,6,2.85,6,6.5s-2.09,6.48-6,6.48-6-2.85-6-6.48S169.67,506.93,173.6,506.93Zm0,11.18c2.14,0,3.87-1.68,3.87-4.68s-1.73-4.7-3.87-4.7-3.86,1.68-3.86,4.7S171.47,518.11,173.6,518.11Z"/><path class="cls-4" d="M185.36,513.1,181,507.22h2.62l3,4.34,3.1-4.34h2.45l-4.27,5.71,4.8,6.69h-2.62l-3.46-5.13-3.45,5.13h-2.47Z"/><path class="cls-4" d="M196.62,505h-2v-2.49h2Zm-2,2.24h2v12.4h-2Z"/><path class="cls-4" d="M210.87,519.62h-2v-1.68h0a4.18,4.18,0,0,1-4,2c-3.82,0-5.72-3-5.72-6.53s1.88-6.45,5.67-6.45a4.77,4.77,0,0,1,4,1.94h0v-6.38h2Zm-5.76-1.51c2.74,0,3.8-2.35,3.8-4.68s-1.11-4.7-3.92-4.7-3.72,2.37-3.72,4.8S202.47,518.11,205.11,518.11Z"/><path class="cls-4" d="M224.6,515.69a5,5,0,0,1-5.3,4.22c-4,0-5.83-2.73-6-6.53s2.44-6.45,5.83-6.45c4.39,0,5.73,4.1,5.61,7.1h-9.28a3.65,3.65,0,0,0,3.86,4.08,3,3,0,0,0,3.22-2.42Zm-2-3.46a3.56,3.56,0,0,0-3.57-3.5,3.53,3.53,0,0,0-3.55,3.5Z"/><path class="cls-4" d="M244.16,515.69a5,5,0,0,1-5.3,4.22c-4,0-5.83-2.73-6-6.53s2.44-6.45,5.83-6.45c4.39,0,5.73,4.1,5.61,7.1h-9.28a3.65,3.65,0,0,0,3.86,4.08,3,3,0,0,0,3.22-2.42Zm-2-3.46a3.56,3.56,0,0,0-3.57-3.5,3.53,3.53,0,0,0-3.55,3.5Z"/><path class="cls-4" d="M246.46,507.22h1.92V509h.05a4.58,4.58,0,0,1,4-2.11,3.29,3.29,0,0,1,3.41,2.11,4.59,4.59,0,0,1,3.89-2.11c2.47,0,4.13,1,4.13,3.6v9.09h-2v-8.13c0-1.54-.41-2.76-2.4-2.76a3,3,0,0,0-3.24,3.17v7.72h-2v-8.13c0-1.61-.51-2.76-2.33-2.76a3.35,3.35,0,0,0-3.32,3.17v7.72h-2Z"/><path class="cls-4" d="M269.1,505h-2v-2.49h2Zm-2,2.24h2v12.4h-2Z"/><path class="cls-4" d="M273.51,515.71c.07,1.83,1.66,2.4,3.34,2.4,1.27,0,3-.29,3-1.85s-2-1.84-4.06-2.3-4.05-1.13-4.05-3.5,2.47-3.53,4.63-3.53c2.74,0,4.92.86,5.09,3.89h-2c-.15-1.59-1.54-2.09-2.88-2.09s-2.64.33-2.64,1.58c0,1.47,2.16,1.71,4.05,2.16,2,.46,4.06,1.13,4.06,3.53,0,3-2.76,3.91-5.28,3.91-2.79,0-5.14-1.13-5.26-4.2Z"/><path class="cls-4" d="M285.51,515.71c.07,1.83,1.66,2.4,3.34,2.4,1.27,0,3-.29,3-1.85s-2-1.84-4.06-2.3-4.05-1.13-4.05-3.5,2.47-3.53,4.63-3.53c2.74,0,4.92.86,5.09,3.89h-2c-.15-1.59-1.54-2.09-2.88-2.09s-2.64.33-2.64,1.58c0,1.47,2.16,1.71,4.05,2.16,2,.46,4.06,1.13,4.06,3.53,0,3-2.76,3.91-5.28,3.91-2.79,0-5.14-1.13-5.26-4.2Z"/><path class="cls-4" d="M298.42,505h-2v-2.49h2Zm-2,2.24h2v12.4h-2Z"/><path class="cls-4" d="M307,506.93c3.93,0,6,2.85,6,6.5s-2.09,6.48-6,6.48-6-2.85-6-6.48S303,506.93,307,506.93Zm0,11.18c2.13,0,3.86-1.68,3.86-4.68s-1.73-4.7-3.86-4.7-3.87,1.68-3.87,4.7S304.81,518.11,307,518.11Z"/><path class="cls-4" d="M315.37,507.22h1.92v2h0a4.31,4.31,0,0,1,4-2.25c3.26,0,4.27,1.87,4.27,4.53v8.16h-2v-8.4a2.33,2.33,0,0,0-2.52-2.49c-2.47,0-3.67,1.65-3.67,3.89v7h-2Z"/><path class="cls-4" d="M330,515.71c.07,1.83,1.66,2.4,3.34,2.4,1.27,0,3-.29,3-1.85s-2-1.84-4.06-2.3-4.06-1.13-4.06-3.5,2.48-3.53,4.64-3.53c2.73,0,4.92.86,5.08,3.89h-2c-.14-1.59-1.53-2.09-2.88-2.09s-2.64.33-2.64,1.58c0,1.47,2.16,1.71,4.06,2.16s4.06,1.13,4.06,3.53c0,3-2.76,3.91-5.28,3.91-2.79,0-5.14-1.13-5.26-4.2Z"/><path class="cls-4" d="M160.74,532.49h2v6.41h.05a4.17,4.17,0,0,1,4-2c3.81,0,5.71,3,5.71,6.53s-1.87,6.45-5.66,6.45a4.75,4.75,0,0,1-4-1.94h-.05v1.65h-2Zm5.76,6.24c-2.74,0-3.79,2.35-3.79,4.68s1.1,4.7,3.91,4.7,3.72-2.37,3.72-4.8S169.14,538.73,166.5,538.73Z"/><path class="cls-4" d="M179.77,551.28c-.93,2.43-1.77,3.31-3.6,3.31a4.19,4.19,0,0,1-1.41-.21V552.5a4.14,4.14,0,0,0,1.19.29,1.77,1.77,0,0,0,1.69-1.13l.84-2.11-4.92-12.33h2.3l3.62,10.15h.05L183,537.22h2.16Z"/><path class="cls-4" d="M193.09,538.63c-.17-3.45,1.87-6,5.47-6,3,0,5.33,1.72,5.33,4.89,0,3-2,4.52-4.13,5.84s-4.36,2.37-4.77,4.48h8.73v1.8H192.61c.34-4,2.38-5.47,4.78-7,2.88-1.77,4.34-2.83,4.34-5.18a3.1,3.1,0,0,0-3.29-3.07c-2.37,0-3.38,2.18-3.31,4.22Z"/><path class="cls-4" d="M212.05,532.61c5.33,0,5.67,4.89,5.67,8.66s-.34,8.64-5.67,8.64-5.66-4.89-5.66-8.64S206.72,532.61,212.05,532.61Zm0,15.5c3.48,0,3.51-4.32,3.51-6.86s0-6.84-3.51-6.84-3.5,4.32-3.5,6.84S208.57,548.11,212.05,548.11Z"/><path class="cls-4" d="M228.78,543.84h2.3v1.8h-2.3v4h-1.92v-4h-7.47v-2l7.76-11.06h1.63Zm-1.92,0v-8.33h-.05l-5.66,8.33Z"/><path class="cls-4" d="M238.74,532.61c5.33,0,5.66,4.89,5.66,8.66s-.33,8.64-5.66,8.64-5.67-4.89-5.67-8.64S233.41,532.61,238.74,532.61Zm0,15.5c3.48,0,3.5-4.32,3.5-6.86s0-6.84-3.5-6.84-3.51,4.32-3.51,6.84S235.26,548.11,238.74,548.11Z"/><path class="cls-4" d="M855,476c3.94,0,6,2.86,6,6.51S859,489,855,489s-6-2.86-6-6.48S851.1,476,855,476Zm0,11.19c2.14,0,3.87-1.68,3.87-4.68s-1.73-4.71-3.87-4.71-3.86,1.68-3.86,4.71S852.9,487.21,855,487.21Z"/><path class="cls-4" d="M864.3,478.11h-2.08v-1.8h2.08v-1.85c0-2,1.2-3.07,3.44-3.07a5.07,5.07,0,0,1,1.32.19v1.78a3.88,3.88,0,0,0-1.16-.17c-1,0-1.56.31-1.56,1.39v1.73h2.4v1.8h-2.4v10.61h-2Z"/><path class="cls-4" d="M880.07,476.31h2.47v1.8h-2.47v7.71c0,.93.27,1.1,1.54,1.1h.93v1.8H881c-2.11,0-3-.43-3-2.71v-7.9h-2.11v-1.8H878v-3.72h2Z"/><path class="cls-4" d="M890.15,476c3.94,0,6,2.86,6,6.51s-2.09,6.48-6,6.48-6-2.86-6-6.48S886.21,476,890.15,476Zm0,11.19c2.14,0,3.87-1.68,3.87-4.68s-1.73-4.71-3.87-4.71-3.86,1.68-3.86,4.71S888,487.21,890.15,487.21Z"/><path class="cls-4" d="M901.41,476.31h2.47v1.8h-2.47v7.71c0,.93.26,1.1,1.53,1.1h.94v1.8h-1.56c-2.11,0-3-.43-3-2.71v-7.9h-2.12v-1.8h2.12v-3.72h2Z"/><path class="cls-4" d="M917.13,488.67a2.73,2.73,0,0,1-1.47.34c-1,0-1.73-.58-1.73-1.92a5.49,5.49,0,0,1-4.36,1.92c-2.26,0-4.11-1-4.11-3.48,0-2.81,2.09-3.41,4.2-3.82s4.18-.29,4.18-1.82c0-1.78-1.47-2.07-2.76-2.07-1.73,0-3,.53-3.1,2.36h-2c.12-3.08,2.5-4.16,5.26-4.16,2.23,0,4.65.51,4.65,3.41v6.39c0,1,0,1.39.65,1.39a1.71,1.71,0,0,0,.63-.12Zm-3.32-6.36c-.79.58-2.32.6-3.69.84s-2.5.72-2.5,2.23c0,1.35,1.15,1.83,2.4,1.83,2.69,0,3.79-1.68,3.79-2.81Z"/><path class="cls-4" d="M919.14,471.58h2v17.14h-2Z"/><path class="cls-4" d="M931.09,476.31h2V478h0a4.18,4.18,0,0,1,4-2c3.82,0,5.71,3,5.71,6.53S941,489,937.19,489a4.75,4.75,0,0,1-4-1.95h0v6.41h-2Zm5.76,1.51c-2.73,0-3.79,2.36-3.79,4.68s1.1,4.71,3.91,4.71,3.72-2.38,3.72-4.8S939.49,477.82,936.85,477.82Z"/><path class="cls-4" d="M945.18,476.31h1.92v2.62h0a4.52,4.52,0,0,1,4.56-2.91v2.16c-3.29,0-4.49,1.88-4.49,5v5.52h-2Z"/><path class="cls-4" d="M955.4,474.08h-2v-2.5h2Zm-2,2.23h2v12.41h-2Z"/><path class="cls-4" d="M958.57,476.31h1.92v1.83h0a4.56,4.56,0,0,1,4-2.12,3.3,3.3,0,0,1,3.41,2.12,4.59,4.59,0,0,1,3.88-2.12c2.48,0,4.13,1,4.13,3.6v9.1h-2v-8.14c0-1.53-.41-2.76-2.4-2.76a3,3,0,0,0-3.24,3.17v7.73h-2v-8.14c0-1.6-.5-2.76-2.33-2.76a3.35,3.35,0,0,0-3.31,3.17v7.73h-2Z"/><path class="cls-4" d="M990,488.67a2.73,2.73,0,0,1-1.47.34c-1.05,0-1.73-.58-1.73-1.92a5.49,5.49,0,0,1-4.36,1.92c-2.26,0-4.11-1-4.11-3.48,0-2.81,2.09-3.41,4.2-3.82s4.18-.29,4.18-1.82c0-1.78-1.47-2.07-2.76-2.07-1.73,0-3,.53-3.1,2.36h-2c.12-3.08,2.5-4.16,5.26-4.16,2.23,0,4.65.51,4.65,3.41v6.39c0,1,0,1.39.65,1.39a1.71,1.71,0,0,0,.63-.12Zm-3.32-6.36c-.79.58-2.32.6-3.69.84s-2.5.72-2.5,2.23c0,1.35,1.15,1.83,2.4,1.83,2.69,0,3.79-1.68,3.79-2.81Z"/><path class="cls-4" d="M991.86,476.31h1.92v2.62h.05a4.52,4.52,0,0,1,4.56-2.91v2.16c-3.29,0-4.49,1.88-4.49,5v5.52h-2Z"/><path class="cls-4" d="M1004.79,490.38c-.93,2.42-1.77,3.31-3.59,3.31a4,4,0,0,1-1.42-.22V491.6a4.13,4.13,0,0,0,1.2.29,1.76,1.76,0,0,0,1.68-1.13l.84-2.11-4.92-12.34h2.3l3.63,10.15h0l3.48-10.15h2.16Z"/><path class="cls-4" d="M1029.18,484.78a5,5,0,0,1-5.31,4.23c-4,0-5.83-2.74-6-6.53s2.45-6.46,5.83-6.46c4.4,0,5.74,4.11,5.62,7.11h-9.29a3.66,3.66,0,0,0,3.87,4.08,3,3,0,0,0,3.21-2.43Zm-2-3.45a3.57,3.57,0,0,0-7.13,0Z"/><path class="cls-4" d="M1031.48,476.31h1.92v2h0a4.31,4.31,0,0,1,4-2.26c3.27,0,4.27,1.88,4.27,4.54v8.16h-2v-8.4a2.34,2.34,0,0,0-2.51-2.5c-2.48,0-3.68,1.66-3.68,3.89v7h-2Z"/><path class="cls-4" d="M1055.41,484.78a5,5,0,0,1-5.3,4.23c-4,0-5.84-2.74-6-6.53S1046.6,476,1050,476c4.39,0,5.73,4.11,5.61,7.11h-9.29a3.66,3.66,0,0,0,3.87,4.08,3,3,0,0,0,3.21-2.43Zm-2-3.45a3.57,3.57,0,0,0-7.13,0Z"/><path class="cls-4" d="M1057.64,476.31h1.92v2.62h0a4.52,4.52,0,0,1,4.56-2.91v2.16c-3.29,0-4.49,1.88-4.49,5v5.52h-2Z"/><path class="cls-4" d="M1075.74,487.66c0,4-1.85,6.1-5.76,6.1-2.33,0-5-.93-5.14-3.65h2c.1,1.49,1.87,2,3.22,2,2.66,0,3.72-1.92,3.72-4.7v-.82h0a4.12,4.12,0,0,1-3.86,2.25c-3.7,0-5.55-2.9-5.55-6.28,0-2.93,1.44-6.56,5.74-6.56a4,4,0,0,1,3.69,2.07h0v-1.78h1.92Zm-2-5.4c0-2.18-1-4.44-3.53-4.44s-3.67,2.14-3.67,4.52.82,4.72,3.51,4.72S1073.72,484.59,1073.72,482.26Z"/><path class="cls-4" d="M1083.68,490.38c-.93,2.42-1.77,3.31-3.6,3.31a4,4,0,0,1-1.41-.22V491.6a4.13,4.13,0,0,0,1.2.29,1.77,1.77,0,0,0,1.68-1.13l.84-2.11-4.92-12.34h2.3l3.62,10.15h0l3.48-10.15h2.16Z"/><path class="cls-4" d="M850.94,514.81c.07,1.82,1.65,2.4,3.33,2.4,1.27,0,3-.29,3-1.85s-2-1.85-4-2.3-4.06-1.13-4.06-3.51,2.47-3.53,4.63-3.53c2.74,0,4.92.87,5.09,3.89h-2c-.14-1.58-1.54-2.09-2.88-2.09s-2.64.34-2.64,1.59c0,1.46,2.16,1.7,4.06,2.16s4,1.13,4,3.53c0,2.95-2.76,3.91-5.28,3.91-2.78,0-5.13-1.13-5.25-4.2Z"/><path class="cls-4" d="M872,518.72H870v-2h0a4.3,4.3,0,0,1-4,2.26c-3.26,0-4.27-1.87-4.27-4.54v-8.16h2v8.4a2.34,2.34,0,0,0,2.52,2.5c2.47,0,3.67-1.66,3.67-3.89v-7h2Z"/><path class="cls-4" d="M875.1,506.31h2V508h.05a4.18,4.18,0,0,1,4-2c3.82,0,5.72,3,5.72,6.53S885,519,881.2,519a4.75,4.75,0,0,1-4-2h-.05v6.41h-2Zm5.76,1.51c-2.73,0-3.79,2.36-3.79,4.68s1.11,4.71,3.91,4.71,3.72-2.38,3.72-4.8S883.5,507.82,880.86,507.82Z"/><path class="cls-4" d="M889.34,506.31h2V508h0a4.19,4.19,0,0,1,4-2c3.82,0,5.72,3,5.72,6.53s-1.88,6.46-5.67,6.46a4.76,4.76,0,0,1-4-2h0v6.41h-2Zm5.76,1.51c-2.74,0-3.8,2.36-3.8,4.68s1.11,4.71,3.92,4.71,3.72-2.38,3.72-4.8S897.74,507.82,895.1,507.82Z"/><path class="cls-4" d="M903.62,501.58h2v17.14h-2Z"/><path class="cls-4" d="M913.7,520.38c-.94,2.42-1.78,3.31-3.6,3.31a4.06,4.06,0,0,1-1.42-.22V521.6a4.13,4.13,0,0,0,1.2.29,1.76,1.76,0,0,0,1.68-1.13l.84-2.11-4.92-12.34h2.3l3.63,10.15h.05l3.48-10.15h2.16Z"/><path class="cls-4" d="M929.66,504.08h-2v-2.5h2Zm-2,2.23h2v12.41h-2Z"/><path class="cls-4" d="M932.82,506.31h1.92v2h0a4.32,4.32,0,0,1,4-2.26c3.27,0,4.28,1.88,4.28,4.54v8.16h-2v-8.4a2.34,2.34,0,0,0-2.52-2.5c-2.48,0-3.68,1.66-3.68,3.89v7h-2Z"/><path class="cls-4" d="M963.09,506.6c-.27-2.45-1.9-3.5-4.25-3.5-1.92,0-3.84.69-3.84,2.92s2.74,2.43,5.5,3.05S966,510.66,966,514c0,3.64-3.58,5.11-6.7,5.11-3.84,0-7.08-1.87-7.08-6h2.16c0,2.88,2.4,4.13,5,4.13,2.07,0,4.35-.65,4.35-3.12s-2.74-2.76-5.48-3.36-5.49-1.39-5.49-4.54c0-3.48,3.1-5,6.22-5,3.5,0,6.16,1.65,6.31,5.42Z"/><path class="cls-4" d="M968.73,501.58h11.83v1.92H971V509h8.9v1.92H971v5.93h9.62v1.92h-11.9Z"/><path class="cls-4" d="M988.05,501.58h2.52l6.69,17.14h-2.52l-1.87-5.16h-7.25l-1.92,5.16h-2.35Zm-1.71,10.06h5.81l-2.86-8h0Z"/><path class="cls-4" d="M1013.7,510.3a2.89,2.89,0,0,0-3.07-2.48c-3,0-3.86,2.33-3.86,4.85,0,2.28,1,4.54,3.62,4.54a3.21,3.21,0,0,0,3.41-3h2.09c-.46,3-2.35,4.83-5.48,4.83-3.79,0-5.8-2.64-5.8-6.34s1.92-6.65,5.85-6.65c2.81,0,5.07,1.32,5.36,4.28Z"/><path class="cls-4" d="M1023.52,506c3.93,0,6,2.86,6,6.51s-2.09,6.48-6,6.48-6-2.86-6-6.48S1019.58,506,1023.52,506Zm0,11.19c2.13,0,3.86-1.68,3.86-4.68s-1.73-4.71-3.86-4.71-3.87,1.68-3.87,4.71S1021.38,517.21,1023.52,517.21Z"/><path class="cls-4" d="M1031.94,506.31h1.92v1.83h.05a4.56,4.56,0,0,1,4-2.12,3.3,3.3,0,0,1,3.41,2.12,4.59,4.59,0,0,1,3.88-2.12c2.48,0,4.13,1,4.13,3.6v9.1h-2v-8.14c0-1.53-.41-2.76-2.4-2.76a3,3,0,0,0-3.24,3.17v7.73h-2v-8.14c0-1.6-.5-2.76-2.33-2.76A3.35,3.35,0,0,0,1034,511v7.73h-2Z"/><path class="cls-4" d="M1063,514.78a5,5,0,0,1-5.31,4.23c-4,0-5.83-2.74-6-6.53s2.45-6.46,5.83-6.46c4.4,0,5.74,4.11,5.62,7.11h-9.29a3.66,3.66,0,0,0,3.87,4.08,3,3,0,0,0,3.21-2.43Zm-2-3.45a3.57,3.57,0,0,0-3.58-3.51,3.54,3.54,0,0,0-3.55,3.51Z"/><path class="cls-4" d="M1066.55,514.81c.07,1.82,1.65,2.4,3.33,2.4,1.28,0,3-.29,3-1.85s-2-1.85-4.06-2.3-4.06-1.13-4.06-3.51,2.48-3.53,4.64-3.53c2.73,0,4.92.87,5.08,3.89h-2c-.14-1.58-1.53-2.09-2.88-2.09s-2.64.34-2.64,1.59c0,1.46,2.16,1.7,4.06,2.16s4.06,1.13,4.06,3.53c0,2.95-2.76,3.91-5.28,3.91-2.79,0-5.14-1.13-5.26-4.2Z"/><path class="cls-4" d="M1084.81,508.11h-2.09v-1.8h2.09v-1.85c0-2,1.2-3.07,3.44-3.07a5.07,5.07,0,0,1,1.32.19v1.78a3.93,3.93,0,0,0-1.16-.17c-1,0-1.56.31-1.56,1.39v1.73h2.4v1.8h-2.4v10.61h-2Z"/><path class="cls-4" d="M1091,506.31h1.92v2.62h0a4.52,4.52,0,0,1,4.56-2.91v2.16c-3.29,0-4.49,1.88-4.49,5v5.52h-2Z"/><path class="cls-4" d="M1104,506c3.94,0,6,2.86,6,6.51s-2.08,6.48-6,6.48-6-2.86-6-6.48S1100.05,506,1104,506Zm0,11.19c2.13,0,3.86-1.68,3.86-4.68s-1.73-4.71-3.86-4.71-3.87,1.68-3.87,4.71S1101.85,517.21,1104,517.21Z"/><path class="cls-4" d="M1112.41,506.31h1.92v1.83h.05a4.56,4.56,0,0,1,4-2.12,3.3,3.3,0,0,1,3.41,2.12,4.59,4.59,0,0,1,3.89-2.12c2.47,0,4.12,1,4.12,3.6v9.1h-2v-8.14c0-1.53-.4-2.76-2.4-2.76a3,3,0,0,0-3.24,3.17v7.73h-2v-8.14c0-1.6-.5-2.76-2.33-2.76a3.35,3.35,0,0,0-3.31,3.17v7.73h-2Z"/><path class="cls-4" d="M849.69,536.31h1.92v2h0a4.3,4.3,0,0,1,4-2.26c3.26,0,4.27,1.88,4.27,4.54v8.16h-2v-8.4a2.34,2.34,0,0,0-2.52-2.5c-2.47,0-3.67,1.66-3.67,3.89v7h-2Z"/><path class="cls-4" d="M868.38,536c3.94,0,6,2.86,6,6.51s-2.09,6.48-6,6.48-6-2.86-6-6.48S864.45,536,868.38,536Zm0,11.19c2.14,0,3.87-1.68,3.87-4.68s-1.73-4.71-3.87-4.71-3.86,1.68-3.86,4.71S866.25,547.21,868.38,547.21Z"/><path class="cls-4" d="M876.81,536.31h1.92v2h0a4.3,4.3,0,0,1,4-2.26c3.26,0,4.27,1.88,4.27,4.54v8.16h-2v-8.4a2.34,2.34,0,0,0-2.52-2.5c-2.47,0-3.67,1.66-3.67,3.89v7h-2Z"/><path class="cls-4" d="M889.82,541.09h6.93V543h-6.93Z"/><path class="cls-4" d="M899.41,536.31h1.93v2.62h0a4.53,4.53,0,0,1,4.56-2.91v2.16c-3.28,0-4.49,1.88-4.49,5v5.52h-2Z"/><path class="cls-4" d="M917.63,544.78a5,5,0,0,1-5.3,4.23c-4,0-5.83-2.74-6-6.53s2.44-6.46,5.83-6.46c4.39,0,5.73,4.11,5.62,7.11h-9.29a3.65,3.65,0,0,0,3.86,4.08,3,3,0,0,0,3.22-2.43Zm-2-3.45a3.57,3.57,0,0,0-3.57-3.51,3.53,3.53,0,0,0-3.55,3.51Z"/><path class="cls-4" d="M919.94,536.31h1.92v2h0a4.33,4.33,0,0,1,4-2.26c3.26,0,4.27,1.88,4.27,4.54v8.16h-2v-8.4a2.34,2.34,0,0,0-2.52-2.5c-2.47,0-3.67,1.66-3.67,3.89v7h-2Z"/><path class="cls-4" d="M943.86,544.78a5,5,0,0,1-5.3,4.23c-4,0-5.83-2.74-5.95-6.53s2.45-6.46,5.83-6.46c4.39,0,5.74,4.11,5.62,7.11h-9.29a3.65,3.65,0,0,0,3.86,4.08,3,3,0,0,0,3.22-2.43Zm-2-3.45a3.57,3.57,0,0,0-3.58-3.51,3.53,3.53,0,0,0-3.55,3.51Z"/><path class="cls-4" d="M958.46,548.72H956.3l-2.52-9.86h0l-2.5,9.86H949l-4-12.41h2.25l2.81,10.15h0l2.5-10.15h2.23l2.59,10.15h0l2.78-10.15h2.12Z"/><path class="cls-4" d="M975.35,548.67a2.69,2.69,0,0,1-1.46.34c-1.06,0-1.73-.58-1.73-1.92a5.51,5.51,0,0,1-4.37,1.92c-2.26,0-4.1-1-4.1-3.48,0-2.81,2.08-3.41,4.2-3.82s4.17-.29,4.17-1.82c0-1.78-1.46-2.07-2.76-2.07-1.73,0-3,.53-3.09,2.36h-2c.12-3.08,2.49-4.16,5.25-4.16,2.24,0,4.66.51,4.66,3.41v6.39c0,1,0,1.39.65,1.39a1.63,1.63,0,0,0,.62-.12ZM972,542.31c-.79.58-2.33.6-3.7.84s-2.49.72-2.49,2.23c0,1.35,1.15,1.83,2.4,1.83,2.68,0,3.79-1.68,3.79-2.81Z"/><path class="cls-4" d="M977.32,531.58h2V538h0a4.17,4.17,0,0,1,4-2c3.81,0,5.71,3,5.71,6.53s-1.87,6.46-5.67,6.46a4.73,4.73,0,0,1-4-2h0v1.66h-2Zm5.76,6.24c-2.74,0-3.79,2.36-3.79,4.68s1.1,4.71,3.91,4.71,3.72-2.38,3.72-4.8S985.72,537.82,983.08,537.82Z"/><path class="cls-4" d="M991.6,531.58h2v17.14h-2Z"/><path class="cls-4" d="M1007.39,544.78a5,5,0,0,1-5.3,4.23c-4,0-5.84-2.74-6-6.53S998.58,536,1002,536c4.39,0,5.73,4.11,5.61,7.11h-9.29a3.66,3.66,0,0,0,3.87,4.08,3,3,0,0,0,3.21-2.43Zm-2-3.45a3.57,3.57,0,0,0-7.13,0Z"/><path class="cls-4" d="M1017.61,544.81c.08,1.82,1.66,2.4,3.34,2.4,1.27,0,3-.29,3-1.85s-2-1.85-4.06-2.3-4-1.13-4-3.51,2.47-3.53,4.63-3.53c2.74,0,4.92.87,5.09,3.89h-2c-.15-1.58-1.54-2.09-2.88-2.09s-2.64.34-2.64,1.59c0,1.46,2.16,1.7,4,2.16s4.06,1.13,4.06,3.53c0,2.95-2.76,3.91-5.28,3.91-2.79,0-5.14-1.13-5.26-4.2Z"/><path class="cls-4" d="M1033.72,536c3.93,0,6,2.86,6,6.51s-2.09,6.48-6,6.48-6-2.86-6-6.48S1029.78,536,1033.72,536Zm0,11.19c2.13,0,3.86-1.68,3.86-4.68s-1.73-4.71-3.86-4.71-3.87,1.68-3.87,4.71S1031.58,547.21,1033.72,547.21Z"/><path class="cls-4" d="M1052.41,548.72h-1.92v-2h0a4.33,4.33,0,0,1-4,2.26c-3.26,0-4.27-1.87-4.27-4.54v-8.16h2v8.4a2.34,2.34,0,0,0,2.52,2.5c2.47,0,3.67-1.66,3.67-3.89v-7h2Z"/><path class="cls-4" d="M1055.41,536.31h1.92v2.62h.05a4.52,4.52,0,0,1,4.56-2.91v2.16c-3.29,0-4.49,1.88-4.49,5v5.52h-2Z"/><path class="cls-4" d="M1071.47,540.3a2.89,2.89,0,0,0-3.07-2.48c-3,0-3.87,2.33-3.87,4.85,0,2.28,1,4.54,3.63,4.54a3.21,3.21,0,0,0,3.41-3h2.08c-.45,3-2.35,4.83-5.47,4.83-3.79,0-5.81-2.64-5.81-6.34s1.92-6.65,5.86-6.65c2.81,0,5.06,1.32,5.35,4.28Z"/><path class="cls-4" d="M1086.52,544.78a5,5,0,0,1-5.31,4.23c-4,0-5.83-2.74-6-6.53s2.45-6.46,5.83-6.46c4.4,0,5.74,4.11,5.62,7.11h-9.29a3.66,3.66,0,0,0,3.87,4.08,3,3,0,0,0,3.21-2.43Zm-2-3.45a3.57,3.57,0,0,0-3.58-3.51,3.54,3.54,0,0,0-3.55,3.51Z"/><path class="cls-4" d="M1090.07,544.81c.07,1.82,1.65,2.4,3.33,2.4,1.28,0,3-.29,3-1.85s-2-1.85-4.06-2.3-4.06-1.13-4.06-3.51,2.47-3.53,4.63-3.53c2.74,0,4.92.87,5.09,3.89h-2c-.14-1.58-1.53-2.09-2.88-2.09s-2.64.34-2.64,1.59c0,1.46,2.16,1.7,4.06,2.16s4.06,1.13,4.06,3.53c0,2.95-2.77,3.91-5.28,3.91-2.79,0-5.14-1.13-5.26-4.2Z"/><path class="cls-4" d="M539.5,444.82c17.41,0,34.65,7,34.65,28.14,0,12.53-7,22-20.66,24.56v.33c15.29,1.79,24.89,13,24.89,28.95C578.38,550.06,561,561,539.5,561s-38.87-10.89-38.87-34.15c0-15.94,9.6-27.16,24.89-28.95v-.33c-13.67-2.6-20.66-12-20.66-24.56C504.86,451.82,522.1,444.82,539.5,444.82Zm0,55.79c-17.56,0-32.69,7.48-32.69,26.19,0,19.84,15.45,28.79,32.69,28.79s32.7-9,32.7-28.79C572.2,508.09,557.07,500.61,539.5,500.61Zm0-50.42c-14.8,0-28.46,5.7-28.46,22.77,0,15.94,14,22.28,28.46,22.28S568,488.9,568,473C568,455.89,554.3,450.19,539.5,450.19Z"/><path class="cls-4" d="M605.87,446.78h56.76v5.36H610.74l-9.59,44.73.32.33c6.51-8.95,16.59-13.5,27.82-13.5,22.28,0,38.05,15.94,38.05,38.22s-15.61,39-38.05,39c-21.47,0-40-13.66-38.55-36.27h6.18c-.33,18.71,14.31,30.91,32.37,30.91,19,0,31.87-15.29,31.87-33.67,0-18.22-13.5-32.86-31.87-32.86-12.69,0-21.64,5.37-28.79,15.78h-6.34Z"/><path class="cls-4" d="M681.66,473.94c0-16.1,10.25-29.12,27.16-29.12,17.08,0,26.84,12.53,26.84,29.12,0,15.45-10.57,28.79-27,28.79S681.66,489.71,681.66,473.94Zm47.82,0c0-12.69-7.16-23.75-20.82-23.75-13.5,0-20.82,11.22-20.82,23.75,0,11.87,8,23.42,20.66,23.42C721.51,497.36,729.48,485.81,729.48,473.94Zm43.75-31.07h6.5l-75.63,120h-6.5Zm-32,89.29c0-16.1,10.24-29.11,27.16-29.11,17.08,0,26.84,12.52,26.84,29.11,0,15.46-10.58,28.79-27,28.79S741.19,547.94,741.19,532.16Zm47.81,0c0-12.68-7.15-23.74-20.81-23.74-13.5,0-20.82,11.22-20.82,23.74,0,11.88,8,23.43,20.65,23.43C781,555.59,789,544,789,532.16Z"/><path class="cls-4" d="M496.59,209h11.83V211h-9.55v5.44h8.91v1.92h-8.91v5.93h9.63v1.92H496.59Z"/><path class="cls-4" d="M510.92,213.75h1.92v2h0a4.31,4.31,0,0,1,4-2.25c3.26,0,4.27,1.87,4.27,4.53v8.16h-2v-8.4a2.33,2.33,0,0,0-2.52-2.49c-2.47,0-3.67,1.65-3.67,3.88v7h-2Z"/><path class="cls-4" d="M534.85,222.23a5,5,0,0,1-5.31,4.22c-4,0-5.83-2.74-5.95-6.53s2.45-6.45,5.83-6.45c4.4,0,5.74,4.1,5.62,7.1h-9.29a3.66,3.66,0,0,0,3.87,4.08,3,3,0,0,0,3.21-2.42Zm-2-3.46a3.57,3.57,0,0,0-3.58-3.5,3.53,3.53,0,0,0-3.55,3.5Z"/><path class="cls-4" d="M537.08,213.75H539v2.62h0a4.5,4.5,0,0,1,4.56-2.9v2.16c-3.29,0-4.49,1.87-4.49,5v5.52h-2Z"/><path class="cls-4" d="M555.18,225.11c0,4-1.85,6.09-5.76,6.09-2.33,0-5-.93-5.14-3.64h2c.1,1.48,1.87,2,3.22,2,2.66,0,3.72-1.92,3.72-4.7v-.82h0a4.15,4.15,0,0,1-3.87,2.26c-3.69,0-5.54-2.91-5.54-6.29,0-2.93,1.44-6.55,5.74-6.55a4,4,0,0,1,3.69,2.06h0v-1.78h1.92Zm-2-5.4c0-2.19-1-4.44-3.53-4.44S546,217.4,546,219.78c0,2.23.82,4.73,3.5,4.73S553.16,222,553.16,219.71Z"/><path class="cls-4" d="M563.12,227.82c-.94,2.42-1.78,3.31-3.6,3.31a4.29,4.29,0,0,1-1.42-.21V229a4.29,4.29,0,0,0,1.2.29A1.76,1.76,0,0,0,561,228.2l.84-2.11-4.92-12.34h2.31l3.62,10.16h0l3.48-10.16h2.16Z"/><path class="cls-4" d="M585.34,217.74a2.88,2.88,0,0,0-3.07-2.47c-2.95,0-3.86,2.32-3.86,4.84,0,2.28,1,4.54,3.62,4.54a3.2,3.2,0,0,0,3.41-3h2.09c-.46,3-2.35,4.82-5.47,4.82-3.8,0-5.81-2.64-5.81-6.34s1.92-6.64,5.85-6.64c2.81,0,5.07,1.32,5.36,4.27Z"/><path class="cls-4" d="M595.16,213.47c3.94,0,6,2.85,6,6.5s-2.08,6.48-6,6.48-6-2.86-6-6.48S591.22,213.47,595.16,213.47Zm0,11.18c2.13,0,3.86-1.68,3.86-4.68s-1.73-4.7-3.86-4.7-3.87,1.68-3.87,4.7S593,224.65,595.16,224.65Z"/><path class="cls-4" d="M603.58,213.75h1.92v2h0a4.32,4.32,0,0,1,4-2.25c3.27,0,4.27,1.87,4.27,4.53v8.16h-2v-8.4a2.33,2.33,0,0,0-2.52-2.49c-2.47,0-3.67,1.65-3.67,3.88v7h-2Z"/><path class="cls-4" d="M618.17,222.25c.08,1.82,1.66,2.4,3.34,2.4,1.27,0,3-.29,3-1.85s-2-1.85-4.06-2.3-4.05-1.13-4.05-3.51,2.47-3.52,4.63-3.52c2.74,0,4.92.86,5.09,3.88h-2c-.15-1.58-1.54-2.08-2.88-2.08s-2.64.33-2.64,1.58c0,1.46,2.16,1.7,4.05,2.16s4.06,1.13,4.06,3.53c0,3-2.76,3.91-5.28,3.91-2.78,0-5.14-1.13-5.26-4.2Z"/><path class="cls-4" d="M639.2,226.16h-1.92v-2h0a4.31,4.31,0,0,1-4,2.26c-3.27,0-4.27-1.87-4.27-4.54v-8.16h2v8.4a2.34,2.34,0,0,0,2.52,2.5c2.47,0,3.67-1.66,3.67-3.89v-7h2Z"/><path class="cls-4" d="M642.27,213.75h1.92v1.83h0a4.57,4.57,0,0,1,4-2.11,3.28,3.28,0,0,1,3.4,2.11,4.6,4.6,0,0,1,3.89-2.11c2.47,0,4.13,1,4.13,3.6v9.09h-2V218c0-1.54-.41-2.76-2.4-2.76a3,3,0,0,0-3.24,3.16v7.73h-2V218c0-1.61-.5-2.76-2.33-2.76a3.35,3.35,0,0,0-3.31,3.16v7.73h-2Z"/><path class="cls-4" d="M662.81,213.75h2v1.68h0a4.19,4.19,0,0,1,4-2c3.82,0,5.71,3,5.71,6.52s-1.87,6.46-5.66,6.46a4.76,4.76,0,0,1-4-1.94h0v6.41h-2Zm5.76,1.52c-2.73,0-3.79,2.35-3.79,4.68s1.11,4.7,3.91,4.7,3.72-2.38,3.72-4.8S671.21,215.27,668.57,215.27Z"/><path class="cls-4" d="M679.8,213.75h2.48v1.8H679.8v7.71c0,.93.27,1.1,1.54,1.1h.94v1.8h-1.56c-2.12,0-3-.43-3-2.71v-7.9h-2.11v-1.8h2.11V210h2Z"/><path class="cls-4" d="M686.69,211.52h-2V209h2Zm-2,2.23h2v12.41h-2Z"/><path class="cls-4" d="M695.21,213.47c3.94,0,6,2.85,6,6.5s-2.09,6.48-6,6.48-6-2.86-6-6.48S691.28,213.47,695.21,213.47Zm0,11.18c2.14,0,3.87-1.68,3.87-4.68s-1.73-4.7-3.87-4.7-3.86,1.68-3.86,4.7S693.08,224.65,695.21,224.65Z"/><path class="cls-4" d="M703.64,213.75h1.92v2h0a4.34,4.34,0,0,1,4-2.25c3.26,0,4.27,1.87,4.27,4.53v8.16h-2v-8.4a2.33,2.33,0,0,0-2.52-2.49c-2.47,0-3.67,1.65-3.67,3.88v7h-2Z"/><path class="cls-4" d="M513,252.23a5,5,0,0,1-5.3,4.22c-4,0-5.84-2.74-6-6.53s2.45-6.45,5.84-6.45c4.39,0,5.73,4.1,5.61,7.1h-9.29a3.66,3.66,0,0,0,3.87,4.08,3,3,0,0,0,3.21-2.42Zm-2-3.46a3.57,3.57,0,0,0-7.13,0Z"/><path class="cls-4" d="M518.6,249.63l-4.32-5.88h2.62l3,4.35,3.1-4.35h2.45l-4.28,5.72,4.8,6.69h-2.61L519.87,251l-3.45,5.13h-2.48Z"/><path class="cls-4" d="M527.77,243.75h2v1.68h.05a4.18,4.18,0,0,1,4-2c3.81,0,5.71,3,5.71,6.52s-1.87,6.46-5.67,6.46a4.74,4.74,0,0,1-4-1.94h-.05v6.41h-2Zm5.76,1.52c-2.74,0-3.79,2.35-3.79,4.68s1.1,4.7,3.91,4.7,3.72-2.38,3.72-4.8S536.17,245.27,533.53,245.27Z"/><path class="cls-4" d="M552.51,252.23a5,5,0,0,1-5.3,4.22c-4,0-5.84-2.74-6-6.53s2.45-6.45,5.84-6.45c4.39,0,5.73,4.1,5.61,7.1h-9.29a3.66,3.66,0,0,0,3.87,4.08,3,3,0,0,0,3.22-2.42Zm-2-3.46a3.57,3.57,0,0,0-7.13,0Z"/><path class="cls-4" d="M563.24,247.74a2.88,2.88,0,0,0-3.07-2.47c-3,0-3.87,2.32-3.87,4.84,0,2.28,1,4.54,3.63,4.54a3.2,3.2,0,0,0,3.4-3h2.09c-.45,3-2.35,4.82-5.47,4.82-3.79,0-5.81-2.64-5.81-6.34s1.92-6.64,5.86-6.64c2.81,0,5.06,1.32,5.35,4.27Z"/><path class="cls-4" d="M570.53,243.75H573v1.8h-2.48v7.71c0,.93.27,1.1,1.54,1.1H573v1.8h-1.56c-2.12,0-3-.43-3-2.71v-7.9h-2.11v-1.8h2.11V240h2Z"/><path class="cls-4" d="M585.85,252.23a5,5,0,0,1-5.31,4.22c-4,0-5.83-2.74-5.95-6.53s2.45-6.45,5.83-6.45c4.39,0,5.74,4.1,5.62,7.1h-9.29a3.65,3.65,0,0,0,3.86,4.08,3,3,0,0,0,3.22-2.42Zm-2-3.46a3.57,3.57,0,0,0-3.58-3.5,3.53,3.53,0,0,0-3.55,3.5Z"/><path class="cls-4" d="M599.24,256.16h-2v-1.68h-.05a4.18,4.18,0,0,1-4,2c-3.82,0-5.71-3-5.71-6.53s1.87-6.45,5.66-6.45a4.76,4.76,0,0,1,4,1.94h.05V239h2Zm-5.76-1.51c2.73,0,3.79-2.35,3.79-4.68s-1.1-4.7-3.91-4.7-3.72,2.37-3.72,4.8S590.84,254.65,593.48,254.65Z"/><path class="cls-4" d="M611.88,243.75h2.48v1.8h-2.48v7.71c0,.93.27,1.1,1.54,1.1h.94v1.8H612.8c-2.12,0-3-.43-3-2.71v-7.9h-2.11v-1.8h2.11V240h2Z"/><path class="cls-4" d="M622,243.47c3.94,0,6,2.85,6,6.5s-2.09,6.48-6,6.48-6-2.86-6-6.48S618,243.47,622,243.47Zm0,11.18c2.14,0,3.87-1.68,3.87-4.68s-1.73-4.7-3.87-4.7S618.1,247,618.1,250,619.83,254.65,622,254.65Z"/><path class="cls-4" d="M648.15,256.16h-2v-1.68h-.05a4.18,4.18,0,0,1-4,2c-3.82,0-5.71-3-5.71-6.53s1.87-6.45,5.66-6.45a4.76,4.76,0,0,1,4,1.94h.05V239h2Zm-5.76-1.51c2.73,0,3.79-2.35,3.79-4.68s-1.1-4.7-3.91-4.7-3.72,2.37-3.72,4.8S639.75,254.65,642.39,254.65Z"/><path class="cls-4" d="M656.64,243.47c3.94,0,6,2.85,6,6.5s-2.09,6.48-6,6.48-6-2.86-6-6.48S652.71,243.47,656.64,243.47Zm0,11.18c2.14,0,3.87-1.68,3.87-4.68s-1.73-4.7-3.87-4.7-3.86,1.68-3.86,4.7S654.51,254.65,656.64,254.65Z"/><path class="cls-4" d="M675.34,256.16h-1.92v-2h0a4.3,4.3,0,0,1-4,2.26c-3.27,0-4.27-1.87-4.27-4.54v-8.16h2v8.4a2.34,2.34,0,0,0,2.52,2.5c2.47,0,3.67-1.66,3.67-3.89v-7h2Z"/><path class="cls-4" d="M678.48,239h2v6.41h.05a4.19,4.19,0,0,1,4-2c3.82,0,5.71,3,5.71,6.52s-1.87,6.46-5.66,6.46a4.76,4.76,0,0,1-4-1.94h-.05v1.65h-2Zm5.76,6.25c-2.73,0-3.79,2.35-3.79,4.68s1.1,4.7,3.91,4.7,3.72-2.38,3.72-4.8S686.88,245.27,684.24,245.27Z"/><path class="cls-4" d="M692.76,239h2v17.14h-2Z"/><path class="cls-4" d="M708.55,252.23a5,5,0,0,1-5.3,4.22c-4,0-5.83-2.74-6-6.53s2.45-6.45,5.83-6.45c4.39,0,5.74,4.1,5.62,7.1h-9.29a3.65,3.65,0,0,0,3.86,4.08,3,3,0,0,0,3.22-2.42Zm-2-3.46a3.57,3.57,0,0,0-3.58-3.5,3.52,3.52,0,0,0-3.55,3.5Z"/><path class="cls-4" d="M563.55,269h2v6.41h0a4.18,4.18,0,0,1,4-2c3.81,0,5.71,3,5.71,6.52s-1.87,6.46-5.66,6.46a4.75,4.75,0,0,1-4-1.94h0v1.65h-2Zm5.76,6.25c-2.73,0-3.79,2.35-3.79,4.68s1.1,4.7,3.91,4.7,3.72-2.38,3.72-4.8S572,275.27,569.31,275.27Z"/><path class="cls-4" d="M582.58,287.82c-.93,2.42-1.77,3.31-3.6,3.31a4.19,4.19,0,0,1-1.41-.21V289a4.13,4.13,0,0,0,1.2.29,1.77,1.77,0,0,0,1.68-1.13l.84-2.11-4.92-12.34h2.3l3.62,10.16h.05l3.48-10.16H588Z"/><path class="cls-4" d="M595.9,275.17c-.17-3.46,1.87-6,5.47-6,3,0,5.33,1.73,5.33,4.9,0,3-2,4.51-4.13,5.83s-4.36,2.38-4.77,4.49h8.74v1.8H595.42c.34-4,2.38-5.47,4.78-7,2.88-1.77,4.34-2.83,4.34-5.18a3.1,3.1,0,0,0-3.29-3.07c-2.37,0-3.38,2.18-3.31,4.22Z"/><path class="cls-4" d="M614.86,269.14c5.33,0,5.67,4.9,5.67,8.67s-.34,8.64-5.67,8.64-5.66-4.9-5.66-8.64S609.53,269.14,614.86,269.14Zm0,15.51c3.48,0,3.51-4.32,3.51-6.86s0-6.84-3.51-6.84-3.5,4.32-3.5,6.84S611.38,284.65,614.86,284.65Z"/><path class="cls-4" d="M631.59,280.38h2.3v1.8h-2.3v4h-1.92v-4H622.2v-2L630,269.14h1.63Zm-1.92,0v-8.33h0L624,280.38Z"/><path class="cls-4" d="M641.55,269.14c5.33,0,5.66,4.9,5.66,8.67s-.33,8.64-5.66,8.64-5.67-4.9-5.67-8.64S636.22,269.14,641.55,269.14Zm0,15.51c3.48,0,3.5-4.32,3.5-6.86s0-6.84-3.5-6.84-3.51,4.32-3.51,6.84S638.07,284.65,641.55,284.65Z"/><path class="cls-4" d="M595.56,165.92v6.18H520.75c1.3-21,17.89-32.53,34.32-43.43,16.26-10.9,32.52-21.31,32.52-40.17,0-15.29-13-25.21-27.64-25.21-20.5,0-30.26,15.12-30.26,34.48h-6.18C524.81,70.93,537,57.92,559,57.92c19,0,34.81,10.08,34.81,30.74,0,19.68-15.46,32-31.56,42.78s-32.53,20.65-33.67,34.48Z"/><path class="cls-4" d="M603.86,56h8.3L648.91,107,686.48,56h8.14l-41,56.44,43.26,59.69h-8.62l-39.36-54.33L609.39,172.1h-8.46l43.59-59.69Z"/><path class="cls-3" d="M1038,312.9a1.82,1.82,0,1,1,0-3.64h22.22V279.51h-24V224.37h-13V213.32h-10.87v11.05h-19V213.32H982.49v11.05H969.91v55.14H945.08L942,159.15h-18.1l-3.13,120.36H898v29.75h124.14a1.82,1.82,0,1,1,0,3.64h-146a1.82,1.82,0,0,1,0-3.64h18.24v-33.4h22.81l3-116.71h-6.93v-3.64h7l.34-12.9h24.53l.34,12.9h6.91v3.64h-6.81l3,116.71h17.62V220.72h12.58V209.67H997v11.05h11.72V209.67h18.17v11.05h12.94v55.14h24v33.4h18a1.82,1.82,0,1,1,0,3.64ZM924,155.5h17.91l-.24-9.24H924.19ZM1008.68,280V238h3.65v42Zm-15.27,0V238h3.65v42Zm21.6-78.68a16.48,16.48,0,0,1-11.93-5,5.25,5.25,0,0,0-3.69-1.71h-.5a4.67,4.67,0,0,0-3.9,1.91,10.33,10.33,0,0,1-8.94,4.84,11.39,11.39,0,0,1-5.81-21.18,3.08,3.08,0,0,0,1.45-2.88c0-.44-.07-.9-.07-1.37a15.8,15.8,0,0,1,2.15-7.95,3.17,3.17,0,0,0,0-3.27,18.73,18.73,0,0,1,11.49-28.48l.69-.16,0-.7a24,24,0,0,1,11-18.83,3.64,3.64,0,0,0,1.33-4.73,28.74,28.74,0,0,1,24-41.39c.63,0,1.25-.06,1.88-.06a28.5,28.5,0,0,1,9,1.45,10.83,10.83,0,0,0,3.35.55,9.57,9.57,0,0,0,4.5-1.1,34,34,0,0,1,15.81-3.86,35.18,35.18,0,0,1,5.68.46,34.51,34.51,0,0,1,22,54.65A12.3,12.3,0,0,0,1093,134a27.78,27.78,0,0,1-24.39,37c-.6,0-1.2.05-1.8.05a28.24,28.24,0,0,1-6.82-.83,1.84,1.84,0,0,0-.47-.06,1.86,1.86,0,0,0-1,.29,2.08,2.08,0,0,0-.93,1.31,21.94,21.94,0,0,1-21.27,17,7.54,7.54,0,0,0-6.76,3.88A16.58,16.58,0,0,1,1015,201.31Zm-15.62-10.4a8.81,8.81,0,0,1,6.3,2.81,12.95,12.95,0,0,0,20.64-2.76,11.18,11.18,0,0,1,9.79-5.78A18.34,18.34,0,0,0,1054,171a5.77,5.77,0,0,1,2.58-3.62,5.46,5.46,0,0,1,2.9-.84,5.61,5.61,0,0,1,1.35.17,23.92,23.92,0,0,0,5.91.73c.53,0,1.06,0,1.59-.05a24.44,24.44,0,0,0,22.58-24.2,23.89,23.89,0,0,0-1.39-8,15.92,15.92,0,0,1,2-14.95,30.87,30.87,0,0,0-19.71-48.87,31.33,31.33,0,0,0-5.1-.42,30.35,30.35,0,0,0-14.12,3.46,13.25,13.25,0,0,1-6.18,1.51,14.29,14.29,0,0,1-4.5-.74,24.77,24.77,0,0,0-7.88-1.27c-.55,0-1.11,0-1.66,0a25.1,25.1,0,0,0-20.91,36.15,7.32,7.32,0,0,1-2.63,9.4,20.21,20.21,0,0,0-9.31,17l0,.36c0,.24,0,.45,0,.66a1.82,1.82,0,0,1-1.65,1.81,15.09,15.09,0,0,0-11.18,23.24,6.81,6.81,0,0,1,.15,7.11,12.07,12.07,0,0,0-1.65,6.11c0,.35,0,.69.05,1a6.66,6.66,0,0,1-3.23,6.37,7.74,7.74,0,0,0,4,14.39,6.72,6.72,0,0,0,5.9-3.21,8.24,8.24,0,0,1,6.94-3.54Zm65.1-40.78a8.81,8.81,0,1,1,8.82-8.81A8.82,8.82,0,0,1,1064.49,150.13Zm0-14a5.17,5.17,0,1,0,5.17,5.16A5.17,5.17,0,0,0,1064.49,136.16Zm9.74-18.29a4.57,4.57,0,1,1,4.57-4.57A4.58,4.58,0,0,1,1074.23,117.87Z"/><path class="cls-3" d="M429.28,377.16a.87.87,0,0,1-.87-.87v-9.71a.87.87,0,0,1,1.73,0v9.71A.87.87,0,0,1,429.28,377.16Z"/><path class="cls-3" d="M429.28,395.32a.87.87,0,0,1-.87-.87v-9.7a.87.87,0,1,1,1.73,0v9.7A.87.87,0,0,1,429.28,395.32Z"/><path class="cls-3" d="M429.28,413.48a.87.87,0,0,1-.87-.87v-9.7a.87.87,0,1,1,1.73,0v9.7A.87.87,0,0,1,429.28,413.48Z"/><path class="cls-3" d="M429.28,431.64a.86.86,0,0,1-.87-.86v-9.71a.87.87,0,0,1,1.73,0v9.71A.86.86,0,0,1,429.28,431.64Z"/><path class="cls-3" d="M429.28,449.81a.87.87,0,0,1-.87-.87v-9.71a.87.87,0,0,1,1.73,0v9.71A.87.87,0,0,1,429.28,449.81Z"/><path class="cls-3" d="M403,285.61a.86.86,0,0,1-.87-.86V275a.87.87,0,0,1,1.73,0v9.71A.86.86,0,0,1,403,285.61Z"/><path class="cls-3" d="M403,303.78a.87.87,0,0,1-.87-.87v-9.7a.87.87,0,1,1,1.73,0v9.7A.87.87,0,0,1,403,303.78Z"/><path class="cls-3" d="M403,321.94a.87.87,0,0,1-.87-.87v-9.7a.87.87,0,1,1,1.73,0v9.7A.87.87,0,0,1,403,321.94Z"/><path class="cls-3" d="M403,340.1a.87.87,0,0,1-.87-.86v-9.71a.87.87,0,1,1,1.73,0v9.71A.87.87,0,0,1,403,340.1Z"/><path class="cls-3" d="M403,358.27a.87.87,0,0,1-.87-.87v-9.71a.87.87,0,0,1,1.73,0v9.71A.87.87,0,0,1,403,358.27Z"/><path class="cls-3" d="M751,352.42H475.3a1.16,1.16,0,1,1,0-2.31H751a44.22,44.22,0,0,0,44.17-44.17V184.23a1.16,1.16,0,1,1,2.31,0V305.94A46.53,46.53,0,0,1,751,352.42Z"/><path class="cls-3" d="M595.79,375a23.2,23.2,0,0,1-23.17-23.18h1.73a21.45,21.45,0,0,0,42.89,0H619A23.21,23.21,0,0,1,595.79,375Z"/><path class="cls-3" d="M791.85,380.25a1.51,1.51,0,0,1-1-.35,1.11,1.11,0,0,1,0-1.73l8.77-7.71-8.77-7.71a1.11,1.11,0,0,1,0-1.73,1.54,1.54,0,0,1,2,0l9.75,8.58a1.12,1.12,0,0,1,0,1.72l-9.75,8.58A1.53,1.53,0,0,1,791.85,380.25Z"/><path class="cls-3" d="M801.16,380.25a1.51,1.51,0,0,1-1-.35,1.11,1.11,0,0,1,0-1.73l8.77-7.71-8.77-7.71a1.11,1.11,0,0,1,0-1.73,1.54,1.54,0,0,1,2,0l9.75,8.58a1.12,1.12,0,0,1,0,1.72l-9.75,8.58A1.53,1.53,0,0,1,801.16,380.25Z"/><path class="cls-3" d="M810.47,380.25a1.51,1.51,0,0,1-1-.35,1.13,1.13,0,0,1,0-1.73l8.77-7.71-8.77-7.71a1.13,1.13,0,0,1,0-1.73,1.54,1.54,0,0,1,2,0l9.75,8.58a1.12,1.12,0,0,1,0,1.72l-9.75,8.58A1.53,1.53,0,0,1,810.47,380.25Z"/><path class="cls-3" d="M819.78,380.25a1.51,1.51,0,0,1-1-.35,1.13,1.13,0,0,1,0-1.73l8.77-7.71-8.77-7.71a1.13,1.13,0,0,1,0-1.73,1.54,1.54,0,0,1,2,0l9.75,8.58a1.12,1.12,0,0,1,0,1.72l-9.75,8.58A1.53,1.53,0,0,1,819.78,380.25Z"/><path class="cls-3" d="M829.09,380.25a1.51,1.51,0,0,1-1-.35,1.13,1.13,0,0,1,0-1.73l8.77-7.71-8.77-7.71a1.13,1.13,0,0,1,0-1.73,1.54,1.54,0,0,1,2,0l9.75,8.58a1.12,1.12,0,0,1,0,1.72l-9.75,8.58A1.53,1.53,0,0,1,829.09,380.25Z"/><path class="cls-3" d="M838.4,380.25a1.53,1.53,0,0,1-1-.35,1.13,1.13,0,0,1,0-1.73l8.77-7.71-8.77-7.71a1.13,1.13,0,0,1,0-1.73,1.54,1.54,0,0,1,2,0l9.75,8.58a1.12,1.12,0,0,1,0,1.72l-9.75,8.58A1.51,1.51,0,0,1,838.4,380.25Z"/><path class="cls-3" d="M911.86,363.29c4.49,0,6.79,2.21,8.82,4.16s3.53,3.39,6.9,3.39,5-1.57,6.89-3.39,4.33-4.16,8.82-4.16,6.78,2.21,8.81,4.16,3.52,3.39,6.88,3.39,5-1.57,6.89-3.39,4.33-4.16,8.81-4.16,6.78,2.21,8.81,4.16,3.52,3.39,6.89,3.39,5-1.57,6.89-3.39,4.32-4.16,8.81-4.16,6.78,2.21,8.81,4.16,3.52,3.39,6.88,3.39,5-1.57,6.89-3.39,4.32-4.16,8.81-4.16a1.39,1.39,0,0,1,0,2.78c-3.37,0-5,1.57-6.89,3.38s-4.32,4.16-8.81,4.16-6.78-2.21-8.8-4.16-3.53-3.38-6.89-3.38-5,1.57-6.89,3.38-4.33,4.16-8.81,4.16-6.78-2.21-8.81-4.16-3.52-3.38-6.89-3.38-5,1.57-6.89,3.38-4.33,4.16-8.81,4.16-6.78-2.21-8.81-4.16-3.52-3.38-6.88-3.38-5,1.57-6.9,3.38-4.32,4.16-8.81,4.16-6.79-2.21-8.82-4.16-3.53-3.38-6.9-3.38a1.39,1.39,0,0,1,0-2.78Z"/><path class="cls-3" d="M415,504.54a1.16,1.16,0,0,1-1.16-1.16V168.05a1.16,1.16,0,0,1,2.32,0V503.38A1.16,1.16,0,0,1,415,504.54Z"/></g></svg>