<svg xmlns="http://www.w3.org/2000/svg" viewBox="0 0 1200 600"><defs><style>.cls-1{fill:#060;}.cls-2{fill:#00de76;}</style></defs><g id="Layer_1" data-name="Layer 1"><path class="cls-1" d="M837.35,227.41c3.94,0,6,2.86,6,6.51s-2.09,6.48-6,6.48-6-2.86-6-6.48S833.42,227.41,837.35,227.41Zm0,11.19c2.14,0,3.87-1.68,3.87-4.68s-1.73-4.7-3.87-4.7-3.86,1.67-3.86,4.7S835.22,238.6,837.35,238.6Z"/><path class="cls-1" d="M846.62,229.5h-2.09v-1.8h2.09v-1.85c0-2,1.2-3.07,3.43-3.07a5,5,0,0,1,1.32.19v1.78a3.82,3.82,0,0,0-1.15-.17c-1,0-1.56.31-1.56,1.39v1.73h2.4v1.8h-2.4v10.61h-2Z"/><path class="cls-1" d="M871.84,240.11h-2.16l-2.52-9.86h0l-2.49,9.86h-2.21l-4-12.41h2.26l2.81,10.16h0L866,227.7h2.24l2.59,10.16h0l2.78-10.16h2.11Z"/><path class="cls-1" d="M888.74,240.06a2.73,2.73,0,0,1-1.47.34c-1,0-1.72-.58-1.72-1.92a5.51,5.51,0,0,1-4.37,1.92c-2.26,0-4.11-1-4.11-3.48,0-2.81,2.09-3.41,4.2-3.82s4.18-.29,4.18-1.82c0-1.78-1.46-2.06-2.76-2.06-1.73,0-3,.52-3.1,2.35h-2c.12-3.08,2.5-4.16,5.26-4.16,2.23,0,4.66.51,4.66,3.41v6.39c0,1,0,1.39.64,1.39a1.71,1.71,0,0,0,.63-.12Zm-3.31-6.36c-.8.58-2.33.6-3.7.84s-2.5.72-2.5,2.24c0,1.34,1.15,1.82,2.4,1.82,2.69,0,3.8-1.68,3.8-2.81Z"/><path class="cls-1" d="M891.88,236.2c.07,1.82,1.66,2.4,3.34,2.4,1.27,0,3-.29,3-1.85s-2-1.85-4.06-2.3-4.06-1.13-4.06-3.51,2.48-3.53,4.64-3.53c2.73,0,4.92.87,5.09,3.89h-2c-.15-1.58-1.54-2.08-2.88-2.08s-2.65.33-2.65,1.58c0,1.46,2.16,1.7,4.06,2.16s4.06,1.13,4.06,3.53c0,2.95-2.76,3.91-5.28,3.91-2.79,0-5.14-1.13-5.26-4.2Z"/><path class="cls-1" d="M905.46,227.7h2.48v1.8h-2.48v7.71c0,.93.27,1.1,1.54,1.1h.94v1.8h-1.56c-2.12,0-3-.43-3-2.71v-7.9h-2.11v-1.8h2.11V224h2Z"/><path class="cls-1" d="M920.78,236.18a5,5,0,0,1-5.31,4.22c-4,0-5.83-2.74-6-6.53s2.45-6.46,5.83-6.46c4.4,0,5.74,4.11,5.62,7.11h-9.29a3.65,3.65,0,0,0,3.86,4.08,3,3,0,0,0,3.22-2.42Zm-2-3.46a3.57,3.57,0,0,0-3.58-3.5,3.53,3.53,0,0,0-3.55,3.5Z"/><path class="cls-1" d="M935.37,240.11h-2.16l-2.52-9.86h-.05l-2.5,9.86h-2.2l-4-12.41h2.26L927,237.86h0l2.5-10.16h2.23l2.59,10.16h0l2.79-10.16h2.11Z"/><path class="cls-1" d="M952.26,240.06a2.69,2.69,0,0,1-1.46.34c-1.06,0-1.73-.58-1.73-1.92a5.51,5.51,0,0,1-4.37,1.92c-2.25,0-4.1-1-4.1-3.48,0-2.81,2.09-3.41,4.2-3.82,2.26-.43,4.18-.29,4.18-1.82,0-1.78-1.47-2.06-2.76-2.06-1.73,0-3,.52-3.1,2.35h-2c.12-3.08,2.5-4.16,5.26-4.16,2.23,0,4.65.51,4.65,3.41v6.39c0,1,0,1.39.65,1.39a1.63,1.63,0,0,0,.62-.12ZM949,233.7c-.79.58-2.33.6-3.69.84s-2.5.72-2.5,2.24c0,1.34,1.15,1.82,2.4,1.82,2.69,0,3.79-1.68,3.79-2.81Z"/><path class="cls-1" d="M957,227.7h2.47v1.8H957v7.71c0,.93.27,1.1,1.54,1.1h.93v1.8H957.9c-2.11,0-2.95-.43-2.95-2.71v-7.9h-2.11v-1.8H955V224h2Z"/><path class="cls-1" d="M972.3,236.18a5,5,0,0,1-5.3,4.22c-4,0-5.83-2.74-6-6.53s2.45-6.46,5.83-6.46c4.39,0,5.74,4.11,5.62,7.11h-9.29a3.65,3.65,0,0,0,3.86,4.08,3,3,0,0,0,3.22-2.42Zm-2-3.46a3.57,3.57,0,0,0-3.58-3.5,3.52,3.52,0,0,0-3.55,3.5Z"/><path class="cls-1" d="M974.54,227.7h1.91v2.62h0a4.53,4.53,0,0,1,4.56-2.91v2.16c-3.28,0-4.48,1.88-4.48,5v5.52h-2Z"/><path class="cls-1" d="M1000.26,240.06a2.69,2.69,0,0,1-1.46.34c-1.06,0-1.73-.58-1.73-1.92a5.51,5.51,0,0,1-4.37,1.92c-2.25,0-4.1-1-4.1-3.48,0-2.81,2.09-3.41,4.2-3.82s4.17-.29,4.17-1.82c0-1.78-1.46-2.06-2.76-2.06-1.72,0-3,.52-3.09,2.35h-2c.12-3.08,2.49-4.16,5.25-4.16,2.24,0,4.66.51,4.66,3.41v6.39c0,1,0,1.39.65,1.39a1.63,1.63,0,0,0,.62-.12ZM997,233.7c-.79.58-2.33.6-3.7.84s-2.49.72-2.49,2.24c0,1.34,1.15,1.82,2.4,1.82,2.69,0,3.79-1.68,3.79-2.81Z"/><path class="cls-1" d="M1002.09,227.7H1004v2.62h0a4.53,4.53,0,0,1,4.56-2.91v2.16c-3.28,0-4.48,1.88-4.48,5v5.52h-2Z"/><path class="cls-1" d="M1020.3,236.18a5,5,0,0,1-5.3,4.22c-4,0-5.83-2.74-6-6.53s2.44-6.46,5.83-6.46c4.39,0,5.74,4.11,5.62,7.11h-9.29a3.65,3.65,0,0,0,3.86,4.08,3,3,0,0,0,3.22-2.42Zm-2-3.46a3.56,3.56,0,0,0-3.57-3.5,3.52,3.52,0,0,0-3.55,3.5Z"/><path class="cls-1" d="M1029.4,223h2v17.14h-2Z"/><path class="cls-1" d="M1045.19,236.18a5,5,0,0,1-5.3,4.22c-4,0-5.84-2.74-6-6.53s2.45-6.46,5.84-6.46c4.39,0,5.73,4.11,5.61,7.11h-9.29a3.66,3.66,0,0,0,3.87,4.08,3,3,0,0,0,3.21-2.42Zm-2-3.46a3.57,3.57,0,0,0-7.13,0Z"/><path class="cls-1" d="M1048.33,229.5h-2.08v-1.8h2.08v-1.85c0-2,1.2-3.07,3.44-3.07a4.94,4.94,0,0,1,1.31.19v1.78a3.77,3.77,0,0,0-1.15-.17c-1,0-1.56.31-1.56,1.39v1.73h2.4v1.8h-2.4v10.61h-2Z"/><path class="cls-1" d="M1057.43,227.7h2.47v1.8h-2.47v7.71c0,.93.26,1.1,1.53,1.1h.94v1.8h-1.56c-2.11,0-2.95-.43-2.95-2.71v-7.9h-2.11v-1.8h2.11V224h2Z"/><path class="cls-1" d="M805.55,270.11h-1.92v-2h0a4.33,4.33,0,0,1-4,2.26c-3.26,0-4.27-1.87-4.27-4.54V257.7h2v8.4a2.34,2.34,0,0,0,2.52,2.5c2.47,0,3.67-1.66,3.67-3.89v-7h2Z"/><path class="cls-1" d="M808.62,257.7h1.92v2h.05a4.35,4.35,0,0,1,4-2.26c3.26,0,4.27,1.88,4.27,4.54v8.16h-2v-8.4a2.33,2.33,0,0,0-2.52-2.49c-2.47,0-3.68,1.65-3.68,3.88v7h-2Z"/><path class="cls-1" d="M824.8,257.7h2.47v1.8H824.8v7.71c0,.93.27,1.1,1.54,1.1h.93v1.8h-1.56c-2.11,0-3-.43-3-2.71v-7.9h-2.11v-1.8h2.11V254h2Z"/><path class="cls-1" d="M829.46,257.7h1.92v2.62h0a4.54,4.54,0,0,1,4.57-2.91v2.16c-3.29,0-4.49,1.88-4.49,5v5.52h-2Z"/><path class="cls-1" d="M847.67,266.18a5,5,0,0,1-5.3,4.22c-4,0-5.83-2.74-6-6.53s2.45-6.46,5.83-6.46c4.39,0,5.74,4.11,5.62,7.11h-9.29a3.65,3.65,0,0,0,3.86,4.08,3,3,0,0,0,3.22-2.42Zm-2-3.46a3.56,3.56,0,0,0-7.12,0Z"/><path class="cls-1" d="M861,270.06a2.73,2.73,0,0,1-1.47.34c-1,0-1.72-.58-1.72-1.92a5.51,5.51,0,0,1-4.37,1.92c-2.26,0-4.11-1-4.11-3.48,0-2.81,2.09-3.41,4.2-3.82s4.18-.29,4.18-1.82c0-1.78-1.46-2.06-2.76-2.06-1.73,0-3,.52-3.1,2.35h-2c.12-3.08,2.5-4.16,5.26-4.16,2.23,0,4.66.51,4.66,3.41v6.39c0,1,0,1.39.64,1.39a1.71,1.71,0,0,0,.63-.12Zm-3.31-6.36c-.79.58-2.33.6-3.7.84s-2.5.72-2.5,2.24c0,1.34,1.16,1.82,2.4,1.82,2.69,0,3.8-1.68,3.8-2.81Z"/><path class="cls-1" d="M865.7,257.7h2.47v1.8H865.7v7.71c0,.93.26,1.1,1.53,1.1h.94v1.8h-1.56c-2.11,0-3-.43-3-2.71v-7.9h-2.12v-1.8h2.12V254h2Z"/><path class="cls-1" d="M881,266.18a5,5,0,0,1-5.31,4.22c-4,0-5.83-2.74-6-6.53s2.45-6.46,5.83-6.46c4.4,0,5.74,4.11,5.62,7.11h-9.29a3.66,3.66,0,0,0,3.87,4.08,3,3,0,0,0,3.21-2.42Zm-2-3.46a3.57,3.57,0,0,0-7.13,0Z"/><path class="cls-1" d="M894.4,270.11h-2v-1.68h-.05a4.17,4.17,0,0,1-4,2c-3.81,0-5.71-3-5.71-6.53s1.87-6.46,5.66-6.46a4.73,4.73,0,0,1,4,1.95h.05V253h2Zm-5.76-1.51c2.74,0,3.79-2.35,3.79-4.68s-1.1-4.7-3.91-4.7-3.72,2.37-3.72,4.79S886,268.6,888.64,268.6Z"/><path class="cls-1" d="M906.37,255.47h-2V253h2Zm-2,2.23h2v12.41h-2Z"/><path class="cls-1" d="M909.54,257.7h1.92v2h0a4.33,4.33,0,0,1,4-2.26c3.27,0,4.28,1.88,4.28,4.54v8.16h-2v-8.4a2.34,2.34,0,0,0-2.53-2.49c-2.47,0-3.67,1.65-3.67,3.88v7h-2Z"/><path class="cls-1" d="M939.81,258c-.27-2.45-1.9-3.5-4.25-3.5-1.92,0-3.84.69-3.84,2.92s2.73,2.43,5.5,3,5.47,1.59,5.47,5c0,3.65-3.58,5.11-6.7,5.11-3.84,0-7.08-1.87-7.08-6h2.16c0,2.88,2.4,4.13,5,4.13,2.07,0,4.35-.65,4.35-3.12s-2.74-2.76-5.47-3.36-5.5-1.39-5.5-4.54c0-3.48,3.1-5,6.22-5,3.5,0,6.16,1.65,6.31,5.42Z"/><path class="cls-1" d="M945.45,253h11.83v1.92h-9.55v5.45h8.9v1.92h-8.9v5.93h9.62v1.92h-11.9Z"/><path class="cls-1" d="M964.77,253h2.52L974,270.11h-2.52L969.59,265h-7.25l-1.92,5.16h-2.35ZM963.06,263h5.81L966,255h0Z"/><path class="cls-1" d="M975.78,267.45h2.67v2.42a3.58,3.58,0,0,1-2.64,3.77v-1.2a2.29,2.29,0,0,0,1.39-2.33h-1.42Z"/><path class="cls-1" d="M991.5,257.7H994v1.8H991.5v7.71c0,.93.27,1.1,1.54,1.1H994v1.8h-1.56c-2.11,0-2.95-.43-2.95-2.71v-7.9h-2.11v-1.8h2.11V254h2Z"/><path class="cls-1" d="M996.23,253h2v6.56h.05a4.2,4.2,0,0,1,3.91-2.12c3.26,0,4.27,1.88,4.27,4.54v8.16h-2v-8.4a2.33,2.33,0,0,0-2.52-2.49c-2.47,0-3.67,1.65-3.67,3.88v7h-2Z"/><path class="cls-1" d="M1020.16,266.18a5,5,0,0,1-5.31,4.22c-4,0-5.83-2.74-6-6.53s2.45-6.46,5.83-6.46c4.4,0,5.74,4.11,5.62,7.11h-9.29a3.66,3.66,0,0,0,3.87,4.08,3,3,0,0,0,3.21-2.42Zm-2-3.46a3.57,3.57,0,0,0-7.13,0Z"/><path class="cls-1" d="M1029.25,253h2v17.14h-2Z"/><path class="cls-1" d="M1039.81,257.41c3.94,0,6,2.86,6,6.51s-2.09,6.48-6,6.48-6-2.86-6-6.48S1035.88,257.41,1039.81,257.41Zm0,11.19c2.14,0,3.87-1.68,3.87-4.68s-1.73-4.7-3.87-4.7-3.86,1.67-3.86,4.7S1037.68,268.6,1039.81,268.6Z"/><path class="cls-1" d="M1060.53,270.11h-2.16l-2.52-9.86h0l-2.5,9.86h-2.21l-4-12.41h2.25l2.81,10.16h0l2.5-10.16H1057l2.59,10.16h0l2.78-10.16h2.12Z"/><path class="cls-1" d="M1077,266.18a5,5,0,0,1-5.3,4.22c-4,0-5.83-2.74-6-6.53s2.44-6.46,5.83-6.46c4.39,0,5.74,4.11,5.61,7.11h-9.28a3.65,3.65,0,0,0,3.86,4.08,3,3,0,0,0,3.22-2.42Zm-2-3.46a3.56,3.56,0,0,0-7.12,0Z"/><path class="cls-1" d="M1080.56,266.2c.08,1.82,1.66,2.4,3.34,2.4,1.27,0,3-.29,3-1.85s-2-1.85-4.06-2.3-4-1.13-4-3.51,2.47-3.53,4.63-3.53c2.74,0,4.92.87,5.09,3.89h-2c-.14-1.58-1.54-2.08-2.88-2.08s-2.64.33-2.64,1.58c0,1.46,2.16,1.7,4,2.16s4.06,1.13,4.06,3.53c0,2.95-2.76,3.91-5.28,3.91-2.78,0-5.14-1.13-5.26-4.2Z"/><path class="cls-1" d="M1094.15,257.7h2.47v1.8h-2.47v7.71c0,.93.26,1.1,1.53,1.1h.94v1.8h-1.56c-2.11,0-3-.43-3-2.71v-7.9H1090v-1.8h2.11V254h2Z"/><path class="cls-1" d="M829.89,287.7h2.47v1.8h-2.47v7.71c0,.93.26,1.1,1.54,1.1h.93v1.8H830.8c-2.11,0-2.95-.43-2.95-2.71v-7.9h-2.11v-1.8h2.11V284h2Z"/><path class="cls-1" d="M834.54,287.7h1.92v2.62h0a4.53,4.53,0,0,1,4.56-2.91v2.16c-3.28,0-4.49,1.88-4.49,5v5.52h-2Z"/><path class="cls-1" d="M852.76,296.18a5,5,0,0,1-5.3,4.22c-4,0-5.84-2.74-6-6.53s2.45-6.46,5.84-6.46c4.39,0,5.73,4.11,5.61,7.11h-9.29a3.66,3.66,0,0,0,3.87,4.08,3,3,0,0,0,3.22-2.42Zm-2-3.46a3.57,3.57,0,0,0-7.13,0Z"/><path class="cls-1" d="M866.06,300.06a2.73,2.73,0,0,1-1.47.34c-1.05,0-1.72-.58-1.72-1.92a5.51,5.51,0,0,1-4.37,1.92c-2.26,0-4.11-1-4.11-3.48,0-2.81,2.09-3.41,4.2-3.82s4.18-.29,4.18-1.82c0-1.78-1.46-2.06-2.76-2.06-1.73,0-3,.52-3.1,2.35h-2c.12-3.08,2.5-4.16,5.26-4.16,2.23,0,4.66.51,4.66,3.41v6.39c0,1,0,1.39.64,1.39a1.71,1.71,0,0,0,.63-.12Zm-3.31-6.36c-.8.58-2.33.6-3.7.84s-2.5.72-2.5,2.24c0,1.34,1.15,1.82,2.4,1.82,2.69,0,3.8-1.68,3.8-2.81Z"/><path class="cls-1" d="M870.78,287.7h2.48v1.8h-2.48v7.71c0,.93.27,1.1,1.54,1.1h.94v1.8H871.7c-2.12,0-3-.43-3-2.71v-7.9h-2.11v-1.8h2.11V284h2Z"/><path class="cls-1" d="M875.51,287.7h1.92v1.83h.05a4.58,4.58,0,0,1,4-2.12,3.3,3.3,0,0,1,3.41,2.12,4.59,4.59,0,0,1,3.89-2.12c2.47,0,4.12,1,4.12,3.6v9.1h-2V292c0-1.53-.41-2.75-2.4-2.75a3,3,0,0,0-3.24,3.16v7.73h-2V292c0-1.6-.5-2.75-2.33-2.75a3.35,3.35,0,0,0-3.31,3.16v7.73h-2Z"/><path class="cls-1" d="M906.57,296.18a5,5,0,0,1-5.31,4.22c-4,0-5.83-2.74-6-6.53s2.45-6.46,5.83-6.46c4.4,0,5.74,4.11,5.62,7.11h-9.29a3.66,3.66,0,0,0,3.87,4.08,3,3,0,0,0,3.21-2.42Zm-2-3.46a3.57,3.57,0,0,0-7.13,0Z"/><path class="cls-1" d="M908.87,287.7h1.92v2h.05a4.33,4.33,0,0,1,4-2.26c3.27,0,4.27,1.88,4.27,4.54v8.16h-2v-8.4a2.33,2.33,0,0,0-2.52-2.49c-2.47,0-3.67,1.65-3.67,3.88v7h-2Z"/><path class="cls-1" d="M925.05,287.7h2.47v1.8h-2.47v7.71c0,.93.26,1.1,1.53,1.1h.94v1.8H926c-2.11,0-3-.43-3-2.71v-7.9h-2.12v-1.8H923V284h2Z"/><path class="cls-1" d="M936.37,287.7h1.92v2.62h.05a4.53,4.53,0,0,1,4.56-2.91v2.16c-3.28,0-4.49,1.88-4.49,5v5.52h-2Z"/><path class="cls-1" d="M955.43,300.06a2.69,2.69,0,0,1-1.46.34c-1.06,0-1.73-.58-1.73-1.92a5.51,5.51,0,0,1-4.37,1.92c-2.26,0-4.1-1-4.1-3.48,0-2.81,2.08-3.41,4.2-3.82s4.17-.29,4.17-1.82c0-1.78-1.46-2.06-2.76-2.06-1.73,0-3,.52-3.09,2.35h-2c.12-3.08,2.49-4.16,5.25-4.16,2.23,0,4.66.51,4.66,3.41v6.39c0,1,0,1.39.65,1.39a1.63,1.63,0,0,0,.62-.12Zm-3.31-6.36c-.79.58-2.33.6-3.7.84s-2.49.72-2.49,2.24c0,1.34,1.15,1.82,2.4,1.82,2.68,0,3.79-1.68,3.79-2.81Z"/><path class="cls-1" d="M960.16,287.7h2.47v1.8h-2.47v7.71c0,.93.26,1.1,1.53,1.1h.94v1.8h-1.56c-2.11,0-3-.43-3-2.71v-7.9H956v-1.8h2.11V284h2Z"/><path class="cls-1" d="M975.47,296.18a5,5,0,0,1-5.3,4.22c-4,0-5.84-2.74-6-6.53s2.45-6.46,5.84-6.46c4.39,0,5.73,4.11,5.61,7.11h-9.29a3.66,3.66,0,0,0,3.87,4.08,3,3,0,0,0,3.21-2.42Zm-2-3.46a3.57,3.57,0,0,0-7.13,0Z"/><path class="cls-1" d="M995.15,299.06c0,4-1.85,6.09-5.76,6.09-2.33,0-5-.93-5.14-3.65h2c.1,1.49,1.87,2,3.22,2,2.66,0,3.72-1.92,3.72-4.7V298h-.05a4.13,4.13,0,0,1-3.86,2.26c-3.7,0-5.55-2.91-5.55-6.29,0-2.93,1.44-6.56,5.74-6.56a4.06,4.06,0,0,1,3.7,2.07h0V287.7h1.92Zm-2-5.41c0-2.18-1-4.43-3.52-4.43s-3.68,2.13-3.68,4.51c0,2.23.82,4.73,3.51,4.73S993.13,296,993.13,293.65Z"/><path class="cls-1" d="M998.34,283h2v17.14h-2Z"/><path class="cls-1" d="M1008.9,287.41c3.94,0,6,2.86,6,6.51s-2.09,6.48-6,6.48-6-2.86-6-6.48S1005,287.41,1008.9,287.41Zm0,11.19c2.14,0,3.87-1.68,3.87-4.68s-1.73-4.7-3.87-4.7-3.86,1.67-3.86,4.7S1006.76,298.6,1008.9,298.6Z"/><path class="cls-1" d="M1017.4,283h2v6.41h0a4.19,4.19,0,0,1,4-2c3.81,0,5.71,3,5.71,6.53s-1.87,6.46-5.67,6.46a4.77,4.77,0,0,1-4-1.94h0v1.65h-2Zm5.76,6.25c-2.74,0-3.8,2.35-3.8,4.67s1.11,4.71,3.92,4.71,3.72-2.38,3.72-4.8S1025.8,289.22,1023.16,289.22Z"/><path class="cls-1" d="M1042.55,300.06a2.73,2.73,0,0,1-1.47.34c-1,0-1.72-.58-1.72-1.92a5.51,5.51,0,0,1-4.37,1.92c-2.26,0-4.11-1-4.11-3.48,0-2.81,2.09-3.41,4.2-3.82,2.26-.43,4.18-.29,4.18-1.82,0-1.78-1.46-2.06-2.76-2.06-1.73,0-3,.52-3.1,2.35h-2c.12-3.08,2.5-4.16,5.26-4.16,2.23,0,4.66.51,4.66,3.41v6.39c0,1,0,1.39.64,1.39a1.67,1.67,0,0,0,.63-.12Zm-3.31-6.36c-.8.58-2.33.6-3.7.84s-2.5.72-2.5,2.24c0,1.34,1.16,1.82,2.4,1.82,2.69,0,3.8-1.68,3.8-2.81Z"/><path class="cls-1" d="M1044.56,283h2v17.14h-2Z"/><path class="cls-1" d="M1049.89,283h2v17.14h-2Z"/><path class="cls-1" d="M1060,301.77c-.93,2.42-1.77,3.31-3.6,3.31a4.06,4.06,0,0,1-1.42-.22V303a4.28,4.28,0,0,0,1.21.29,1.75,1.75,0,0,0,1.67-1.13l.84-2.11-4.92-12.34h2.31l3.62,10.16h0l3.48-10.16h2.16Z"/><path class="cls-1" d="M846.33,82.09c15.91,0,31.68,6.4,31.68,25.74,0,11.45-6.4,20.08-18.89,22.46v.29c14,1.64,22.76,11.9,22.76,26.48,0,21.27-15.92,31.24-35.55,31.24s-35.55-10-35.55-31.24c0-14.58,8.77-24.84,22.76-26.48v-.29c-12.5-2.38-18.89-11-18.89-22.46C814.65,88.49,830.41,82.09,846.33,82.09Zm0,51c-16.07,0-29.9,6.84-29.9,23.95,0,18.15,14.13,26.33,29.9,26.33s29.89-8.18,29.89-26.33C876.22,140,862.39,133.11,846.33,133.11Zm0-46.11c-13.54,0-26,5.21-26,20.83,0,14.57,12.79,20.37,26,20.37s26-5.8,26-20.37C872.36,92.21,859.86,87,846.33,87Z"/><path class="cls-1" d="M957.44,109.17C955.21,95.93,945.24,87,931.71,87c-28.26,0-32.13,33.17-32.13,53.4l.3.3a32.43,32.43,0,0,1,30.64-22c20.23,0,34.36,15,34.36,35.11,0,19.78-14.58,34.51-34.36,34.51-28.71,0-36.59-23.06-36.59-48.05,0-25.28,6.1-58.16,37.78-58.16,17.1,0,29.45,9.82,31.38,27.08Zm1.79,44.62c0-16.07-12.05-30.2-28.71-30.2-17,0-29,13.54-29,30.2,0,17,12.94,29.6,29,29.6C947,183.39,959.23,170,959.23,153.79Z"/><path class="cls-1" d="M976.33,108.72c0-14.73,9.37-26.63,24.84-26.63,15.62,0,24.55,11.46,24.55,26.63,0,14.13-9.67,26.33-24.7,26.33S976.33,123.15,976.33,108.72Zm43.73,0c0-11.6-6.54-21.72-19-21.72-12.34,0-19,10.26-19,21.72,0,10.86,7.28,21.42,18.89,21.42C1012.78,130.14,1020.06,119.58,1020.06,108.72Zm40-28.41h6L996.86,190.08h-6ZM1030.77,162c0-14.73,9.37-26.63,24.84-26.63,15.62,0,24.55,11.46,24.55,26.63,0,14.13-9.67,26.33-24.7,26.33S1030.77,176.4,1030.77,162Zm43.73,0c0-11.6-6.54-21.72-19-21.72-12.34,0-19,10.26-19,21.72,0,10.86,7.28,21.42,18.89,21.42C1067.21,183.39,1074.5,172.83,1074.5,162Z"/><path class="cls-2" d="M727.07,341.05h0a1.38,1.38,0,0,1-1.38-1.38v-.11a1.37,1.37,0,0,1,1.37-1.37h0a1.37,1.37,0,0,1,1.37,1.38v.11A1.37,1.37,0,0,1,727.07,341.05Zm0-7.83h0a1.37,1.37,0,0,1-1.37-1.38,1.43,1.43,0,0,1,1.38-1.43h0a1.35,1.35,0,0,1,1.38,1.33v.11A1.39,1.39,0,0,1,727.09,333.22Zm0-7.82h0a1.39,1.39,0,0,1-1.37-1.39,1.43,1.43,0,0,1,1.38-1.43h0a1.34,1.34,0,0,1,1.37,1.33V324A1.39,1.39,0,0,1,727.1,325.4Zm0-7.83a1.37,1.37,0,0,1-1.37-1.38v-.11a1.38,1.38,0,1,1,2.75,0v.11A1.38,1.38,0,0,1,727.11,317.57Zm0-7.83a1.38,1.38,0,0,1-1.38-1.38,1.43,1.43,0,0,1,1.38-1.43,1.33,1.33,0,0,1,1.38,1.32v.11A1.38,1.38,0,0,1,727.13,309.74Zm0-7.83a1.38,1.38,0,0,1-1.38-1.38,1.43,1.43,0,0,1,1.38-1.43,1.33,1.33,0,0,1,1.38,1.32v.11A1.38,1.38,0,0,1,727.14,301.91Zm0-7.83a1.37,1.37,0,0,1-1.37-1.38v-.11a1.38,1.38,0,1,1,2.75,0v.11A1.38,1.38,0,0,1,727.15,294.08Zm0-7.83a1.38,1.38,0,0,1-1.38-1.38,1.43,1.43,0,0,1,1.38-1.43,1.33,1.33,0,0,1,1.38,1.32v.11A1.38,1.38,0,0,1,727.17,286.25Zm0-7.83a1.37,1.37,0,0,1-1.38-1.37v-.12a1.38,1.38,0,0,1,2.76,0v.12A1.37,1.37,0,0,1,727.18,278.42Zm0-7.83a1.37,1.37,0,0,1-1.37-1.37,1.42,1.42,0,0,1,1.37-1.44,1.33,1.33,0,0,1,1.38,1.33v.11A1.37,1.37,0,0,1,727.19,270.59Zm0-7.82h0a1.39,1.39,0,0,1-1.37-1.39,1.43,1.43,0,0,1,1.38-1.43h0a1.34,1.34,0,0,1,1.37,1.33v.11A1.39,1.39,0,0,1,727.21,262.77Zm0-7.83h0a1.39,1.39,0,0,1-1.38-1.39v-.11a1.38,1.38,0,0,1,1.38-1.37h0a1.37,1.37,0,0,1,1.37,1.38v.11A1.38,1.38,0,0,1,727.22,254.94Zm0-7.83h0a1.38,1.38,0,0,1-1.37-1.39,1.42,1.42,0,0,1,1.38-1.42h0a1.32,1.32,0,0,1,1.37,1.33v.11A1.38,1.38,0,0,1,727.24,247.11Zm0-7.83h0a1.38,1.38,0,0,1-1.37-1.39v-.11a1.37,1.37,0,0,1,1.38-1.37h0a1.38,1.38,0,0,1,1.37,1.39v.11A1.38,1.38,0,0,1,727.25,239.28Zm0-7.83a1.38,1.38,0,0,1-1.38-1.38,1.43,1.43,0,0,1,1.38-1.43,1.33,1.33,0,0,1,1.38,1.32v.11A1.38,1.38,0,0,1,727.26,231.45Zm0-7.83a1.38,1.38,0,0,1-1.38-1.38,1.42,1.42,0,0,1,1.38-1.43,1.32,1.32,0,0,1,1.37,1.32v.11A1.37,1.37,0,0,1,727.28,223.62Zm0-7.83a1.38,1.38,0,0,1-1.38-1.38v-.11a1.38,1.38,0,0,1,2.76,0v.11A1.38,1.38,0,0,1,727.29,215.79Zm0-7.83a1.38,1.38,0,0,1-1.38-1.38,1.43,1.43,0,0,1,1.38-1.43,1.33,1.33,0,0,1,1.38,1.32v.11A1.38,1.38,0,0,1,727.3,208Zm0-7.83a1.37,1.37,0,0,1-1.38-1.37v-.12a1.38,1.38,0,0,1,2.75,0v.12A1.37,1.37,0,0,1,727.32,200.13Zm0-7.83a1.37,1.37,0,0,1-1.38-1.37,1.44,1.44,0,0,1,1.38-1.44,1.34,1.34,0,0,1,1.38,1.33v.11A1.37,1.37,0,0,1,727.33,192.3Zm0-7.82A1.37,1.37,0,0,1,726,183.1a1.43,1.43,0,0,1,1.37-1.44,1.34,1.34,0,0,1,1.38,1.33v.11A1.38,1.38,0,0,1,727.34,184.48Zm0-7.83h0a1.38,1.38,0,0,1-1.37-1.39v-.11a1.37,1.37,0,0,1,1.38-1.37h0a1.38,1.38,0,0,1,1.38,1.38v.12A1.39,1.39,0,0,1,727.36,176.65Zm0-7.83h0a1.39,1.39,0,0,1-1.37-1.39,1.42,1.42,0,0,1,1.38-1.42h0a1.33,1.33,0,0,1,1.37,1.33v.11A1.38,1.38,0,0,1,727.37,168.82Zm0-7.83h0A1.37,1.37,0,0,1,726,159.6v-.11a1.37,1.37,0,0,1,1.37-1.37h0a1.38,1.38,0,0,1,1.37,1.39v.11A1.37,1.37,0,0,1,727.38,161Zm0-7.83h0a1.37,1.37,0,0,1-1.37-1.38,1.43,1.43,0,0,1,1.38-1.43h0a1.33,1.33,0,0,1,1.38,1.33v.11A1.38,1.38,0,0,1,727.4,153.16Zm0-7.83A1.38,1.38,0,0,1,726,144a1.43,1.43,0,0,1,1.38-1.43,1.33,1.33,0,0,1,1.38,1.32V144A1.38,1.38,0,0,1,727.41,145.33Zm0-7.83a1.37,1.37,0,0,1-1.37-1.38V136a1.38,1.38,0,0,1,2.75,0v.11A1.37,1.37,0,0,1,727.42,137.5Zm0-7.83a1.37,1.37,0,0,1-1.38-1.37,1.43,1.43,0,0,1,1.38-1.44,1.33,1.33,0,0,1,1.38,1.33v.11A1.37,1.37,0,0,1,727.44,129.67Zm0-7.82a1.38,1.38,0,0,1-1.38-1.38v-.11a1.38,1.38,0,0,1,2.76,0v.11A1.38,1.38,0,0,1,727.45,121.85Zm0-7.83a1.38,1.38,0,0,1-1.38-1.38v-.11a1.38,1.38,0,1,1,2.75,0v.11A1.37,1.37,0,0,1,727.47,114Zm0-7.83a1.38,1.38,0,0,1-1.38-1.38,1.43,1.43,0,0,1,1.38-1.43,1.33,1.33,0,0,1,1.38,1.32v.11A1.38,1.38,0,0,1,727.48,106.19Zm0-7.83A1.38,1.38,0,0,1,726.11,97v-.11a1.38,1.38,0,0,1,2.76,0V97A1.38,1.38,0,0,1,727.49,98.36Zm0-7.83h0a1.37,1.37,0,0,1-1.37-1.39,1.42,1.42,0,0,1,1.38-1.42,1.33,1.33,0,0,1,1.37,1.33v.11A1.37,1.37,0,0,1,727.51,90.53Zm0-7.83h0a1.37,1.37,0,0,1-1.37-1.38,1.43,1.43,0,0,1,1.38-1.43h0a1.33,1.33,0,0,1,1.37,1.33v.11A1.38,1.38,0,0,1,727.52,82.7Zm0-7.83h0a1.38,1.38,0,0,1-1.38-1.38v-.11A1.39,1.39,0,0,1,727.53,72h0a1.38,1.38,0,0,1,1.37,1.39v.11A1.37,1.37,0,0,1,727.53,74.87Zm0-7.83h0a1.37,1.37,0,0,1-1.37-1.38,1.43,1.43,0,0,1,1.38-1.43h0a1.33,1.33,0,0,1,1.37,1.33v.11A1.37,1.37,0,0,1,727.55,67Zm0-7.83a1.37,1.37,0,0,1-1.38-1.37v-.12a1.38,1.38,0,0,1,2.76,0v.12A1.37,1.37,0,0,1,727.56,59.21Zm0-7.83A1.37,1.37,0,0,1,726.2,50a1.42,1.42,0,0,1,1.37-1.44A1.33,1.33,0,0,1,729,49.9V50A1.37,1.37,0,0,1,727.57,51.38Z"/><path class="cls-2" d="M524,300.93a1.93,1.93,0,0,1-1.32-.56l-10.8-10.8a1.86,1.86,0,0,1,0-2.56l75-75a1.79,1.79,0,0,1,1.32-.56,1.93,1.93,0,0,1,1.33.56l11.93,12a1.86,1.86,0,0,1,0,2.6l-24.25,24.25,13.27,13.26,24.24-24.25a1.83,1.83,0,0,1,1.33-.56,1.93,1.93,0,0,1,1.32.56l11.93,11.94a1.79,1.79,0,0,1,.53,1.28,1.68,1.68,0,0,1-.49,1.23l-46,46a1.79,1.79,0,0,1-1.32.56H564.39a1.84,1.84,0,0,1,0-3.68H581.2L625.38,253l-9.33-9.33L591.8,267.94a1.81,1.81,0,0,1-1.32.56,1.91,1.91,0,0,1-1.32-.56l-15.87-15.87a1.87,1.87,0,0,1,0-2.6l24.25-24.25-9.33-9.33-72.4,72.4,9,9h22.14a1.84,1.84,0,1,1,0,3.68Z"/><path class="cls-2" d="M504.34,247.17a4.75,4.75,0,0,1-3.5-1.51l-28.38-28.38a1.84,1.84,0,0,1-.34-.43L468,208.93l-2.23-2.23a1.82,1.82,0,0,1-.51-1.28,1.89,1.89,0,0,1,.56-1.28l15.86-15.86a1.84,1.84,0,0,1,1.3-.53,1.86,1.86,0,0,1,1.31.53l2.23,2.23,7.84,4.08a3.24,3.24,0,0,1,.5.38l28.41,28.36a4.89,4.89,0,0,1,0,6.93L507.8,245.73A4.91,4.91,0,0,1,504.34,247.17Zm-34.6-41.66,1.13,1.13a1.9,1.9,0,0,1,.34.42l4.07,8,29,29,17.2-17.2-29-29-7.85-4.08a3.1,3.1,0,0,1-.5-.38L483,192.25Z"/><path class="cls-2" d="M547.3,199a8.16,8.16,0,0,1-3.13-.61l-17.44-7a8.42,8.42,0,0,1-4.66-10.91l16-39.67-.86-.54a23.39,23.39,0,0,0-13.28-3.64c-9.6,0-14.32,4-19.33,8.29S493.87,154,482.87,154s-16.68-4.88-21.71-9.19-9.73-8.29-19.33-8.29a1.93,1.93,0,0,1-1.88-1.93,1.82,1.82,0,0,1,1.84-1.84c11,0,16.69,4.88,21.72,9.19s9.73,8.29,19.32,8.29,14.32-4,19.32-8.29,10.73-9.19,21.72-9.19a27.17,27.17,0,0,1,14.33,3.68l1.22.71,2.58-6.42a28.46,28.46,0,0,1,10.1-12.57,24.37,24.37,0,0,0,8.74-10.9l8-19.76a1.79,1.79,0,0,1,1.71-1.12,1.87,1.87,0,0,1,.71.13L584.73,92a1.77,1.77,0,0,1,1,1,1.86,1.86,0,0,1,0,1.43l-8,19.74a24.24,24.24,0,0,0-1.29,13.94,28.08,28.08,0,0,1-1.46,16l-2.13,5.31,2.82-1.35a39,39,0,0,0,8.41-6l.12-.1c5-4.31,10.72-9.19,21.72-9.19s16.69,4.88,21.71,9.19,9.73,8.29,19.33,8.29a1.84,1.84,0,1,1,0,3.68c-11,0-16.69-4.88-21.72-9.19s-9.73-8.29-19.32-8.29-14.32,4-19.33,8.29c-3.78,3.24-8.07,6.92-14.73,8.43l-.62.14-16.24,40.28a8.35,8.35,0,0,1-4.5,4.58A8.25,8.25,0,0,1,547.3,199ZM525.41,181.8a4.74,4.74,0,0,0,2.64,6.14l17.44,7a4.55,4.55,0,0,0,1.7.33,5,5,0,0,0,1.87-.37,4.73,4.73,0,0,0,2.56-2.6L567,154.07h-2.15c-11,0-16.69-4.88-21.72-9.19L541,143.1Zm38.9-73.07a28.49,28.49,0,0,1-10.1,12.56,24.48,24.48,0,0,0-8.74,10.9l-3,7.28.72.56c.53.42,1,.86,1.54,1.29l.84.7c5,4.26,9.72,8.29,19.31,8.29,1.07,0,2-.05,3-.14l.74-.07,3-7.37a24.27,24.27,0,0,0,1.29-13.95,28,28,0,0,1,1.46-16l7.28-18-10.09-4.06Z"/><path class="cls-1" d="M96,227.41c3.94,0,6,2.86,6,6.51s-2.09,6.48-6,6.48-6-2.86-6-6.48S92.07,227.41,96,227.41Zm0,11.19c2.14,0,3.87-1.68,3.87-4.68s-1.73-4.7-3.87-4.7-3.86,1.67-3.86,4.7S93.87,238.6,96,238.6Z"/><path class="cls-1" d="M105.27,229.5h-2.09v-1.8h2.09v-1.85c0-2,1.2-3.07,3.43-3.07A5,5,0,0,1,110,223v1.78a3.82,3.82,0,0,0-1.15-.17c-1,0-1.56.31-1.56,1.39v1.73h2.4v1.8h-2.4v10.61h-2Z"/><path class="cls-1" d="M118.27,227.7h2v1.68h0a4.19,4.19,0,0,1,4-2c3.82,0,5.72,3,5.72,6.53s-1.88,6.46-5.67,6.46a4.77,4.77,0,0,1-4-1.94h0v6.4h-2Zm5.77,1.52c-2.74,0-3.8,2.35-3.8,4.67s1.11,4.71,3.92,4.71,3.72-2.38,3.72-4.8S126.68,229.22,124,229.22Z"/><path class="cls-1" d="M132.36,227.7h1.92v2.62h.05a4.52,4.52,0,0,1,4.56-2.91v2.16c-3.29,0-4.49,1.88-4.49,5v5.52h-2Z"/><path class="cls-1" d="M145.35,227.41c3.93,0,6,2.86,6,6.51s-2.09,6.48-6,6.48-6-2.86-6-6.48S141.41,227.41,145.35,227.41Zm0,11.19c2.13,0,3.86-1.68,3.86-4.68s-1.73-4.7-3.86-4.7-3.87,1.67-3.87,4.7S143.21,238.6,145.35,238.6Z"/><path class="cls-1" d="M155.93,241.7c0,2.2-1.18,3.16-3,3.16a5.52,5.52,0,0,1-1-.09V243a5.91,5.91,0,0,0,.84,0c.89,0,1.15-.43,1.15-1.7V227.7h2Zm0-16.23h-2V223h2Z"/><path class="cls-1" d="M169.68,236.18a5,5,0,0,1-5.3,4.22c-4,0-5.83-2.74-5.95-6.53s2.44-6.46,5.83-6.46c4.39,0,5.74,4.11,5.61,7.11h-9.28a3.65,3.65,0,0,0,3.86,4.08,3,3,0,0,0,3.22-2.42Zm-2-3.46a3.56,3.56,0,0,0-3.57-3.5,3.52,3.52,0,0,0-3.55,3.5Z"/><path class="cls-1" d="M180.41,231.69a2.88,2.88,0,0,0-3.07-2.47c-3,0-3.87,2.32-3.87,4.84,0,2.28,1,4.54,3.63,4.54a3.21,3.21,0,0,0,3.41-3h2.08c-.45,3-2.35,4.82-5.47,4.82-3.79,0-5.81-2.64-5.81-6.34s1.92-6.65,5.86-6.65c2.81,0,5.06,1.32,5.35,4.28Z"/><path class="cls-1" d="M187.7,227.7h2.48v1.8H187.7v7.71c0,.93.27,1.1,1.54,1.1h.94v1.8h-1.56c-2.11,0-3-.43-3-2.71v-7.9h-2.11v-1.8h2.11V224h2Z"/><path class="cls-1" d="M203,236.18a5,5,0,0,1-5.31,4.22c-4,0-5.83-2.74-6-6.53s2.45-6.46,5.83-6.46c4.4,0,5.74,4.11,5.62,7.11h-9.29a3.66,3.66,0,0,0,3.87,4.08,3,3,0,0,0,3.21-2.42Zm-2-3.46a3.57,3.57,0,0,0-7.13,0Z"/><path class="cls-1" d="M216.41,240.11h-2v-1.68h-.05a4.17,4.17,0,0,1-4,2c-3.82,0-5.71-3-5.71-6.53s1.87-6.46,5.66-6.46a4.75,4.75,0,0,1,4,2h.05V223h2Zm-5.76-1.51c2.74,0,3.79-2.35,3.79-4.68s-1.1-4.7-3.91-4.7-3.72,2.37-3.72,4.79S208,238.6,210.65,238.6Z"/><path class="cls-1" d="M236.93,239.06c0,4-1.85,6.09-5.76,6.09-2.33,0-5-.93-5.14-3.65h2c.1,1.49,1.87,2,3.22,2,2.66,0,3.72-1.92,3.72-4.7V238h0a4.13,4.13,0,0,1-3.86,2.26c-3.7,0-5.55-2.91-5.55-6.29,0-2.93,1.44-6.56,5.74-6.56a4.06,4.06,0,0,1,3.7,2.07h0V227.7h1.92Zm-2-5.41c0-2.18-1-4.43-3.53-4.43s-3.67,2.13-3.67,4.51.82,4.73,3.51,4.73S234.91,236,234.91,233.65Z"/><path class="cls-1" d="M240.12,223h2v17.14h-2Z"/><path class="cls-1" d="M250.68,227.41c3.94,0,6,2.86,6,6.51s-2.08,6.48-6,6.48-6-2.86-6-6.48S246.74,227.41,250.68,227.41Zm0,11.19c2.14,0,3.86-1.68,3.86-4.68s-1.72-4.7-3.86-4.7-3.86,1.67-3.86,4.7S248.54,238.6,250.68,238.6Z"/><path class="cls-1" d="M259.18,223h2v6.41h0a4.19,4.19,0,0,1,4-2c3.82,0,5.72,3,5.72,6.53s-1.88,6.46-5.67,6.46a4.77,4.77,0,0,1-4-1.94h0v1.65h-2Zm5.76,6.25c-2.74,0-3.8,2.35-3.8,4.67s1.11,4.71,3.92,4.71,3.72-2.38,3.72-4.8S267.58,229.22,264.94,229.22Z"/><path class="cls-1" d="M284.33,240.06a2.73,2.73,0,0,1-1.47.34c-1.05,0-1.72-.58-1.72-1.92a5.51,5.51,0,0,1-4.37,1.92c-2.26,0-4.11-1-4.11-3.48,0-2.81,2.09-3.41,4.2-3.82s4.18-.29,4.18-1.82c0-1.78-1.46-2.06-2.76-2.06-1.73,0-3,.52-3.1,2.35h-2c.12-3.08,2.5-4.16,5.26-4.16,2.23,0,4.66.51,4.66,3.41v6.39c0,1,0,1.39.64,1.39a1.71,1.71,0,0,0,.63-.12ZM281,233.7c-.8.58-2.33.6-3.7.84s-2.5.72-2.5,2.24c0,1.34,1.16,1.82,2.4,1.82,2.69,0,3.8-1.68,3.8-2.81Z"/><path class="cls-1" d="M286.34,223h2v17.14h-2Z"/><path class="cls-1" d="M90.65,257.7h1.92v1.83h.05a4.58,4.58,0,0,1,4-2.12,3.3,3.3,0,0,1,3.41,2.12,4.59,4.59,0,0,1,3.88-2.12c2.48,0,4.13,1,4.13,3.6v9.1h-2V262c0-1.53-.41-2.75-2.4-2.75a3,3,0,0,0-3.24,3.16v7.73h-2V262c0-1.6-.5-2.75-2.33-2.75a3.35,3.35,0,0,0-3.31,3.16v7.73h-2Z"/><path class="cls-1" d="M113.28,255.47h-2V253h2Zm-2,2.23h2v12.41h-2Z"/><path class="cls-1" d="M117.7,266.2c.07,1.82,1.65,2.4,3.34,2.4,1.27,0,3-.29,3-1.85s-2-1.85-4.06-2.3-4.06-1.13-4.06-3.51,2.47-3.53,4.63-3.53c2.74,0,4.93.87,5.09,3.89h-2c-.14-1.58-1.53-2.08-2.88-2.08s-2.64.33-2.64,1.58c0,1.46,2.16,1.7,4.06,2.16s4.06,1.13,4.06,3.53c0,2.95-2.77,3.91-5.29,3.91-2.78,0-5.13-1.13-5.25-4.2Z"/><path class="cls-1" d="M128.45,257.7h1.92v1.83h0a4.58,4.58,0,0,1,4-2.12,3.28,3.28,0,0,1,3.4,2.12,4.62,4.62,0,0,1,3.89-2.12c2.48,0,4.13,1,4.13,3.6v9.1h-2V262c0-1.53-.41-2.75-2.4-2.75a3,3,0,0,0-3.24,3.16v7.73h-2V262c0-1.6-.5-2.75-2.33-2.75a3.35,3.35,0,0,0-3.31,3.16v7.73h-2Z"/><path class="cls-1" d="M159.92,270.06a2.73,2.73,0,0,1-1.47.34c-1,0-1.73-.58-1.73-1.92a5.51,5.51,0,0,1-4.37,1.92c-2.25,0-4.1-1-4.1-3.48,0-2.81,2.09-3.41,4.2-3.82,2.26-.43,4.18-.29,4.18-1.82,0-1.78-1.47-2.06-2.76-2.06-1.73,0-3,.52-3.1,2.35h-2c.12-3.08,2.5-4.16,5.26-4.16,2.23,0,4.65.51,4.65,3.41v6.39c0,1,0,1.39.65,1.39a1.71,1.71,0,0,0,.63-.12Zm-3.32-6.36c-.79.58-2.32.6-3.69.84s-2.5.72-2.5,2.24c0,1.34,1.15,1.82,2.4,1.82,2.69,0,3.79-1.68,3.79-2.81Z"/><path class="cls-1" d="M161.81,257.7h1.92v2h.05a4.33,4.33,0,0,1,4-2.26c3.27,0,4.27,1.88,4.27,4.54v8.16h-2v-8.4a2.33,2.33,0,0,0-2.52-2.49c-2.47,0-3.67,1.65-3.67,3.88v7h-2Z"/><path class="cls-1" d="M186.15,270.06a2.73,2.73,0,0,1-1.47.34c-1.05,0-1.73-.58-1.73-1.92a5.49,5.49,0,0,1-4.36,1.92c-2.26,0-4.11-1-4.11-3.48,0-2.81,2.09-3.41,4.2-3.82s4.18-.29,4.18-1.82c0-1.78-1.47-2.06-2.76-2.06-1.73,0-3,.52-3.1,2.35h-2c.12-3.08,2.5-4.16,5.26-4.16,2.23,0,4.65.51,4.65,3.41v6.39c0,1,0,1.39.65,1.39a1.71,1.71,0,0,0,.63-.12Zm-3.32-6.36c-.79.58-2.32.6-3.69.84s-2.5.72-2.5,2.24c0,1.34,1.15,1.82,2.4,1.82,2.69,0,3.79-1.68,3.79-2.81Z"/><path class="cls-1" d="M198.75,269.06c0,4-1.85,6.09-5.76,6.09-2.33,0-5-.93-5.14-3.65h2c.1,1.49,1.87,2,3.22,2,2.66,0,3.72-1.92,3.72-4.7V268h-.05a4.15,4.15,0,0,1-3.87,2.26c-3.69,0-5.54-2.91-5.54-6.29,0-2.93,1.44-6.56,5.74-6.56a4,4,0,0,1,3.69,2.07h0V257.7h1.92Zm-2-5.41c0-2.18-1-4.43-3.53-4.43s-3.67,2.13-3.67,4.51c0,2.23.82,4.73,3.5,4.73S196.73,266,196.73,263.65Z"/><path class="cls-1" d="M212.4,266.18a5,5,0,0,1-5.3,4.22c-4,0-5.83-2.74-5.95-6.53s2.44-6.46,5.83-6.46c4.39,0,5.73,4.11,5.61,7.11h-9.28a3.65,3.65,0,0,0,3.86,4.08,3,3,0,0,0,3.22-2.42Zm-2-3.46a3.56,3.56,0,0,0-3.57-3.5,3.52,3.52,0,0,0-3.55,3.5Z"/><path class="cls-1" d="M225.79,270.11h-2v-1.68h0a4.19,4.19,0,0,1-4,2c-3.82,0-5.72-3-5.72-6.53s1.88-6.46,5.67-6.46a4.76,4.76,0,0,1,4,1.95h0V253h2ZM220,268.6c2.74,0,3.8-2.35,3.8-4.68s-1.11-4.7-3.92-4.7-3.72,2.37-3.72,4.79S217.39,268.6,220,268.6Z"/><path class="cls-1" d="M235.68,257.7h2v1.68h.05a4.18,4.18,0,0,1,4-2c3.82,0,5.71,3,5.71,6.53s-1.87,6.46-5.66,6.46a4.76,4.76,0,0,1-4-1.94h-.05v6.4h-2Zm5.76,1.52c-2.74,0-3.79,2.35-3.79,4.67s1.1,4.71,3.91,4.71,3.72-2.38,3.72-4.8S244.08,259.22,241.44,259.22Z"/><path class="cls-1" d="M250,253h2v17.14h-2Z"/><path class="cls-1" d="M266.16,270.06a2.72,2.72,0,0,1-1.46.34c-1.06,0-1.73-.58-1.73-1.92a5.51,5.51,0,0,1-4.37,1.92c-2.26,0-4.1-1-4.1-3.48,0-2.81,2.08-3.41,4.2-3.82s4.17-.29,4.17-1.82c0-1.78-1.46-2.06-2.76-2.06-1.73,0-3,.52-3.09,2.35h-2c.12-3.08,2.49-4.16,5.25-4.16,2.23,0,4.66.51,4.66,3.41v6.39c0,1,0,1.39.65,1.39a1.66,1.66,0,0,0,.62-.12Zm-3.31-6.36c-.79.58-2.33.6-3.7.84s-2.49.72-2.49,2.24c0,1.34,1.15,1.82,2.4,1.82,2.69,0,3.79-1.68,3.79-2.81Z"/><path class="cls-1" d="M269.3,266.2c.08,1.82,1.66,2.4,3.34,2.4,1.27,0,3-.29,3-1.85s-2-1.85-4.06-2.3-4.05-1.13-4.05-3.51,2.47-3.53,4.63-3.53c2.74,0,4.92.87,5.09,3.89h-2c-.15-1.58-1.54-2.08-2.88-2.08s-2.64.33-2.64,1.58c0,1.46,2.16,1.7,4.05,2.16s4.06,1.13,4.06,3.53c0,2.95-2.76,3.91-5.28,3.91-2.78,0-5.14-1.13-5.26-4.2Z"/><path class="cls-1" d="M282.89,257.7h2.47v1.8h-2.47v7.71c0,.93.26,1.1,1.53,1.1h.94v1.8H283.8c-2.11,0-2.95-.43-2.95-2.71v-7.9h-2.11v-1.8h2.11V254h2Z"/><path class="cls-1" d="M289.78,255.47h-2V253h2Zm-2,2.23h2v12.41h-2Z"/><path class="cls-1" d="M301.37,261.69a2.88,2.88,0,0,0-3.07-2.47c-3,0-3.87,2.32-3.87,4.84,0,2.28,1,4.54,3.63,4.54a3.2,3.2,0,0,0,3.4-3h2.09c-.45,3-2.35,4.82-5.47,4.82-3.79,0-5.81-2.64-5.81-6.34s1.92-6.65,5.86-6.65c2.81,0,5.06,1.32,5.35,4.28Z"/><path class="cls-1" d="M324.79,270.11h-2.16l-2.52-9.86h-.05l-2.49,9.86h-2.21l-4-12.41h2.26l2.81,10.16h.05L319,257.7h2.24l2.59,10.16h.05l2.78-10.16h2.11Z"/><path class="cls-1" d="M341.69,270.06a2.73,2.73,0,0,1-1.47.34c-1.05,0-1.72-.58-1.72-1.92a5.51,5.51,0,0,1-4.37,1.92c-2.26,0-4.11-1-4.11-3.48,0-2.81,2.09-3.41,4.2-3.82s4.18-.29,4.18-1.82c0-1.78-1.46-2.06-2.76-2.06-1.73,0-3,.52-3.1,2.35h-2c.12-3.08,2.5-4.16,5.26-4.16,2.23,0,4.65.51,4.65,3.41v6.39c0,1,0,1.39.65,1.39a1.71,1.71,0,0,0,.63-.12Zm-3.32-6.36c-.79.58-2.32.6-3.69.84s-2.5.72-2.5,2.24c0,1.34,1.15,1.82,2.4,1.82,2.69,0,3.79-1.68,3.79-2.81Z"/><path class="cls-1" d="M344.83,266.2c.07,1.82,1.66,2.4,3.34,2.4,1.27,0,3-.29,3-1.85s-2-1.85-4.06-2.3-4.06-1.13-4.06-3.51,2.48-3.53,4.64-3.53c2.73,0,4.92.87,5.09,3.89h-2c-.15-1.58-1.54-2.08-2.89-2.08s-2.64.33-2.64,1.58c0,1.46,2.16,1.7,4.06,2.16s4.06,1.13,4.06,3.53c0,2.95-2.76,3.91-5.28,3.91-2.79,0-5.14-1.13-5.26-4.2Z"/><path class="cls-1" d="M358.41,257.7h2.48v1.8h-2.48v7.71c0,.93.27,1.1,1.54,1.1h.94v1.8h-1.56c-2.12,0-3-.43-3-2.71v-7.9h-2.11v-1.8h2.11V254h2Z"/><path class="cls-1" d="M373.73,266.18a5,5,0,0,1-5.31,4.22c-4,0-5.83-2.74-5.95-6.53s2.45-6.46,5.83-6.46c4.39,0,5.74,4.11,5.62,7.11h-9.29a3.65,3.65,0,0,0,3.86,4.08,3,3,0,0,0,3.22-2.42Zm-2-3.46a3.57,3.57,0,0,0-3.58-3.5,3.53,3.53,0,0,0-3.55,3.5Z"/><path class="cls-1" d="M92.81,285.47h-2V283h2Zm-2,2.23h2v12.41h-2Z"/><path class="cls-1" d="M96,287.7H97.9v2h0a4.32,4.32,0,0,1,4-2.26c3.26,0,4.27,1.88,4.27,4.54v8.16h-2v-8.4a2.33,2.33,0,0,0-2.52-2.49c-2.47,0-3.67,1.65-3.67,3.88v7H96Z"/><path class="cls-1" d="M115.51,289.12c-.16-3.46,1.88-6,5.48-6,3,0,5.33,1.73,5.33,4.9,0,3-2,4.51-4.13,5.83s-4.37,2.38-4.78,4.49h8.74v1.8H115c.33-4,2.37-5.47,4.77-7,2.88-1.77,4.35-2.83,4.35-5.18a3.11,3.11,0,0,0-3.29-3.08c-2.38,0-3.39,2.19-3.32,4.23Z"/><path class="cls-1" d="M134.47,283.09c5.33,0,5.67,4.9,5.67,8.67s-.34,8.64-5.67,8.64-5.66-4.9-5.66-8.64S129.15,283.09,134.47,283.09Zm0,15.51c3.48,0,3.51-4.32,3.51-6.87s0-6.84-3.51-6.84-3.5,4.33-3.5,6.84S131,298.6,134.47,298.6Z"/><path class="cls-1" d="M142.2,289.12c-.17-3.46,1.87-6,5.47-6,3,0,5.33,1.73,5.33,4.9,0,3-2,4.51-4.13,5.83s-4.36,2.38-4.77,4.49h8.73v1.8H141.72c.34-4,2.38-5.47,4.78-7,2.88-1.77,4.34-2.83,4.34-5.18a3.11,3.11,0,0,0-3.29-3.08c-2.37,0-3.38,2.19-3.31,4.23Z"/><path class="cls-1" d="M165.77,285.18h-6.86l-.92,4.9,0,.05a4.33,4.33,0,0,1,3.17-1.23c3,0,5.5,2,5.5,5.84a5.56,5.56,0,0,1-6,5.66c-2.95,0-5.35-1.8-5.42-4.87h2A3.35,3.35,0,0,0,161,298.6c1.94,0,3.6-1.32,3.6-4a3.69,3.69,0,0,0-3.84-3.87,4.08,4.08,0,0,0-3.17,1.61l-1.75-.09,1.58-8.84h8.4Z"/><path class="cls-1" d="M188.33,300.11h-2.16l-2.52-9.86h-.05l-2.49,9.86H178.9l-4-12.41h2.26L180,297.86H180l2.49-10.16h2.23l2.6,10.16h0l2.79-10.16h2.11Z"/><path class="cls-1" d="M196.39,285.47h-2V283h2Zm-2,2.23h2v12.41h-2Z"/><path class="cls-1" d="M199.68,283h2v17.14h-2Z"/><path class="cls-1" d="M205,283h2v17.14h-2Z"/><path class="cls-1" d="M225.31,291.69a2.88,2.88,0,0,0-3.07-2.47c-3,0-3.86,2.32-3.86,4.84,0,2.28,1,4.54,3.62,4.54a3.2,3.2,0,0,0,3.41-3h2.09c-.46,3-2.35,4.82-5.48,4.82-3.79,0-5.8-2.64-5.8-6.34s1.92-6.65,5.85-6.65c2.81,0,5.07,1.32,5.36,4.28Z"/><path class="cls-1" d="M235.13,287.41c3.93,0,6,2.86,6,6.51s-2.09,6.48-6,6.48-6-2.86-6-6.48S231.19,287.41,235.13,287.41Zm0,11.19c2.13,0,3.86-1.68,3.86-4.68s-1.73-4.7-3.86-4.7-3.87,1.67-3.87,4.7S233,298.6,235.13,298.6Z"/><path class="cls-1" d="M243.55,287.7h1.92v1.83h.05a4.58,4.58,0,0,1,4-2.12,3.3,3.3,0,0,1,3.41,2.12,4.59,4.59,0,0,1,3.89-2.12c2.47,0,4.12,1,4.12,3.6v9.1h-2V292c0-1.53-.41-2.75-2.4-2.75a3,3,0,0,0-3.24,3.16v7.73h-2V292c0-1.6-.5-2.75-2.33-2.75a3.35,3.35,0,0,0-3.31,3.16v7.73h-2Z"/><path class="cls-1" d="M274.61,296.18a5,5,0,0,1-5.31,4.22c-4,0-5.83-2.74-5.95-6.53s2.45-6.46,5.83-6.46c4.4,0,5.74,4.11,5.62,7.11h-9.29a3.66,3.66,0,0,0,3.87,4.08,3,3,0,0,0,3.21-2.42Zm-2-3.46a3.57,3.57,0,0,0-7.13,0Z"/><path class="cls-1" d="M284.42,289.5h-2.08v-1.8h2.08v-1.85c0-2,1.2-3.07,3.44-3.07a5.07,5.07,0,0,1,1.32.19v1.78a3.88,3.88,0,0,0-1.16-.17c-1,0-1.56.31-1.56,1.39v1.73h2.4v1.8h-2.4v10.61h-2Z"/><path class="cls-1" d="M290.62,287.7h1.92v2.62h0a4.53,4.53,0,0,1,4.56-2.91v2.16c-3.28,0-4.48,1.88-4.48,5v5.52h-2Z"/><path class="cls-1" d="M303.6,287.41c3.94,0,6,2.86,6,6.51s-2.08,6.48-6,6.48-6-2.86-6-6.48S299.66,287.41,303.6,287.41Zm0,11.19c2.14,0,3.86-1.68,3.86-4.68s-1.72-4.7-3.86-4.7-3.86,1.67-3.86,4.7S301.46,298.6,303.6,298.6Z"/><path class="cls-1" d="M312,287.7h1.92v1.83H314a4.59,4.59,0,0,1,4-2.12,3.3,3.3,0,0,1,3.41,2.12,4.59,4.59,0,0,1,3.89-2.12c2.47,0,4.12,1,4.12,3.6v9.1h-2V292c0-1.53-.4-2.75-2.4-2.75a3,3,0,0,0-3.24,3.16v7.73h-2V292c0-1.6-.5-2.75-2.32-2.75a3.35,3.35,0,0,0-3.32,3.16v7.73h-2Z"/><path class="cls-1" d="M349.42,288c-.27-2.45-1.9-3.5-4.25-3.5-1.92,0-3.84.69-3.84,2.92s2.73,2.43,5.49,3,5.48,1.59,5.48,5c0,3.65-3.58,5.11-6.7,5.11-3.84,0-7.08-1.87-7.08-6h2.16c0,2.88,2.4,4.13,5,4.13,2.07,0,4.35-.65,4.35-3.12s-2.74-2.76-5.48-3.36-5.49-1.39-5.49-4.54c0-3.48,3.09-5,6.21-5,3.51,0,6.17,1.65,6.32,5.42Z"/><path class="cls-1" d="M355.05,283h11.84v1.92h-9.56v5.45h8.91v1.92h-8.91v5.93H367v1.92H355.05Z"/><path class="cls-1" d="M374.37,283h2.53l6.69,17.14h-2.52L379.2,295H372L370,300.11h-2.35ZM372.67,293h5.81l-2.86-8h0Z"/><path class="cls-1" d="M115.27,83.88h51.91v4.91H119.74L111,129.69l.3.3c5.95-8.18,15.17-12.35,25.43-12.35,20.38,0,34.81,14.58,34.81,35s-14.28,35.7-34.81,35.7c-19.63,0-36.59-12.5-35.25-33.17h5.65c-.3,17.1,13.09,28.26,29.6,28.26,17.4,0,29.16-14,29.16-30.79,0-16.66-12.35-30-29.16-30-11.6,0-19.78,4.91-26.33,14.43h-5.8Z"/><path class="cls-1" d="M248.4,109.17C246.17,95.93,236.2,87,222.67,87c-28.26,0-32.13,33.17-32.13,53.4l.3.3a32.43,32.43,0,0,1,30.64-22c20.23,0,34.36,15,34.36,35.11,0,19.78-14.58,34.51-34.36,34.51-28.71,0-36.59-23.06-36.59-48.05,0-25.28,6.1-58.16,37.78-58.16,17.1,0,29.45,9.82,31.38,27.08Zm1.78,44.62c0-16.07-12-30.2-28.7-30.2-17,0-29,13.54-29,30.2,0,17,12.94,29.6,29,29.6C238,183.39,250.18,170,250.18,153.79Z"/><path class="cls-1" d="M267.29,108.72c0-14.73,9.37-26.63,24.84-26.63,15.62,0,24.54,11.46,24.54,26.63,0,14.13-9.66,26.33-24.69,26.33S267.29,123.15,267.29,108.72Zm43.73,0C311,97.12,304.48,87,292,87c-12.34,0-19,10.27-19,21.72,0,10.86,7.29,21.42,18.89,21.42C303.73,130.14,311,119.58,311,108.72Zm40-28.41h6L287.82,190.08h-5.95ZM321.73,162c0-14.73,9.37-26.63,24.84-26.63,15.62,0,24.54,11.46,24.54,26.63,0,14.13-9.66,26.33-24.69,26.33S321.73,176.4,321.73,162Zm43.73,0c0-11.6-6.54-21.72-19-21.72-12.34,0-19,10.27-19,21.72,0,10.86,7.29,21.42,18.89,21.42C358.17,183.39,365.46,172.83,365.46,162Z"/><path class="cls-1" d="M635.35,475.05a2.82,2.82,0,0,1-1.46.33c-1.06,0-1.73-.58-1.73-1.92a5.51,5.51,0,0,1-4.37,1.92c-2.26,0-4.11-1-4.11-3.48,0-2.81,2.09-3.41,4.2-3.82s4.18-.28,4.18-1.82c0-1.78-1.46-2.06-2.76-2.06-1.73,0-3,.52-3.1,2.35h-2c.13-3.07,2.5-4.15,5.26-4.15,2.23,0,4.66.5,4.66,3.4v6.39c0,1,0,1.39.65,1.39a1.66,1.66,0,0,0,.62-.12ZM632,468.68c-.79.58-2.33.6-3.7.84s-2.5.72-2.5,2.24c0,1.34,1.16,1.82,2.41,1.82,2.68,0,3.79-1.68,3.79-2.81Z"/><path class="cls-1" d="M637.24,462.68h1.92v2h.05a4.34,4.34,0,0,1,4-2.25c3.26,0,4.27,1.87,4.27,4.53v8.16h-2v-8.4A2.33,2.33,0,0,0,643,464.2c-2.48,0-3.68,1.65-3.68,3.88v7h-2Z"/><path class="cls-1" d="M650.59,462.68h1.92v2h0a4.31,4.31,0,0,1,4-2.25c3.26,0,4.27,1.87,4.27,4.53v8.16h-2v-8.4a2.33,2.33,0,0,0-2.52-2.49c-2.47,0-3.67,1.65-3.67,3.88v7h-2Z"/><path class="cls-1" d="M674.2,475.09h-1.91v-2h0a4.34,4.34,0,0,1-4,2.25c-3.26,0-4.27-1.87-4.27-4.54v-8.16h2v8.4a2.34,2.34,0,0,0,2.52,2.5c2.47,0,3.67-1.65,3.67-3.89v-7h2Z"/><path class="cls-1" d="M688.27,475.05a2.83,2.83,0,0,1-1.47.33c-1,0-1.72-.58-1.72-1.92a5.51,5.51,0,0,1-4.37,1.92c-2.26,0-4.11-1-4.11-3.48,0-2.81,2.09-3.41,4.2-3.82,2.26-.43,4.18-.28,4.18-1.82,0-1.78-1.46-2.06-2.76-2.06-1.73,0-3,.52-3.1,2.35h-2c.12-3.07,2.5-4.15,5.26-4.15,2.23,0,4.66.5,4.66,3.4v6.39c0,1,0,1.39.65,1.39a1.7,1.7,0,0,0,.62-.12ZM685,468.68c-.8.58-2.33.6-3.7.84s-2.5.72-2.5,2.24c0,1.34,1.16,1.82,2.4,1.82,2.69,0,3.8-1.68,3.8-2.81Z"/><path class="cls-1" d="M690.28,458h2v17.13h-2Z"/><path class="cls-1" d="M702.09,462.68H704v2.62h0a4.5,4.5,0,0,1,4.56-2.9v2.16c-3.29,0-4.49,1.87-4.49,5v5.52h-2Z"/><path class="cls-1" d="M721.15,475.05a2.83,2.83,0,0,1-1.47.33c-1,0-1.72-.58-1.72-1.92a5.51,5.51,0,0,1-4.37,1.92c-2.26,0-4.11-1-4.11-3.48,0-2.81,2.09-3.41,4.2-3.82,2.26-.43,4.18-.28,4.18-1.82,0-1.78-1.46-2.06-2.76-2.06-1.73,0-3,.52-3.1,2.35h-2c.12-3.07,2.5-4.15,5.26-4.15,2.23,0,4.66.5,4.66,3.4v6.39c0,1,0,1.39.64,1.39a1.71,1.71,0,0,0,.63-.12Zm-3.31-6.37c-.8.58-2.33.6-3.7.84s-2.5.72-2.5,2.24c0,1.34,1.15,1.82,2.4,1.82,2.69,0,3.8-1.68,3.8-2.81Z"/><path class="cls-1" d="M725.87,462.68h2.48v1.8h-2.48v7.71c0,.94.27,1.1,1.54,1.1h.94v1.8h-1.56c-2.12,0-3-.43-3-2.71v-7.9h-2.11v-1.8h2.11V459h2Z"/><path class="cls-1" d="M741.19,471.16a5,5,0,0,1-5.31,4.22c-4,0-5.83-2.74-6-6.53s2.45-6.45,5.83-6.45c4.4,0,5.74,4.1,5.62,7.1h-9.29a3.65,3.65,0,0,0,3.86,4.08,3,3,0,0,0,3.22-2.42Zm-2-3.46a3.57,3.57,0,0,0-3.58-3.5,3.53,3.53,0,0,0-3.55,3.5Z"/><path class="cls-1" d="M755.51,462.4c3.94,0,6,2.85,6,6.5s-2.09,6.48-6,6.48-6-2.86-6-6.48S751.58,462.4,755.51,462.4Zm0,11.18c2.14,0,3.87-1.68,3.87-4.68s-1.73-4.7-3.87-4.7-3.86,1.68-3.86,4.7S753.38,473.58,755.51,473.58Z"/><path class="cls-1" d="M764.78,464.48h-2.09v-1.8h2.09v-1.84c0-2,1.2-3.08,3.43-3.08a5,5,0,0,1,1.32.2v1.77a3.82,3.82,0,0,0-1.15-.17c-1,0-1.56.32-1.56,1.4v1.72h2.4v1.8h-2.4v10.61h-2Z"/><path class="cls-1" d="M788.8,475.09h-2v-1.68h0a4.17,4.17,0,0,1-4,2c-3.81,0-5.71-3-5.71-6.53s1.87-6.45,5.67-6.45a4.74,4.74,0,0,1,4,1.94h0V458h2ZM783,473.58c2.74,0,3.79-2.35,3.79-4.68s-1.1-4.7-3.91-4.7-3.72,2.37-3.72,4.8S780.4,473.58,783,473.58Z"/><path class="cls-1" d="M802.53,471.16a5,5,0,0,1-5.3,4.22c-4,0-5.84-2.74-6-6.53s2.45-6.45,5.84-6.45c4.39,0,5.73,4.1,5.61,7.1h-9.29a3.66,3.66,0,0,0,3.87,4.08,3,3,0,0,0,3.21-2.42Zm-2-3.46a3.57,3.57,0,0,0-7.13,0Z"/><path class="cls-1" d="M805.67,464.48h-2.09v-1.8h2.09v-1.84c0-2,1.2-3.08,3.44-3.08a5,5,0,0,1,1.31.2v1.77a3.77,3.77,0,0,0-1.15-.17c-1,0-1.56.32-1.56,1.4v1.72h2.4v1.8h-2.4v10.61h-2Z"/><path class="cls-1" d="M817.29,462.4c3.93,0,6,2.85,6,6.5s-2.09,6.48-6,6.48-6-2.86-6-6.48S813.35,462.4,817.29,462.4Zm0,11.18c2.13,0,3.86-1.68,3.86-4.68s-1.73-4.7-3.86-4.7-3.87,1.68-3.87,4.7S815.15,473.58,817.29,473.58Z"/><path class="cls-1" d="M825.64,462.68h1.92v2.62h.05a4.5,4.5,0,0,1,4.56-2.9v2.16c-3.29,0-4.49,1.87-4.49,5v5.52h-2Z"/><path class="cls-1" d="M843.86,471.16a5,5,0,0,1-5.31,4.22c-4,0-5.83-2.74-5.95-6.53s2.45-6.45,5.83-6.45c4.4,0,5.74,4.1,5.62,7.1h-9.29a3.65,3.65,0,0,0,3.86,4.08,3,3,0,0,0,3.22-2.42Zm-2-3.46a3.57,3.57,0,0,0-3.58-3.5,3.53,3.53,0,0,0-3.55,3.5Z"/><path class="cls-1" d="M847.41,471.18c.07,1.83,1.65,2.4,3.33,2.4,1.28,0,3-.29,3-1.85s-2-1.84-4-2.3-4.06-1.13-4.06-3.51,2.47-3.52,4.63-3.52c2.74,0,4.92.86,5.09,3.88h-2c-.14-1.58-1.53-2.08-2.88-2.08s-2.64.33-2.64,1.58c0,1.46,2.16,1.7,4.06,2.16s4,1.13,4,3.53c0,2.95-2.76,3.91-5.28,3.91-2.78,0-5.13-1.13-5.25-4.2Z"/><path class="cls-1" d="M861,462.68h2.47v1.8H861v7.71c0,.94.27,1.1,1.54,1.1h.93v1.8H861.9c-2.11,0-2.95-.43-2.95-2.71v-7.9h-2.11v-1.8H859V459h2Z"/><path class="cls-1" d="M876.71,475.05a2.79,2.79,0,0,1-1.46.33c-1.06,0-1.73-.58-1.73-1.92a5.51,5.51,0,0,1-4.37,1.92c-2.25,0-4.1-1-4.1-3.48,0-2.81,2.09-3.41,4.2-3.82s4.17-.28,4.17-1.82c0-1.78-1.46-2.06-2.76-2.06-1.72,0-3,.52-3.09,2.35h-2c.12-3.07,2.49-4.15,5.25-4.15,2.24,0,4.66.5,4.66,3.4v6.39c0,1,0,1.39.65,1.39a1.63,1.63,0,0,0,.62-.12Zm-3.31-6.37c-.79.58-2.33.6-3.7.84s-2.49.72-2.49,2.24c0,1.34,1.15,1.82,2.4,1.82,2.69,0,3.79-1.68,3.79-2.81Z"/><path class="cls-1" d="M881.44,462.68h2.47v1.8h-2.47v7.71c0,.94.26,1.1,1.54,1.1h.93v1.8h-1.56c-2.11,0-3-.43-3-2.71v-7.9h-2.11v-1.8h2.11V459h2Z"/><path class="cls-1" d="M888.33,460.45h-2V458h2Zm-2,2.23h2v12.41h-2Z"/><path class="cls-1" d="M896.85,462.4c3.93,0,6,2.85,6,6.5s-2.09,6.48-6,6.48-6-2.86-6-6.48S892.91,462.4,896.85,462.4Zm0,11.18c2.13,0,3.86-1.68,3.86-4.68s-1.73-4.7-3.86-4.7-3.87,1.68-3.87,4.7S894.71,473.58,896.85,473.58Z"/><path class="cls-1" d="M905.27,462.68h1.92v2h0a4.32,4.32,0,0,1,4-2.25c3.27,0,4.27,1.87,4.27,4.53v8.16h-2v-8.4A2.33,2.33,0,0,0,911,464.2c-2.47,0-3.67,1.65-3.67,3.88v7h-2Z"/><path class="cls-1" d="M919.07,472.43h2.66v2.42a3.57,3.57,0,0,1-2.64,3.77v-1.2a2.32,2.32,0,0,0,1.4-2.33h-1.42Z"/><path class="cls-1" d="M627.19,492.68h2.47v1.8h-2.47v7.71c0,.94.26,1.1,1.53,1.1h.94v1.8H628.1c-2.11,0-3-.43-3-2.71v-7.9H623v-1.8h2.11V489h2Z"/><path class="cls-1" d="M631.92,488h2v6.55h0a4.21,4.21,0,0,1,3.92-2.11c3.26,0,4.27,1.87,4.27,4.53v8.16h-2v-8.4a2.33,2.33,0,0,0-2.52-2.49c-2.47,0-3.67,1.65-3.67,3.88v7h-2Z"/><path class="cls-1" d="M655.85,501.16a5,5,0,0,1-5.31,4.22c-4,0-5.83-2.74-5.95-6.53s2.45-6.45,5.83-6.45c4.39,0,5.74,4.1,5.62,7.1h-9.29a3.65,3.65,0,0,0,3.86,4.08,3,3,0,0,0,3.22-2.42Zm-2-3.46a3.57,3.57,0,0,0-3.58-3.5,3.52,3.52,0,0,0-3.55,3.5Z"/><path class="cls-1" d="M664.82,488h2v6.55h0a4.19,4.19,0,0,1,3.91-2.11c3.26,0,4.27,1.87,4.27,4.53v8.16h-2v-8.4a2.33,2.33,0,0,0-2.52-2.49c-2.47,0-3.67,1.65-3.67,3.88v7h-2Z"/><path class="cls-1" d="M680.32,490.45h-2V488h2Zm-2,2.23h2v12.41h-2Z"/><path class="cls-1" d="M694.2,504c0,4-1.85,6.09-5.76,6.09-2.33,0-5-.93-5.14-3.64h2c.1,1.48,1.87,2,3.22,2,2.66,0,3.72-1.92,3.72-4.7V503h0a4.15,4.15,0,0,1-3.87,2.26c-3.69,0-5.54-2.91-5.54-6.29,0-2.93,1.44-6.55,5.74-6.55a4,4,0,0,1,3.69,2.06h0v-1.78h1.92Zm-2-5.4c0-2.19-1-4.44-3.53-4.44s-3.67,2.13-3.67,4.51.82,4.73,3.5,4.73S692.18,501,692.18,498.64Z"/><path class="cls-1" d="M697.27,488h2v6.55h.05a4.19,4.19,0,0,1,3.91-2.11c3.26,0,4.27,1.87,4.27,4.53v8.16h-2v-8.4A2.33,2.33,0,0,0,703,494.2c-2.47,0-3.67,1.65-3.67,3.88v7h-2Z"/><path class="cls-1" d="M721.2,501.16a5,5,0,0,1-5.31,4.22c-4,0-5.83-2.74-5.95-6.53s2.45-6.45,5.83-6.45c4.39,0,5.74,4.1,5.62,7.1H712.1a3.65,3.65,0,0,0,3.86,4.08,3,3,0,0,0,3.22-2.42Zm-2-3.46a3.57,3.57,0,0,0-3.58-3.5,3.53,3.53,0,0,0-3.55,3.5Z"/><path class="cls-1" d="M724.75,501.18c.07,1.83,1.65,2.4,3.33,2.4,1.28,0,3-.29,3-1.85s-2-1.84-4.05-2.3S723,498.3,723,495.92s2.47-3.52,4.63-3.52c2.74,0,4.92.86,5.09,3.88h-2c-.14-1.58-1.53-2.08-2.88-2.08s-2.64.33-2.64,1.58c0,1.46,2.16,1.7,4.06,2.16s4,1.13,4,3.53c0,2.95-2.76,3.91-5.28,3.91-2.78,0-5.13-1.13-5.25-4.2Z"/><path class="cls-1" d="M738.33,492.68h2.47v1.8h-2.47v7.71c0,.94.26,1.1,1.54,1.1h.93v1.8h-1.56c-2.11,0-3-.43-3-2.71v-7.9h-2.11v-1.8h2.11V489h2Z"/><path class="cls-1" d="M755.08,492.4c3.94,0,6,2.85,6,6.5s-2.09,6.48-6,6.48-6-2.86-6-6.48S751.15,492.4,755.08,492.4Zm0,11.18c2.14,0,3.87-1.68,3.87-4.68s-1.73-4.7-3.87-4.7-3.86,1.68-3.86,4.7S753,503.58,755.08,503.58Z"/><path class="cls-1" d="M764.35,494.48h-2.09v-1.8h2.09v-1.84c0-2,1.2-3.08,3.43-3.08a5.09,5.09,0,0,1,1.32.2v1.77a3.82,3.82,0,0,0-1.15-.17c-1,0-1.56.32-1.56,1.4v1.72h2.4v1.8h-2.4v10.61h-2Z"/><path class="cls-1" d="M788.28,505.05a2.86,2.86,0,0,1-1.47.33c-1.06,0-1.73-.58-1.73-1.92a5.51,5.51,0,0,1-4.37,1.92c-2.25,0-4.1-1-4.1-3.48,0-2.81,2.09-3.41,4.2-3.82,2.26-.43,4.18-.28,4.18-1.82,0-1.78-1.47-2.06-2.76-2.06-1.73,0-3,.52-3.1,2.35h-2c.12-3.07,2.5-4.15,5.26-4.15,2.23,0,4.65.5,4.65,3.4v6.39c0,1,0,1.39.65,1.39a1.71,1.71,0,0,0,.63-.12ZM785,498.68c-.79.58-2.33.6-3.69.84s-2.5.72-2.5,2.24c0,1.34,1.15,1.82,2.4,1.82,2.69,0,3.79-1.68,3.79-2.81Z"/><path class="cls-1" d="M790.17,492.68h1.92v2h0a4.31,4.31,0,0,1,4-2.25c3.26,0,4.27,1.87,4.27,4.53v8.16h-2v-8.4a2.33,2.33,0,0,0-2.52-2.49c-2.47,0-3.67,1.65-3.67,3.88v7h-2Z"/><path class="cls-1" d="M808.39,506.75c-.94,2.42-1.78,3.31-3.6,3.31a4.06,4.06,0,0,1-1.42-.22V508a4.13,4.13,0,0,0,1.2.29,1.76,1.76,0,0,0,1.68-1.13l.84-2.11-4.92-12.34h2.3l3.63,10.16h0l3.48-10.16h2.16Z"/><path class="cls-1" d="M822.19,492.68h1.92v1.83h0a4.59,4.59,0,0,1,4-2.11,3.29,3.29,0,0,1,3.41,2.11,4.59,4.59,0,0,1,3.89-2.11c2.47,0,4.13,1,4.13,3.6v9.09h-2V497c0-1.54-.41-2.76-2.4-2.76a3,3,0,0,0-3.24,3.16v7.73h-2V497c0-1.61-.51-2.76-2.33-2.76a3.34,3.34,0,0,0-3.31,3.16v7.73h-2Z"/><path class="cls-1" d="M853.65,505.05a2.82,2.82,0,0,1-1.46.33c-1.06,0-1.73-.58-1.73-1.92a5.51,5.51,0,0,1-4.37,1.92c-2.26,0-4.1-1-4.1-3.48,0-2.81,2.08-3.41,4.2-3.82s4.17-.28,4.17-1.82c0-1.78-1.46-2.06-2.76-2.06-1.73,0-3,.52-3.1,2.35h-2c.12-3.07,2.5-4.15,5.26-4.15,2.23,0,4.66.5,4.66,3.4v6.39c0,1,0,1.39.65,1.39a1.66,1.66,0,0,0,.62-.12Zm-3.31-6.37c-.79.58-2.33.6-3.7.84s-2.49.72-2.49,2.24c0,1.34,1.15,1.82,2.39,1.82,2.69,0,3.8-1.68,3.8-2.81Z"/><path class="cls-1" d="M857.7,506.68c0,2.21-1.17,3.16-3,3.16a5.55,5.55,0,0,1-1.06-.09V508a4.74,4.74,0,0,0,.84.05c.89,0,1.15-.44,1.15-1.71V492.68h2Zm0-16.23h-2V488h2Z"/><path class="cls-1" d="M866.22,492.4c3.94,0,6,2.85,6,6.5s-2.09,6.48-6,6.48-6-2.86-6-6.48S862.29,492.4,866.22,492.4Zm0,11.18c2.14,0,3.87-1.68,3.87-4.68s-1.73-4.7-3.87-4.7-3.86,1.68-3.86,4.7S864.09,503.58,866.22,503.58Z"/><path class="cls-1" d="M874.58,492.68h1.92v2.62h0a4.51,4.51,0,0,1,4.56-2.9v2.16c-3.28,0-4.48,1.87-4.48,5v5.52h-2Z"/><path class="cls-1" d="M627.19,522.68h2.47v1.8h-2.47v7.71c0,.94.26,1.1,1.53,1.1h.94v1.8H628.1c-2.11,0-3-.43-3-2.71v-7.9H623v-1.8h2.11V519h2Z"/><path class="cls-1" d="M631.84,522.68h1.92v2.62h0a4.5,4.5,0,0,1,4.56-2.9v2.16c-3.29,0-4.49,1.87-4.49,5v5.52h-2Z"/><path class="cls-1" d="M644.83,522.4c3.93,0,6,2.85,6,6.5s-2.09,6.48-6,6.48-6-2.86-6-6.48S640.89,522.4,644.83,522.4Zm0,11.18c2.13,0,3.86-1.68,3.86-4.68s-1.73-4.7-3.86-4.7-3.87,1.68-3.87,4.7S642.69,533.58,644.83,533.58Z"/><path class="cls-1" d="M653.32,522.68h2v1.68h0a4.19,4.19,0,0,1,4-2c3.82,0,5.71,3,5.71,6.52s-1.87,6.46-5.66,6.46a4.76,4.76,0,0,1-4-1.94h0v6.4h-2Zm5.76,1.52c-2.73,0-3.79,2.35-3.79,4.68s1.11,4.7,3.91,4.7,3.72-2.38,3.72-4.8S661.72,524.2,659.08,524.2Z"/><path class="cls-1" d="M669.64,520.45h-2V518h2Zm-2,2.23h2v12.41h-2Z"/><path class="cls-1" d="M681.24,526.67a2.9,2.9,0,0,0-3.08-2.47c-2.95,0-3.86,2.32-3.86,4.84,0,2.28,1,4.54,3.62,4.54a3.2,3.2,0,0,0,3.41-3h2.09c-.46,3-2.35,4.82-5.47,4.82-3.79,0-5.81-2.64-5.81-6.34s1.92-6.64,5.86-6.64c2.8,0,5.06,1.32,5.35,4.27Z"/><path class="cls-1" d="M696.69,535.05a2.79,2.79,0,0,1-1.46.33c-1.06,0-1.73-.58-1.73-1.92a5.51,5.51,0,0,1-4.37,1.92c-2.25,0-4.1-1-4.1-3.48,0-2.81,2.09-3.41,4.2-3.82s4.17-.28,4.17-1.82c0-1.78-1.46-2.06-2.76-2.06-1.72,0-3,.52-3.09,2.35h-2c.12-3.07,2.49-4.15,5.25-4.15,2.24,0,4.66.5,4.66,3.4v6.39c0,1,0,1.39.65,1.39a1.63,1.63,0,0,0,.62-.12Zm-3.31-6.37c-.79.58-2.33.6-3.7.84s-2.49.72-2.49,2.24c0,1.34,1.15,1.82,2.4,1.82,2.69,0,3.79-1.68,3.79-2.81Z"/><path class="cls-1" d="M698.71,518h2v17.13h-2Z"/><path class="cls-1" d="M710.51,522.68h1.92v2.62h.05a4.5,4.5,0,0,1,4.56-2.9v2.16c-3.29,0-4.49,1.87-4.49,5v5.52h-2Z"/><path class="cls-1" d="M728.73,531.16a5,5,0,0,1-5.3,4.22c-4,0-5.84-2.74-6-6.53s2.45-6.45,5.84-6.45c4.39,0,5.73,4.1,5.61,7.1h-9.29a3.66,3.66,0,0,0,3.87,4.08,3,3,0,0,0,3.21-2.42Zm-2-3.46a3.57,3.57,0,0,0-7.13,0Z"/><path class="cls-1" d="M741.74,534c0,4-1.85,6.09-5.76,6.09-2.33,0-5-.93-5.14-3.64h2c.1,1.48,1.87,2,3.22,2,2.66,0,3.72-1.92,3.72-4.7V533h-.05a4.13,4.13,0,0,1-3.86,2.26c-3.7,0-5.55-2.91-5.55-6.29,0-2.93,1.44-6.55,5.74-6.55a4,4,0,0,1,3.69,2.06h0v-1.78h1.92Zm-2-5.4c0-2.19-1-4.44-3.53-4.44s-3.67,2.13-3.67,4.51.82,4.73,3.51,4.73S739.72,531,739.72,528.64Z"/><path class="cls-1" d="M747,520.45h-2V518h2Zm-2,2.23h2v12.41h-2Z"/><path class="cls-1" d="M755.49,522.4c3.94,0,6,2.85,6,6.5s-2.08,6.48-6,6.48-6-2.86-6-6.48S751.55,522.4,755.49,522.4Zm0,11.18c2.14,0,3.86-1.68,3.86-4.68s-1.72-4.7-3.86-4.7-3.86,1.68-3.86,4.7S753.35,533.58,755.49,533.58Z"/><path class="cls-1" d="M763.91,522.68h1.92v2h0a4.33,4.33,0,0,1,4-2.25c3.27,0,4.28,1.87,4.28,4.53v8.16h-2v-8.4a2.33,2.33,0,0,0-2.52-2.49c-2.48,0-3.68,1.65-3.68,3.88v7h-2Z"/><path class="cls-1" d="M794.63,534c0,4-1.84,6.09-5.76,6.09-2.32,0-5-.93-5.13-3.64h2c.09,1.48,1.87,2,3.21,2,2.67,0,3.72-1.92,3.72-4.7V533h0a4.16,4.16,0,0,1-3.87,2.26c-3.69,0-5.54-2.91-5.54-6.29,0-2.93,1.44-6.55,5.73-6.55a4,4,0,0,1,3.7,2.06h0v-1.78h1.92Zm-2-5.4c0-2.19-1-4.44-3.53-4.44s-3.67,2.13-3.67,4.51.81,4.73,3.5,4.73S792.62,531,792.62,528.64Z"/><path class="cls-1" d="M797.83,518h2v17.13h-2Z"/><path class="cls-1" d="M808.39,522.4c3.93,0,6,2.85,6,6.5s-2.09,6.48-6,6.48-6-2.86-6-6.48S804.45,522.4,808.39,522.4Zm0,11.18c2.13,0,3.86-1.68,3.86-4.68s-1.73-4.7-3.86-4.7-3.87,1.68-3.87,4.7S806.25,533.58,808.39,533.58Z"/><path class="cls-1" d="M816.88,518h2v6.4H819a4.18,4.18,0,0,1,4-2c3.82,0,5.71,3,5.71,6.52s-1.87,6.46-5.66,6.46a4.75,4.75,0,0,1-4-1.94h-.05v1.65h-2Zm5.76,6.24c-2.74,0-3.79,2.35-3.79,4.68s1.1,4.7,3.91,4.7,3.72-2.38,3.72-4.8S825.28,524.2,822.64,524.2Z"/><path class="cls-1" d="M842,535.05a2.79,2.79,0,0,1-1.46.33c-1.06,0-1.73-.58-1.73-1.92a5.51,5.51,0,0,1-4.37,1.92c-2.25,0-4.1-1-4.1-3.48,0-2.81,2.09-3.41,4.2-3.82s4.18-.28,4.18-1.82c0-1.78-1.47-2.06-2.76-2.06-1.73,0-3,.52-3.1,2.35h-2c.12-3.07,2.49-4.15,5.26-4.15,2.23,0,4.65.5,4.65,3.4v6.39c0,1,0,1.39.65,1.39a1.63,1.63,0,0,0,.62-.12Zm-3.31-6.37c-.79.58-2.33.6-3.69.84s-2.5.72-2.5,2.24c0,1.34,1.15,1.82,2.4,1.82,2.69,0,3.79-1.68,3.79-2.81Z"/><path class="cls-1" d="M844.05,518h2v17.13h-2Z"/><path class="cls-1" d="M849.38,518h2v17.13h-2Z"/><path class="cls-1" d="M859.46,536.75c-.94,2.42-1.78,3.31-3.6,3.31a4.06,4.06,0,0,1-1.42-.22V538a4.13,4.13,0,0,0,1.2.29,1.76,1.76,0,0,0,1.68-1.13l.84-2.11-4.92-12.34h2.3l3.63,10.16h.05l3.48-10.16h2.16Z"/><path class="cls-1" d="M337.17,541.17h-5.65V449.55A43.68,43.68,0,0,1,304,462.64v-4.91a39.11,39.11,0,0,0,28.11-19.19h5.06Z"/><path class="cls-1" d="M357.7,541.17V525.85h7.58v15.32Z"/><path class="cls-1" d="M457.5,535.52v5.65H389.08c1.19-19.18,16.37-29.74,31.39-39.71,14.87-10,29.75-19.49,29.75-36.74,0-14-11.9-23.05-25.29-23.05-18.74,0-27.67,13.83-27.67,31.53h-5.65C392.8,448.66,404,436.76,424,436.76c17.4,0,31.83,9.22,31.83,28.11,0,18-14.13,29.3-28.86,39.12s-29.75,18.89-30.79,31.53Z"/><path class="cls-1" d="M470.89,463.38c0-14.72,9.37-26.62,24.84-26.62s24.55,11.45,24.55,26.62c0,14.13-9.67,26.33-24.69,26.33S470.89,477.81,470.89,463.38Zm43.73,0c0-11.6-6.54-21.71-19-21.71s-19,10.26-19,21.71c0,10.86,7.28,21.42,18.89,21.42C507.34,484.8,514.62,474.24,514.62,463.38Zm40-28.41h6L491.42,544.74h-5.95Zm-29.31,81.66c0-14.72,9.37-26.62,24.84-26.62,15.62,0,24.55,11.45,24.55,26.62,0,14.13-9.67,26.33-24.69,26.33S525.33,531.06,525.33,516.63Zm43.73,0c0-11.6-6.54-21.71-19-21.71s-19,10.26-19,21.71c0,10.86,7.28,21.42,18.89,21.42C561.78,538.05,569.06,527.49,569.06,516.63Z"/><path class="cls-2" d="M258.6,541.83h0a1.79,1.79,0,0,0,1.43-3.15l-1.27-1a61.45,61.45,0,0,1-11.63-22.16,78.67,78.67,0,0,1-2.91-21.19V470l-19.14-.12a172.67,172.67,0,0,1,12.09-22.82l.91-1.43L222.83,436h0l-3.89-2.45-4.49.17-55.91-35.34L150.61,411l9.1,3.49,54.35,34.34A172.44,172.44,0,0,1,201,464.3l-1.43,1.49,6.34,4-15.9-.1V494.3a79,79,0,0,1-2.44,19.48A62.63,62.63,0,0,1,174.18,539s-1.24,1.28-.55,2.23c.54.75,1.84.57,1.84.57a36.16,36.16,0,0,0,10.82-1.45,33.09,33.09,0,0,1,10-1.33c4.65,0,6.86,1.57,9.41,3.39s5.64,4,11.37,4,8.73-2.13,11.38-4,4.75-3.39,9.41-3.39a33,33,0,0,1,10,1.33A36.19,36.19,0,0,0,258.6,541.83ZM161.38,411.51l-5.71-2.22,3.92-6.2,53.94,34.09L218,437l3,1.87q-2.37,3.66-4.9,7.19Zm43.49,53.63a175.69,175.69,0,0,0,19-24.43l9.54,6a174.45,174.45,0,0,0-12,23.17l-9.08,0Zm21.57,74.54c-2.55,1.81-4.76,3.38-9.41,3.38s-6.86-1.57-9.41-3.38-5.64-4-11.38-4a36.23,36.23,0,0,0-10.82,1.44,32.91,32.91,0,0,1-6.27,1.19,65.54,65.54,0,0,0,11.7-23.68,81.87,81.87,0,0,0,2.56-20.31V473.12l47.43.28v20.89a82.16,82.16,0,0,0,3,22.1A64.35,64.35,0,0,0,255,538.3a32.4,32.4,0,0,1-6.33-1.19l-1.79-.46c-10.68-7.8-12.14-27.63-12.33-33.55a1.71,1.71,0,0,0-1.74-1.64,1.69,1.69,0,0,0-1.64,1.75c.18,5.55,1.43,22.61,9.85,32.56-1-.06-2-.1-3.18-.1C232.08,535.67,229.08,537.8,226.44,539.68Zm4.67-44.56V487.4a1.7,1.7,0,0,1,3.39,0v7.72a1.7,1.7,0,1,1-3.39,0Zm55.75,45a1.69,1.69,0,0,1-1.69,1.69H271a1.7,1.7,0,0,1,0-3.39h14.15A1.69,1.69,0,0,1,286.86,540.14Zm-11.16,9.59a1.69,1.69,0,0,1-1.69,1.7H244.38a1.7,1.7,0,0,1,0-3.39H274A1.69,1.69,0,0,1,275.7,549.73Zm-110.83-9.59a1.69,1.69,0,0,1-1.69,1.69H145.64a1.69,1.69,0,1,1,0-3.38h17.54A1.68,1.68,0,0,1,164.87,540.14Zm39-23.82c0,.33-.8,8-4,13.78a1.7,1.7,0,0,1-1.49.88,1.62,1.62,0,0,1-.81-.22,1.69,1.69,0,0,1-.67-2.3c2.84-5.13,3.57-12.39,3.58-12.47a1.69,1.69,0,0,1,3.37.33Z"/><path class="cls-2" d="M977.17,540.38a33,33,0,0,1,10-1.33c4.66,0,6.86,1.57,9.42,3.39s5.63,4,11.37,4,8.73-2.13,11.37-4,4.76-3.39,9.41-3.39a33,33,0,0,1,10,1.33,36.19,36.19,0,0,0,10.83,1.45s1.29.18,1.83-.57c.69-1-.55-2.23-.55-2.23a62.75,62.75,0,0,1-13.4-25.25,79,79,0,0,1-2.44-19.48V469.71l-15.9.1,6.34-4-1.42-1.49a170.9,170.9,0,0,1-13.06-15.5l54.35-34.34,9.11-3.49-7.94-12.55-55.91,35.34-4.49-.17-3.88,2.45h0l-15.25,9.64.91,1.43a172.67,172.67,0,0,1,12.09,22.82l-19.14.12v24.25a78.67,78.67,0,0,1-2.91,21.19,61.45,61.45,0,0,1-11.63,22.16l-1.26,1a1.79,1.79,0,0,0,1.42,3.15h0A36.19,36.19,0,0,0,977.17,540.38Zm31.7-94.31q-2.55-3.52-4.91-7.19l3-1.87,4.49.17,53.94-34.09,3.92,6.2-5.71,2.22Zm3.76,23.78-9.08,0a174.45,174.45,0,0,0-12-23.17l9.54-6a175.69,175.69,0,0,0,19,24.43Zm-25.5,65.82c-1.19,0-2.22,0-3.18.1,8.42-9.95,9.67-27,9.85-32.56a1.69,1.69,0,0,0-1.64-1.75,1.71,1.71,0,0,0-1.74,1.64c-.19,5.92-1.65,25.75-12.33,33.55l-1.79.46A32.4,32.4,0,0,1,970,538.3a64.35,64.35,0,0,0,11.11-21.91,82.17,82.17,0,0,0,3-22.1V473.4l47.42-.28v21.19a81.87,81.87,0,0,0,2.56,20.31,65.41,65.41,0,0,0,11.71,23.68,32.6,32.6,0,0,1-6.27-1.19,36.31,36.31,0,0,0-10.83-1.44c-5.74,0-8.73,2.13-11.38,4s-4.75,3.38-9.41,3.38-6.86-1.57-9.41-3.38S992.87,535.67,987.13,535.67Zm5-38.85a1.7,1.7,0,0,1-1.7-1.7V487.4a1.7,1.7,0,0,1,3.39,0v7.72A1.7,1.7,0,0,1,992.14,496.82Zm-52.37,41.62h14.15a1.7,1.7,0,0,1,0,3.39H939.77a1.7,1.7,0,0,1,0-3.39Zm11.16,9.6h29.63a1.7,1.7,0,1,1,0,3.39H950.93a1.7,1.7,0,0,1,0-3.39Zm110.83-9.59h17.54a1.69,1.69,0,1,1,0,3.38h-17.54a1.69,1.69,0,1,1,0-3.38Zm-39.22-24a1.69,1.69,0,0,1,1.85,1.52c0,.08.74,7.34,3.58,12.47a1.69,1.69,0,0,1-.67,2.3,1.59,1.59,0,0,1-.81.22,1.68,1.68,0,0,1-1.48-.88c-3.19-5.76-4-13.45-4-13.78A1.69,1.69,0,0,1,1022.54,514.47Z"/><path class="cls-2" d="M753.21,356.05H629.8a.56.56,0,0,1-.56-.55.55.55,0,0,1,.56-.55H753.21a.55.55,0,0,1,.55.55A.55.55,0,0,1,753.21,356.05Z"/><path class="cls-2" d="M872.25,371.37a1.42,1.42,0,0,1-1.42-1.38,1.34,1.34,0,0,1,1.34-1.38h.08a1.38,1.38,0,0,1,0,2.76Zm-7.8,0h-.11a1.38,1.38,0,0,1,0-2.76h.11a1.38,1.38,0,0,1,0,2.76Zm-7.83,0h-.11a1.38,1.38,0,0,1,0-2.76h.11a1.38,1.38,0,0,1,0,2.76Zm-7.83,0h-.11a1.38,1.38,0,0,1,0-2.76h.11a1.38,1.38,0,0,1,0,2.76Zm-7.83,0h-.11a1.38,1.38,0,0,1,0-2.76H841a1.38,1.38,0,0,1,0,2.76Zm-7.83,0A1.43,1.43,0,0,1,831.7,370a1.33,1.33,0,0,1,1.32-1.38h.11a1.38,1.38,0,0,1,0,2.76Zm-7.83,0h-.11a1.38,1.38,0,0,1,0-2.76h.11a1.38,1.38,0,0,1,0,2.76Zm-7.83,0h-.11a1.38,1.38,0,0,1,0-2.76h.11a1.38,1.38,0,0,1,0,2.76Zm-7.83,0h-.11a1.38,1.38,0,0,1,0-2.76h.11a1.38,1.38,0,0,1,0,2.76Zm-7.82,0h-.11a1.38,1.38,0,0,1,0-2.76h.11a1.38,1.38,0,0,1,0,2.76Zm-7.83,0a1.44,1.44,0,0,1-1.44-1.38,1.34,1.34,0,0,1,1.33-1.38H794a1.38,1.38,0,0,1,0,2.76Zm-7.83,0h-.11a1.38,1.38,0,0,1,0-2.76h.11a1.38,1.38,0,0,1,0,2.76Zm-7.83,0h-.11a1.38,1.38,0,0,1,0-2.76h.11a1.38,1.38,0,0,1,0,2.76Zm-7.83,0h-.11a1.38,1.38,0,0,1,0-2.76h.11a1.38,1.38,0,0,1,0,2.76Zm-7.83,0h-.11a1.38,1.38,0,0,1,0-2.76h.11a1.38,1.38,0,0,1,0,2.76Zm-7.83,0a1.43,1.43,0,0,1-1.43-1.38,1.33,1.33,0,0,1,1.32-1.38h.11a1.38,1.38,0,0,1,0,2.76Zm-7.83,0h-.11a1.38,1.38,0,0,1,0-2.76H747a1.38,1.38,0,0,1,0,2.76Zm-7.83,0h-.11a1.38,1.38,0,0,1,0-2.76h.11a1.38,1.38,0,0,1,0,2.76Zm-7.82,0h-.11a1.38,1.38,0,0,1,0-2.76h.11a1.38,1.38,0,0,1,0,2.76Zm-7.83,0h-.11a1.38,1.38,0,0,1,0-2.76h.11a1.38,1.38,0,0,1,0,2.76Zm-7.83,0h-.11a1.38,1.38,0,0,1,0-2.76h.11a1.38,1.38,0,0,1,0,2.76Zm-7.83,0a1.43,1.43,0,0,1-1.43-1.38,1.33,1.33,0,0,1,1.32-1.38h.11a1.38,1.38,0,0,1,0,2.76Zm-7.83,0h-.11a1.38,1.38,0,0,1,0-2.76H700a1.38,1.38,0,0,1,0,2.76Zm-7.83,0h-.11a1.38,1.38,0,0,1,0-2.76h.11a1.38,1.38,0,0,1,0,2.76Zm-7.83,0h-.11a1.38,1.38,0,0,1,0-2.76h.11a1.38,1.38,0,0,1,0,2.76Zm-7.83,0h-.11a1.38,1.38,0,0,1,0-2.76h.11a1.38,1.38,0,0,1,0,2.76Zm-7.83,0a1.43,1.43,0,0,1-1.43-1.38,1.33,1.33,0,0,1,1.32-1.38h.11a1.38,1.38,0,0,1,0,2.76Zm-7.82,0h-.11a1.38,1.38,0,0,1,0-2.76h.11a1.38,1.38,0,0,1,0,2.76Zm-7.83,0H653a1.38,1.38,0,0,1,0-2.76h.11a1.38,1.38,0,0,1,0,2.76Zm-7.83,0h-.11a1.38,1.38,0,0,1,0-2.76h.11a1.38,1.38,0,0,1,0,2.76Zm-7.83,0h-.11a1.38,1.38,0,0,1,0-2.76h.11a1.38,1.38,0,0,1,0,2.76Zm-7.83,0h-.11a1.38,1.38,0,0,1,0-2.76h.11a1.38,1.38,0,0,1,0,2.76Zm-7.83,0h-.11a1.38,1.38,0,0,1,0-2.76h.11a1.38,1.38,0,0,1,0,2.76Zm-7.83,0h-.11a1.38,1.38,0,0,1,0-2.76h.11a1.38,1.38,0,0,1,0,2.76Zm-7.83,0H606a1.38,1.38,0,0,1,0-2.76h.11a1.38,1.38,0,0,1,0,2.76Zm-7.83,0h-.11a1.38,1.38,0,0,1,0-2.76h.11a1.38,1.38,0,0,1,0,2.76Zm-7.83,0h-.11a1.38,1.38,0,0,1,0-2.76h.11a1.38,1.38,0,0,1,0,2.76Zm-7.82,0a1.43,1.43,0,0,1-1.44-1.38,1.33,1.33,0,0,1,1.33-1.38h.11a1.38,1.38,0,0,1,0,2.76Zm-7.83,0h-.11a1.38,1.38,0,0,1,0-2.76h.11a1.38,1.38,0,0,1,0,2.76Zm-7.83,0h-.11a1.38,1.38,0,0,1,0-2.76H567a1.38,1.38,0,0,1,0,2.76Zm-7.83,0H559a1.38,1.38,0,0,1,0-2.76h.11a1.38,1.38,0,0,1,0,2.76Zm-7.83,0h-.11a1.38,1.38,0,0,1,0-2.76h.11a1.38,1.38,0,0,1,0,2.76Zm-7.83,0A1.43,1.43,0,0,1,542,370a1.33,1.33,0,0,1,1.32-1.38h.11a1.38,1.38,0,0,1,0,2.76Zm-7.83,0h-.11a1.38,1.38,0,0,1,0-2.76h.11a1.38,1.38,0,0,1,0,2.76Zm-7.83,0h-.11a1.38,1.38,0,0,1,0-2.76h.11a1.38,1.38,0,0,1,0,2.76Zm-7.83,0h-.11a1.38,1.38,0,0,1,0-2.76H520a1.38,1.38,0,0,1,0,2.76Zm-7.82,0H512a1.38,1.38,0,1,1,0-2.76h.11a1.38,1.38,0,0,1,0,2.76Zm-7.83,0a1.44,1.44,0,0,1-1.44-1.38,1.34,1.34,0,0,1,1.33-1.38h.11a1.38,1.38,0,0,1,0,2.76Zm-7.83,0h-.11a1.38,1.38,0,0,1,0-2.76h.11a1.38,1.38,0,0,1,0,2.76Zm-7.83,0h-.11a1.38,1.38,0,1,1,0-2.76h.11a1.38,1.38,0,1,1,0,2.76Zm-7.83,0h-.11a1.38,1.38,0,0,1,0-2.76h.11a1.38,1.38,0,0,1,0,2.76Zm-7.83,0h-.11a1.38,1.38,0,0,1,0-2.76H473a1.38,1.38,0,0,1,0,2.76Zm-7.83,0a1.43,1.43,0,0,1-1.43-1.38,1.33,1.33,0,0,1,1.32-1.38h.11a1.38,1.38,0,1,1,0,2.76Zm-7.83,0h-.11a1.38,1.38,0,0,1,0-2.76h.11a1.38,1.38,0,1,1,0,2.76Zm-7.83,0h-.11a1.38,1.38,0,0,1,0-2.76h.11a1.38,1.38,0,0,1,0,2.76Zm-7.82,0h-.11a1.38,1.38,0,1,1,0-2.76h.11a1.38,1.38,0,0,1,0,2.76Zm-7.83,0h-.11a1.38,1.38,0,0,1,0-2.76h.11a1.38,1.38,0,0,1,0,2.76Zm-7.83,0a1.44,1.44,0,0,1-1.44-1.38,1.34,1.34,0,0,1,1.33-1.38H426a1.38,1.38,0,1,1,0,2.76Zm-7.83,0h-.11a1.38,1.38,0,1,1,0-2.76h.11a1.38,1.38,0,1,1,0,2.76Zm-7.83,0h-.11a1.38,1.38,0,0,1,0-2.76h.11a1.38,1.38,0,0,1,0,2.76Zm-7.83,0h-.11a1.38,1.38,0,0,1,0-2.76h.11a1.38,1.38,0,0,1,0,2.76Zm-7.83,0h-.11a1.38,1.38,0,0,1,0-2.76h.11a1.38,1.38,0,1,1,0,2.76Zm-7.83,0a1.43,1.43,0,0,1-1.43-1.38,1.33,1.33,0,0,1,1.32-1.38h.11a1.38,1.38,0,0,1,0,2.76Zm-7.83,0h-.11a1.38,1.38,0,0,1,0-2.76h.11a1.38,1.38,0,0,1,0,2.76Zm-7.82,0h-.11a1.38,1.38,0,0,1,0-2.76h.11a1.38,1.38,0,0,1,0,2.76Z"/></g></svg>