<svg xmlns="http://www.w3.org/2000/svg" xmlns:xlink="http://www.w3.org/1999/xlink" viewBox="0 0 350 80"><defs><style>.cls-1{fill:none;}.cls-2{clip-path:url(#clip-path);}.cls-3{fill:#00de76;}</style><clipPath id="clip-path"><rect class="cls-1" x="-1115.49" y="234.6" width="1920" height="600"/></clipPath></defs><g id="bg"><g class="cls-2"><image width="1920" height="1204" transform="translate(-1205.26 66.06) scale(1.09 1.11)" xlink:href="../images/asean-economic-community-flags-blue-sky-background.jpg"/></g></g><g id="Layer_3" data-name="Layer 3"><path class="cls-3" d="M167.94,33.19a49.13,49.13,0,0,1-10.73-1.37.75.75,0,0,1-.46-.36.74.74,0,0,1-.07-.58c3.58-12.13,11.8-15.23,12.15-15.36,6.2-2,10.33-1,14-.15a20.55,20.55,0,0,0,4.81.77h0a.74.74,0,0,1,.75.7.77.77,0,0,1-.07.37c-1.07,2.59-5,11-12.26,14.38A17.4,17.4,0,0,1,167.94,33.19Zm-9.59-2.65c2.74.61,12.1,2.38,17-.29,6.16-2.9,9.77-9.62,11.14-12.66a27.06,27.06,0,0,1-4-.77c-3.45-.82-7.37-1.76-13.14.12C169.27,17,161.82,19.81,158.35,30.54Zm29.27-13.65h0Z"/><path class="cls-3" d="M152.76,37.91a.73.73,0,0,1-.35-.09.75.75,0,0,1-.3-1c7.78-14.35,26-16.37,26.82-16.44a.73.73,0,0,1,.82.67.76.76,0,0,1-.67.82c-.18,0-18.25,2-25.65,15.67A.76.76,0,0,1,152.76,37.91Z"/><path class="cls-3" d="M168.34,64.72c-7.87,0-12.17-3.52-12.39-3.71-4.85-4.36-6.06-8.43-7.12-12a20.29,20.29,0,0,0-1.74-4.55.74.74,0,0,1,.24-1,.68.68,0,0,1,.35-.13c2.78-.37,12-1.16,18.58,3.43,6.06,3.71,9.47,15.68,9.61,16.19a.73.73,0,0,1-.07.58.78.78,0,0,1-.47.35A29.81,29.81,0,0,1,168.34,64.72Zm-19.43-20a28.59,28.59,0,0,1,1.36,3.88c1,3.41,2.15,7.27,6.66,11.33,0,0,6.24,5.05,17.27,2.69-.85-2.67-4-11.67-8.76-14.58C159.85,44.11,152.23,44.34,148.91,44.67Z"/><path class="cls-3" d="M182,64.86c-15.93,0-26.5-14.39-26.95-15a.75.75,0,0,1,1.22-.88c.1.15,10.86,14.77,26.39,14.38h0a.75.75,0,0,1,0,1.5Z"/><path class="cls-3" d="M192.32,65.66a.85.85,0,0,1-.35-.08.72.72,0,0,1-.27-.25c-1.71-2.22-7-9.78-6.32-17.8.18-7.1,8.84-16,9.21-16.42a.76.76,0,0,1,.54-.23h0a.77.77,0,0,1,.54.24c8.71,9.16,7.29,17.84,7.23,18.2-1.35,6.37-4.28,9.46-6.86,12.18A20.37,20.37,0,0,0,193,65.28.76.76,0,0,1,192.32,65.66Zm2.8-32.93C193.23,34.8,187,42,186.87,47.61c-.56,6.78,3.45,13.27,5.4,16A27.55,27.55,0,0,1,195,60.47c2.45-2.58,5.22-5.5,6.48-11.44C201.43,49,202.68,41.11,195.12,32.73Z"/><path class="cls-3" d="M193,56.09a.66.66,0,0,1-.3-.07.75.75,0,0,1-.38-1c.08-.16,7.37-16.82-.74-30a.74.74,0,0,1,.25-1,.75.75,0,0,1,1,.24c8.53,13.92,1.15,30.75.83,31.46A.77.77,0,0,1,193,56.09Z"/><path class="cls-3" d="M277.11,49.64a1.22,1.22,0,0,1-.85-.35,1.2,1.2,0,0,1,0-1.7L283.85,40l-7.59-7.59a1.2,1.2,0,0,1,0-1.7,1.22,1.22,0,0,1,1.7,0l8.43,8.44a1.2,1.2,0,0,1,0,1.7L278,49.29A1.22,1.22,0,0,1,277.11,49.64Z"/><path class="cls-3" d="M285.17,49.64a1.2,1.2,0,0,1-.85-2L291.91,40l-7.59-7.59a1.2,1.2,0,1,1,1.69-1.7l8.44,8.44a1.2,1.2,0,0,1,0,1.7L286,49.29A1.2,1.2,0,0,1,285.17,49.64Z"/><path class="cls-3" d="M293.22,49.64a1.22,1.22,0,0,1-.85-.35,1.2,1.2,0,0,1,0-1.7L300,40l-7.59-7.59a1.2,1.2,0,0,1,0-1.7,1.22,1.22,0,0,1,1.7,0l8.44,8.44a1.2,1.2,0,0,1,0,1.7l-8.44,8.44A1.2,1.2,0,0,1,293.22,49.64Z"/><path class="cls-3" d="M301.28,49.64a1.2,1.2,0,0,1-.85-2L308,40l-7.59-7.59a1.2,1.2,0,0,1,0-1.7,1.22,1.22,0,0,1,1.7,0l8.43,8.44a1.2,1.2,0,0,1,0,1.7l-8.43,8.44A1.24,1.24,0,0,1,301.28,49.64Z"/><path class="cls-3" d="M309.33,49.64a1.2,1.2,0,0,1-.84-2L316.07,40l-7.58-7.59a1.2,1.2,0,0,1,1.69-1.7l8.44,8.44a1.2,1.2,0,0,1,0,1.7l-8.44,8.44A1.2,1.2,0,0,1,309.33,49.64Z"/><path class="cls-3" d="M317.39,49.64a1.22,1.22,0,0,1-.85-.35,1.2,1.2,0,0,1,0-1.7L324.13,40l-7.59-7.59a1.2,1.2,0,0,1,0-1.7,1.22,1.22,0,0,1,1.7,0l8.44,8.44a1.22,1.22,0,0,1,0,1.7l-8.44,8.44A1.22,1.22,0,0,1,317.39,49.64Z"/><path class="cls-3" d="M24.17,49.64a1.24,1.24,0,0,1-.85-.35,1.22,1.22,0,0,1,0-1.7L30.91,40l-7.59-7.59a1.2,1.2,0,0,1,1.7-1.7l8.44,8.44a1.2,1.2,0,0,1,0,1.7L25,49.29A1.2,1.2,0,0,1,24.17,49.64Z"/><path class="cls-3" d="M32.23,49.64a1.22,1.22,0,0,1-.85-.35,1.2,1.2,0,0,1,0-1.7L39,40l-7.59-7.59a1.2,1.2,0,0,1,0-1.7,1.22,1.22,0,0,1,1.7,0l8.43,8.44a1.2,1.2,0,0,1,0,1.7l-8.43,8.44A1.22,1.22,0,0,1,32.23,49.64Z"/><path class="cls-3" d="M40.29,49.64a1.2,1.2,0,0,1-.85-2L47,40l-7.59-7.59a1.2,1.2,0,1,1,1.69-1.7l8.44,8.44a1.2,1.2,0,0,1,0,1.7l-8.44,8.44A1.2,1.2,0,0,1,40.29,49.64Z"/><path class="cls-3" d="M48.34,49.64a1.22,1.22,0,0,1-.85-.35,1.2,1.2,0,0,1,0-1.7L55.08,40l-7.59-7.59a1.2,1.2,0,0,1,0-1.7,1.22,1.22,0,0,1,1.7,0l8.44,8.44a1.2,1.2,0,0,1,0,1.7l-8.44,8.44A1.2,1.2,0,0,1,48.34,49.64Z"/><path class="cls-3" d="M56.4,49.64a1.2,1.2,0,0,1-.85-2L63.14,40l-7.59-7.59a1.2,1.2,0,0,1,0-1.7,1.22,1.22,0,0,1,1.7,0l8.43,8.44a1.2,1.2,0,0,1,0,1.7l-8.43,8.44A1.24,1.24,0,0,1,56.4,49.64Z"/><path class="cls-3" d="M64.45,49.64a1.2,1.2,0,0,1-.84-2L71.19,40l-7.58-7.59a1.2,1.2,0,1,1,1.69-1.7l8.44,8.44a1.2,1.2,0,0,1,0,1.7L65.3,49.29A1.2,1.2,0,0,1,64.45,49.64Z"/></g></svg>