<svg xmlns="http://www.w3.org/2000/svg" xmlns:xlink="http://www.w3.org/1999/xlink" viewBox="0 0 150 150"><defs><style>.cls-1{fill:none;}.cls-2{clip-path:url(#clip-path);}.cls-3{fill:#00de76;}</style><clipPath id="clip-path"><rect class="cls-1" x="-1111.23" y="524.07" width="1920" height="600"/></clipPath></defs><g id="bg"><g class="cls-2"><image width="1960" height="1470" transform="translate(-1131.23 58.65)" xlink:href="../images/aaa.jpg"/></g></g><g id="Layer_3" data-name="Layer 3"><path class="cls-3" d="M73.41,89.69A23.75,23.75,0,0,1,49.76,66c0-5.58,2.29-9.88,5.28-14.91L72.79,20.31h0l0-.06.1-.11.17-.14.17-.06.16,0h.24l.1,0,.15.07.09.07.11.11.12.17L91.94,51.06c3,5,5.28,9.32,5.28,14.9A23.73,23.73,0,0,1,73.55,89.69h-.14Zm-17-37.82c-3,5-5.07,8.91-5.07,14.09A22.14,22.14,0,0,0,73.48,88.07h.1A22.12,22.12,0,0,0,95.6,66c0-5.17-2.19-9.27-5.06-14.08L73.49,22.34Z"/><path class="cls-3" d="M73.48,82.45A16.51,16.51,0,0,1,57,66c0-3.76,1.71-6.91,4.32-11.29a.81.81,0,0,1,.7-.4.78.78,0,0,1,.41.12.76.76,0,0,1,.37.49.84.84,0,0,1-.09.62c-2.54,4.27-4.09,7.11-4.09,10.46A14.89,14.89,0,0,0,73.48,80.83a.81.81,0,0,1,0,1.62Z"/><path class="cls-3" d="M75,118.17c-9.42,0-23.43-1.66-23.43-6.23s14-6.24,23.43-6.24,23.43,1.66,23.43,6.24S84.42,118.17,75,118.17Zm0-10.85c-11.36,0-19.85,2-21.5,4l-.54.65.54.64c1.65,2,10.14,4,21.5,4s19.85-2,21.5-4l.54-.64-.54-.65C94.85,109.34,86.36,107.32,75,107.32Z"/><path class="cls-3" d="M75,124.13c-22.5,0-35.94-6.2-35.94-12.19S52.5,99.74,75,99.74s35.94,6.2,35.94,12.2S97.5,124.13,75,124.13Zm0-22.77c-20.53,0-34.32,5.47-34.32,10.58S54.47,122.51,75,122.51s34.32-5.47,34.32-10.57S95.53,101.36,75,101.36Z"/><path class="cls-3" d="M75,130.09c-26.72,0-48.46-8.15-48.46-18.15S48.28,93.79,75,93.79s48.46,8.14,48.46,18.15S101.72,130.09,75,130.09Zm0-34.68c-19.64,0-46.84,5.74-46.84,16.53S55.36,128.47,75,128.47s46.84-5.75,46.84-16.53S94.64,95.41,75,95.41Z"/></g></svg>