<svg xmlns="http://www.w3.org/2000/svg" viewBox="0 0 1450 400"><defs><style>.cls-1{fill:#00de76;}.cls-2{fill:#6dff40;}</style></defs><g id="Layer_3" data-name="Layer 3"><g id="_35" data-name="35"><path class="cls-1" d="M672.62,328a5.44,5.44,0,0,1-2.91-1c-2.51-1.65-1.88-4,2.46-15.47l2-5.33h-3l-2.59,0c-4.86,0-6.86-.51-8.42-3.4a6.36,6.36,0,0,1,.28-6.52l4.32-6.91-.76-1.07a66.18,66.18,0,1,1,120.07-38.4.74.74,0,0,1-1.47,0,64.52,64.52,0,0,0-1.53-14l-.58-2.66-2.34,1.41a8.65,8.65,0,0,1-3.75,1.15c-.33,0-.66,0-1,0a15.5,15.5,0,0,1-9.8-3.9l-1.48-1.26-1.27,1.48c-1.4,1.62-3.56,1.83-5.84,2.06a30.81,30.81,0,0,0-4.7.73l-2.36.6,1.09,2.18c2.11,4.21,1.6,9.19-.11,11.57a4.88,4.88,0,0,1-1.41,1.32l-1.58,1,.85,1.63a8.71,8.71,0,0,1,.64,6.74,12.67,12.67,0,0,1-8.23,7.89l-1.76.59.49,1.79c.78,2.84.19,6.61-1.7,10.91-3.22,7.28-10.52,16.08-14.76,16.08a4.65,4.65,0,0,1-3.89-1.47c-1.54-1.94-.73-5.43.12-9.12,1.23-5.36,2.63-11.43-2-14.64-9.59-6.59-7.57-14.16-5.22-19.27l.83-1.8-1.81-.8a8.92,8.92,0,0,1-4.55-4.54,7.86,7.86,0,0,1,.61-7.84,7.08,7.08,0,0,1,5.27-2.77l1.54-.14.21-1.54a8.27,8.27,0,0,1,6-7.14,6.46,6.46,0,0,1,1.56-.19,5.86,5.86,0,0,1,4.29,1.85l.84.9,1.17-.37a18.28,18.28,0,0,1,4.44-.52c3.9-.16,7.05-.46,9.26-2.71l2.86-2.92-4.06-.4c-5.22-.52-9.16-2.46-10.31-5.08a4.5,4.5,0,0,1,.14-3.81l.7-1.5-1.37-.94a9.16,9.16,0,0,1-4-7.94c.12-1.48,1-5.09,6.53-6.48l1.85-.46-.42-1.86a5.85,5.85,0,0,1,.39-4.3l1.37-2.35-2.66-.55a64.58,64.58,0,0,0-62.26,21.18l-2.2,2.56,2.43.46-1,1.63a13.3,13.3,0,0,0-2.63.8l-.15,0-.82.15-.45.69a64.35,64.35,0,0,0-8.41,53.41l.39,1.41h1.47a15.92,15.92,0,0,0,6.34-1.45l1.56-.71-.5-1.64c-2.54-8.32-2.7-20.4-.38-26.92a.74.74,0,0,1,.7-.49.67.67,0,0,1,.24,0,.75.75,0,0,1,.45.94c-2,5.68-2.13,15.91-.22,23.79l1.07,4.44,2.47-3.85a7.68,7.68,0,0,0,1.31-4.18.75.75,0,0,1,.56-.71,10.89,10.89,0,0,0,7.5-8.2,8.33,8.33,0,0,0-2.7-8.56.75.75,0,0,1-.26-.61.71.71,0,0,1,.33-.57c2.67-1.71,4.14-5,3.95-8.73-.18-3.36-1.66-6.21-3.77-7.27a4.14,4.14,0,0,0-1.9-.44,6.44,6.44,0,0,0-3.55,1.24.7.7,0,0,1-.4.12.74.74,0,0,1-.44-.15.72.72,0,0,1-.26-.8c2.37-7.78,2-10,1.34-11l-1.43-2.37.47.09a3.29,3.29,0,0,1,1.63.79c1.41,1.29,1.62,3.9.66,8.21l-.53,2.38h2.44a5.88,5.88,0,0,1,2.63.6c2.62,1.31,4.37,4.57,4.57,8.5a11.5,11.5,0,0,1-2.64,8.34l-1,1.16.89,1.26a9.85,9.85,0,0,1,1.42,8.11,12.69,12.69,0,0,1-7,8.78l-1,.41-.19,1a10,10,0,0,1-3.18,5.54,17.46,17.46,0,0,1-9.63,4.25l-2.5.28.89,2.36a64.15,64.15,0,0,0,6.48,12.6L665.6,288l7.34-11.75a6.4,6.4,0,0,1,5-2.92,3.54,3.54,0,0,1,1.75.43c2.27,1.27,2.34,4.65.19,9.27l-.06.15-4.47,12,2.75.06c7.24.15,10,1,11.26,3.3l.26.47c1.18,2.12,1.54,2.76-.49,6.51l-1,1.81,1.86.89A64.57,64.57,0,0,0,741.8,310l1.94-.77-.89-1.88c-3.08-6.55-.82-18.63,5.26-28.1a39.46,39.46,0,0,1,34.24-18.52,58.85,58.85,0,0,1,15.38,2.2.73.73,0,0,1,.54.77c-2.6,30.12-17.29,44.2-47.65,45.68l-5.81.29,4.8,3.28a30.88,30.88,0,0,0,11,4.33,57.59,57.59,0,0,0,11.9,1.18c6.28,0,12.45-.94,16.09-2.46l1.56-.66-.43-1.64c-1-3.79-1.41-4.44-4.25-7.76a.73.73,0,0,1,.08-1,.71.71,0,0,1,.48-.18.73.73,0,0,1,.56.26c3.44,4,3.63,4.73,4.8,9.31l.28,1.07a.74.74,0,0,1-.28.78c-3.22,2.29-10.57,3.77-18.75,3.77a60.06,60.06,0,0,1-12.34-1.21c-6.51-1.38-11.58-3.9-14.65-7.29l-.93-1-1.27.53a66.28,66.28,0,0,1-25.56,5.13A65.42,65.42,0,0,1,689,309.38l-1.58-.77-.93,1.48c-1.48,2.33-3.34,5.16-6,9.2l-3.83,5.82C675.39,327,674,328,672.62,328Zm-4.15-2.71,3.27,2.13.59-.9a1.46,1.46,0,0,0,.29,0h1.81l.08-1a9.18,9.18,0,0,0,.9-1.19l3.84-5.82c10.4-15.79,10.6-16.09,9.14-18.7l-.28-.5c-1.08-2-4.17-2.56-13.77-2.56a.72.72,0,0,1-.69-1l4.88-13.15c1.51-3.21,1.89-5.65,1.11-6.92l-.43-.71-1-.22h-.25a5.16,5.16,0,0,0-3.77,2.33l-12.48,20a5,5,0,0,0-.22,5c1.29,2.39,3.12,2.63,7.29,2.63l2.41,0c1.21,0,2.56,0,4.08,0a.72.72,0,0,1,.6.32.73.73,0,0,1,.09.67c-.88,2.37-1.68,4.48-2.39,6.35-2.35,6.2-3.51,9.39-3.77,11.25Zm113.77-63.09A38,38,0,0,0,749.35,280c-6.73,10.48-7.66,21.64-5.12,26.83l.86,1.76,1.77-.87a54.17,54.17,0,0,0,10.7-7.05l1.35-1.12-1-1.46a.75.75,0,0,1-.11-.18c-3.33-10.24.67-17.53.84-17.84a.75.75,0,0,1,1-.27.75.75,0,0,1,.28,1c-.15.27-3.39,6.27-1.23,14.9l.84,3.33,2.44-2.42c3.2-3.18,6-6.46,8-8.95l.52-.63-.08-.81c-1.06-10.42,4.25-16.73,4.3-16.79a.72.72,0,0,1,.56-.25.76.76,0,0,1,.48.17.74.74,0,0,1,.07,1,19.69,19.69,0,0,0-3.75,9l-1.22,7.09,4.64-5.5c4.06-4.81,7.66-8.4,12-10.27a.72.72,0,0,1,.29-.06.75.75,0,0,1,.68.45.73.73,0,0,1-.39,1c-5.39,2.31-9.8,7.75-14.92,14-4.7,5.79-10,12.35-17.15,17.69l-5.93,4.45,7.35-.94c23.88-3.05,36.31-16.21,39.1-41.42l.19-1.72-1.68-.39A56,56,0,0,0,782.24,262.17ZM720,295.58a5.76,5.76,0,0,0,1.54.18c3.33-.21,10.54-8.06,13.8-16.12,2.05-5.07,2.05-9.1,0-11.35a.73.73,0,0,1-.14-.76.72.72,0,0,1,.62-.46c4.73-.37,9.05-3.54,10.27-7.54,1-3.25-.24-6.48-3.5-9.09a.73.73,0,0,1,.79-1.23,4.49,4.49,0,0,0,2,.56,2.83,2.83,0,0,0,2.39-1.31c2-2.75,1.59-9.15-1.68-12.42a.73.73,0,0,1,.21-1.18,25,25,0,0,1,8.6-2.08c3.57-.36,5.19-.66,6.05-4.13a.73.73,0,0,1,.57-.54l.15,0a.75.75,0,0,1,.58.29,14.67,14.67,0,0,0,11.29,6l.77,0a5.84,5.84,0,0,0,4.87-2.73l.57-.88-.29-.88a65.34,65.34,0,0,0-39.3-40.78l-.1,0-.17-.05a10.26,10.26,0,0,0-2.69-.4,4.2,4.2,0,0,0-3.21,1.14c-.64.74-1.16,2.22-.05,5.17l.33.87.88.29a52.38,52.38,0,0,1,16.16,9.78.8.8,0,0,1,.25.51.74.74,0,0,1-.18.53.72.72,0,0,1-.56.25.73.73,0,0,1-.47-.17c-5.16-4.45-11.15-8-16-9.63l-.63-.32-.58.07c-6.25.69-7.43,3.77-7.58,5.55a7.74,7.74,0,0,0,5.71,7.65.72.72,0,0,1,.53.51.74.74,0,0,1-.19.72c-1.66,1.66-2.19,3.21-1.59,4.59,1.12,2.56,6,4.34,11.87,4.34.36,0,.74,0,1.12,0h0a.72.72,0,0,1,.59.28.73.73,0,0,1,.15.64c-1.72,6.91-7,7.69-12.77,7.92-2.87.12-4,.26-4.83.81l-.32.23-.21.33a.56.56,0,0,1-.52.29.78.78,0,0,1-.67-.51,4.53,4.53,0,0,0-4.24-3,5.24,5.24,0,0,0-1.23.15c-2.64.64-5.32,3.46-5,8.12a.7.7,0,0,1-.22.58.76.76,0,0,1-.52.21,11.65,11.65,0,0,0-1.42-.09,5.93,5.93,0,0,0-5.08,2.21,6.42,6.42,0,0,0-.45,6.38,7.57,7.57,0,0,0,6.37,4.46.7.7,0,0,1,.57.38.76.76,0,0,1,0,.69c-4.43,8.35-5.31,14.34,3.3,20.26,5.48,3.77,3.9,10.65,2.63,16.18-1.08,4.68-1.31,6.55-.47,7.77l.58.85Z"/><path class="cls-1" d="M759.16,216.61a.74.74,0,0,1-.64-.38,26.25,26.25,0,0,0-2.86-4,.74.74,0,0,1,.09-1,.75.75,0,0,1,1,.09,27.61,27.61,0,0,1,3,4.19.74.74,0,0,1,.07.56.71.71,0,0,1-.34.44A.79.79,0,0,1,759.16,216.61Z"/></g><path class="cls-1" d="M1262.53,142a.33.33,0,0,1-.24-.1.3.3,0,0,1-.1-.23.31.31,0,0,1,.1-.24l3.65-3.66-.06-.48c-.34-2.64-1.06-11.63,4-16.65,3.48-3.48,8.87-4.21,12.79-4.21a29.74,29.74,0,0,1,4.52.33.34.34,0,0,1,.27.28c.08.46,1.93,11.5-3.87,17.3-3.48,3.48-8.88,4.21-12.79,4.21a30.29,30.29,0,0,1-3.86-.24l-.49-.06-3.65,3.65A.33.33,0,0,1,1262.53,142Zm15.75-16.42a.34.34,0,0,1,.24.57L1267,137.76l2.26.11c.48,0,1,0,1.56,0,3.79,0,9-.7,12.31-4,4.49-4.49,4.17-12.47,3.82-15.69l-.08-.8-.8-.09a32.48,32.48,0,0,0-3.37-.18c-3.8,0-9,.7-12.32,4-3.85,3.85-4.14,10.35-4,13.88l.11,2.25L1278,125.72A.33.33,0,0,1,1278.28,125.62Z"/><path class="cls-1" d="M1257.72,101.69a.34.34,0,0,1-.34-.34V83.53a.34.34,0,0,1,.34-.33h35.64a.34.34,0,0,1,.34.33v17.82a.34.34,0,0,1-.34.34Zm.34-.67h35V83.87h-35Z"/><path class="cls-1" d="M1247.33,156a.34.34,0,0,1-.34-.34v-5.34a.34.34,0,0,1,.34-.34h2.78V81a5.87,5.87,0,0,1,5.86-5.86h39.14A5.87,5.87,0,0,1,1301,81v30.67h4.3a3.88,3.88,0,0,1,3.87,3.88v23.19a3.21,3.21,0,0,0,3.21,3.2h.93a3.21,3.21,0,0,0,3.21-3.2v-31l-7-7a.35.35,0,0,1-.1-.24V90.8l-3.46-3.46a.34.34,0,0,1,0-.48.3.3,0,0,1,.23-.1.32.32,0,0,1,.24.1l10.69,10.69a.33.33,0,0,1,.1.24v41a3.88,3.88,0,0,1-3.88,3.87h-.93a3.88,3.88,0,0,1-3.88-3.87V115.59a3.21,3.21,0,0,0-3.2-3.21H1301V150h2.79a.34.34,0,0,1,.33.34v5.34a.34.34,0,0,1-.33.34Zm.33-.67h55.76V150.7h-55.76ZM1256,75.85a5.2,5.2,0,0,0-5.19,5.19v69h49.52V81a5.2,5.2,0,0,0-5.19-5.19ZM1310,100.32l6.46,6.46V97.93L1310,91.47Z"/><path class="cls-1" d="M1280.29,88.32a.34.34,0,0,1,0-.67h1.79a.34.34,0,0,1,0,.67Z"/><path class="cls-1" d="M1286.53,88.32a.34.34,0,1,1,0-.67h1.78a.34.34,0,1,1,0,.67Z"/><path class="cls-1" d="M1280.29,92.78a.34.34,0,0,1,0-.67h1.79a.34.34,0,0,1,0,.67Z"/><path class="cls-1" d="M1286.53,92.78a.34.34,0,1,1,0-.67h1.78a.34.34,0,1,1,0,.67Z"/><path class="cls-1" d="M1280.29,97.23a.34.34,0,0,1,0-.67h1.79a.34.34,0,0,1,0,.67Z"/><path class="cls-1" d="M1286.53,97.23a.34.34,0,1,1,0-.67h1.78a.34.34,0,1,1,0,.67Z"/><g id="_13" data-name="13"><path class="cls-1" d="M443.87,270.54a.8.8,0,0,1-.62-.29.79.79,0,0,1-.18-.66,9.74,9.74,0,0,1,9.63-8.13h6.73V243H430.26a4.8,4.8,0,0,1-3.57-1.58l-5.53-6.08-.09-.13,0,0,0-.08,0-.06a.84.84,0,0,1-.05-.17l0-.08a.92.92,0,0,1,0-.15l0-.08v-.08l17.84-53.82a4.81,4.81,0,0,1,4.58-3.31H493.1a4.83,4.83,0,0,1,4.58,3.31l17.84,53.81v.12l0,.08a.33.33,0,0,1,0,.14v.06a.64.64,0,0,1-.06.18l0,.06,0,.08,0,0a.36.36,0,0,0-.07.1l-5.53,6.08A4.83,4.83,0,0,1,506.2,243H477v18.47h6.73a9.74,9.74,0,0,1,9.63,8.13.81.81,0,0,1-.81,1Zm8.83-7.45a8.1,8.1,0,0,0-7.23,4.39l-.74,1.43h47l-.74-1.43a8.1,8.1,0,0,0-7.23-4.39Zm17.52-8.95a.82.82,0,0,1,.82.82v6.5h4.36V243H461.06v18.47h8.35V255A.82.82,0,0,1,470.22,254.14Zm-42.33-13.82a3.23,3.23,0,0,0,2.37,1H506.2a3.19,3.19,0,0,0,2.36-1l4.34-4.78H423.55ZM443.36,179a3.18,3.18,0,0,0-3,2.19l-17.49,52.74h90.77l-17.48-52.74a3.18,3.18,0,0,0-3-2.19Z"/><path class="cls-1" d="M488.09,228.62a.82.82,0,0,1-.81-.68l-1.73-10.06H468.84v9.92a.82.82,0,0,1-.81.82.82.82,0,0,1-.82-.82v-9.92h-16.7l-1.74,10.06a.81.81,0,0,1-.8.68h-.13a.88.88,0,0,1-.54-.33.83.83,0,0,1-.13-.61l1.68-9.79h-11a.82.82,0,0,1-.82-.82.82.82,0,0,1,.82-.81h11.29l2.13-12.39H441.9a.82.82,0,0,1-.82-.81.82.82,0,0,1,.82-.82h9.64l1.61-9.34H445a.82.82,0,0,1-.82-.81.82.82,0,0,1,.82-.82h8.43l1.23-7.11a.81.81,0,0,1,.79-.68h.14a.85.85,0,0,1,.54.34.79.79,0,0,1,.13.6l-1.17,6.84h12.12v-7a.82.82,0,0,1,.82-.82.82.82,0,0,1,.81.82v7H481l-1.18-6.84a.84.84,0,0,1,.14-.6.83.83,0,0,1,.53-.34h.14a.81.81,0,0,1,.8.68l1.22,7.11h8.44a.82.82,0,0,1,.81.82.81.81,0,0,1-.81.81H482.9l1.61,9.34h9.65a.82.82,0,0,1,.81.82.81.81,0,0,1-.81.81h-9.37l2.13,12.39h11.3a.81.81,0,0,1,.81.81.82.82,0,0,1-.81.82h-11l1.69,9.79a.79.79,0,0,1-.14.61.83.83,0,0,1-.52.33Zm-19.25-12.37h16.43l-2.13-12.39h-14.3Zm-18,0h16.42V203.86H452.92Zm18-14h14l-1.61-9.34H468.84Zm-15.64,0h14v-9.34h-12.4Z"/></g><g id="_26" data-name="26"><path class="cls-1" d="M50.84,319.2a.57.57,0,0,1-.56-.57v-2.86a6,6,0,0,1,2.93-5.12l.73-.43V250a6.25,6.25,0,0,1,6.24-6.24H79.23V233.13a4.46,4.46,0,0,1,4.46-4.46h4.58a4.46,4.46,0,0,1,4.46,4.46V243.8h36V233.13a4.46,4.46,0,0,1,4.46-4.46h4.58a4.46,4.46,0,0,1,4.46,4.46V243.8h12.11a6.25,6.25,0,0,1,6.24,6.24v60.18l.73.43a6,6,0,0,1,2.93,5.12v2.86a.57.57,0,0,1-.56.57Zm5.39-8.26a4.84,4.84,0,0,0-4.83,4.83v2.3H163.12v-2.3a4.83,4.83,0,0,0-4.82-4.83Zm-1.16-1.12H159.46V254.11l-1.83.43-.13,0h-73V303.5a.56.56,0,0,1-.56.57.57.57,0,0,1-.57-.57V254a.57.57,0,0,1,.57-.56H157.5l.13,0,1.83.42V250a5.11,5.11,0,0,0-5.11-5.11H60.18A5.11,5.11,0,0,0,55.07,250v3.39H75.66a.56.56,0,0,1,.57.56V303.5a.57.57,0,1,1-1.13,0V254.56h-20Zm78.13-80a3.33,3.33,0,0,0-3.33,3.33V243.8h11.25V233.13a3.34,3.34,0,0,0-3.34-3.33Zm-49.51,0a3.34,3.34,0,0,0-3.34,3.33V243.8H91.61V233.13a3.34,3.34,0,0,0-3.34-3.33Z"/><path class="cls-1" d="M93.54,272.44a.57.57,0,0,1-.56-.57.56.56,0,0,1,.56-.56h8.26a.56.56,0,0,1,.56.56.57.57,0,0,1-.56.57Z"/><path class="cls-1" d="M144.43,276.56a.56.56,0,0,1-.56-.56v-3.56h-3.56a.58.58,0,0,1-.57-.57.57.57,0,0,1,.57-.56h3.56v-3.56a.56.56,0,1,1,1.12,0v3.56h3.57a.56.56,0,0,1,.56.56.57.57,0,0,1-.56.57H145V276A.56.56,0,0,1,144.43,276.56Z"/><path class="cls-1" d="M120.28,301.52a3.74,3.74,0,0,1-1.91-.61l-.27-.4h-.31c-1.45-1.22-.85-3.27,2.13-11.13l1.48-3.88-2.21,0-1.76,0c-3.65,0-5.15-.38-6.3-2.51a4.68,4.68,0,0,1,.21-4.8l9.14-14.64a4.68,4.68,0,0,1,3.73-2.15,2.6,2.6,0,0,1,1.29.32c1.68.93,1.73,3.42.15,6.82l-.05.11-3.26,8.8,2.18,0,1.71,0c3.7,0,5.22.38,6.37,2.51l.18.34c1.37,2.46,1.39,2.51-6.79,14.92l-2.75,4.19C122.32,300.81,121.32,301.52,120.28,301.52Zm-3.11-2,2.51,1.64.47-.71,1.68.1,0-1a7.64,7.64,0,0,0,.51-.7l2.75-4.19c6.2-9.4,7.3-11.17,7.27-12.4v-.15l0-.14a3.86,3.86,0,0,0-.48-1.05l-.2-.38c-.94-1.73-2.22-1.9-5.36-1.9l-1.72,0-3,0a.55.55,0,0,1-.46-.24.56.56,0,0,1-.07-.52l3.58-9.63c.9-1.91,1.26-3.49,1-4.49l-.27-1.22-1.25.05a3.6,3.6,0,0,0-2.66,1.64l-9.14,14.64a3.57,3.57,0,0,0-.17,3.65c.95,1.75,2.22,1.92,5.34,1.92l1.75,0c.88,0,1.87,0,3,0a.56.56,0,0,1,.46.25.55.55,0,0,1,.07.51c-.59,1.59-1.13,3-1.62,4.3l-.13.36a55.9,55.9,0,0,0-2.73,8Z"/></g><path class="cls-1" d="M261.48,166.05A22.5,22.5,0,1,1,284,143.55,22.53,22.53,0,0,1,261.48,166.05Zm0-43.5a21,21,0,1,0,21,21A21,21,0,0,0,261.48,122.55Z"/><path class="cls-1" d="M261.48,113.44a.75.75,0,0,1-.75-.75V97.39a.75.75,0,1,1,1.5,0v15.3A.76.76,0,0,1,261.48,113.44Z"/><path class="cls-1" d="M246.05,117.57a.75.75,0,0,1-.65-.37L237.75,104a.75.75,0,0,1,.27-1,.76.76,0,0,1,1,.28l7.65,13.25a.75.75,0,0,1-.28,1A.74.74,0,0,1,246.05,117.57Z"/><path class="cls-1" d="M234.75,128.87a.79.79,0,0,1-.37-.1l-13.25-7.65a.76.76,0,0,1-.28-1,.75.75,0,0,1,1-.27l13.25,7.65a.75.75,0,0,1,.27,1A.76.76,0,0,1,234.75,128.87Z"/><path class="cls-1" d="M230.62,144.3h-15.3a.75.75,0,0,1,0-1.5h15.3a.75.75,0,0,1,0,1.5Z"/><path class="cls-1" d="M221.5,167.38a.75.75,0,0,1-.37-1.4l13.25-7.65a.74.74,0,0,1,1,.27.76.76,0,0,1-.27,1l-13.25,7.65A.86.86,0,0,1,221.5,167.38Z"/><path class="cls-1" d="M238.4,184.27a.74.74,0,0,1-.65-1.12l7.65-13.25a.75.75,0,0,1,1-.28.76.76,0,0,1,.28,1l-7.65,13.25A.76.76,0,0,1,238.4,184.27Z"/><path class="cls-1" d="M261.48,190.46a.75.75,0,0,1-.75-.75v-15.3a.75.75,0,1,1,1.5,0v15.3A.76.76,0,0,1,261.48,190.46Z"/><path class="cls-1" d="M284.56,184.27a.73.73,0,0,1-.65-.37l-7.65-13.25a.75.75,0,0,1,.27-1,.76.76,0,0,1,1,.28l7.64,13.25a.74.74,0,0,1-.64,1.12Z"/><path class="cls-1" d="M301.45,167.38a.79.79,0,0,1-.37-.1l-13.25-7.65a.75.75,0,1,1,.75-1.3L301.83,166a.75.75,0,0,1,.27,1A.76.76,0,0,1,301.45,167.38Z"/><path class="cls-1" d="M307.63,144.3H292.34a.75.75,0,0,1,0-1.5h15.29a.75.75,0,0,1,0,1.5Z"/><path class="cls-1" d="M288.2,128.87a.76.76,0,0,1-.65-.38.74.74,0,0,1,.28-1l13.25-7.65a.74.74,0,0,1,1,.27.76.76,0,0,1-.27,1l-13.25,7.65A.86.86,0,0,1,288.2,128.87Z"/><path class="cls-1" d="M276.9,117.57a.74.74,0,0,1-.64-1.12l7.65-13.25a.75.75,0,1,1,1.29.75l-7.64,13.25A.76.76,0,0,1,276.9,117.57Z"/><path class="cls-1" d="M1136.49,281.76h0l-20.27-4.45a.21.21,0,0,1-.17-.19.22.22,0,0,1,.11-.23l6-3.44-5.24-9.08c-.06-.12-5.36-10.69-16.45-11.55a.23.23,0,0,1-.12-.41,20,20,0,0,1,4.49-2.36c3.36-1.31,13.61-5.31,23.8,2.44l0,0,8.4,12.29,5.66-3.27a.23.23,0,0,1,.26,0,.23.23,0,0,1,.07.25l-6.28,19.77A.22.22,0,0,1,1136.49,281.76ZM1116.85,277l19.49,4.27,6-19-5.34,3.08a.23.23,0,0,1-.29-.07l-8.51-12.43c-10-7.57-20-3.64-23.33-2.35a19.85,19.85,0,0,0-3.86,2c10.93,1.22,16.13,11.62,16.19,11.72l5.34,9.27a.25.25,0,0,1,0,.17.26.26,0,0,1-.11.14Z"/><path class="cls-1" d="M1106.2,274.07l-.12,0-14.4-8.38a.21.21,0,0,1-.1-.14.22.22,0,0,1,0-.18c.3-.47,7.19-11.44,8.63-12.91a.22.22,0,0,1,.19-.06,21,21,0,0,1,14.17,7.84.27.27,0,0,1,0,.26L1106.39,274A.21.21,0,0,1,1106.2,274.07Zm-14.08-8.69,14,8.16,8-13.18a20.6,20.6,0,0,0-13.65-7.53C1099,254.42,1093.06,263.88,1092.12,265.38Z"/><path class="cls-1" d="M1088.75,321.66l-.09,0a20.07,20.07,0,0,1-4.29-2.71c-2.82-2.26-11.41-9.13-9.79-21.83a.14.14,0,0,1,0-.07l6.44-13.42-5.66-3.27a.23.23,0,0,1-.11-.23.22.22,0,0,1,.18-.19l20.26-4.44a.22.22,0,0,1,.27.15l6.29,19.77a.26.26,0,0,1-.08.25.23.23,0,0,1-.26,0l-6-3.44-5.24,9.08c-.08.11-6.58,10-1.77,20a.23.23,0,0,1,0,.26A.24.24,0,0,1,1088.75,321.66ZM1075,297.19c-1.56,12.43,6.86,19.17,9.63,21.39a20.31,20.31,0,0,0,3.62,2.36c-4.41-10.07,2-19.78,2.06-19.87l5.35-9.27a.21.21,0,0,1,.14-.1.2.2,0,0,1,.17,0l5.65,3.26-6-19-19.49,4.27,5.38,3.11a.24.24,0,0,1,0,.27Z"/><path class="cls-1" d="M1104.19,322.67h0c-.55,0-13.5-.5-15.49-1a.24.24,0,0,1-.15-.13,21.09,21.09,0,0,1-.29-16.19.23.23,0,0,1,.22-.14l15.79.36a.23.23,0,0,1,.22.23l-.06,16.66a.24.24,0,0,1-.23.23Zm-15.28-1.44c2.1.46,13.28.9,15,1L1104,306l-15.41-.35A20.6,20.6,0,0,0,1088.91,321.23Z"/><path class="cls-1" d="M1125.25,329.51a.25.25,0,0,1-.17-.08l-14-15.33a.23.23,0,0,1,0-.31l14-15.32a.23.23,0,0,1,.26-.06.22.22,0,0,1,.14.21v6.89H1136c.14,0,12,.7,18.23-8.48a.23.23,0,0,1,.42.1,20.29,20.29,0,0,1-.21,5.07c-.54,3.57-2.2,14.44-14,19.39l-.07,0-14.84,1.14v6.53a.23.23,0,0,1-.14.21ZM1111.58,314,1125,328.69v-6.16a.22.22,0,0,1,.21-.22l15-1.15c11.54-4.86,13.17-15.53,13.7-19a20.31,20.31,0,0,0,.25-4.31c-6.52,8.85-18.13,8.16-18.25,8.15h-10.7a.22.22,0,0,1-.22-.23v-6.52Z"/><path class="cls-1" d="M1140.66,305.64a.24.24,0,0,1-.2-.12l-7.59-13.85a.23.23,0,0,1,.09-.31l14.46-8.28a.22.22,0,0,1,.18,0,.26.26,0,0,1,.14.11c.25.49,6.31,11.94,6.86,13.93a.22.22,0,0,1,0,.19,21.06,21.06,0,0,1-13.89,8.35Zm-7.28-14,7.41,13.53a20.68,20.68,0,0,0,13.34-8.05c-.65-2.05-5.86-12-6.69-13.53Z"/><path class="cls-1" d="M1128,82.6a59.32,59.32,0,0,1-13.2-1.7.48.48,0,0,1-.35-.62c4.38-14.84,14.38-18.62,14.81-18.77,7.55-2.47,12.62-1.25,17.09-.18a25.9,25.9,0,0,0,6.07,1h0a.5.5,0,0,1,.5.47.42.42,0,0,1-.05.25l0,.11c-1.25,3.05-6,13.32-15,17.52C1135.17,82.12,1131.56,82.6,1128,82.6Zm-12.44-2.54c2.68.62,15.32,3.25,21.86-.3,8.15-3.84,12.75-13,14.25-16.48a30,30,0,0,1-5.55-1c-4.35-1-9.27-2.22-16.54.15C1129.5,62.48,1119.87,66.15,1115.56,80.06Zm36.86-17.26h0Z"/><path class="cls-1" d="M1109.18,88.45a.5.5,0,0,1-.24-.06.49.49,0,0,1-.2-.68c9.55-17.61,32.71-20.16,32.94-20.18a.51.51,0,0,1,.55.45.49.49,0,0,1-.45.54c-.23,0-22.87,2.53-32.16,19.67A.53.53,0,0,1,1109.18,88.45Z"/><path class="cls-1" d="M1128.49,121.71c-9.6,0-14.82-4.27-15.09-4.5-5.91-5.31-7.39-10.31-8.7-14.72a25.35,25.35,0,0,0-2.19-5.73.49.49,0,0,1,.15-.67.48.48,0,0,1,.25-.09h.11c3.27-.44,14.56-1.43,22.65,4.19,7.4,4.52,11.59,19.22,11.76,19.85a.49.49,0,0,1,0,.39.51.51,0,0,1-.32.23A36.58,36.58,0,0,1,1128.49,121.71Zm-24.76-24.8a30.47,30.47,0,0,1,1.93,5.3c1.27,4.28,2.71,9.13,8.4,14.25.06.05,8,6.56,22.26,3.34-.81-2.64-4.85-14.9-11.19-18.78C1117.73,95.88,1107.49,96.47,1103.73,96.91Z"/><path class="cls-1" d="M1145.52,121.89c-19.57,0-33-18.26-33.11-18.45a.5.5,0,0,1,.11-.7.51.51,0,0,1,.7.11c.13.19,13.65,18.55,33.11,18h0a.49.49,0,0,1,.5.48.5.5,0,0,1-.48.52Z"/><path class="cls-1" d="M1158.25,122.88a.46.46,0,0,1-.23-.06.45.45,0,0,1-.19-.17l-.07-.09c-2-2.61-8.52-11.9-7.7-21.71.22-8.67,10.86-19.64,11.32-20.11a.51.51,0,0,1,.35-.15h0a.57.57,0,0,1,.36.16C1172.75,92,1171,102.52,1171,103c-1.65,7.78-5.23,11.56-8.4,14.89a25.77,25.77,0,0,0-3.87,4.78A.5.5,0,0,1,1158.25,122.88Zm3.48-41.06c-1.88,2-10.48,11.65-10.67,19.08-.75,9,4.88,17.55,7.14,20.59a30.24,30.24,0,0,1,3.63-4.32c3.07-3.24,6.55-6.92,8.14-14.4C1170,102.69,1171.62,92.51,1161.73,81.82Z"/><path class="cls-1" d="M1159.06,111a.53.53,0,0,1-.2-.05.49.49,0,0,1-.25-.66c.09-.21,9.24-21.07-.95-37.69a.51.51,0,0,1,.16-.69.5.5,0,0,1,.69.17c10.47,17.08,1.11,38.41,1,38.62A.5.5,0,0,1,1159.06,111Z"/><path class="cls-2" d="M967.65,180.44h-8.4a.75.75,0,0,1,0-1.5h8.4a.75.75,0,0,1,0,1.5Z"/><path class="cls-2" d="M983.36,180.44H975a.75.75,0,0,1,0-1.5h8.39a.75.75,0,0,1,0,1.5Z"/><path class="cls-2" d="M999.08,180.44h-8.4a.75.75,0,0,1,0-1.5h8.4a.75.75,0,0,1,0,1.5Z"/><path class="cls-2" d="M1014.79,180.44h-8.4a.75.75,0,0,1,0-1.5h8.4a.75.75,0,0,1,0,1.5Z"/><path class="cls-2" d="M1030.51,180.44h-8.4a.75.75,0,0,1,0-1.5h8.4a.75.75,0,0,1,0,1.5Z"/><path class="cls-2" d="M1111.51,223.84h-2V183.1a12.11,12.11,0,0,0-12.1-12.09H878.27v-2h219.14a14.11,14.11,0,0,1,14.1,14.09Z"/><path class="cls-2" d="M269.32,301.06c3.88,0,5.87,1.91,7.63,3.6s3.05,2.93,6,2.93,4.33-1.36,6-2.93,3.74-3.6,7.63-3.6,5.86,1.91,7.62,3.6,3,2.93,5.95,2.93,4.33-1.36,6-2.93,3.75-3.6,7.63-3.6,5.87,1.91,7.62,3.6,3,2.93,6,2.93,4.33-1.36,6-2.93,3.74-3.6,7.62-3.6,5.87,1.91,7.63,3.6,3,2.93,6,2.93,4.32-1.36,5.95-2.93,3.74-3.6,7.62-3.6a1.2,1.2,0,0,1,0,2.4c-2.91,0-4.32,1.36-6,2.93s-3.74,3.6-7.61,3.6-5.87-1.91-7.63-3.6-3-2.93-6-2.93-4.32,1.36-6,2.93-3.74,3.6-7.62,3.6-5.87-1.91-7.62-3.6-3.05-2.93-6-2.93-4.33,1.36-6,2.93S314,310,310.08,310s-5.86-1.91-7.62-3.6-3-2.93-5.95-2.93-4.33,1.36-6,2.93-3.74,3.6-7.63,3.6-5.87-1.91-7.63-3.6-3-2.93-6-2.93a1.2,1.2,0,0,1,0-2.4Z"/><rect class="cls-2" x="1293.14" y="262.12" width="0.81" height="3.16"/><rect class="cls-2" x="1289.17" y="262.97" width="0.81" height="3.16" transform="translate(3.89 547.4) rotate(-24)"/><rect class="cls-2" x="1285.88" y="265.36" width="0.81" height="3.16" transform="translate(227.25 1044.26) rotate(-48)"/><rect class="cls-2" x="1283.85" y="268.88" width="0.81" height="3.16" transform="matrix(0.31, -0.95, 0.95, 0.31, 630.18, 1408.28)"/><rect class="cls-2" x="1282.25" y="274.09" width="3.16" height="0.81" transform="translate(-21.66 135.66) rotate(-6)"/><rect class="cls-2" x="1283.5" y="277.96" width="3.16" height="0.81" transform="translate(32.95 679.73) rotate(-30)"/><rect class="cls-2" x="1286.22" y="280.98" width="3.16" height="0.81" transform="translate(303.21 1157.85) rotate(-54)"/><rect class="cls-2" x="1289.94" y="282.64" width="3.16" height="0.81" transform="translate(745.94 1487.4) rotate(-77.99)"/><rect class="cls-2" x="1295.18" y="281.46" width="0.81" height="3.16" transform="translate(-30.54 275.48) rotate(-12)"/><rect class="cls-2" x="1298.89" y="279.81" width="0.81" height="3.16" transform="translate(82.73 817.4) rotate(-36)"/><rect class="cls-2" x="1301.61" y="276.79" width="0.81" height="3.16" transform="translate(409.94 1266.77) rotate(-60)"/><rect class="cls-2" x="1302.87" y="272.92" width="0.81" height="3.16" transform="translate(894.05 1541.94) rotate(-84)"/><rect class="cls-2" x="1301.27" y="270.05" width="3.16" height="0.81" transform="translate(-19.82 415.76) rotate(-18)"/><rect class="cls-2" x="1299.24" y="266.53" width="3.16" height="0.81" transform="translate(155.42 938.83) rotate(-41.99)"/><rect class="cls-2" x="1295.95" y="264.14" width="3.16" height="0.81" transform="translate(528.09 1342.29) rotate(-66)"/><path class="cls-2" d="M550.18,252.61H536a.75.75,0,0,1,0-1.5h14.2a.75.75,0,0,1,0,1.5Z"/><path class="cls-2" d="M568.74,252.61h-14.2a.75.75,0,0,1,0-1.5h14.2a.75.75,0,0,1,0,1.5Z"/><path class="cls-2" d="M587.31,252.61h-14.2a.75.75,0,0,1,0-1.5h14.2a.75.75,0,0,1,0,1.5Z"/><path class="cls-2" d="M605.87,252.61h-14.2a.75.75,0,0,1,0-1.5h14.2a.75.75,0,0,1,0,1.5Z"/><path class="cls-2" d="M624.44,252.61h-14.2a.75.75,0,0,1,0-1.5h14.2a.75.75,0,0,1,0,1.5Z"/><path class="cls-2" d="M1266.33,180.07a.74.74,0,0,1-.75-.75v-8.39a.75.75,0,0,1,1.5,0v8.39A.75.75,0,0,1,1266.33,180.07Z"/><path class="cls-2" d="M1266.33,195.79a.75.75,0,0,1-.75-.75v-8.4a.75.75,0,1,1,1.5,0V195A.76.76,0,0,1,1266.33,195.79Z"/><path class="cls-2" d="M1266.33,211.5a.74.74,0,0,1-.75-.75v-8.39a.75.75,0,0,1,1.5,0v8.39A.75.75,0,0,1,1266.33,211.5Z"/><path class="cls-2" d="M1266.33,227.22a.75.75,0,0,1-.75-.75v-8.4a.75.75,0,1,1,1.5,0v8.4A.76.76,0,0,1,1266.33,227.22Z"/><path class="cls-2" d="M1266.33,242.93a.74.74,0,0,1-.75-.75v-8.39a.75.75,0,1,1,1.5,0v8.39A.75.75,0,0,1,1266.33,242.93Z"/><path class="cls-2" d="M301.19,269.54a16.95,16.95,0,1,1,16.94-17A17,17,0,0,1,301.19,269.54Zm0-32.39a15.45,15.45,0,1,0,15.44,15.44A15.46,15.46,0,0,0,301.19,237.15Z"/><path class="cls-2" d="M1066,144.31a17.13,17.13,0,1,1,17.13-17.13A17.15,17.15,0,0,1,1066,144.31Zm0-33.26a16.13,16.13,0,1,0,16.13,16.13A16.14,16.14,0,0,0,1066,111.05Z"/><path class="cls-2" d="M1275.54,256.56v-1.5a25.3,25.3,0,0,0,0-50.59V203a26.8,26.8,0,0,1,0,53.59Z"/><path class="cls-2" d="M1049.65,233.57v-1.5a12.27,12.27,0,1,0,0-24.54V206a13.77,13.77,0,1,1,0,27.54Z"/><path class="cls-2" d="M727.67,162.46H647.75v-.75a26.8,26.8,0,0,1,51.11-11.27,16.6,16.6,0,0,1,28.81,11.27ZM649.26,161h76.89a15.1,15.1,0,0,0-26.91-8.66l-.8,1-.49-1.18A25.29,25.29,0,0,0,649.26,161Z"/><path class="cls-2" d="M110.27,187.66h-2V139.24a39.1,39.1,0,0,1,39.06-39.06H188.7v2H147.33a37.1,37.1,0,0,0-37.06,37.06Z"/><path class="cls-2" d="M467.21,290.17h-166a39.1,39.1,0,0,1-39.06-39.05V209.74h2v41.38a37.1,37.1,0,0,0,37.06,37.05h166Z"/><path class="cls-2" d="M1193.85,229.28h-14.64V214.64a.51.51,0,0,0-.52-.51.52.52,0,0,0-.52.51v14.64h-14.63a.52.52,0,1,0,0,1h14.63V245a.52.52,0,0,0,.52.51.51.51,0,0,0,.52-.51V230.32h14.64a.52.52,0,0,0,0-1Z"/><path class="cls-2" d="M425.88,163H411.24V148.32a.52.52,0,0,0-1,0V163H395.57a.52.52,0,1,0,0,1h14.64v14.64a.52.52,0,1,0,1,0V164h14.64a.52.52,0,1,0,0-1Z"/><path class="cls-2" d="M148,140.45l-7.75-7.75L148,125a.38.38,0,0,0,0-.54.38.38,0,0,0-.55,0l-7.75,7.74L132,124.41a.38.38,0,0,0-.55,0,.38.38,0,0,0,0,.54l7.74,7.75-7.74,7.75a.38.38,0,0,0,0,.54.39.39,0,0,0,.55,0l7.74-7.74,7.75,7.74a.39.39,0,0,0,.55,0A.38.38,0,0,0,148,140.45Z"/><path class="cls-2" d="M1249.69,286.25h-71v-2h71a24.88,24.88,0,0,0,24.85-24.85V188.06h2V259.4A26.88,26.88,0,0,1,1249.69,286.25Z"/><path class="cls-2" d="M858.91,255a1.6,1.6,0,1,1,1.6,1.6A1.6,1.6,0,0,1,858.91,255Zm-5,1.08a1.6,1.6,0,1,1,.25,0Zm-6.46-1.53a1.59,1.59,0,1,1,.49.08A1.67,1.67,0,0,1,847.43,254.55ZM841.28,252a1.58,1.58,0,1,1,.72.18A1.6,1.6,0,0,1,841.28,252Zm-5.68-3.46a1.59,1.59,0,1,1,.94.31A1.6,1.6,0,0,1,835.6,248.56Zm-5.07-4.28a1.62,1.62,0,1,1,1.13.46A1.59,1.59,0,0,1,830.53,244.28Zm-4.34-5a1.62,1.62,0,0,1,.33-2.24,1.61,1.61,0,0,1,1.91,2.58,1.68,1.68,0,0,1-.95.31A1.62,1.62,0,0,1,826.19,239.26Zm-3.51-5.63a1.6,1.6,0,0,1,2.84-1.48,1.61,1.61,0,0,1-.68,2.16,1.68,1.68,0,0,1-.75.17A1.59,1.59,0,0,1,822.68,233.63Zm-2.6-6.11a1.6,1.6,0,1,1,2,1,1.49,1.49,0,0,1-.5.08A1.59,1.59,0,0,1,820.08,227.52Zm-1.61-6.45a1.6,1.6,0,1,1,1.84,1.31,1.23,1.23,0,0,1-.27,0A1.6,1.6,0,0,1,818.47,221.07Zm-.59-6.62A1.6,1.6,0,1,1,819.5,216,1.6,1.6,0,0,1,817.88,214.45Zm1.79-4.81a1.6,1.6,0,1,1,1.81-1.35,1.61,1.61,0,0,1-1.58,1.37Zm1.16-6.28a1.6,1.6,0,0,1,.94-3.06,1.6,1.6,0,0,1-.47,3.13A2,2,0,0,1,820.83,203.36Zm2.13-6a1.61,1.61,0,1,1,.7.16A1.62,1.62,0,0,1,823,197.32Zm3-5.63a1.61,1.61,0,0,1-.39-2.23,1.6,1.6,0,1,1,1.31,2.52A1.57,1.57,0,0,1,826,191.69Zm3.88-5.09a1.6,1.6,0,0,1,0-2.26,1.62,1.62,0,0,1,2.27,0,1.6,1.6,0,0,1-2.23,2.3Zm4.62-4.42a1.62,1.62,0,1,1,1.28.63A1.59,1.59,0,0,1,834.5,182.18Zm5.25-3.66a1.6,1.6,0,1,1,1.41.85A1.6,1.6,0,0,1,839.75,178.52Zm5.75-2.8a1.58,1.58,0,0,1,1-2,1.6,1.6,0,1,1,1,3,1.59,1.59,0,0,1-2-1Zm6.12-1.86a1.6,1.6,0,1,1,1.86,1.3l-.29,0A1.59,1.59,0,0,1,851.62,173.86ZM858,173a1.6,1.6,0,1,1,1.64,1.56h0A1.6,1.6,0,0,1,858,173Z"/><path class="cls-2" d="M858.91,246.56a1.6,1.6,0,1,1,1.6,1.6A1.6,1.6,0,0,1,858.91,246.56Zm-5.07.95a1.6,1.6,0,1,1,.32,0A1.73,1.73,0,0,1,853.84,247.51Zm-6.41-1.94a1.6,1.6,0,1,1,.61.12A1.66,1.66,0,0,1,847.43,245.57Zm-5.91-3.17a1.56,1.56,0,1,1,.88.28A1.53,1.53,0,0,1,841.52,242.4Zm-5.18-4.24a1.6,1.6,0,1,1,2.26,0,1.61,1.61,0,0,1-2.26,0ZM832.08,233a1.63,1.63,0,1,1,1.33.7A1.6,1.6,0,0,1,832.08,233Zm-3.16-5.91a1.58,1.58,0,0,1,.86-2.09,1.6,1.6,0,1,1,1.22,3,1.46,1.46,0,0,1-.61.13A1.59,1.59,0,0,1,828.92,227.07Zm-2-6.41a1.61,1.61,0,0,1,1.26-1.88,1.6,1.6,0,0,1,.62,3.14,1.55,1.55,0,0,1-.31,0A1.62,1.62,0,0,1,827,220.66Zm-.65-6.67a1.6,1.6,0,1,1,1.6,1.6A1.6,1.6,0,0,1,826.31,214Zm1.9-4.79a1.6,1.6,0,0,1,.63-3.14,1.61,1.61,0,0,1-.32,3.18A1.76,1.76,0,0,1,828.21,209.2Zm1.55-6.2a1.6,1.6,0,1,1,1.22-3,1.6,1.6,0,0,1-.62,3.08A1.61,1.61,0,0,1,829.76,203Zm2.73-5.79a1.6,1.6,0,1,1,.89.27A1.53,1.53,0,0,1,832.49,197.21Zm3.81-5.13a1.61,1.61,0,1,1,1.13.46A1.63,1.63,0,0,1,836.3,192.08Zm4.73-4.31a1.6,1.6,0,1,1,2.22.43,1.56,1.56,0,0,1-.89.28A1.6,1.6,0,0,1,841,187.77Zm5.48-3.3a1.6,1.6,0,1,1,2.09.86,1.66,1.66,0,0,1-.61.12A1.6,1.6,0,0,1,846.51,184.47Zm6-2.16a1.61,1.61,0,1,1,3.15-.63,1.6,1.6,0,0,1-1.27,1.88,1.55,1.55,0,0,1-.31,0A1.61,1.61,0,0,1,852.52,182.31Zm6.33-.95a1.6,1.6,0,1,1,1.6,1.6A1.6,1.6,0,0,1,858.85,181.36Z"/><path class="cls-2" d="M858.91,238a1.6,1.6,0,1,1,1.6,1.6A1.6,1.6,0,0,1,858.91,238Zm-5,.75a1.62,1.62,0,1,1,.41.05A1.92,1.92,0,0,1,853.93,238.75Zm-6.14-2.52a1.61,1.61,0,1,1,2.18-.6,1.58,1.58,0,0,1-1.39.81A1.64,1.64,0,0,1,847.79,236.23Zm-5.28-4a1.58,1.58,0,1,1,1.12.47A1.58,1.58,0,0,1,842.51,232.21ZM838.42,227a1.6,1.6,0,1,1,2.19.56,1.57,1.57,0,0,1-.81.22A1.6,1.6,0,0,1,838.42,227Zm-2.6-6.11a1.6,1.6,0,1,1,2,1.11,1.65,1.65,0,0,1-.43.06A1.59,1.59,0,0,1,835.82,220.88Zm-.94-6.56a1.6,1.6,0,0,1,1.57-1.63,1.6,1.6,0,1,1,0,3.2A1.59,1.59,0,0,1,834.88,214.32Zm1.92-4.65a1.59,1.59,0,1,1,.39.05A1.74,1.74,0,0,1,836.8,209.67Zm1.89-5.95a1.61,1.61,0,1,1,.78.2A1.56,1.56,0,0,1,838.69,203.72Zm3.37-5.24a1.6,1.6,0,1,1,2.26,0,1.61,1.61,0,0,1-2.26,0Zm4.58-4.23a1.6,1.6,0,1,1,2.74-1.66,1.6,1.6,0,0,1-.54,2.2,1.53,1.53,0,0,1-.83.23A1.62,1.62,0,0,1,846.64,194.25Zm5.52-2.89a1.61,1.61,0,1,1,2,1.08,1.88,1.88,0,0,1-.46.06A1.61,1.61,0,0,1,852.16,191.36Zm6.08-1.38a1.61,1.61,0,0,1,1.56-1.65,1.6,1.6,0,0,1,.09,3.2h0A1.61,1.61,0,0,1,858.24,190Z"/><path class="cls-2" d="M927.06,324.36a28.6,28.6,0,1,1,28.6-28.6A28.63,28.63,0,0,1,927.06,324.36Zm0-55.52A26.92,26.92,0,1,0,954,295.76,26.95,26.95,0,0,0,927.06,268.84Z"/><path class="cls-2" d="M927.06,318.76a23,23,0,1,1,23-23A23,23,0,0,1,927.06,318.76Zm0-44.33a21.33,21.33,0,1,0,21.33,21.33A21.35,21.35,0,0,0,927.06,274.43Z"/><path class="cls-2" d="M927.06,313.62a17.87,17.87,0,1,1,17.87-17.86A17.88,17.88,0,0,1,927.06,313.62Zm0-34.05a16.19,16.19,0,1,0,16.19,16.19A16.2,16.2,0,0,0,927.06,279.57Z"/><path class="cls-2" d="M927.06,308.89a13.14,13.14,0,1,1,13.13-13.13A13.14,13.14,0,0,1,927.06,308.89Zm0-24.59a11.46,11.46,0,1,0,11.45,11.46A11.47,11.47,0,0,0,927.06,284.3Z"/><path class="cls-2" d="M574.41,284.07a1.24,1.24,0,0,1-.85-.35,1.22,1.22,0,0,1,0-1.7l7.59-7.59-7.59-7.59a1.2,1.2,0,0,1,1.7-1.69l8.44,8.43a1.2,1.2,0,0,1,0,1.7l-8.44,8.44A1.2,1.2,0,0,1,574.41,284.07Z"/><path class="cls-2" d="M582.47,284.07a1.22,1.22,0,0,1-.85-.35,1.2,1.2,0,0,1,0-1.7l7.59-7.59-7.59-7.59a1.19,1.19,0,0,1,0-1.69,1.2,1.2,0,0,1,1.7,0l8.43,8.43a1.2,1.2,0,0,1,0,1.7l-8.43,8.44A1.22,1.22,0,0,1,582.47,284.07Z"/><path class="cls-2" d="M590.53,284.07a1.2,1.2,0,0,1-.85-2.05l7.59-7.59-7.59-7.59a1.2,1.2,0,0,1,1.69-1.69l8.44,8.43a1.2,1.2,0,0,1,0,1.7l-8.44,8.44A1.2,1.2,0,0,1,590.53,284.07Z"/><path class="cls-2" d="M598.58,284.07a1.22,1.22,0,0,1-.85-.35,1.2,1.2,0,0,1,0-1.7l7.59-7.59-7.59-7.59a1.19,1.19,0,0,1,0-1.69,1.2,1.2,0,0,1,1.7,0l8.44,8.43a1.2,1.2,0,0,1,0,1.7l-8.44,8.44A1.2,1.2,0,0,1,598.58,284.07Z"/><path class="cls-2" d="M606.64,284.07a1.2,1.2,0,0,1-.85-2.05l7.59-7.59-7.59-7.59a1.19,1.19,0,0,1,0-1.69,1.2,1.2,0,0,1,1.7,0l8.43,8.43a1.2,1.2,0,0,1,0,1.7l-8.43,8.44A1.22,1.22,0,0,1,606.64,284.07Z"/><path class="cls-2" d="M614.69,284.07a1.2,1.2,0,0,1-.84-2.05l7.58-7.59-7.58-7.59a1.2,1.2,0,1,1,1.69-1.69l8.44,8.43a1.2,1.2,0,0,1,0,1.7l-8.44,8.44A1.2,1.2,0,0,1,614.69,284.07Z"/><path class="cls-2" d="M93,122.76a5.88,5.88,0,1,1,5.88-5.88A5.89,5.89,0,0,1,93,122.76Zm0-9.36a3.48,3.48,0,1,0,3.48,3.48A3.48,3.48,0,0,0,93,113.4Z"/><path class="cls-2" d="M93,139.33a5.88,5.88,0,1,1,5.88-5.88A5.89,5.89,0,0,1,93,139.33ZM93,130a3.48,3.48,0,1,0,3.48,3.48A3.48,3.48,0,0,0,93,130Z"/><path class="cls-2" d="M93,155.9A5.88,5.88,0,1,1,98.86,150,5.89,5.89,0,0,1,93,155.9Zm0-9.36A3.48,3.48,0,1,0,96.46,150,3.48,3.48,0,0,0,93,146.54Z"/><path class="cls-2" d="M93,172.48a5.89,5.89,0,1,1,5.88-5.88A5.89,5.89,0,0,1,93,172.48Zm0-9.37a3.49,3.49,0,1,0,3.48,3.49A3.49,3.49,0,0,0,93,163.11Z"/><path class="cls-2" d="M93,189.05a5.88,5.88,0,1,1,5.88-5.88A5.89,5.89,0,0,1,93,189.05Zm0-9.36a3.48,3.48,0,1,0,3.48,3.48A3.48,3.48,0,0,0,93,179.69Z"/><path class="cls-2" d="M1324.77,229.77a1.2,1.2,0,0,1-.76-2.13l9.22-7.57a1.22,1.22,0,0,1,1.53,0l8.46,6.94,8.46-6.94a1.2,1.2,0,0,1,1.52,0l8.46,6.94,8.45-6.94a1.22,1.22,0,0,1,1.53,0l8.45,6.94,8.45-6.94a1.22,1.22,0,0,1,1.53,0l9.21,7.57a1.2,1.2,0,1,1-1.52,1.85l-8.46-6.94-8.45,6.94a1.18,1.18,0,0,1-1.52,0l-8.45-6.94-8.46,6.94a1.18,1.18,0,0,1-1.52,0l-8.46-6.94-8.46,6.94a1.18,1.18,0,0,1-1.52,0l-8.47-6.94-8.46,6.94A1.15,1.15,0,0,1,1324.77,229.77Z"/><path class="cls-2" d="M973.88,339.94h-2V271.87a14.71,14.71,0,0,0-14.69-14.69,18.1,18.1,0,0,1-18.08-18.08V170.48h2V239.1a16.09,16.09,0,0,0,16.08,16.08,16.71,16.71,0,0,1,16.69,16.69Z"/><path class="cls-2" d="M1132.14,171h-59.69v-2h59.69a10.63,10.63,0,0,0,10.62-10.61V137.91h2V158.4A12.63,12.63,0,0,1,1132.14,171Z"/></g></svg>