<svg xmlns="http://www.w3.org/2000/svg" viewBox="0 0 240 200"><defs><style>.cls-1{fill:#00de76;}</style></defs><g id="Layer_3" data-name="Layer 3"><path class="cls-1" d="M199.54,90.27a28.6,28.6,0,1,1,28.6-28.6A28.63,28.63,0,0,1,199.54,90.27Zm0-55.51a26.92,26.92,0,1,0,26.92,26.91A26.95,26.95,0,0,0,199.54,34.76Z"/><path class="cls-1" d="M199.54,84.68a23,23,0,1,1,23-23A23,23,0,0,1,199.54,84.68Zm0-44.33a21.33,21.33,0,1,0,21.32,21.32A21.35,21.35,0,0,0,199.54,40.35Z"/><path class="cls-1" d="M199.54,79.54A17.87,17.87,0,1,1,217.4,61.67,17.89,17.89,0,0,1,199.54,79.54Zm0-34.05a16.19,16.19,0,1,0,16.18,16.18A16.2,16.2,0,0,0,199.54,45.49Z"/><path class="cls-1" d="M199.54,74.81a13.14,13.14,0,1,1,13.13-13.14A13.15,13.15,0,0,1,199.54,74.81Zm0-24.59A11.46,11.46,0,1,0,211,61.67,11.47,11.47,0,0,0,199.54,50.22Z"/><path class="cls-1" d="M27.57,157.51a.89.89,0,0,1,0-1.77h21v-33l-1.08,0a20,20,0,0,1-19.68-19.9,19.65,19.65,0,0,1,1.66-7.93l.26-.6-.41-.52a12.27,12.27,0,0,1-2.66-7.68,12.41,12.41,0,0,1,7.51-11.4l.75-.32-.09-.8a17.22,17.22,0,0,1-.1-1.89,17.61,17.61,0,0,1,35.22,0c0,.25,0,.52,0,.78l0,.72.63.32a19.8,19.8,0,0,1,11,17.78,20,20,0,0,1-4,11.92l-.44.58.37.63A13,13,0,0,1,59,121.69l-1.71-1.15v35.2h52.37v-22.1l-1.06,0c-10.6-.37-18.1-1.85-25.88-5.07a.9.9,0,0,1-.54-.87.89.89,0,0,1,.63-.8c7.65-2.31,15.36-9.5,19.28-13.58l1.3-1.36-1.83-.46a89.17,89.17,0,0,1-10.63-3.39.87.87,0,0,1-.56-.71.9.9,0,0,1,.36-.84c4.59-3.29,10.25-10.24,13.21-14.09L105,91l-1.72-.34c-2.5-.5-5.33-1.21-8.2-2a.88.88,0,0,1-.63-.77A.9.9,0,0,1,95,87c5.24-2.5,13.18-8.77,19.1-17.11a.87.87,0,0,1,.72-.32.88.88,0,0,1,.73.33c5.91,8.33,13.85,14.6,19.1,17.1a.9.9,0,0,1,.5.88.89.89,0,0,1-.64.77c-2.9.85-5.66,1.53-8.19,2l-1.73.34,1.08,1.4c3,3.85,8.61,10.8,13.21,14.09a.9.9,0,0,1,.36.84.89.89,0,0,1-.56.71A89.17,89.17,0,0,1,128,111.46l-1.84.46,1.31,1.36c3.92,4.08,11.64,11.27,19.28,13.58a.89.89,0,0,1,.08,1.67c-7.77,3.22-15.27,4.7-25.87,5.07l-1.06,0v22.1h25.71a.89.89,0,1,1,0,1.77Zm83.86-1.77h6.71V133.68l-3.36,0h-2.24l-1.11,0ZM54.08,121.69a21.55,21.55,0,0,1-2.81.73l-.9.16v33.16h5.15V121.2Zm56.55,10.2c1.35,0,2.75,0,4.15,0s2.82,0,4.15,0H119c9.34-.22,16-1.19,22.41-3.25l2.51-.8-2.34-1.21c-9.39-4.84-17.41-14.32-17.75-14.72a.88.88,0,0,1,.51-1.44,82.75,82.75,0,0,0,10.39-2.86l1.76-.6-1.38-1.25c-6-5.38-12.17-13.93-12.86-14.88a.89.89,0,0,1,.61-1.4,63.54,63.54,0,0,0,6.47-1.29l2.44-.59-2.09-1.39a62.51,62.51,0,0,1-14-13.17l-.87-1.1-.86,1.1a62.76,62.76,0,0,1-14,13.17L97.79,87.6l2.44.59a64,64,0,0,0,6.48,1.29.89.89,0,0,1,.61,1.4c-.27.38-6.74,9.35-12.86,14.88L93.08,107l1.76.6a81.15,81.15,0,0,0,10.38,2.86.88.88,0,0,1,.68.57.91.91,0,0,1-.16.87c-.34.4-8.37,9.88-17.75,14.72l-2.34,1.21,2.5.8c6.37,2.06,13.07,3,22.38,3.25Zm-46.15-34a.88.88,0,0,1,.63.26.89.89,0,0,1,0,1.25l-7.82,7.81v10.9l.56.32a1,1,0,0,1,.21.15,11.11,11.11,0,0,0,8.15,3.53,11.21,11.21,0,0,0,9-17.86.86.86,0,0,1,0-1.1,18.13,18.13,0,0,0-6.69-28.61.89.89,0,0,1-.53-.93,15.83,15.83,0,1,0-31.55-1.94,16,16,0,0,0,.32,3.15.88.88,0,0,1-.63,1,10.68,10.68,0,0,0-7.76,10.24,10.56,10.56,0,0,0,3,7.42.9.9,0,0,1,.15,1,17.93,17.93,0,0,0-2,8.29A18.21,18.21,0,0,0,47.49,121l1.11,0V96.84L40.79,89a.89.89,0,0,1,.62-1.52.92.92,0,0,1,.63.26l8.07,8.08a.88.88,0,0,1,.26.63v24.33l1.34-.3a17.54,17.54,0,0,0,3.15-1l.66-.29v-32a.88.88,0,0,1,.26-.63l8.07-8.07a.89.89,0,0,1,.63-.26.88.88,0,0,1,.63.26.89.89,0,0,1,0,1.25l-7.82,7.82v17.1l6.56-6.56A.88.88,0,0,1,64.48,97.9Z"/></g></svg>