<svg xmlns="http://www.w3.org/2000/svg" xmlns:xlink="http://www.w3.org/1999/xlink" viewBox="0 0 350 80"><defs><style>.cls-1{fill:none;}.cls-2{clip-path:url(#clip-path);}.cls-3{fill:#00de76;}</style><clipPath id="clip-path"><rect class="cls-1" x="-1144.67" y="-778.97" width="1920" height="600"/></clipPath></defs><g id="bg"><g class="cls-2"><image width="1960" height="1470" transform="translate(-1164.67 -1244.39)" xlink:href="../images/aaa.jpg"/></g></g><g id="Layer_3" data-name="Layer 3"><polygon class="cls-3" points="120.05 47.19 120.05 46.08 170.82 46.08 170.82 20.59 120.05 20.59 120.05 19.49 171.93 19.49 171.93 47.19 120.05 47.19"/><rect class="cls-3" x="190.16" y="26.74" width="3.52" height="1.1"/><rect class="cls-3" x="185.33" y="26.74" width="1.1" height="1.1"/><path class="cls-3" d="M212.48,66.53a7.82,7.82,0,0,1-7.69-6.69l-.08-.57h-11v2.42H168.4V59.27h-6.18l-.08.57a7.76,7.76,0,0,1-15.38,0l-.08-.57h-3.8l-.09.57a7.76,7.76,0,0,1-15.37,0l-.08-.57h-7.29v-1.1h7.29l.08-.56a7.76,7.76,0,0,1,15.37,0l.09.56h3.8l.08-.56a7.76,7.76,0,0,1,15.38,0l.08.56h6.18V50.92h7.26V18.83A4,4,0,0,0,172,14.58V13.47a5.2,5.2,0,0,1,4.73,5.36V50.92h3.73v-29h16l9.67,9.68h2.21l2.38,7.13,16.78,4.79v9.84H230v5.93h-9.71l-.08.57A7.82,7.82,0,0,1,212.48,66.53Zm0-14.51a6.7,6.7,0,1,0,6.7,6.7A6.72,6.72,0,0,0,212.48,52Zm-58,0a6.7,6.7,0,1,0,6.7,6.7A6.71,6.71,0,0,0,154.45,52Zm-19.34,0a6.7,6.7,0,1,0,6.7,6.7A6.71,6.71,0,0,0,135.11,52Zm53.74,8.57h3.73V52h-3.73Zm-19.34,0h18.24V52H169.51Zm43-9.67a7.81,7.81,0,0,1,7.68,6.69l.08.56h6.19V44.33L211,39.93H195V31.58h9.6L196,23H181.6V50.92h12.08v7.25h11l.08-.56A7.81,7.81,0,0,1,212.48,50.92ZM196.1,38.83h13.53l-2-6.15H196.1Z"/><rect class="cls-3" x="129.72" y="24.32" width="1.1" height="1.1"/><rect class="cls-3" x="134.56" y="24.32" width="32.53" height="1.1"/><path class="cls-3" d="M135.11,61.69a3,3,0,1,1,3-3A3,3,0,0,1,135.11,61.69Z"/><path class="cls-3" d="M154.45,61.69a3,3,0,1,1,3-3A3,3,0,0,1,154.45,61.69Z"/><path class="cls-3" d="M212.48,61.69a3,3,0,1,1,3-3A3,3,0,0,1,212.48,61.69Z"/><path class="cls-3" d="M277.11,48.22a1.22,1.22,0,0,1-.85-.35,1.2,1.2,0,0,1,0-1.7l7.59-7.59L276.26,31a1.2,1.2,0,0,1,0-1.7,1.22,1.22,0,0,1,1.7,0l8.43,8.44a1.2,1.2,0,0,1,0,1.7L278,47.87A1.22,1.22,0,0,1,277.11,48.22Z"/><path class="cls-3" d="M285.17,48.22a1.2,1.2,0,0,1-.85-2l7.59-7.59L284.32,31a1.2,1.2,0,1,1,1.69-1.7l8.44,8.44a1.2,1.2,0,0,1,0,1.7L286,47.87A1.2,1.2,0,0,1,285.17,48.22Z"/><path class="cls-3" d="M293.22,48.22a1.22,1.22,0,0,1-.85-.35,1.2,1.2,0,0,1,0-1.7L300,38.58,292.37,31a1.2,1.2,0,0,1,0-1.7,1.22,1.22,0,0,1,1.7,0l8.44,8.44a1.2,1.2,0,0,1,0,1.7l-8.44,8.44A1.2,1.2,0,0,1,293.22,48.22Z"/><path class="cls-3" d="M301.28,48.22a1.2,1.2,0,0,1-.85-2L308,38.58,300.43,31a1.2,1.2,0,0,1,0-1.7,1.22,1.22,0,0,1,1.7,0l8.43,8.44a1.2,1.2,0,0,1,0,1.7l-8.43,8.44A1.24,1.24,0,0,1,301.28,48.22Z"/><path class="cls-3" d="M309.33,48.22a1.2,1.2,0,0,1-.84-2l7.58-7.59L308.49,31a1.2,1.2,0,0,1,1.69-1.7l8.44,8.44a1.2,1.2,0,0,1,0,1.7l-8.44,8.44A1.2,1.2,0,0,1,309.33,48.22Z"/><path class="cls-3" d="M317.39,48.22a1.22,1.22,0,0,1-.85-.35,1.2,1.2,0,0,1,0-1.7l7.59-7.59L316.54,31a1.2,1.2,0,0,1,0-1.7,1.22,1.22,0,0,1,1.7,0l8.44,8.44a1.22,1.22,0,0,1,0,1.7l-8.44,8.44A1.22,1.22,0,0,1,317.39,48.22Z"/><path class="cls-3" d="M24.17,48.22a1.24,1.24,0,0,1-.85-.35,1.22,1.22,0,0,1,0-1.7l7.59-7.59L23.32,31a1.2,1.2,0,0,1,1.7-1.7l8.44,8.44a1.2,1.2,0,0,1,0,1.7L25,47.87A1.2,1.2,0,0,1,24.17,48.22Z"/><path class="cls-3" d="M32.23,48.22a1.22,1.22,0,0,1-.85-.35,1.2,1.2,0,0,1,0-1.7L39,38.58,31.38,31a1.2,1.2,0,0,1,0-1.7,1.22,1.22,0,0,1,1.7,0l8.43,8.44a1.2,1.2,0,0,1,0,1.7l-8.43,8.44A1.22,1.22,0,0,1,32.23,48.22Z"/><path class="cls-3" d="M40.29,48.22a1.2,1.2,0,0,1-.85-2L47,38.58,39.44,31a1.2,1.2,0,1,1,1.69-1.7l8.44,8.44a1.2,1.2,0,0,1,0,1.7l-8.44,8.44A1.2,1.2,0,0,1,40.29,48.22Z"/><path class="cls-3" d="M48.34,48.22a1.22,1.22,0,0,1-.85-.35,1.2,1.2,0,0,1,0-1.7l7.59-7.59L47.49,31a1.2,1.2,0,0,1,0-1.7,1.22,1.22,0,0,1,1.7,0l8.44,8.44a1.2,1.2,0,0,1,0,1.7l-8.44,8.44A1.2,1.2,0,0,1,48.34,48.22Z"/><path class="cls-3" d="M56.4,48.22a1.2,1.2,0,0,1-.85-2l7.59-7.59L55.55,31a1.2,1.2,0,0,1,0-1.7,1.22,1.22,0,0,1,1.7,0l8.43,8.44a1.2,1.2,0,0,1,0,1.7l-8.43,8.44A1.24,1.24,0,0,1,56.4,48.22Z"/><path class="cls-3" d="M64.45,48.22a1.2,1.2,0,0,1-.84-2l7.58-7.59L63.61,31a1.2,1.2,0,0,1,1.69-1.7l8.44,8.44a1.2,1.2,0,0,1,0,1.7L65.3,47.87A1.2,1.2,0,0,1,64.45,48.22Z"/></g></svg>