<svg xmlns="http://www.w3.org/2000/svg" xmlns:xlink="http://www.w3.org/1999/xlink" viewBox="0 0 350 80"><defs><style>.cls-1{fill:none;}.cls-2{clip-path:url(#clip-path);}.cls-3{fill:#00de76;}</style><clipPath id="clip-path"><rect class="cls-1" x="-1147.17" y="-949.46" width="1920" height="600"/></clipPath></defs><g id="bg"><g class="cls-2"><image width="1960" height="1470" transform="translate(-1167.17 -1414.88)" xlink:href="../images/aaa.jpg"/></g></g><g id="Layer_3" data-name="Layer 3"><g id="_26" data-name="26"><path class="cls-3" d="M139.81,68.23a.35.35,0,0,1-.35-.35V66.09a3.74,3.74,0,0,1,1.82-3.19l.46-.27V25.1a3.89,3.89,0,0,1,3.89-3.89h11.88V14.55a2.79,2.79,0,0,1,2.78-2.78h2.86a2.79,2.79,0,0,1,2.79,2.78v6.66h22.45V14.55a2.79,2.79,0,0,1,2.79-2.78H194a2.79,2.79,0,0,1,2.78,2.78v6.66h7.55a3.89,3.89,0,0,1,3.89,3.89V62.63l.46.27a3.74,3.74,0,0,1,1.82,3.19v1.79a.35.35,0,0,1-.35.35Zm3.36-5.15a3,3,0,0,0-3,3v1.44h69.68V66.09a3,3,0,0,0-3-3Zm-.73-.7h65.12V27.63l-1.15.27H160.79V58.44a.35.35,0,0,1-.35.35.34.34,0,0,1-.35-.35V27.56a.35.35,0,0,1,.35-.35h46l1.15.26V25.1a3.19,3.19,0,0,0-3.19-3.19H145.63a3.19,3.19,0,0,0-3.19,3.19v2.11h12.85a.35.35,0,0,1,.35.35V58.44a.35.35,0,1,1-.7,0V27.91h-12.5Zm48.74-49.91a2.08,2.08,0,0,0-2.08,2.08v6.66h7V14.55A2.08,2.08,0,0,0,194,12.47Zm-30.89,0a2.08,2.08,0,0,0-2.07,2.08v6.66h7V14.55a2.08,2.08,0,0,0-2.08-2.08Z"/><path class="cls-3" d="M166.44,39.06a.35.35,0,0,1-.35-.35.35.35,0,0,1,.35-.35h5.15a.35.35,0,0,1,.35.35.35.35,0,0,1-.35.35Z"/><path class="cls-3" d="M198.18,41.64a.35.35,0,0,1-.35-.35V39.06h-2.22a.34.34,0,0,1-.35-.35.35.35,0,0,1,.35-.35h2.22V36.14a.35.35,0,0,1,.35-.35.35.35,0,0,1,.35.35v2.22h2.23a.35.35,0,0,1,.35.35.35.35,0,0,1-.35.35h-2.23v2.23A.35.35,0,0,1,198.18,41.64Z"/><path class="cls-3" d="M183.12,57.21a2.34,2.34,0,0,1-1.14-.35l-.14-.28h-.28c-.9-.77-.53-2,1.33-6.94l.92-2.43-1.37,0h-1.1c-2.27,0-3.21-.23-3.93-1.56a2.94,2.94,0,0,1,.13-3l5.7-9.13a2.94,2.94,0,0,1,2.33-1.34,1.68,1.68,0,0,1,.81.2c1,.58,1.07,2.13.09,4.26l0,.06-2,5.49,1.36,0h1.06c2.31,0,3.26.23,4,1.56l.12.21c.85,1.53.86,1.56-4.24,9.31L185,55.89A2.37,2.37,0,0,1,183.12,57.21Zm-1.94-1.29,1.57,1,.29-.45,1,0V56q.13-.16.33-.45l1.72-2.61c3.86-5.86,4.54-7,4.53-7.74v-.09l0-.1a2.73,2.73,0,0,0-.29-.64l-.13-.24c-.59-1.08-1.39-1.18-3.35-1.18H183.9a.34.34,0,0,1-.29-.14.35.35,0,0,1,0-.33l2.23-6a4.74,4.74,0,0,0,.65-2.8l-.17-.76-.78,0a2.27,2.27,0,0,0-1.67,1l-5.7,9.13a2.26,2.26,0,0,0-.1,2.29c.59,1.09,1.38,1.19,3.32,1.19h1.1l1.86,0a.35.35,0,0,1,.29.15.34.34,0,0,1,0,.32c-.36,1-.69,1.84-1,2.63l-.11.28a35.06,35.06,0,0,0-1.7,5Z"/></g><path class="cls-3" d="M277.11,49.64a1.22,1.22,0,0,1-.85-.35,1.2,1.2,0,0,1,0-1.7L283.85,40l-7.59-7.59a1.2,1.2,0,0,1,0-1.7,1.22,1.22,0,0,1,1.7,0l8.43,8.44a1.2,1.2,0,0,1,0,1.7L278,49.29A1.22,1.22,0,0,1,277.11,49.64Z"/><path class="cls-3" d="M285.17,49.64a1.2,1.2,0,0,1-.85-2L291.91,40l-7.59-7.59a1.2,1.2,0,1,1,1.69-1.7l8.44,8.44a1.2,1.2,0,0,1,0,1.7L286,49.29A1.2,1.2,0,0,1,285.17,49.64Z"/><path class="cls-3" d="M293.22,49.64a1.22,1.22,0,0,1-.85-.35,1.2,1.2,0,0,1,0-1.7L300,40l-7.59-7.59a1.2,1.2,0,0,1,0-1.7,1.22,1.22,0,0,1,1.7,0l8.44,8.44a1.2,1.2,0,0,1,0,1.7l-8.44,8.44A1.2,1.2,0,0,1,293.22,49.64Z"/><path class="cls-3" d="M301.28,49.64a1.2,1.2,0,0,1-.85-2L308,40l-7.59-7.59a1.2,1.2,0,0,1,0-1.7,1.22,1.22,0,0,1,1.7,0l8.43,8.44a1.2,1.2,0,0,1,0,1.7l-8.43,8.44A1.24,1.24,0,0,1,301.28,49.64Z"/><path class="cls-3" d="M309.33,49.64a1.2,1.2,0,0,1-.84-2L316.07,40l-7.58-7.59a1.2,1.2,0,0,1,1.69-1.7l8.44,8.44a1.2,1.2,0,0,1,0,1.7l-8.44,8.44A1.2,1.2,0,0,1,309.33,49.64Z"/><path class="cls-3" d="M317.39,49.64a1.22,1.22,0,0,1-.85-.35,1.2,1.2,0,0,1,0-1.7L324.13,40l-7.59-7.59a1.2,1.2,0,0,1,0-1.7,1.22,1.22,0,0,1,1.7,0l8.44,8.44a1.22,1.22,0,0,1,0,1.7l-8.44,8.44A1.22,1.22,0,0,1,317.39,49.64Z"/><path class="cls-3" d="M24.17,49.64a1.24,1.24,0,0,1-.85-.35,1.22,1.22,0,0,1,0-1.7L30.91,40l-7.59-7.59a1.2,1.2,0,0,1,1.7-1.7l8.44,8.44a1.2,1.2,0,0,1,0,1.7L25,49.29A1.2,1.2,0,0,1,24.17,49.64Z"/><path class="cls-3" d="M32.23,49.64a1.22,1.22,0,0,1-.85-.35,1.2,1.2,0,0,1,0-1.7L39,40l-7.59-7.59a1.2,1.2,0,0,1,0-1.7,1.22,1.22,0,0,1,1.7,0l8.43,8.44a1.2,1.2,0,0,1,0,1.7l-8.43,8.44A1.22,1.22,0,0,1,32.23,49.64Z"/><path class="cls-3" d="M40.29,49.64a1.2,1.2,0,0,1-.85-2L47,40l-7.59-7.59a1.2,1.2,0,1,1,1.69-1.7l8.44,8.44a1.2,1.2,0,0,1,0,1.7l-8.44,8.44A1.2,1.2,0,0,1,40.29,49.64Z"/><path class="cls-3" d="M48.34,49.64a1.22,1.22,0,0,1-.85-.35,1.2,1.2,0,0,1,0-1.7L55.08,40l-7.59-7.59a1.2,1.2,0,0,1,0-1.7,1.22,1.22,0,0,1,1.7,0l8.44,8.44a1.2,1.2,0,0,1,0,1.7l-8.44,8.44A1.2,1.2,0,0,1,48.34,49.64Z"/><path class="cls-3" d="M56.4,49.64a1.2,1.2,0,0,1-.85-2L63.14,40l-7.59-7.59a1.2,1.2,0,0,1,0-1.7,1.22,1.22,0,0,1,1.7,0l8.43,8.44a1.2,1.2,0,0,1,0,1.7l-8.43,8.44A1.24,1.24,0,0,1,56.4,49.64Z"/><path class="cls-3" d="M64.45,49.64a1.2,1.2,0,0,1-.84-2L71.19,40l-7.58-7.59a1.2,1.2,0,1,1,1.69-1.7l8.44,8.44a1.2,1.2,0,0,1,0,1.7L65.3,49.29A1.2,1.2,0,0,1,64.45,49.64Z"/></g></svg>