<svg xmlns="http://www.w3.org/2000/svg" xmlns:xlink="http://www.w3.org/1999/xlink" viewBox="0 0 270 200"><defs><style>.cls-1{fill:none;}.cls-2{clip-path:url(#clip-path);}.cls-3{fill:#00de76;}</style><clipPath id="clip-path"><rect class="cls-1" x="-591.2" y="-838.25" width="1920" height="600"/></clipPath></defs><g id="bg"><g class="cls-2"><image width="1960" height="1470" transform="translate(-611.2 -1303.67)" xlink:href="../images/aaa.jpg"/></g></g><g id="Layer_1" data-name="Layer 1"><rect class="cls-3" x="205.05" y="27.48" width="2.23" height="8.65"/><rect class="cls-3" x="194.16" y="29.79" width="2.23" height="8.65" transform="translate(3.01 82.38) rotate(-24)"/><rect class="cls-3" x="185.16" y="36.33" width="2.23" height="8.65" transform="translate(31.42 151.88) rotate(-48)"/><rect class="cls-3" x="179.59" y="45.98" width="2.23" height="8.65" transform="translate(77.02 206.62) rotate(-72)"/><rect class="cls-3" x="175.21" y="60.26" width="8.65" height="2.23" transform="translate(-5.43 19.1) rotate(-6)"/><rect class="cls-3" x="178.65" y="70.85" width="8.65" height="2.23" transform="translate(-11.47 101.12) rotate(-30)"/><rect class="cls-3" x="186.1" y="79.13" width="8.65" height="2.23" transform="translate(13.58 187.14) rotate(-54)"/><rect class="cls-3" x="196.27" y="83.65" width="8.65" height="2.23" transform="translate(75.95 263.34) rotate(-77.99)"/><rect class="cls-3" x="210.62" y="80.44" width="2.23" height="8.65" transform="translate(-13 45.86) rotate(-12)"/><rect class="cls-3" x="220.79" y="75.91" width="2.23" height="8.65" transform="translate(-4.79 145.75) rotate(-36)"/><rect class="cls-3" x="228.24" y="67.64" width="2.23" height="8.65" transform="translate(52.35 234.61) rotate(-60)"/><rect class="cls-3" x="231.68" y="57.05" width="2.23" height="8.65" transform="translate(147.42 286.48) rotate(-84)"/><rect class="cls-3" x="227.3" y="49.19" width="8.65" height="2.23" transform="translate(-4.21 74.03) rotate(-18)"/><rect class="cls-3" x="221.74" y="39.55" width="8.65" height="2.23" transform="translate(30.84 161.69) rotate(-41.99)"/><rect class="cls-3" x="212.73" y="33" width="8.65" height="2.23" transform="translate(97.6 218.53) rotate(-66)"/><g id="_9" data-name="9"><path class="cls-3" d="M130.71,172.52a.57.57,0,0,1-.55-.42l-7.82-29.93a.37.37,0,0,1,0-.18,8.82,8.82,0,0,1,4.13-6.86l8.06-5a9.93,9.93,0,0,0,4.35-5.8L144,106a9.86,9.86,0,0,0,.29-4l0-.11-6.92-33.19-1.62.58a7.9,7.9,0,0,0-5.13,8.48l2.51,18.17.47.38a5.62,5.62,0,0,1,1.77,6.53l-6.16,15.44a.57.57,0,0,1-.53.35.52.52,0,0,1-.21,0,.54.54,0,0,1-.3-.3.55.55,0,0,1,0-.43l6.17-15.44a4.56,4.56,0,0,0-2.54-5.92l-.87-.34a5,5,0,0,0-6.53,2.8l-5,12.43a4.31,4.31,0,0,1-3.05,2.59c-7.2,1.63-12.15,10.55-12.27,17.87l1.09,39.57a.56.56,0,0,1-.15.41.55.55,0,0,1-.39.17h0a.56.56,0,0,1-.58-.55l-1.09-39.59c.11-7.73,5.43-17.23,13.15-19a3.15,3.15,0,0,0,2.24-1.91l2-4.94-.27-.64,0-.09-6.15-20.92A9,9,0,0,1,120,73.27L121,73l.15-1a9,9,0,0,1,7.63-7.66l.61-.09a.6.6,0,0,1,.62.44l1.27,6,1.87-1.35a8.79,8.79,0,0,1,4-1.61l.62-.09a.59.59,0,0,1,.61.45l7,33.59a11.06,11.06,0,0,1-.29,4.55L140,124.62a11.07,11.07,0,0,1-4.85,6.46l-8,5a7.75,7.75,0,0,0-3.57,5.59l0,.29,7.81,29.86a.57.57,0,0,1-.4.69ZM119.19,74.8a7.8,7.8,0,0,0-4.29,9.27l6,20.43,2.37-5.94a5.91,5.91,0,0,1,.79-1.4l.38-.51L121,74Zm8.11-8.91a7.91,7.91,0,0,0-5.1,8.5l3.22,21.14L127.1,95a6,6,0,0,1,1.88-.3,6.11,6.11,0,0,1,.86.06l2,.27-2.37-17.09a8.89,8.89,0,0,1,.78-5.05l.22-.46-1.52-7.12Z"/><path class="cls-3" d="M47.54,172.52a.39.39,0,0,1-.15,0,.55.55,0,0,1-.4-.68L54.8,142l0-.29a7.75,7.75,0,0,0-3.57-5.59l-8-5a11,11,0,0,1-4.84-6.46l-5.11-18.33a11.08,11.08,0,0,1-.3-4.51l7-33.63a.56.56,0,0,1,.54-.45l.68.09a8.79,8.79,0,0,1,4,1.61L47,70.75l1.28-6a.56.56,0,0,1,.54-.45l.69.1A9,9,0,0,1,57.15,72l.14,1,.93.27a9,9,0,0,1,6.21,11.11l-6.16,20.93-.08.15L58,106l2,4.94a3.17,3.17,0,0,0,2.25,1.91c6.23,1.41,13,9.36,13.14,19l-1.09,39.62a.55.55,0,0,1-.56.55.57.57,0,0,1-.56-.58l1.09-39.6C74.08,124.65,69,115.6,61.92,114a4.28,4.28,0,0,1-3-2.59L53.92,99a5,5,0,0,0-6.54-2.8l-.86.34A4.56,4.56,0,0,0,44,102.43l6.16,15.44a.55.55,0,0,1-.31.73.52.52,0,0,1-.21,0,.57.57,0,0,1-.53-.35l-6.16-15.44a5.62,5.62,0,0,1,1.77-6.53l.47-.38,2.52-18.17a7.92,7.92,0,0,0-5.14-8.48l-1.62-.58L34,102V102a9.84,9.84,0,0,0,.28,4l5.1,18.34a9.93,9.93,0,0,0,4.35,5.8l8.06,5A8.8,8.8,0,0,1,55.92,142a.47.47,0,0,1,0,.17L48.08,172.1A.56.56,0,0,1,47.54,172.52Zm6.25-75.87.38.51A6,6,0,0,1,55,98.55l2.37,6,6-20.43a7.82,7.82,0,0,0-4.3-9.28L57.24,74Zm-4.53-2a6,6,0,0,1,1.88.3l1.68.54L56,74.38a7.88,7.88,0,0,0-5.1-8.49l-1.62-.59-1.51,7.12.21.46a8.89,8.89,0,0,1,.78,5.05L46.44,95l2-.27A6.11,6.11,0,0,1,49.26,94.69Z"/><path class="cls-3" d="M82.61,128.65a2.72,2.72,0,0,1-1.2-.29,2.53,2.53,0,0,1-1.26-3.24L88.88,102H82.94a4.92,4.92,0,0,1-3.63-1.48,4.69,4.69,0,0,1-.49-5.78l10.52-16c.52-.79,3.37-5.08,6.53-9.82A2.51,2.51,0,0,1,98,67.71a2.56,2.56,0,0,1,1.2.29,2.52,2.52,0,0,1,1.26,3.2L92.57,92.61h5.92a4.93,4.93,0,0,1,3.63,1.48,4.69,4.69,0,0,1,.49,5.78l-10.52,16c-.36.55-4.18,6.57-7.32,11.53A2.52,2.52,0,0,1,82.61,128.65ZM96.74,69.48c-2.43,3.74-4.7,7.18-5.82,8.87l-11.16,17a3.57,3.57,0,0,0,.37,4.4,3.83,3.83,0,0,0,2.81,1.12h6.73a.57.57,0,0,1,.53.76l-3.58,9.64-5.3,14L84,126.56c4.61-7.27,6.89-10.85,7.17-11.28l10.52-16a3.57,3.57,0,0,0-.38-4.4,3.8,3.8,0,0,0-2.8-1.12H91.76a.58.58,0,0,1-.47-.24.57.57,0,0,1-.06-.52l8.18-22.16Z"/></g></g></svg>